<svg viewBox="0 0 330 200" xmlns="http://www.w3.org/2000/svg"><g><g><g><g><g><line x1="41.149001121520996" y1="176.9060001373291" x2="36.149001121520996" y2="176.9060001373291" style="visibility: inherit;" fill="rgb(0, 0, 0)" stroke="rgb(204, 204, 204)" stroke-width="1px"></line><line x1="41.149001121520996" y1="160.823636488481" x2="36.149001121520996" y2="160.823636488481" style="visibility: inherit;" fill="rgb(0, 0, 0)" stroke="rgb(204, 204, 204)" stroke-width="1px"></line><line x1="41.149001121520996" y1="144.7412728396329" x2="36.149001121520996" y2="144.7412728396329" style="visibility: inherit;" fill="rgb(0, 0, 0)" stroke="rgb(204, 204, 204)" stroke-width="1px"></line><line x1="41.149001121520996" y1="128.6589091907848" x2="36.149001121520996" y2="128.6589091907848" style="visibility: inherit;" fill="rgb(0, 0, 0)" stroke="rgb(204, 204, 204)" stroke-width="1px"></line><line x1="41.149001121520996" y1="112.5765455419367" x2="36.149001121520996" y2="112.5765455419367" style="visibility: inherit;" fill="rgb(0, 0, 0)" stroke="rgb(204, 204, 204)" stroke-width="1px"></line><line x1="41.149001121520996" y1="96.4941818930886" x2="36.149001121520996" y2="96.4941818930886" style="visibility: inherit;" fill="rgb(0, 0, 0)" stroke="rgb(204, 204, 204)" stroke-width="1px"></line><line x1="41.149001121520996" y1="80.41181824424051" x2="36.149001121520996" y2="80.41181824424051" style="visibility: inherit;" fill="rgb(0, 0, 0)" stroke="rgb(204, 204, 204)" stroke-width="1px"></line><line x1="41.149001121520996" y1="64.3294545953924" x2="36.149001121520996" y2="64.3294545953924" style="visibility: inherit;" fill="rgb(0, 0, 0)" stroke="rgb(204, 204, 204)" stroke-width="1px"></line><line x1="41.149001121520996" y1="48.2470909465443" x2="36.149001121520996" y2="48.2470909465443" style="visibility: inherit;" fill="rgb(0, 0, 0)" stroke="rgb(204, 204, 204)" stroke-width="1px"></line><line x1="41.149001121520996" y1="32.16472729769619" x2="36.149001121520996" y2="32.16472729769619" style="visibility: inherit;" fill="rgb(0, 0, 0)" stroke="rgb(204, 204, 204)" stroke-width="1px"></line><line x1="41.149001121520996" y1="16.082363648848105" x2="36.149001121520996" y2="16.082363648848105" style="visibility: inherit;" fill="rgb(0, 0, 0)" stroke="rgb(204, 204, 204)" stroke-width="1px"></line><line x1="41.149001121520996" y1="0" x2="36.149001121520996" y2="0" style="visibility: inherit;" fill="rgb(0, 0, 0)" stroke="rgb(204, 204, 204)" stroke-width="1px"></line></g><g transform="translate(31.149001121520996, 0)"><text style="text-anchor: end; visibility: hidden; font-family: Roboto, sans-serif; font-size: 12px; font-weight: 200;" x="0" y="176.9060001373291" dx="0em" dy="0.3em" fill="rgb(33, 33, 33)" stroke="none" stroke-width="1px">0</text><text style="text-anchor: end; visibility: inherit; font-family: Roboto, sans-serif; font-size: 12px; font-weight: 200;" x="0" y="160.823636488481" dx="0em" dy="0.3em" fill="rgb(33, 33, 33)" stroke="none" stroke-width="1px">10</text><text style="text-anchor: end; visibility: hidden; font-family: Roboto, sans-serif; font-size: 12px; font-weight: 200;" x="0" y="144.7412728396329" dx="0em" dy="0.3em" fill="rgb(33, 33, 33)" stroke="none" stroke-width="1px">20</text><text style="text-anchor: end; visibility: inherit; font-family: Roboto, sans-serif; font-size: 12px; font-weight: 200;" x="0" y="128.6589091907848" dx="0em" dy="0.3em" fill="rgb(33, 33, 33)" stroke="none" stroke-width="1px">30</text><text style="text-anchor: end; visibility: hidden; font-family: Roboto, sans-serif; font-size: 12px; font-weight: 200;" x="0" y="112.5765455419367" dx="0em" dy="0.3em" fill="rgb(33, 33, 33)" stroke="none" stroke-width="1px">40</text><text style="text-anchor: end; visibility: inherit; font-family: Roboto, sans-serif; font-size: 12px; font-weight: 200;" x="0" y="96.4941818930886" dx="0em" dy="0.3em" fill="rgb(33, 33, 33)" stroke="none" stroke-width="1px">50</text><text style="text-anchor: end; visibility: hidden; font-family: Roboto, sans-serif; font-size: 12px; font-weight: 200;" x="0" y="80.41181824424051" dx="0em" dy="0.3em" fill="rgb(33, 33, 33)" stroke="none" stroke-width="1px">60</text><text style="text-anchor: end; visibility: inherit; font-family: Roboto, sans-serif; font-size: 12px; font-weight: 200;" x="0" y="64.3294545953924" dx="0em" dy="0.3em" fill="rgb(33, 33, 33)" stroke="none" stroke-width="1px">70</text><text style="text-anchor: end; visibility: hidden; font-family: Roboto, sans-serif; font-size: 12px; font-weight: 200;" x="0" y="48.2470909465443" dx="0em" dy="0.3em" fill="rgb(33, 33, 33)" stroke="none" stroke-width="1px">80</text><text style="text-anchor: end; visibility: inherit; font-family: Roboto, sans-serif; font-size: 12px; font-weight: 200;" x="0" y="32.16472729769619" dx="0em" dy="0.3em" fill="rgb(33, 33, 33)" stroke="none" stroke-width="1px">90</text><text style="text-anchor: end; visibility: hidden; font-family: Roboto, sans-serif; font-size: 12px; font-weight: 200;" x="0" y="16.082363648848105" dx="0em" dy="0.3em" fill="rgb(33, 33, 33)" stroke="none" stroke-width="1px">100</text><text style="text-anchor: end; visibility: hidden; font-family: Roboto, sans-serif; font-size: 12px; font-weight: 200;" x="0" y="0" dx="0em" dy="0.3em" fill="rgb(33, 33, 33)" stroke="none" stroke-width="1px">110</text></g><line x1="41.149001121520996" y1="0" x2="41.149001121520996" y2="176.9060001373291" fill="rgb(0, 0, 0)" stroke="rgb(204, 204, 204)" stroke-width="1px"></line></g></g><g transform="translate(41, 0)" clip-path="url(#clip_0)"><clipPath id="clip_0"><rect width="288" height="176"></rect></clipPath><g><g><g><line x1="0" y1="0" x2="0" y2="176.9060001373291" fill="rgb(0, 0, 0)" stroke="rgb(66, 66, 66)" stroke-width="1px" opacity="0.25"></line><line x1="19.256733258565266" y1="0" x2="19.256733258565266" y2="176.9060001373291" fill="rgb(0, 0, 0)" stroke="rgb(66, 66, 66)" stroke-width="1px" opacity="0.25"></line><line x1="38.51346651713053" y1="0" x2="38.51346651713053" y2="176.9060001373291" fill="rgb(0, 0, 0)" stroke="rgb(66, 66, 66)" stroke-width="1px" opacity="0.25"></line><line x1="57.770199775695815" y1="0" x2="57.770199775695815" y2="176.9060001373291" fill="rgb(0, 0, 0)" stroke="rgb(66, 66, 66)" stroke-width="1px" opacity="0.25"></line><line x1="77.02693303426106" y1="0" x2="77.02693303426106" y2="176.9060001373291" fill="rgb(0, 0, 0)" stroke="rgb(66, 66, 66)" stroke-width="1px" opacity="0.25"></line><line x1="96.28366629282633" y1="0" x2="96.28366629282633" y2="176.9060001373291" fill="rgb(0, 0, 0)" stroke="rgb(66, 66, 66)" stroke-width="1px" opacity="0.25"></line><line x1="115.54039955139159" y1="0" x2="115.54039955139159" y2="176.9060001373291" fill="rgb(0, 0, 0)" stroke="rgb(66, 66, 66)" stroke-width="1px" opacity="0.25"></line><line x1="134.79713280995685" y1="0" x2="134.79713280995685" y2="176.9060001373291" fill="rgb(0, 0, 0)" stroke="rgb(66, 66, 66)" stroke-width="1px" opacity="0.25"></line><line x1="154.05386606852213" y1="0" x2="154.05386606852213" y2="176.9060001373291" fill="rgb(0, 0, 0)" stroke="rgb(66, 66, 66)" stroke-width="1px" opacity="0.25"></line><line x1="173.3105993270874" y1="0" x2="173.3105993270874" y2="176.9060001373291" fill="rgb(0, 0, 0)" stroke="rgb(66, 66, 66)" stroke-width="1px" opacity="0.25"></line><line x1="192.56733258565265" y1="0" x2="192.56733258565265" y2="176.9060001373291" fill="rgb(0, 0, 0)" stroke="rgb(66, 66, 66)" stroke-width="1px" opacity="0.25"></line><line x1="211.82406584421796" y1="0" x2="211.82406584421796" y2="176.9060001373291" fill="rgb(0, 0, 0)" stroke="rgb(66, 66, 66)" stroke-width="1px" opacity="0.25"></line><line x1="231.08079910278326" y1="0" x2="231.08079910278326" y2="176.9060001373291" fill="rgb(0, 0, 0)" stroke="rgb(66, 66, 66)" stroke-width="1px" opacity="0.25"></line><line x1="250.33753236134848" y1="0" x2="250.33753236134848" y2="176.9060001373291" fill="rgb(0, 0, 0)" stroke="rgb(66, 66, 66)" stroke-width="1px" opacity="0.25"></line><line x1="269.59426561991376" y1="0" x2="269.59426561991376" y2="176.9060001373291" fill="rgb(0, 0, 0)" stroke="rgb(66, 66, 66)" stroke-width="1px" opacity="0.25"></line><line x1="288.850998878479" y1="0" x2="288.850998878479" y2="176.9060001373291" fill="rgb(0, 0, 0)" stroke="rgb(66, 66, 66)" stroke-width="1px" opacity="0.25"></line></g><g><line x1="0" y1="176.9060001373291" x2="288.850998878479" y2="176.9060001373291" fill="rgb(0, 0, 0)" stroke="rgb(66, 66, 66)" stroke-width="1px" opacity="0.25"></line><line x1="0" y1="160.823636488481" x2="288.850998878479" y2="160.823636488481" fill="rgb(0, 0, 0)" stroke="rgb(66, 66, 66)" stroke-width="1px" opacity="0.25"></line><line x1="0" y1="144.7412728396329" x2="288.850998878479" y2="144.7412728396329" fill="rgb(0, 0, 0)" stroke="rgb(66, 66, 66)" stroke-width="1px" opacity="0.25"></line><line x1="0" y1="128.6589091907848" x2="288.850998878479" y2="128.6589091907848" fill="rgb(0, 0, 0)" stroke="rgb(66, 66, 66)" stroke-width="1px" opacity="0.25"></line><line x1="0" y1="112.5765455419367" x2="288.850998878479" y2="112.5765455419367" fill="rgb(0, 0, 0)" stroke="rgb(66, 66, 66)" stroke-width="1px" opacity="0.25"></line><line x1="0" y1="96.4941818930886" x2="288.850998878479" y2="96.4941818930886" fill="rgb(0, 0, 0)" stroke="rgb(66, 66, 66)" stroke-width="1px" opacity="0.25"></line><line x1="0" y1="80.41181824424051" x2="288.850998878479" y2="80.41181824424051" fill="rgb(0, 0, 0)" stroke="rgb(66, 66, 66)" stroke-width="1px" opacity="0.25"></line><line x1="0" y1="64.3294545953924" x2="288.850998878479" y2="64.3294545953924" fill="rgb(0, 0, 0)" stroke="rgb(66, 66, 66)" stroke-width="1px" opacity="0.25"></line><line x1="0" y1="48.2470909465443" x2="288.850998878479" y2="48.2470909465443" fill="rgb(0, 0, 0)" stroke="rgb(66, 66, 66)" stroke-width="1px" opacity="0.25"></line><line x1="0" y1="32.16472729769619" x2="288.850998878479" y2="32.16472729769619" fill="rgb(0, 0, 0)" stroke="rgb(66, 66, 66)" stroke-width="1px" opacity="0.25"></line><line x1="0" y1="16.082363648848105" x2="288.850998878479" y2="16.082363648848105" fill="rgb(0, 0, 0)" stroke="rgb(66, 66, 66)" stroke-width="1px" opacity="0.25"></line><line x1="0" y1="0" x2="288.850998878479" y2="0" fill="rgb(0, 0, 0)" stroke="rgb(66, 66, 66)" stroke-width="1px" opacity="0.25"></line></g></g></g><g><g><line x1="0" y1="176.9060001373291" x2="288.850998878479" y2="176.9060001373291" fill="rgb(0, 0, 0)" stroke="rgb(153, 153, 153)" stroke-width="1.5px"></line></g></g><g><g><line x1="19.256733258565266" y1="0" x2="19.256733258565266" y2="176.9060001373291" fill="rgb(0, 0, 0)" stroke="rgb(153, 153, 153)" stroke-width="1.5px"></line></g></g><g><g><g><g><g><path style="fill: none;" stroke="rgb(255, 112, 67)" stroke-width="2px" d="M19.256733258565266,31.410866501656454L19.267404698246057,32.66730116172271L19.295808379802438,29.590318320744135L19.299338780899845,28.232825890900628L19.30458089162023,27.322440324660825L19.324131824970245,26.507431181550924L19.350556342275055,26.146872190910866L19.3558251984583,25.6304112618734L19.414397762119773,22.787691883002733L19.42902753030371,22.61740022091227L19.436382532589967,22.21324432812252L19.472756362078368,21.06508480952267L19.52541817844797,20.075852066689368L19.530874252871232,20.08670156655756L19.547162239752435,19.59039554469285L19.567274827822494,19.594390732715627L19.576341539731732,19.79785070302972L19.579952177217713,19.81937965991653L19.683831554962527,19.631253838327886L19.692925012334634,19.015793442771205L19.72023212991379,18.84756556284829L19.73125126061175,19.249211675862274L19.740478445298145,18.88710256061921L19.7532627765448,18.770354170765362L19.76420167085418,18.700305490901037L19.822212579795607,18.155701689111805L19.851498861626343,17.627910251232763L19.8551897355009,17.71329507235032L19.86976601275912,17.563496311781638L19.891563564989305,17.373102295738267L19.907931788259084,17.761439843740682L19.922427829128726,17.29083887394074L19.951714110959458,17.10899309363609L19.958962131394284,17.301429958066244L20.08070747832899,17.014832975062816L20.08252616980341,16.64184524072977L20.11339043394283,16.719596922874178L20.118819762903236,16.56521838549582L20.12430258278935,16.673620809494164L20.151395736665638,16.6381474907989L20.15682506562604,16.616863499612105L20.1586170116376,16.8051226506183L20.200099224532092,16.81756336832971L20.234386907917482,16.523483480486107L20.27236546517743,16.347035547812567L20.303096002002558,16.341681561031777L20.312537150391826,16.237954396154407L20.38801284658026,16.27623287003805L20.406092779473024,16.198685181561032L20.416924691930966,16.252671341281577L20.42962878678905,16.184548264307885L20.431447478263465,16.143674418123855L20.458567377602613,16.320179656024433L20.49117009682788,16.22505325315382L20.49478073431386,16.26849218423687L20.51665852293262,16.19404077008132L20.529335872327838,16.149369921588008L20.531154563802264,16.223082185297347L20.534791946751103,16.16679477071765L20.540194530248645,16.233537094775166L20.543805167734625,16.17306771640433L20.58911198181797,16.23730086218716L20.607165169247878,16.175325976851536L20.638056178850157,16.238655818455495L20.68499446616791,16.27665372341782L20.69224248660273,16.198937693589937L20.69949050703755,16.152308075693227L20.713906311518617,16.12433030495519L20.730221043862677,16.10754364251237L20.777132585717574,16.097471645046653L20.784380606152396,16.091428446567207L20.800641847570738,16.08780252747957L20.807889868005564,16.085626976026955L20.811500505491544,16.084321645155423L20.815111142977525,16.083538446632478L20.827788492372743,16.083068527518744L20.836801713356266,16.082786576050484L20.840412350842247,16.183132177974848L20.84945231728863,16.142824766324154L20.85311644570033,16.118640319333725L20.86041795706087,16.104129651139495L20.86766597749569,16.296452795833552L20.87865836273079,16.210817137039374L20.880503799668066,16.259950514568164L20.922306958116867,16.18891576828014L20.929554978551685,16.146294920507337L21.01174378591776,16.120722411843648L21.024073444295812,16.10537890664542L21.034691393050885,16.09617280352651L21.05932396434413,16.191163914460446L21.06638476653894,16.147643808215502L21.078821406768427,16.12153174446853L21.08237855332869,16.20637927902568L21.09304999300948,16.156773026954667L21.096607139569745,16.127009275712055L21.144187317996117,16.10915102496649L21.145952518544817,16.09843607451913L21.163631269494694,16.092007104250722L21.16890012567794,16.088149722089693L21.18473343969054,16.085835292793053L21.191820987348205,16.08444663521509L21.19890853500587,16.083613440668305L21.21492906725848,16.183628296745518L21.216721013270043,16.14312243758655L21.227365707487973,16.21933369489649L21.229130908036677,16.16454567647713L21.23806389263162,16.131672865425543L21.270024720748268,16.312978724405166L21.275347067857233,16.220732694182363L21.291340854646982,16.165385076048675L21.36724447824116,16.23269127797374L21.390325812688584,16.172560226323498L21.40094376144365,16.136481595333365L21.406266108552618,16.114834416739264L21.40985000057574,16.202360882388106L21.416964293696264,16.154361988972116L21.42763573337705,16.125562652922508L21.43651522704628,16.10828305129274L21.454220723459017,16.19843006312018L21.464811926751228,16.15200349741136L21.473611184031878,16.12414755798606L21.491316680444612,16.20794876713618L21.588268983308918,16.157714719820937L21.595356530966583,16.12757429143183L21.597148476978145,16.109490034398352L21.598913677526845,16.199154252983554L21.63082101471777,16.252952784134674L21.653875603702335,16.18471713002006L21.677010429075473,16.244290510356592L21.745933486863418,16.17951976575318L21.76730311168786,16.14065731899117L21.786907535963593,16.217854623739253L21.79222988307255,16.264173006588102L21.79752548471866,16.291964036297422L21.83288298661841,16.208123881317672L21.843581171762057,16.157819788329867L21.85596432106583,16.22815210534248L21.86660901528376,16.169836722744733L55.73096521453946,25.38220659127376L55.736287561648425,28.59778873786925L55.75583849499844,28.516842569720527L56.90787256219211,80.3338976363664L56.91322165476392,111.42413067635394L56.914986855312634,129.77672618193057L56.99939553609601,87.01288003444068L57.00463764681639,62.56074961961039L57.009879757536794,46.683294097048595L57.01164495808548,37.156820783511535L57.05029215191692,30.938362931362768L57.093566310822965,27.106773447268242L57.09706996645751,24.506275438395587L57.11121831630998,22.44340276904549L57.11833260943051,21.70825303146195L57.16224865944518,20.865104097690626L57.16401385999388,20.459729510233114L57.18316361140101,20.81959339459043L57.19712474301348,20.53293786117833L57.204158799745414,20.662488859546958L57.20766245537996,20.13713082173632L57.28597317063146,19.62088645343934L57.29300722736341,19.31113983246117L57.336976768303806,19.527350951095443L57.36503275884301,18.953474212638923L57.36677121392886,19.4132663520074L57.39319573123366,18.784508680380778L57.40020304250276,18.909827941431317L57.428553233133414,18.281416088424525L57.43029168821926,18.205913295036382L57.49111087076091,17.859067300587558L57.499883382578695,17.751474476723576L57.508655894396476,17.4858892367946L57.513924750579726,17.527567638447803L57.52269726239752,17.251030361023837L57.527992864043625,16.884078448958856L57.549041543313756,17.065966392941075L57.563163147703364,17.47664347774629L57.57551955154428,17.42150541021354L57.58787595538519,16.885848705667367L57.60373601486066,17.067028546966167L57.61082356251831,16.974706906134845L57.61432721815286,17.120343467246663L57.61783087378741,17.107210631108444L57.6231264754335,16.797786611009617L57.6576816134475,16.813161744560908L57.673541672922944,17.0234163703023L57.691086696558536,16.747510054525932L57.698120753290475,16.782995810670702L57.701624408925035,16.70377249155227L57.70689326510826,16.5557237272759L57.715692522388906,16.567409241515385L57.720934633109316,16.775450095669687L57.722699833658005,16.799759835356948L57.757789880929174,16.814345679169325L57.77356970401605,16.521552867040842L57.78410741638255,16.34587717976375L57.79635683837203,16.24047176739749L57.79809529345786,16.478772838393642L57.83623432349497,16.320209162575434L57.84869770918731,16.325585729889795L57.885633193395755,16.228296897473133L57.8926672501277,16.270438370828405L57.91042623746616,16.396238027646906L57.91748703966096,16.270688276127384L57.934443663113655,16.295873198020974L57.95725754293247,16.310984151157125L57.962553144578585,16.420565495844127L57.973064111482216,16.285284757045716L57.97656776711676,16.40514585937728L58.05987988392291,16.27603297516559L58.0704175962894,16.19856524463861L58.100399260154475,16.25259937912772L58.117997774715775,16.285019859821176L58.12323988543616,16.30447214823723L58.12674354107072,16.316143521286886L58.15816945993018,16.32314634511668L58.182882267611994,16.327348039414556L58.18638592324654,16.32986905599328L58.240090812667646,16.230866893135207L58.2471248693996,16.171465595420365L58.26129996471493,16.13582481679149L58.29117464672857,16.214955122419415L58.30168561363221,16.26243330579619L58.34388995402389,16.19040544301696L58.366703833842706,16.147188725349405L58.37191919910024,16.12125869474888L58.39580289743345,16.306730221999196L58.399279807605126,16.21698359273876L58.4027567177768,16.263650387987806L58.409790774508764,16.291650465137227L58.41677134031499,16.207935738621604L58.428994016841614,16.258221675517515L58.45512433405496,16.187878464849735L58.51484695261937,16.14567253844909L58.52193450027705,16.120348982608704L58.53429090411795,16.10515484910449L58.55017770905627,16.19655314180723L58.593371631573746,16.150877344623588L58.610996891597914,16.1234718663134L58.61450054723245,16.10702857932727L58.61803094832985,16.097162607135612L58.62683020561052,16.091243023820617L58.63212580725661,16.08769127383162L58.64622066618336,16.286589769448828L58.653254722915314,16.20489932120855L58.68837151564934,16.155885052264377L58.697117282004264,16.226991263703177L58.69885573709011,16.169140217761157L58.702412883650375,16.13442959019592L58.707681739833625,16.113603213656777L58.7146890511027,16.10110738773332L58.71645425165141,16.093609892179238L58.72875716456661,16.089111394846775L58.73399927528698,16.18692706925261L58.74277178710479,16.346131246701407L58.79861631355462,16.240624207560092L58.8164287918188,16.277834756880605L58.82707348603673,16.199646313667607L58.83763794386607,16.1527332477398L58.84464525513517,16.12458540818313L58.86569393440529,16.208211477254423L58.867432389491135,16.157872345891896L58.91124145765437,16.127668867074373L58.927048026204105,16.109546779783884L59.011189252358896,16.199188300214853L59.01295445290761,16.152458439668166L59.01648485400501,16.12442052334015L59.04119766168682,16.107597773543333L59.09377924166785,16.198018896470558L59.10784735513175,16.151756797421577L59.142562965922885,16.12399953799219L59.14606662155743,16.207859955139856L59.14954353172912,16.258176205428466L59.15828929808404,16.18785118279634L59.202098366247284,16.14565616921705L59.203836821333134,16.12033916106947L59.22135509950585,16.105148956180948L59.224858755140396,16.096034833247813L59.233577776032476,16.09056635948792L59.25818360186285,16.087285275232002L59.268721314229346,16.085316624678455L59.28450113731623,16.084135434346315L59.332883679628374,16.08342672014703L59.339864245434605,16.08300149162745L59.34336790106914,16.18326112732103L59.36626201727655,16.243416908737178L59.387417678398116,16.178995604781537L59.40851984859396,16.14034282240816L59.42614510861812,16.117151152984157L59.436682820984615,16.103236151329753L59.46666448484969,16.195401923142388L59.477228942679034,16.15018661342468L59.47899414322774,16.123057427594063L107.3488794232894,51.990553807588014L107.35952411750733,49.186476616701626L107.36840361117655,43.88549848117895L107.40935091481386,37.488438870095735L107.42181430050621,32.1424815113663L107.43074728510115,29.73902527857104L107.4538018740857,27.492833356451513L107.46626525977805,26.547177294400964L107.49287699532289,25.17566547472824L107.5369535181147,23.74966974609279L107.54230261068655,21.98943935366384L107.56709565475693,21.335360209427662L107.56886085530564,20.84239795008065L107.57239125640304,21.250224004109555L107.62922536497867,21.79646395494279L107.63099056552737,21.11906019738972L107.63278251153892,21.114677034079104L107.64524589723129,20.307928953650297L107.664663103267,20.426968742224844L107.7139817367792,19.895303978537772L107.72288797591129,19.073731256299013L107.79913929052263,18.48027285015045L107.81515982277526,18.928315988903726L107.83134082780504,18.694568008129178L107.84195877656009,18.353289674053865L107.84904632421777,18.349552219219277L107.90170814058736,18.045765427902605L107.90523854168477,17.76297858030731L107.90700374223348,17.794336017360727L107.99018213172532,18.0141800252034L108.00438397250352,17.643512565882503L108.04530453067797,17.52162686309523L108.08419243367513,17.046436350201695L108.09138696318423,16.962351588076178L108.09850125630476,16.71087118519025L108.10029320231631,16.660497716263997L108.11981739020347,16.63027363490824L108.12511299184959,16.61213918609479L108.1392880871649,16.802288062417336L108.14458368881103,16.715347842600245L108.18793808410565,16.562668937904675L108.19499888630047,16.672091140697944L108.19852928739788,16.536714916763295L108.24814212100152,16.455489182402523L108.31171608621764,16.607783287396657L108.33832782176248,16.397615431977233L108.35244942615209,16.57305903714147L108.36130217435846,16.477295654629437L108.37015492256482,16.620867170732794L108.3772424702225,16.80752485320013L108.38074612585704,16.517460371459336L108.40912306195055,16.44393645522014L108.46486060654897,16.29930733267134L108.46662580709766,16.212529859142045L108.47900895640144,16.16046337502447L108.48435804897325,16.229738257359234L108.52691008038211,16.27130318676008L108.53223242749108,16.296242144400605L108.54461557679484,16.31120551898491L108.54993792390381,16.521213089346098L108.55170312445252,16.345673313146882L108.55526027101277,16.24034944742737L108.55702547156149,16.277669900800976L108.60144968537048,16.300062172825132L108.61738998123452,16.31349753603962L108.68286287431364,16.221043981163014L108.69719844240612,16.26608662104235L108.7219379955508,16.192597432164664L108.72370319609952,16.14850391883805L108.75371160542744,16.122047810842073L108.80530360328268,16.206688918849792L108.80886074984294,16.156958810849115L108.8493266351488,16.227635518854026L108.87952226271673,16.16952677085165L108.88840175638596,16.235176294855528L108.92739664123455,16.174051236452552L108.93271898834351,16.137376201410785L108.94165197293846,16.11537118038573L108.9612563972142,16.102168167770692L108.96478679831162,16.094246360201655L108.97722343854109,16.08949327566022L108.98792162368474,16.086641424935376L109.00035826391424,16.08493031450045L109.03370985609955,16.0839036482395L109.03900545774565,16.183802421288263L109.06904061253645,16.24374168511749L109.09027651004659,16.17919047060975L109.09559885715555,16.14045974190509L109.10800875192217,16.11722130468229L109.13635894255286,16.103278242348622L109.13988934365025,16.094912404948424L109.15069451064534,16.089892902508307L109.15794253108017,16.086881201044243L109.18853934059099,16.18558895297107L109.24334079398933,16.244813604127184L109.28361946105517,16.17983362201557L109.31852229008629,16.14084563274859L109.32210618210942,16.117452839188402L109.32590403783543,16.203931935857597L109.3312263849444,16.155304621053812L109.33678944121908,16.22664300497684L109.36824210554141,16.16893126252536L109.38784652981714,16.134304217054442L109.43539996278064,16.113527989771914L109.48822225192743,16.10106225340239L109.49175265302482,16.194097584385975L109.53411746619366,16.24991878297614L109.54123175931419,16.182896729324938L109.54478890587444,16.24319826993951L109.55543360009237,16.178864421502944L109.56075594720134,16.14026411244099L109.5643130937616,16.217618699809133L109.60293354213016,16.16351667942473L109.61537018235967,16.131055467194095L109.63834453495565,16.1115787398557L109.65249288480811,16.099892703452653L109.67536025555266,16.092881081610834L109.67899763850151,16.08867410850575L109.68434673107332,16.0861499246427L109.70571635589775,16.185150187130176L109.71285739448113,16.14403557181734L109.72171014268751,16.119366802629635L109.72526728924778,16.104565541117026L109.74297278566051,16.095684784209453L109.75003358785531,16.090356330064903L109.82401153812364,16.087159257578183L109.83286428633001,16.18575578689145L109.84527418109664,16.144398931674132L109.92310347801669,16.119584818543704L109.93719833694344,16.10469635066548L109.94955474078435,16.196278042743838L122.76747828879401,74.24825096664931L122.79310044221303,108.77789040257669L122.80711506475123,129.39515929132781L122.82115643275226,140.65985812372017L122.87280192153322,147.6197069687662L122.89861129319226,153.20282309506803L122.9103525513874,156.25114845243323L122.93148146704613,159.28632094051594L122.93380832231485,158.59455511323304L122.96167709461406,160.49133539138523L123.01158412830918,161.22734446705536L123.01869842142969,160.864831730015L123.04228791967144,159.3406320413219L123.15346880877681,159.33074518335374L123.1653170488234,159.72687215979406L123.16767064955499,158.95940061760524L123.1914206205739,159.80560973876084L123.3865020266683,159.911276120233L123.41212418008733,159.77364640350572L123.41442428989322,160.2941572103011L123.41913149135644,158.69668301107765L123.4237852018939,159.2459200836231L123.43076576770015,157.56516687104434L123.43311936843175,157.36083312593948L123.5157093577407,158.94698401656672L123.52745061593586,158.69249727727941L123.5344846726678,158.74083477931765L123.55315300574345,159.67447023578828L123.57888214101393,160.23465150967067L123.59993082028406,160.0681864099736L123.60699162247886,157.25440848441224L123.60931847774762,158.58158491323445L123.6445957432588,158.67428736089067L123.682146373113,159.936086103148L123.69616099565117,158.68286989239638L123.70552190765186,157.4283663019189L123.75088221266093,157.47978233007484L123.75564290504985,157.9126910381896L123.77674507524571,158.47398058147436L123.78615947817211,158.2076656706134L123.80025433709886,158.04787672409682L123.81202234075685,159.3592101754611L123.87364388718427,158.93983297261607L123.89487978469442,160.19592824298854L123.93026403205704,159.54237858593783L123.94673923717825,158.7481897004862L123.98501199452964,159.27682409726822L123.99434616106748,158.789886552895L123.99667301633623,158.3972092534658L124.0413111938481,158.26211764661358L124.0483719960429,159.08569563774995L124.06254709135823,159.17778334121056L124.13294114960344,158.02685868962334L124.14714299038162,159.1455698091664L124.18258072866995,158.51010443442334L124.18726118467029,158.8324286192146L124.2517177501608,157.51810153800986L124.25409809635524,159.64443370064072L124.29876301932997,158.00530458686552L124.3010898745987,158.7305782562905L124.30815067679352,159.7688310947773L124.32922610152652,159.58766461542697L124.35503547318554,158.47381699976378L124.41376850962416,159.01168570402945L124.42080256635613,159.032862608173L124.4707363455141,159.04556875065907L124.47771691132031,159.05319243615077L124.48237062185781,159.56034051147225L124.48702433239532,159.06051117422274L124.5151605593231,159.56473175431546L124.5549310625946,159.36469023834456L124.60398224147822,159.44569487437263L124.62040395567372,159.29326811037888L124.6391257796751,159.50335637039854L124.64848669167581,158.2222025071361L124.66488166040844,159.06174655406346L124.66723526114004,159.06289911819337L124.66956211640878,158.5610167926448L124.71740974946376,157.9583430788998L124.7786033684854,158.50137180590048L124.79034462668056,158.22410040526907L124.82821620208907,157.45464892805842L124.85415930106244,159.00327349783808L124.86352021306313,158.82678573884752L124.8658738137947,159.6255260387009L124.88470261964753,160.00425544580764L124.89203087647094,160.63355218129288L124.89965333338577,160.50855635855754L124.90714206298634,160.13201454650041L124.954855968727,158.90094173121315L124.96419013526483,159.46899008850968L124.98058510399747,159.9103338756929L124.98293870472908,158.76793332872865L124.99698007273012,158.98712595579778L125.01102144073116,157.51040516715443L125.01567515126865,157.22746133080025L125.02289642624059,158.26387230265135L125.11008663516134,158.4836597945408L125.1398008443978,159.4196504721169L125.21064957551162,158.57403805938833L125.21535677697482,160.1774808406625L125.2598612271724,159.22976582612628L125.26454168317274,159.465254999847L125.31353937113064,159.7070632768847L125.37344920793505,158.9475152878596L125.3810181739242,158.79333081286046L125.41335343852086,157.99721671822385L125.45724274307267,159.22829939913203L125.47834491326853,160.26849332609282L125.4853522245376,159.68643240860567L125.49005942600084,158.73410722128162L125.49238628126956,156.75550528961296L125.59976931464892,157.17658049549655L125.61466653746145,158.63540289269034L125.62212852159914,158.8070929213695L125.63953981792044,159.5131955754088L125.67192857344283,158.42913557575287L125.67687648407177,157.47715525754342L125.70356845600516,157.10699661222833L125.72001691566352,157.6890196074817L125.76227474698092,158.94286635988144L125.8184937099108,158.79054145607353L125.83093035014029,159.10120560501002L125.88118507485258,159.28760409437191L125.88615973094436,160.40459091604205L125.90113719014548,159.46654664415934L125.98805994443761,159.20526439944558L125.99980120263275,158.74695073420145L126.03031777575501,157.36630003419666L126.04024034247576,157.0404834782203L126.08503899276477,156.74447877182916L126.1050980899091,157.8735679944634L126.16238687135335,158.24947720962803L126.17230943807407,158.97759660275332L155.13534560469344,159.3139534658232L155.13780618727645,160.822459630134L155.19728809667515,159.51623832700392L155.25005689489618,160.24022713720535L155.2799583223727,160.4735908777156L155.31681357019255,160.41257957641116L155.3419275598173,158.9687659763543L155.4033351425418,157.70041872509896L155.43591111630423,157.64301378398287L155.43831820796154,158.21165945614501L155.4850692770393,158.75387640505292L155.54053936700907,157.97354407353933L155.54519307754657,158.108433311463L157.62312832346007,156.782160034943L157.66966542883492,156.89102902427868L157.67209926595513,158.6651015555702L157.67694019473262,158.32233825507092L157.68926985311066,157.31256209232893L157.77988348127735,157.41029980432086L157.7970540684329,158.17254584115312L157.80676267145077,159.63504119130548L157.82144593056043,158.50224294529087L157.86092223374047,158.62668218012453L157.87311816480425,158.1987718569982L157.88044642162762,158.74614384556483L157.88531409586798,160.5822886307843L201.88039695328916,111.92916296329217L201.8930475572215,81.2295659707174L201.92006047470923,59.99539413662411L201.92803062264124,47.656950127389344L201.93118658725865,40.05285417623788L201.95009562950003,36.093485242378804L201.95327833958027,34.42146729170045L201.96277297889523,32.21207924762983L201.98168202113663,30.383872557160966L201.9898661327715,29.286948542879642L202.00561921039554,28.025705497479052L202.04415942237557,28.676166489512905L202.08839641794452,27.35769194704313L202.09155238256187,26.36557767595064L202.09802478457382,25.77030911329516L202.12083866439264,26.217266158144266L202.1828346473001,25.580807429806022L202.2092591646049,24.897387874387185L202.23672675496118,24.889395232357078L202.26411410892894,25.688717829581428L202.29152820835952,26.268826160721325L202.29607493704557,26.114317295378758L202.3036439030347,24.815434702509627L202.31121286902385,23.93559037398284L202.33854673206585,25.317464460167475L202.34004447798597,24.538352546993455L202.3878653655781,23.76934108067315L202.39241209426413,23.91102283771275L202.40313702487063,23.292428482299403L202.44419131035937,24.026934369909696L202.44721354766244,22.557857219175173L202.4578582418804,23.18413252081397L202.4852455958481,23.358868156186634L202.48829457861407,23.162165218994367L202.49893927283202,23.848261639121382L202.51263294981587,23.556316081560485L202.55066499800157,23.48166351982925L202.55218948938452,23.637901528401102L202.56754138506565,23.128555696712436L202.57361260513468,24.02912547136283L202.57513709651766,24.066893472126537L202.6040756873312,23.586980408558276L202.6116446533203,23.39954734322264L202.6146668906234,22.784513639994742L202.62073811069243,23.21961160050043L202.63443178767628,22.475522648750836L202.66173890525548,22.02906927770105L202.7141867579222,22.665830210318905L202.7218627057628,22.54531290586311L202.73552963728375,22.1714582047737L202.74467658558157,21.143027201677672L202.74620107696455,22.23471973751016L202.75232578795928,22.38716139498317L202.75692600757105,22.579141162272272L202.7905183089221,22.89535856825634L202.81809288112984,23.38663333026265L202.82421759212463,22.97779477782937L202.831920285428,21.727343918316375L202.84259172510883,22.08273590346688L202.8804900459802,22.09494154894658L202.88353902874613,22.604838800260914L202.89883743350154,22.609232832633595L202.90798438179934,22.00878061522541L202.91106011002813,23.5582899680812L202.92023380378882,22.07564103246748L202.92328278655472,22.693773263178738L202.92635851478357,22.059504873552495L202.94462566591636,22.081002930997965L202.94770139414516,21.69184267424404L202.95072363144826,21.558861292997L202.9856264604794,21.881131555469963L202.9992666465375,21.873464167343144L203.0038133752236,22.170408052882948L203.0501632623584,21.44394142895911L203.06540817618813,21.20909100021542L203.06690592210825,22.274358016632828L203.06992815941132,22.00888527123556L203.0790483622463,22.553205033634292L203.0881150741555,22.17619348143643L203.09867953198486,21.547927458896506L203.106248497974,21.472512163788444L203.11681295580337,21.728807305139522L203.12590641317544,22.18412870836608L203.14561781930263,22.35680677749672L203.20721262026717,22.359898846169802L203.24262361309266,22.261239314568346L203.24869483316164,22.30255836841278L203.25021932454462,22.12632025510883L203.2608372732997,22.221606932737057L203.2866733904216,21.37414598406629L203.30338930470856,21.167213733279738L203.32007847353265,21.947687338055513L203.330642931362,22.013912409699774L203.36166766827856,22.757250862323417L203.39828220693272,21.393988023402184L203.48172805105315,21.480663275297164L203.4877725256593,20.728550243991766L203.52930822947954,20.98088583484562L203.54589041645218,20.830742870942025L203.55193489105832,21.544775275042277L203.56397034934494,21.57113562628123L203.56549484072792,20.883348427387492L203.5715125698712,21.07376474488306L203.58509926500363,21.690588399406888L203.58662375638662,21.256564409678802L203.60170819743917,21.59923865267372L203.60323268882215,21.704328425665388L203.60473043474227,22.269956153486905L203.61679263849172,21.905729380542716L203.6470952479111,20.48101604311258L203.70558757518398,21.334939178344595L203.71473452348178,21.545748741067925L203.71625901486476,21.571719705896605L203.72083248901367,21.48678751198852L203.73607740284334,20.832739558811856L203.74979782529013,20.942884650932353L203.75437129943904,20.80794216059407L203.76953597688012,21.330065303222913L203.77731890657216,20.9397357791631L203.85367720303492,20.605023291921924L203.8672906436302,21.00728443640901L203.870366371859,20.645552486269455L203.87646433739087,20.730057634601646L203.8856380311516,20.680245950795637L203.8901847598376,21.35396235014915L203.9009096904441,21.557162644150658L203.9131056215079,21.980627138967456L203.9176790956568,21.531102426220446L203.92998200857198,22.568079645041124L203.93605322864101,21.68254438425402L203.94212444871002,21.653797091808293L203.97710751412976,21.73706348914614L203.98320547966165,21.585993781938235L204.01572796249832,21.394837184808207L204.0218259280302,21.98374663616727L204.03859533324285,21.93503321576151L204.05694272076423,21.40323129949155L204.08136132835457,21.184664922534882L204.11944686746597,21.556098960387384L204.1423409836734,21.778959383098872L236.08696134982728,27.742532459433228L236.09955846283393,30.315528577180793L236.1121288303777,32.56292965746647L236.1215164878413,31.39850098550536L236.1230677246871,31.503961964771104L236.1507225332834,29.35591355061392L236.16489762859877,29.373776548588534L236.18682890814324,29.98758298420512L236.1915628550693,28.747630480690244L236.25061683706224,29.008806706634317L236.27773673640135,26.552128349262965L236.29664577864278,25.882239517282514L236.30132623464314,25.681335763704887L236.31074063756955,25.158734420337083L236.33903733727448,24.342599750289907L236.342166556429,24.15446326667751L236.37035627428253,24.644670013341873L236.37661471259153,24.23519065170337L236.38134865951764,25.195680308383892L236.4319243297842,25.973003648002813L236.4381827680932,26.137853333358247L236.44920189879122,25.13110064371321L236.46971566880413,24.9291081211474L236.479237053582,25.109456926023817L236.50148927868074,24.212518480896666L236.52053204823642,24.176929277846842L236.53165816078587,23.351457573574585L236.54422852832963,23.760807506258917L236.5569326231877,24.508991329896027L236.55851060549642,25.460475488104773L236.61566565962633,24.92570348217171L236.62197758886109,24.60484027861189L236.6440693411827,25.1159257661131L236.6627376742584,24.920003194587323L236.6642621656414,23.596272378008237L236.67493360532214,23.60615207050323L236.6964904483866,23.712594658805504L236.7056641421473,23.37440112056568L236.71633558182808,23.875088407258886L236.71941131005684,23.974471233664183L236.75479555741947,23.330497519870285L236.7578445401854,23.44668715562042L236.75936903156838,23.918460028291705L236.7887622952506,24.302038524699807L236.79344275125092,23.92909698571282L236.80737713740052,24.30842069915246L236.82735599815626,23.430352426357935L236.84896633214643,23.20505578109714L236.86445195514185,23.572451657967168L236.88924499921225,23.290315320062682L236.92797242943226,23.523092608541184L236.95565398349146,23.76327375443357L236.97095238824687,23.706352896358386L236.97247687962985,23.9737446999292L236.98165057339054,22.52594341718686L236.99234875853415,22.963954694010397L236.99847346952893,23.025731914493903L237.00002470637475,23.263827792394583L237.00154919775773,23.205655773524402L237.0353019718859,22.668178698175804L237.03682646326888,24.154958363462057L237.04295117426364,24.041878434580788L237.04600015702957,23.27042706761494L237.08298913216373,23.00858579304604L237.09002318889566,23.655599210747088L237.13538349390473,23.23968907892533L237.13693473075057,22.487569135805753L237.15078888051158,22.337841488349905L237.15538910012336,22.851093536708202L237.16616752165555,23.05852999291788L237.18149267187383,22.981962321033087L237.1830171632568,22.533962626681014L237.18456840010268,22.76773667409627L237.1861196369485,23.008515875350717L237.19379558478906,22.851439077687484L237.20302276947544,22.55616345347896L237.20917422593303,22.278483306148537L237.21224995416182,23.82062635544039L237.25857309583384,23.238190592935972L237.2677467895945,21.783066634575032L237.26927128097745,22.31719907883269L237.28146721204126,22.838708090997898L237.31064651202055,22.4480100886599L237.3367233383082,22.113076514451784L237.37678804167115,22.414690233953433L237.43413031404108,22.394628920043825L237.45421615664827,22.08104781328215L237.45881637626005,22.39547301325163L237.50650353653788,22.383098587622744L237.50802802792086,22.1746443866348L237.53266059921407,21.446483229210237L237.53421183605988,21.914219490003227L237.54967071359246,21.491257836841903L237.5542441877414,22.242628572998097L237.5790907227375,21.989847605054713L237.59607409165304,22.642297206731087L237.60546174911659,22.22964878529452L237.61008871419122,21.47948586840609L237.61624017064887,21.632476755104822L237.64376125193087,21.020667877486954L237.64528574331385,22.56336323421693L237.6513837088457,23.18743612983902L237.6559839284575,23.56187986721226L237.6590329112234,23.485001791220334L237.680375790585,23.539389718430446L237.68650050157973,22.365845201092927L237.7034838704953,21.862748036301028L237.70808409010704,21.560889737425867L237.76053194277375,23.088525895790898L237.77286160115185,24.306651909225806L237.78818675137006,22.92671728837543L237.78971124275304,22.701845152697025L237.80674810259433,22.46640709848468L237.8422125863455,22.727203357178492L237.84986178872322,23.285740203615962L237.87599210593658,22.716229356230745L237.93312041460365,23.078126257436704L237.96526846096032,22.49114621571787L237.9667929523433,23.345135464350182L237.9728909178752,22.550836967060643L237.97901562886992,22.677346505518756L238.00685765570623,22.652737455788316L238.01621856770691,22.03488338911823L238.01776980455276,21.664170949116205L238.10479954069632,22.547405985973285L238.11707570814866,22.57477314406103L238.129351875601,22.993252530134882L238.13090311244682,22.842281070557984L238.15743461160307,23.857360695670167L238.17727974504456,24.56692324354278L238.18337771057642,23.886998271408014L238.2004145704177,23.378528515321868L238.2406130010949,22.972931888864892L238.24523996616958,22.830088685796007L238.24834243986123,22.543353218344073L238.25446715085593,22.3713119378729L238.26685030015975,22.569631488006106L238.3596570562809,22.588108445280714L238.36880400457872,23.302798029282584L238.37035524142453,22.826978824436022L238.37340422419047,22.94354639274925L268.88326423526695,28.541799438028747L268.8952729480907,31.498692173975257L268.9321014504477,31.865620996268937L268.9383866342196,31.28166010720273L268.95569094868944,30.931283573763025L268.9603981501526,29.715909925646205L268.9871971039375,29.288230055192006L268.99658476140104,27.825444859255853L269.03913679280987,28.4554953337737L269.0704289843551,26.52168584396249L269.084497097819,26.869121742155258L269.1098250511466,25.670376461796735L269.1130077612268,26.358336112855806L269.127209602005,26.871626676296543L269.141625406486,27.079086241555704L269.15416902856697,27.00253243510058L269.2076866997481,25.348363786342716L269.21084266436543,25.4615250979463L269.21560335675434,24.62478892966076L269.21878606683464,24.8263506383265L269.2283341970753,25.55037630035778L269.24729673024245,25.482217833550035L269.2488747125511,25.340807980660095L269.25981360686046,25.054932523315514L269.2645208083237,25.184951567324667L269.2723304834785,24.659874356898346L269.2832961232508,24.043283712226675L269.28642534240527,24.477447507866056L269.3885395196014,23.230224193170198L269.40798347109995,23.587552705210996L269.41360001830043,22.997831629993062L269.4215434207696,23.54863194011002L269.44681788317143,23.778597353374877L269.453156557869,23.615032282917905L269.45473454017775,23.315863695033094L269.4578905047951,22.63378867827571L269.4626511971841,23.3302061690796L269.47372381880774,22.8434237083142L269.4799822571168,22.45083945904968L269.4862406954258,23.723010501570485L269.5004157907411,23.883224490251166L269.50196702758694,23.677808565043655L269.5097767027418,23.856103328335045L269.51603514105085,23.35999154947809L269.5176131233595,23.76592789180101L269.5634013557743,23.00434196914176L269.6121315891036,23.753567689209813L269.6309336494936,23.398984938808237L269.64189928926584,24.090868243815006L269.64973570988354,24.204453908403153L269.67185420766805,23.770031443129565L269.68610953937196,22.9062893271336L269.73229895372964,22.287529284730738L269.7496835045881,22.117302804899595L269.76064914436034,22.115681689806227L269.7622003812061,22.61728288477669L269.7669075826694,22.61669928334307L269.7762952401329,22.817378668093507L269.83599111323446,22.837271526138448L269.84072506016054,23.251266332186614L269.84388102477794,22.896574578983735L269.8494975719783,22.784274299867302L269.8513697543785,22.415349813981525L269.858858483979,22.495539440865983L269.9369017446019,22.845197535412545L269.9587795332207,22.351388982503394L270.0010373645381,22.055103850757888L270.01047851292736,23.184024818179505L270.0167904421621,22.55468535216354L270.06739285789155,22.880685082191075L270.0752025330464,22.774740601791706L270.0990862313796,22.30911482233087L270.1038469237685,22.532313218680883L270.1085541252317,22.76674702929618L270.1416650082513,23.007922088470693L270.1589693227212,23.554686215196586L270.17932261995696,22.475537871957894L270.18090060226564,22.1295931844306L270.19665367988966,22.12305591752483L270.20138762681574,23.325310831044963L270.2299785266122,22.84048650549344L270.256777480397,22.44907713735723L270.2599066995515,23.319894017333798L270.2646139010147,22.837236417266737L270.2975108203314,22.648156630031817L270.30069353041165,23.037282621717328L270.3085834419551,23.069728671118057L270.3258877564249,22.48610766392668L270.3389930332259,21.53284642278007L270.3452247260721,21.865522633339797L270.3717562252283,22.06512835967564L270.4033693623278,21.682317931450644L270.4190154581004,21.754175992931547L270.4221446772549,22.09883514823599L270.4315055892556,21.702542004586864L270.4393152644104,21.06270702717618L270.4471516850282,21.985498087198664L270.4518856319542,22.63968749601745L270.475475130196,22.83117159569813L270.47707985796757,23.14709160111714L270.51947141659923,22.532525421926135L270.5320150386802,21.862241395995657L270.570020341403,22.465218708490347L270.5748612701805,22.424946004765975L270.58735140133564,22.400782382531336L270.6203018115781,22.587313754801162L270.6297964508931,22.598717805357747L270.6471810017515,21.60041250763869L270.64875898406024,22.207606602670857L270.69930790886394,22.169863968468974L270.7008858911726,22.046703615142537L270.7103537850248,22.27435172156259L270.81407268999243,21.405792857361607L270.81722865460983,21.085687084451617L270.8283012762335,21.697741803148023L270.83295498677097,22.266004179976484L270.84389388108036,23.10953547010005L270.908136482868,23.314109925758306L270.94087292940753,22.130162552684336L270.9567062434201,22.02288276567177L270.9819539603591,21.455941029437703L270.9851099249765,22.020408942944993L270.98826588959383,22.86166355507588L270.9961558011373,22.562298139911995L271.0460360893696,22.282164118008367L271.0759107713832,21.913054159255577L271.0931081040016,22.596221139251615L271.0946860863103,22.403032690417433L271.0962373231561,22.18660484831163L271.1009445246193,21.152115187800423L271.1258980414669,21.938628210767938L271.1682361091729,22.310021251743116L271.17291656517324,22.633371849133532L271.2043424840327,22.525837889151884L271.21378363242195,22.863376604384108L271.2153616147306,22.56332596949692" fill="none"></path></g></g></g></g><g opacity="0.2"><g><g><g><path style="fill: none;" stroke="rgb(255, 112, 67)" stroke-width="2px" d="M19.256733258565266,31.410866501656454L19.267404698246057,33.421161957762465L19.295808379802438,26.636414793404658L19.299338780899845,26.636414793404658L19.30458089162023,26.13384092937816L19.324131824970245,25.379980133338403L19.350556342275055,25.63126706535166L19.3558251984583,24.877406269311905L19.414397762119773,18.595232968980614L19.42902753030371,22.364536949179396L19.436382532589967,21.61067615313964L19.472756362078368,19.34909376502037L19.52541817844797,18.595232968980614L19.530874252871232,20.102954561060127L19.547162239752435,18.846519900993872L19.567274827822494,19.60038069703363L19.576341539731732,20.102954561060127L19.579952177217713,19.85166762904687L19.683831554962527,19.34909376502037L19.692925012334634,18.092659104954116L19.72023212991379,18.595232968980614L19.73125126061175,19.85166762904687L19.740478445298145,18.343946036967356L19.7532627765448,18.595232968980614L19.76420167085418,18.595232968980614L19.822212579795607,17.33879830891436L19.851498861626343,16.83622444488786L19.8551897355009,17.841372172940858L19.86976601275912,17.33879830891436L19.891563564989305,17.0875113769011L19.907931788259084,18.343946036967356L19.922427829128726,16.584937512874603L19.951714110959458,16.83622444488786L19.958962131394284,17.590085240927618L20.08070747832899,16.584937512874603L20.08252616980341,16.082363648848105L20.11339043394283,16.83622444488786L20.118819762903236,16.333650580861345L20.12430258278935,16.83622444488786L20.151395736665638,16.584937512874603L20.15682506562604,16.584937512874603L20.1586170116376,17.0875113769011L20.200099224532092,16.83622444488786L20.234386907917482,16.082363648848105L20.27236546517743,16.082363648848105L20.303096002002558,16.333650580861345L20.312537150391826,16.082363648848105L20.38801284658026,16.333650580861345L20.406092779473024,16.082363648848105L20.416924691930966,16.333650580861345L20.42962878678905,16.082363648848105L20.431447478263465,16.082363648848105L20.458567377602613,16.584937512874603L20.49117009682788,16.082363648848105L20.49478073431386,16.333650580861345L20.51665852293262,16.082363648848105L20.529335872327838,16.082363648848105L20.531154563802264,16.333650580861345L20.534791946751103,16.082363648848105L20.540194530248645,16.333650580861345L20.543805167734625,16.082363648848105L20.58911198181797,16.333650580861345L20.607165169247878,16.082363648848105L20.638056178850157,16.333650580861345L20.68499446616791,16.333650580861345L20.69224248660273,16.082363648848105L20.69949050703755,16.082363648848105L20.713906311518617,16.082363648848105L20.730221043862677,16.082363648848105L20.777132585717574,16.082363648848105L20.784380606152396,16.082363648848105L20.800641847570738,16.082363648848105L20.807889868005564,16.082363648848105L20.811500505491544,16.082363648848105L20.815111142977525,16.082363648848105L20.827788492372743,16.082363648848105L20.836801713356266,16.082363648848105L20.840412350842247,16.333650580861345L20.84945231728863,16.082363648848105L20.85311644570033,16.082363648848105L20.86041795706087,16.082363648848105L20.86766597749569,16.584937512874603L20.87865836273079,16.082363648848105L20.880503799668066,16.333650580861345L20.922306958116867,16.082363648848105L20.929554978551685,16.082363648848105L21.01174378591776,16.082363648848105L21.024073444295812,16.082363648848105L21.034691393050885,16.082363648848105L21.05932396434413,16.333650580861345L21.06638476653894,16.082363648848105L21.078821406768427,16.082363648848105L21.08237855332869,16.333650580861345L21.09304999300948,16.082363648848105L21.096607139569745,16.082363648848105L21.144187317996117,16.082363648848105L21.145952518544817,16.082363648848105L21.163631269494694,16.082363648848105L21.16890012567794,16.082363648848105L21.18473343969054,16.082363648848105L21.191820987348205,16.082363648848105L21.19890853500587,16.082363648848105L21.21492906725848,16.333650580861345L21.216721013270043,16.082363648848105L21.227365707487973,16.333650580861345L21.229130908036677,16.082363648848105L21.23806389263162,16.082363648848105L21.270024720748268,16.584937512874603L21.275347067857233,16.082363648848105L21.291340854646982,16.082363648848105L21.36724447824116,16.333650580861345L21.390325812688584,16.082363648848105L21.40094376144365,16.082363648848105L21.406266108552618,16.082363648848105L21.40985000057574,16.333650580861345L21.416964293696264,16.082363648848105L21.42763573337705,16.082363648848105L21.43651522704628,16.082363648848105L21.454220723459017,16.333650580861345L21.464811926751228,16.082363648848105L21.473611184031878,16.082363648848105L21.491316680444612,16.333650580861345L21.588268983308918,16.082363648848105L21.595356530966583,16.082363648848105L21.597148476978145,16.082363648848105L21.598913677526845,16.333650580861345L21.63082101471777,16.333650580861345L21.653875603702335,16.082363648848105L21.677010429075473,16.333650580861345L21.745933486863418,16.082363648848105L21.76730311168786,16.082363648848105L21.786907535963593,16.333650580861345L21.79222988307255,16.333650580861345L21.79752548471866,16.333650580861345L21.83288298661841,16.082363648848105L21.843581171762057,16.082363648848105L21.85596432106583,16.333650580861345L21.86660901528376,16.082363648848105L55.73096521453946,39.200761394067236L55.736287561648425,33.421161957762465L55.75583849499844,28.39542331749743L56.90787256219211,158.05948023633522L56.91322165476392,158.05948023633522L56.914986855312634,157.30561944029546L56.99939553609601,22.867110813205894L57.00463764681639,25.88255399736492L57.009879757536794,22.867110813205894L57.01164495808548,22.867110813205894L57.05029215191692,21.61067615313964L57.093566310822965,21.35938922112638L57.09706996645751,20.605528425086625L57.11121831630998,19.34909376502037L57.11833260943051,20.605528425086625L57.16224865944518,19.60038069703363L57.16401385999388,19.85166762904687L57.18316361140101,21.35938922112638L57.19712474301348,20.102954561060127L57.204158799745414,20.856815357099883L57.20766245537996,19.34909376502037L57.28597317063146,18.846519900993872L57.29300722736341,18.846519900993872L57.336976768303806,19.85166762904687L57.36503275884301,18.092659104954116L57.36677121392886,20.102954561060127L57.39319573123366,17.841372172940858L57.40020304250276,19.097806833007112L57.428553233133414,17.33879830891436L57.43029168821926,18.092659104954116L57.49111087076091,17.33879830891436L57.499883382578695,17.590085240927618L57.508655894396476,17.0875113769011L57.513924750579726,17.590085240927618L57.52269726239752,16.83622444488786L57.527992864043625,16.333650580861345L57.549041543313756,17.33879830891436L57.563163147703364,18.092659104954116L57.57551955154428,17.33879830891436L57.58787595538519,16.082363648848105L57.60373601486066,17.33879830891436L57.61082356251831,16.83622444488786L57.61432721815286,17.33879830891436L57.61783087378741,17.0875113769011L57.6231264754335,16.333650580861345L57.6576816134475,16.83622444488786L57.673541672922944,17.33879830891436L57.691086696558536,16.333650580861345L57.698120753290475,16.83622444488786L57.701624408925035,16.584937512874603L57.70689326510826,16.333650580861345L57.715692522388906,16.584937512874603L57.720934633109316,17.0875113769011L57.722699833658005,16.83622444488786L57.757789880929174,16.83622444488786L57.77356970401605,16.082363648848105L57.78410741638255,16.082363648848105L57.79635683837203,16.082363648848105L57.79809529345786,16.83622444488786L57.83623432349497,16.082363648848105L57.84869770918731,16.333650580861345L57.885633193395755,16.082363648848105L57.8926672501277,16.333650580861345L57.91042623746616,16.584937512874603L57.91748703966096,16.082363648848105L57.934443663113655,16.333650580861345L57.95725754293247,16.333650580861345L57.962553144578585,16.584937512874603L57.973064111482216,16.082363648848105L57.97656776711676,16.584937512874603L58.05987988392291,16.082363648848105L58.0704175962894,16.082363648848105L58.100399260154475,16.333650580861345L58.117997774715775,16.333650580861345L58.12323988543616,16.333650580861345L58.12674354107072,16.333650580861345L58.15816945993018,16.333650580861345L58.182882267611994,16.333650580861345L58.18638592324654,16.333650580861345L58.240090812667646,16.082363648848105L58.2471248693996,16.082363648848105L58.26129996471493,16.082363648848105L58.29117464672857,16.333650580861345L58.30168561363221,16.333650580861345L58.34388995402389,16.082363648848105L58.366703833842706,16.082363648848105L58.37191919910024,16.082363648848105L58.39580289743345,16.584937512874603L58.399279807605126,16.082363648848105L58.4027567177768,16.333650580861345L58.409790774508764,16.333650580861345L58.41677134031499,16.082363648848105L58.428994016841614,16.333650580861345L58.45512433405496,16.082363648848105L58.51484695261937,16.082363648848105L58.52193450027705,16.082363648848105L58.53429090411795,16.082363648848105L58.55017770905627,16.333650580861345L58.593371631573746,16.082363648848105L58.610996891597914,16.082363648848105L58.61450054723245,16.082363648848105L58.61803094832985,16.082363648848105L58.62683020561052,16.082363648848105L58.63212580725661,16.082363648848105L58.64622066618336,16.584937512874603L58.653254722915314,16.082363648848105L58.68837151564934,16.082363648848105L58.697117282004264,16.333650580861345L58.69885573709011,16.082363648848105L58.702412883650375,16.082363648848105L58.707681739833625,16.082363648848105L58.7146890511027,16.082363648848105L58.71645425165141,16.082363648848105L58.72875716456661,16.082363648848105L58.73399927528698,16.333650580861345L58.74277178710479,16.584937512874603L58.79861631355462,16.082363648848105L58.8164287918188,16.333650580861345L58.82707348603673,16.082363648848105L58.83763794386607,16.082363648848105L58.84464525513517,16.082363648848105L58.86569393440529,16.333650580861345L58.867432389491135,16.082363648848105L58.91124145765437,16.082363648848105L58.927048026204105,16.082363648848105L59.011189252358896,16.333650580861345L59.01295445290761,16.082363648848105L59.01648485400501,16.082363648848105L59.04119766168682,16.082363648848105L59.09377924166785,16.333650580861345L59.10784735513175,16.082363648848105L59.142562965922885,16.082363648848105L59.14606662155743,16.333650580861345L59.14954353172912,16.333650580861345L59.15828929808404,16.082363648848105L59.202098366247284,16.082363648848105L59.203836821333134,16.082363648848105L59.22135509950585,16.082363648848105L59.224858755140396,16.082363648848105L59.233577776032476,16.082363648848105L59.25818360186285,16.082363648848105L59.268721314229346,16.082363648848105L59.28450113731623,16.082363648848105L59.332883679628374,16.082363648848105L59.339864245434605,16.082363648848105L59.34336790106914,16.333650580861345L59.36626201727655,16.333650580861345L59.387417678398116,16.082363648848105L59.40851984859396,16.082363648848105L59.42614510861812,16.082363648848105L59.436682820984615,16.082363648848105L59.46666448484969,16.333650580861345L59.477228942679034,16.082363648848105L59.47899414322774,16.082363648848105L107.3488794232894,105.79179837757891L107.35952411750733,44.980360830372035L107.36840361117655,35.934031277894974L107.40935091481386,27.89284945347093L107.42181430050621,24.12354547327215L107.43074728510115,26.13384092937816L107.4538018740857,24.12354547327215L107.46626525977805,25.128693201325163L107.49287699532289,23.118397745219152L107.5369535181147,21.61067615313964L107.54230261068655,19.34909376502037L107.56709565475693,20.354241493073385L107.56886085530564,20.102954561060127L107.57239125640304,21.86196308515288L107.62922536497867,22.615823881192636L107.63099056552737,20.102954561060127L107.63278251153892,21.108102289113123L107.64524589723129,19.097806833007112L107.664663103267,20.605528425086625L107.7139817367792,19.097806833007112L107.72288797591129,17.841372172940858L107.79913929052263,17.590085240927618L107.81515982277526,19.60038069703363L107.83134082780504,18.343946036967356L107.84195877656009,17.841372172940858L107.84904632421777,18.343946036967356L107.90170814058736,17.590085240927618L107.90523854168477,17.33879830891436L107.90700374223348,17.841372172940858L107.99018213172532,18.343946036967356L108.00438397250352,17.0875113769011L108.04530453067797,17.33879830891436L108.08419243367513,16.333650580861345L108.09138696318423,16.83622444488786L108.09850125630476,16.333650580861345L108.10029320231631,16.584937512874603L108.11981739020347,16.584937512874603L108.12511299184959,16.584937512874603L108.1392880871649,17.0875113769011L108.14458368881103,16.584937512874603L108.18793808410565,16.333650580861345L108.19499888630047,16.83622444488786L108.19852928739788,16.333650580861345L108.24814212100152,16.333650580861345L108.31171608621764,16.83622444488786L108.33832782176248,16.082363648848105L108.35244942615209,16.83622444488786L108.36130217435846,16.333650580861345L108.37015492256482,16.83622444488786L108.3772424702225,17.0875113769011L108.38074612585704,16.082363648848105L108.40912306195055,16.333650580861345L108.46486060654897,16.082363648848105L108.46662580709766,16.082363648848105L108.47900895640144,16.082363648848105L108.48435804897325,16.333650580861345L108.52691008038211,16.333650580861345L108.53223242749108,16.333650580861345L108.54461557679484,16.333650580861345L108.54993792390381,16.83622444488786L108.55170312445252,16.082363648848105L108.55526027101277,16.082363648848105L108.55702547156149,16.333650580861345L108.60144968537048,16.333650580861345L108.61738998123452,16.333650580861345L108.68286287431364,16.082363648848105L108.69719844240612,16.333650580861345L108.7219379955508,16.082363648848105L108.72370319609952,16.082363648848105L108.75371160542744,16.082363648848105L108.80530360328268,16.333650580861345L108.80886074984294,16.082363648848105L108.8493266351488,16.333650580861345L108.87952226271673,16.082363648848105L108.88840175638596,16.333650580861345L108.92739664123455,16.082363648848105L108.93271898834351,16.082363648848105L108.94165197293846,16.082363648848105L108.9612563972142,16.082363648848105L108.96478679831162,16.082363648848105L108.97722343854109,16.082363648848105L108.98792162368474,16.082363648848105L109.00035826391424,16.082363648848105L109.03370985609955,16.082363648848105L109.03900545774565,16.333650580861345L109.06904061253645,16.333650580861345L109.09027651004659,16.082363648848105L109.09559885715555,16.082363648848105L109.10800875192217,16.082363648848105L109.13635894255286,16.082363648848105L109.13988934365025,16.082363648848105L109.15069451064534,16.082363648848105L109.15794253108017,16.082363648848105L109.18853934059099,16.333650580861345L109.24334079398933,16.333650580861345L109.28361946105517,16.082363648848105L109.31852229008629,16.082363648848105L109.32210618210942,16.082363648848105L109.32590403783543,16.333650580861345L109.3312263849444,16.082363648848105L109.33678944121908,16.333650580861345L109.36824210554141,16.082363648848105L109.38784652981714,16.082363648848105L109.43539996278064,16.082363648848105L109.48822225192743,16.082363648848105L109.49175265302482,16.333650580861345L109.53411746619366,16.333650580861345L109.54123175931419,16.082363648848105L109.54478890587444,16.333650580861345L109.55543360009237,16.082363648848105L109.56075594720134,16.082363648848105L109.5643130937616,16.333650580861345L109.60293354213016,16.082363648848105L109.61537018235967,16.082363648848105L109.63834453495565,16.082363648848105L109.65249288480811,16.082363648848105L109.67536025555266,16.082363648848105L109.67899763850151,16.082363648848105L109.68434673107332,16.082363648848105L109.70571635589775,16.333650580861345L109.71285739448113,16.082363648848105L109.72171014268751,16.082363648848105L109.72526728924778,16.082363648848105L109.74297278566051,16.082363648848105L109.75003358785531,16.082363648848105L109.82401153812364,16.082363648848105L109.83286428633001,16.333650580861345L109.84527418109664,16.082363648848105L109.92310347801669,16.082363648848105L109.93719833694344,16.082363648848105L109.94955474078435,16.333650580861345L122.76747828879401,161.3262103525075L122.79310044221303,160.57234955646777L122.80711506475123,160.3210626244545L122.82115643275226,157.55690637230873L122.87280192153322,158.05948023633522L122.89861129319226,161.57749728452075L122.9103525513874,160.823636488481L122.93148146704613,163.83907967264003L122.93380832231485,157.55690637230873L122.96167709461406,163.33650580861354L123.01158412830918,162.3313580805605L123.01869842142969,160.3210626244545L123.04228791967144,157.05433250828224L123.15346880877681,159.3159148964015L123.1653170488234,160.3210626244545L123.16767064955499,157.808193304322L123.1914206205739,161.07492342049426L123.3865020266683,160.06977569244123L123.41212418008733,159.56720182841474L123.41442428989322,161.07492342049426L123.41913149135644,156.30047171224248L123.4237852018939,160.06977569244123L123.43076576770015,155.04403705217624L123.43311936843175,157.05433250828224L123.5157093577407,161.3262103525075L123.52745061593586,158.3107671683485L123.5344846726678,158.81334103237498L123.55315300574345,161.07492342049426L123.57888214101393,161.07492342049426L123.59993082028406,159.818488760428L123.60699162247886,153.0337415960702L123.60931847774762,160.57234955646777L123.6445957432588,158.81334103237498L123.682146373113,161.82878421653402L123.69616099565117,156.80304557626897L123.70552190765186,155.54661091620272L123.75088221266093,157.55690637230873L123.75564290504985,158.56205410036173L123.77674507524571,159.3159148964015L123.78615947817211,157.808193304322L123.80025433709886,157.808193304322L123.81202234075685,161.3262103525075L123.87364388718427,158.3107671683485L123.89487978469442,162.08007114854726L123.93026403205704,158.56205410036173L123.94673923717825,157.55690637230873L123.98501199452964,160.06977569244123L123.99434616106748,158.05948023633522L123.99667301633623,157.808193304322L124.0413111938481,158.05948023633522L124.0483719960429,160.3210626244545L124.06254709135823,159.3159148964015L124.13294114960344,156.30047171224248L124.14714299038162,160.823636488481L124.18258072866995,157.55690637230873L124.18726118467029,159.3159148964015L124.2517177501608,155.54661091620272L124.25409809635524,162.833931944587L124.29876301932997,155.54661091620272L124.3010898745987,159.818488760428L124.30815067679352,161.3262103525075L124.32922610152652,159.3159148964015L124.35503547318554,156.80304557626897L124.41376850962416,159.818488760428L124.42080256635613,159.06462796438825L124.4707363455141,159.06462796438825L124.47771691132031,159.06462796438825L124.48237062185781,160.3210626244545L124.48702433239532,158.3107671683485L124.5151605593231,160.3210626244545L124.5549310625946,159.06462796438825L124.60398224147822,159.56720182841474L124.62040395567372,159.06462796438825L124.6391257796751,159.818488760428L124.64848669167581,156.30047171224248L124.66488166040844,160.3210626244545L124.66723526114004,159.06462796438825L124.66956211640878,157.808193304322L124.71740974946376,157.05433250828224L124.7786033684854,159.3159148964015L124.79034462668056,157.808193304322L124.82821620208907,156.30047171224248L124.85415930106244,161.3262103525075L124.86352021306313,158.56205410036173L124.8658738137947,160.823636488481L124.88470261964753,160.57234955646777L124.89203087647094,161.57749728452075L124.89965333338577,160.3210626244545L124.90714206298634,159.56720182841474L124.954855968727,157.05433250828224L124.96419013526483,160.3210626244545L124.98058510399747,160.57234955646777L124.98293870472908,157.05433250828224L124.99698007273012,159.3159148964015L125.01102144073116,155.29532398418945L125.01567515126865,156.80304557626897L125.02289642624059,159.818488760428L125.11008663516134,158.81334103237498L125.1398008443978,160.823636488481L125.21064957551162,157.30561944029546L125.21535677697482,162.58264501257378L125.2598612271724,157.808193304322L125.26454168317274,159.818488760428L125.31353937113064,160.06977569244123L125.37344920793505,157.808193304322L125.3810181739242,158.56205410036173L125.41335343852086,156.80304557626897L125.45724274307267,161.07492342049426L125.47834491326853,161.82878421653402L125.4853522245376,158.81334103237498L125.49005942600084,157.30561944029546L125.49238628126956,153.78760239210996L125.59976931464892,157.808193304322L125.61466653746145,160.823636488481L125.62212852159914,159.06462796438825L125.63953981792044,160.57234955646777L125.67192857344283,156.80304557626897L125.67687648407177,156.0491847802292L125.70356845600516,156.55175864425573L125.72001691566352,158.56205410036173L125.76227474698092,160.823636488481L125.8184937099108,158.56205410036173L125.83093035014029,159.56720182841474L125.88118507485258,159.56720182841474L125.88615973094436,162.08007114854726L125.90113719014548,158.05948023633522L125.98805994443761,158.81334103237498L125.99980120263275,158.05948023633522L126.03031777575501,155.29532398418945L126.04024034247576,156.55175864425573L126.08503899276477,156.30047171224248L126.1050980899091,159.56720182841474L126.16238687135335,158.81334103237498L126.17230943807407,160.06977569244123L155.13534560469344,159.818488760428L155.13780618727645,163.08521887660027L155.19728809667515,157.55690637230873L155.25005689489618,161.3262103525075L155.2799583223727,160.823636488481L155.31681357019255,160.3210626244545L155.3419275598173,156.80304557626897L155.4033351425418,155.79789784821597L155.43591111630423,157.55690637230873L155.43831820796154,159.06462796438825L155.4850692770393,159.56720182841474L155.54053936700907,156.80304557626897L155.54519307754657,158.3107671683485L157.62312832346007,154.79275012016296L157.66966542883492,157.05433250828224L157.67209926595513,161.3262103525075L157.67694019473262,157.808193304322L157.68926985311066,155.79789784821597L157.77988348127735,157.55690637230873L157.7970540684329,159.3159148964015L157.80676267145077,161.82878421653402L157.82144593056043,156.80304557626897L157.86092223374047,158.81334103237498L157.87311816480425,157.55690637230873L157.88044642162762,159.56720182841474L157.88531409586798,163.33650580861354L201.88039695328916,38.949474462054L201.8930475572215,35.180170481855214L201.92006047470923,28.14413638548417L201.92803062264124,29.149284113537185L201.93118658725865,28.646710249510686L201.95009562950003,30.15443184159018L201.95327833958027,31.913440365682952L201.96277297889523,28.897997181523927L201.98168202113663,27.641562521457672L201.9898661327715,27.641562521457672L202.00561921039554,26.13384092937816L202.04415942237557,29.651857977563683L202.08839641794452,25.379980133338403L202.09155238256187,24.877406269311905L202.09802478457382,24.877406269311905L202.12083866439264,26.887701725417916L202.1828346473001,24.626119337298647L202.2092591646049,23.87225854125889L202.23672675496118,24.877406269311905L202.26411410892894,26.887701725417916L202.29152820835952,27.138988657431174L202.29607493704557,25.88255399736492L202.3036439030347,22.867110813205894L202.31121286902385,22.615823881192636L202.33854673206585,27.390275589444414L202.34004447798597,23.369684677232392L202.3878653655781,22.615823881192636L202.39241209426413,24.12354547327215L202.40313702487063,22.364536949179396L202.44419131035937,25.128693201325163L202.44721354766244,20.354241493073385L202.4578582418804,24.12354547327215L202.4852455958481,23.62097160924565L202.48829457861407,22.867110813205894L202.49893927283202,24.877406269311905L202.51263294981587,23.118397745219152L202.55066499800157,23.369684677232392L202.55218948938452,23.87225854125889L202.56754138506565,22.364536949179396L202.57361260513468,25.379980133338403L202.57513709651766,24.12354547327215L202.6040756873312,22.867110813205894L202.6116446533203,23.118397745219152L202.6146668906234,21.86196308515288L202.62073811069243,23.87225854125889L202.63443178767628,21.35938922112638L202.66173890525548,21.35938922112638L202.7141867579222,23.62097160924565L202.7218627057628,22.364536949179396L202.73552963728375,21.61067615313964L202.74467658558157,19.60038069703363L202.74620107696455,23.87225854125889L202.75232578795928,22.615823881192636L202.75692600757105,22.867110813205894L202.7905183089221,23.369684677232392L202.81809288112984,24.12354547327215L202.82421759212463,22.364536949179396L202.831920285428,19.85166762904687L202.84259172510883,22.615823881192636L202.8804900459802,22.113250017166138L202.88353902874613,23.369684677232392L202.89883743350154,22.615823881192636L202.90798438179934,21.108102289113123L202.91106011002813,25.88255399736492L202.92023380378882,19.85166762904687L202.92328278655472,23.62097160924565L202.92635851478357,21.108102289113123L202.94462566591636,22.113250017166138L202.94770139414516,21.108102289113123L202.95072363144826,21.35938922112638L202.9856264604794,22.364536949179396L202.9992666465375,21.86196308515288L203.0038133752236,22.615823881192636L203.0501632623584,20.354241493073385L203.06540817618813,20.856815357099883L203.06690592210825,23.87225854125889L203.06992815941132,21.61067615313964L203.0790483622463,23.369684677232392L203.0881150741555,21.61067615313964L203.09867953198486,20.605528425086625L203.106248497974,21.35938922112638L203.11681295580337,22.113250017166138L203.12590641317544,22.867110813205894L203.14561781930263,22.615823881192636L203.20721262026717,22.364536949179396L203.24262361309266,22.113250017166138L203.24869483316164,22.364536949179396L203.25021932454462,21.86196308515288L203.2608372732997,22.364536949179396L203.2866733904216,20.102954561060127L203.30338930470856,20.856815357099883L203.32007847353265,23.118397745219152L203.330642931362,22.113250017166138L203.36166766827856,23.87225854125889L203.39828220693272,19.34909376502037L203.48172805105315,21.61067615313964L203.4877725256593,19.60038069703363L203.52930822947954,21.35938922112638L203.54589041645218,20.605528425086625L203.55193489105832,22.615823881192636L203.56397034934494,21.61067615313964L203.56549484072792,19.85166762904687L203.5715125698712,21.35938922112638L203.58509926500363,22.615823881192636L203.58662375638662,20.605528425086625L203.60170819743917,22.113250017166138L203.60323268882215,21.86196308515288L203.60473043474227,23.118397745219152L203.61679263849172,21.35938922112638L203.6470952479111,18.343946036967356L203.70558757518398,22.615823881192636L203.71473452348178,21.86196308515288L203.71625901486476,21.61067615313964L203.72083248901367,21.35938922112638L203.73607740284334,19.85166762904687L203.74979782529013,21.108102289113123L203.75437129943904,20.605528425086625L203.76953597688012,22.113250017166138L203.77731890657216,20.354241493073385L203.85367720303492,20.102954561060127L203.8672906436302,21.61067615313964L203.870366371859,20.102954561060127L203.87646433739087,20.856815357099883L203.8856380311516,20.605528425086625L203.8901847598376,22.364536949179396L203.9009096904441,21.86196308515288L203.9131056215079,22.615823881192636L203.9176790956568,20.856815357099883L203.92998200857198,24.12354547327215L203.93605322864101,20.354241493073385L203.94212444871002,21.61067615313964L203.97710751412976,21.86196308515288L203.98320547966165,21.35938922112638L204.01572796249832,21.108102289113123L204.0218259280302,22.867110813205894L204.03859533324285,21.86196308515288L204.05694272076423,20.605528425086625L204.08136132835457,20.856815357099883L204.11944686746597,22.113250017166138L204.1423409836734,22.113250017166138L236.08696134982728,36.687892073934734L236.09955846283393,34.175022753802224L236.1121288303777,35.934031277894974L236.1215164878413,29.651857977563683L236.1230677246871,31.662153433669694L236.1507225332834,26.13384092937816L236.16489762859877,29.400571045550425L236.18682890814324,30.908292637629938L236.1915628550693,26.887701725417916L236.25061683706224,29.400571045550425L236.27773673640135,22.867110813205894L236.29664577864278,24.877406269311905L236.30132623464314,25.379980133338403L236.31074063756955,24.374832405285407L236.33903733727448,23.118397745219152L236.342166556429,23.87225854125889L236.37035627428253,25.379980133338403L236.37661471259153,23.62097160924565L236.38134865951764,26.636414793404658L236.4319243297842,27.138988657431174L236.4381827680932,26.385127861391418L236.44920189879122,23.62097160924565L236.46971566880413,24.626119337298647L236.479237053582,25.379980133338403L236.50148927868074,22.867110813205894L236.52053204823642,24.12354547327215L236.53165816078587,22.113250017166138L236.54422852832963,24.374832405285407L236.5569326231877,25.63126706535166L236.55851060549642,26.887701725417916L236.61566565962633,24.12354547327215L236.62197758886109,24.12354547327215L236.6440693411827,25.88255399736492L236.6627376742584,24.626119337298647L236.6642621656414,21.61067615313964L236.67493360532214,23.62097160924565L236.6964904483866,23.87225854125889L236.7056641421473,22.867110813205894L236.71633558182808,24.626119337298647L236.71941131005684,24.12354547327215L236.75479555741947,22.364536949179396L236.7578445401854,23.62097160924565L236.75936903156838,24.626119337298647L236.7887622952506,24.877406269311905L236.79344275125092,23.369684677232392L236.80737713740052,24.877406269311905L236.82735599815626,22.113250017166138L236.84896633214643,22.867110813205894L236.86445195514185,24.12354547327215L236.88924499921225,22.867110813205894L236.92797242943226,23.87225854125889L236.95565398349146,24.12354547327215L236.97095238824687,23.62097160924565L236.97247687962985,24.374832405285407L236.98165057339054,20.354241493073385L236.99234875853415,23.62097160924565L236.99847346952893,23.118397745219152L237.00002470637475,23.62097160924565L237.00154919775773,23.118397745219152L237.0353019718859,21.86196308515288L237.03682646326888,26.385127861391418L237.04295117426364,23.87225854125889L237.04600015702957,22.113250017166138L237.08298913216373,22.615823881192636L237.09002318889566,24.626119337298647L237.13538349390473,22.615823881192636L237.13693473075057,21.35938922112638L237.15078888051158,22.113250017166138L237.15538910012336,23.62097160924565L237.16616752165555,23.369684677232392L237.18149267187383,22.867110813205894L237.1830171632568,21.86196308515288L237.18456840010268,23.118397745219152L237.1861196369485,23.369684677232392L237.19379558478906,22.615823881192636L237.20302276947544,22.113250017166138L237.20917422593303,21.86196308515288L237.21224995416182,26.13384092937816L237.25857309583384,22.364536949179396L237.2677467895945,19.60038069703363L237.26927128097745,23.118397745219152L237.28146721204126,23.62097160924565L237.31064651202055,21.86196308515288L237.3367233383082,21.61067615313964L237.37678804167115,22.867110813205894L237.43413031404108,22.364536949179396L237.45421615664827,21.61067615313964L237.45881637626005,22.867110813205894L237.50650353653788,22.364536949179396L237.50802802792086,21.86196308515288L237.53266059921407,20.354241493073385L237.53421183605988,22.615823881192636L237.54967071359246,20.856815357099883L237.5542441877414,23.369684677232392L237.5790907227375,21.61067615313964L237.59607409165304,23.62097160924565L237.60546174911659,21.61067615313964L237.61008871419122,20.354241493073385L237.61624017064887,21.86196308515288L237.64376125193087,20.102954561060127L237.64528574331385,24.877406269311905L237.6513837088457,24.12354547327215L237.6559839284575,24.12354547327215L237.6590329112234,23.369684677232392L237.680375790585,23.62097160924565L237.68650050157973,20.605528425086625L237.7034838704953,21.108102289113123L237.70808409010704,21.108102289113123L237.76053194277375,25.379980133338403L237.77286160115185,26.13384092937816L237.78818675137006,20.856815357099883L237.78971124275304,22.364536949179396L237.80674810259433,22.113250017166138L237.8422125863455,23.118397745219152L237.84986178872322,24.12354547327215L237.87599210593658,21.86196308515288L237.93312041460365,23.62097160924565L237.96526846096032,21.61067615313964L237.9667929523433,24.626119337298647L237.9728909178752,21.35938922112638L237.97901562886992,22.867110813205894L238.00685765570623,22.615823881192636L238.01621856770691,21.108102289113123L238.01776980455276,21.108102289113123L238.10479954069632,23.87225854125889L238.11707570814866,22.615823881192636L238.129351875601,23.62097160924565L238.13090311244682,22.615823881192636L238.15743461160307,25.379980133338403L238.17727974504456,25.63126706535166L238.18337771057642,22.867110813205894L238.2004145704177,22.615823881192636L238.2406130010949,22.364536949179396L238.24523996616958,22.615823881192636L238.24834243986123,22.113250017166138L238.25446715085593,22.113250017166138L238.26685030015975,22.867110813205894L238.3596570562809,22.615823881192636L238.36880400457872,24.374832405285407L238.37035524142453,22.113250017166138L238.37340422419047,23.118397745219152L268.88326423526695,36.93917900594799L268.8952729480907,35.934031277894974L268.9321014504477,32.41601422970945L268.9383866342196,30.40571877360344L268.95569094868944,30.40571877360344L268.9603981501526,27.89284945347093L268.9871971039375,28.646710249510686L268.99658476140104,25.63126706535166L269.03913679280987,29.400571045550425L269.0704289843551,23.62097160924565L269.084497097819,27.390275589444414L269.1098250511466,23.87225854125889L269.1130077612268,27.390275589444414L269.127209602005,27.641562521457672L269.141625406486,27.390275589444414L269.15416902856697,26.887701725417916L269.2076866997481,22.867110813205894L269.21084266436543,25.63126706535166L269.21560335675434,23.369684677232392L269.21878606683464,25.128693201325163L269.2283341970753,26.636414793404658L269.24729673024245,25.379980133338403L269.2488747125511,25.128693201325163L269.25981360686046,24.626119337298647L269.2645208083237,25.379980133338403L269.2723304834785,23.87225854125889L269.2832961232508,23.118397745219152L269.28642534240527,25.128693201325163L269.3885395196014,21.35938922112638L269.40798347109995,24.12354547327215L269.41360001830043,22.113250017166138L269.4215434207696,24.374832405285407L269.44681788317143,24.12354547327215L269.453156557869,23.369684677232392L269.45473454017775,22.867110813205894L269.4578905047951,21.61067615313964L269.4626511971841,24.374832405285407L269.47372381880774,22.113250017166138L269.4799822571168,21.86196308515288L269.4862406954258,25.63126706535166L269.5004157907411,24.12354547327215L269.50196702758694,23.369684677232392L269.5097767027418,24.12354547327215L269.51603514105085,22.615823881192636L269.5176131233595,24.374832405285407L269.5634013557743,21.86196308515288L269.6121315891036,24.877406269311905L269.6309336494936,22.867110813205894L269.64189928926584,25.128693201325163L269.64973570988354,24.374832405285407L269.67185420766805,23.118397745219152L269.68610953937196,21.61067615313964L269.73229895372964,21.35938922112638L269.7496835045881,21.86196308515288L269.76064914436034,22.113250017166138L269.7622003812061,23.369684677232392L269.7669075826694,22.615823881192636L269.7762952401329,23.118397745219152L269.83599111323446,22.867110813205894L269.84072506016054,23.87225854125889L269.84388102477794,22.364536949179396L269.8494975719783,22.615823881192636L269.8513697543785,21.86196308515288L269.858858483979,22.615823881192636L269.9369017446019,23.369684677232392L269.9587795332207,21.61067615313964L270.0010373645381,21.61067615313964L270.01047851292736,24.877406269311905L270.0167904421621,21.61067615313964L270.06739285789155,23.369684677232392L270.0752025330464,22.615823881192636L270.0990862313796,21.61067615313964L270.1038469237685,22.867110813205894L270.1085541252317,23.118397745219152L270.1416650082513,23.369684677232392L270.1589693227212,24.374832405285407L270.17932261995696,20.856815357099883L270.18090060226564,21.61067615313964L270.19665367988966,22.113250017166138L270.20138762681574,25.128693201325163L270.2299785266122,22.113250017166138L270.256777480397,21.86196308515288L270.2599066995515,24.626119337298647L270.2646139010147,22.113250017166138L270.2975108203314,22.364536949179396L270.30069353041165,23.62097160924565L270.3085834419551,23.118397745219152L270.3258877564249,21.61067615313964L270.3389930332259,20.102954561060127L270.3452247260721,22.364536949179396L270.3717562252283,22.364536949179396L270.4033693623278,21.108102289113123L270.4190154581004,21.86196308515288L270.4221446772549,22.615823881192636L270.4315055892556,21.108102289113123L270.4393152644104,20.102954561060127L270.4471516850282,23.369684677232392L270.4518856319542,23.62097160924565L270.475475130196,23.118397745219152L270.47707985796757,23.62097160924565L270.51947141659923,21.61067615313964L270.5320150386802,20.856815357099883L270.570020341403,23.369684677232392L270.5748612701805,22.364536949179396L270.58735140133564,22.364536949179396L270.6203018115781,22.867110813205894L270.6297964508931,22.615823881192636L270.6471810017515,20.102954561060127L270.64875898406024,23.118397745219152L270.69930790886394,22.113250017166138L270.7008858911726,21.86196308515288L270.7103537850248,22.615823881192636L270.81407268999243,20.102954561060127L270.81722865460983,20.605528425086625L270.8283012762335,22.615823881192636L270.83295498677097,23.118397745219152L270.84389388108036,24.374832405285407L270.908136482868,23.62097160924565L270.94087292940753,20.354241493073385L270.9567062434201,21.86196308515288L270.9819539603591,20.605528425086625L270.9851099249765,22.867110813205894L270.98826588959383,24.12354547327215L270.9961558011373,22.113250017166138L271.0460360893696,21.86196308515288L271.0759107713832,21.35938922112638L271.0931081040016,23.62097160924565L271.0946860863103,22.113250017166138L271.0962373231561,21.86196308515288L271.1009445246193,19.60038069703363L271.1258980414669,23.118397745219152L271.1682361091729,22.867110813205894L271.17291656517324,23.118397745219152L271.2043424840327,22.364536949179396L271.21378363242195,23.369684677232392L271.2153616147306,22.113250017166138" fill="none"></path></g></g></g></g></g></g><g transform="translate(41, 176)" clip-path="url(#clip_1)"><clipPath id="clip_1"><rect width="288" height="23"></rect></clipPath><g><g><line x1="0" y1="0" x2="0" y2="5" style="visibility: inherit;" fill="rgb(0, 0, 0)" stroke="rgb(204, 204, 204)" stroke-width="1px"></line><line x1="19.256733258565266" y1="0" x2="19.256733258565266" y2="5" style="visibility: inherit;" fill="rgb(0, 0, 0)" stroke="rgb(204, 204, 204)" stroke-width="1px"></line><line x1="38.51346651713053" y1="0" x2="38.51346651713053" y2="5" style="visibility: inherit;" fill="rgb(0, 0, 0)" stroke="rgb(204, 204, 204)" stroke-width="1px"></line><line x1="57.770199775695815" y1="0" x2="57.770199775695815" y2="5" style="visibility: inherit;" fill="rgb(0, 0, 0)" stroke="rgb(204, 204, 204)" stroke-width="1px"></line><line x1="77.02693303426106" y1="0" x2="77.02693303426106" y2="5" style="visibility: inherit;" fill="rgb(0, 0, 0)" stroke="rgb(204, 204, 204)" stroke-width="1px"></line><line x1="96.28366629282633" y1="0" x2="96.28366629282633" y2="5" style="visibility: inherit;" fill="rgb(0, 0, 0)" stroke="rgb(204, 204, 204)" stroke-width="1px"></line><line x1="115.54039955139159" y1="0" x2="115.54039955139159" y2="5" style="visibility: inherit;" fill="rgb(0, 0, 0)" stroke="rgb(204, 204, 204)" stroke-width="1px"></line><line x1="134.79713280995685" y1="0" x2="134.79713280995685" y2="5" style="visibility: inherit;" fill="rgb(0, 0, 0)" stroke="rgb(204, 204, 204)" stroke-width="1px"></line><line x1="154.05386606852213" y1="0" x2="154.05386606852213" y2="5" style="visibility: inherit;" fill="rgb(0, 0, 0)" stroke="rgb(204, 204, 204)" stroke-width="1px"></line><line x1="173.3105993270874" y1="0" x2="173.3105993270874" y2="5" style="visibility: inherit;" fill="rgb(0, 0, 0)" stroke="rgb(204, 204, 204)" stroke-width="1px"></line><line x1="192.56733258565265" y1="0" x2="192.56733258565265" y2="5" style="visibility: inherit;" fill="rgb(0, 0, 0)" stroke="rgb(204, 204, 204)" stroke-width="1px"></line><line x1="211.82406584421796" y1="0" x2="211.82406584421796" y2="5" style="visibility: inherit;" fill="rgb(0, 0, 0)" stroke="rgb(204, 204, 204)" stroke-width="1px"></line><line x1="231.08079910278326" y1="0" x2="231.08079910278326" y2="5" style="visibility: inherit;" fill="rgb(0, 0, 0)" stroke="rgb(204, 204, 204)" stroke-width="1px"></line><line x1="250.33753236134848" y1="0" x2="250.33753236134848" y2="5" style="visibility: inherit;" fill="rgb(0, 0, 0)" stroke="rgb(204, 204, 204)" stroke-width="1px"></line><line x1="269.59426561991376" y1="0" x2="269.59426561991376" y2="5" style="visibility: inherit;" fill="rgb(0, 0, 0)" stroke="rgb(204, 204, 204)" stroke-width="1px"></line><line x1="288.850998878479" y1="0" x2="288.850998878479" y2="5" style="visibility: inherit;" fill="rgb(0, 0, 0)" stroke="rgb(204, 204, 204)" stroke-width="1px"></line></g><g transform="translate(0, 8)"><text style="text-anchor: middle; visibility: hidden; font-family: Roboto, sans-serif; font-size: 12px; font-weight: 200;" x="0" y="0" dx="0em" dy="0.95em" fill="rgb(33, 33, 33)" stroke="none" stroke-width="1px">-0.2</text><text style="text-anchor: middle; visibility: inherit; font-family: Roboto, sans-serif; font-size: 12px; font-weight: 200;" x="19.256733258565266" y="0" dx="0em" dy="0.95em" fill="rgb(33, 33, 33)" stroke="none" stroke-width="1px">0</text><text style="text-anchor: middle; visibility: hidden; font-family: Roboto, sans-serif; font-size: 12px; font-weight: 200;" x="38.51346651713053" y="0" dx="0em" dy="0.95em" fill="rgb(33, 33, 33)" stroke="none" stroke-width="1px">0.2</text><text style="text-anchor: middle; visibility: inherit; font-family: Roboto, sans-serif; font-size: 12px; font-weight: 200;" x="57.770199775695815" y="0" dx="0em" dy="0.95em" fill="rgb(33, 33, 33)" stroke="none" stroke-width="1px">0.4</text><text style="text-anchor: middle; visibility: hidden; font-family: Roboto, sans-serif; font-size: 12px; font-weight: 200;" x="77.02693303426106" y="0" dx="0em" dy="0.95em" fill="rgb(33, 33, 33)" stroke="none" stroke-width="1px">0.6</text><text style="text-anchor: middle; visibility: inherit; font-family: Roboto, sans-serif; font-size: 12px; font-weight: 200;" x="96.28366629282633" y="0" dx="0em" dy="0.95em" fill="rgb(33, 33, 33)" stroke="none" stroke-width="1px">0.8</text><text style="text-anchor: middle; visibility: hidden; font-family: Roboto, sans-serif; font-size: 12px; font-weight: 200;" x="115.54039955139159" y="0" dx="0em" dy="0.95em" fill="rgb(33, 33, 33)" stroke="none" stroke-width="1px">1</text><text style="text-anchor: middle; visibility: inherit; font-family: Roboto, sans-serif; font-size: 12px; font-weight: 200;" x="134.79713280995685" y="0" dx="0em" dy="0.95em" fill="rgb(33, 33, 33)" stroke="none" stroke-width="1px">1.2</text><text style="text-anchor: middle; visibility: hidden; font-family: Roboto, sans-serif; font-size: 12px; font-weight: 200;" x="154.05386606852213" y="0" dx="0em" dy="0.95em" fill="rgb(33, 33, 33)" stroke="none" stroke-width="1px">1.4</text><text style="text-anchor: middle; visibility: inherit; font-family: Roboto, sans-serif; font-size: 12px; font-weight: 200;" x="173.3105993270874" y="0" dx="0em" dy="0.95em" fill="rgb(33, 33, 33)" stroke="none" stroke-width="1px">1.6</text><text style="text-anchor: middle; visibility: hidden; font-family: Roboto, sans-serif; font-size: 12px; font-weight: 200;" x="192.56733258565265" y="0" dx="0em" dy="0.95em" fill="rgb(33, 33, 33)" stroke="none" stroke-width="1px">1.8</text><text style="text-anchor: middle; visibility: inherit; font-family: Roboto, sans-serif; font-size: 12px; font-weight: 200;" x="211.82406584421796" y="0" dx="0em" dy="0.95em" fill="rgb(33, 33, 33)" stroke="none" stroke-width="1px">2</text><text style="text-anchor: middle; visibility: hidden; font-family: Roboto, sans-serif; font-size: 12px; font-weight: 200;" x="231.08079910278326" y="0" dx="0em" dy="0.95em" fill="rgb(33, 33, 33)" stroke="none" stroke-width="1px">2.2</text><text style="text-anchor: middle; visibility: inherit; font-family: Roboto, sans-serif; font-size: 12px; font-weight: 200;" x="250.33753236134848" y="0" dx="0em" dy="0.95em" fill="rgb(33, 33, 33)" stroke="none" stroke-width="1px">2.4</text><text style="text-anchor: middle; visibility: hidden; font-family: Roboto, sans-serif; font-size: 12px; font-weight: 200;" x="269.59426561991376" y="0" dx="0em" dy="0.95em" fill="rgb(33, 33, 33)" stroke="none" stroke-width="1px">2.6</text><text style="text-anchor: middle; visibility: hidden; font-family: Roboto, sans-serif; font-size: 12px; font-weight: 200;" x="288.850998878479" y="0" dx="0em" dy="0.95em" fill="rgb(33, 33, 33)" stroke="none" stroke-width="1px">2.8</text></g><line x1="0" y1="0" x2="288.850998878479" y2="0" fill="rgb(0, 0, 0)" stroke="rgb(204, 204, 204)" stroke-width="1px"></line></g></g></g></g></svg>