<svg viewBox="0 0 330 200" xmlns="http://www.w3.org/2000/svg"><g><g><g><g><g><line x1="37.72000217437744" y1="173.61199951171875" x2="32.72000217437744" y2="173.61199951171875" style="visibility: inherit;" fill="rgb(0, 0, 0)" stroke="rgb(204, 204, 204)" stroke-width="1px"></line><line x1="37.72000217437744" y1="157.82909046519885" x2="32.72000217437744" y2="157.82909046519885" style="visibility: inherit;" fill="rgb(0, 0, 0)" stroke="rgb(204, 204, 204)" stroke-width="1px"></line><line x1="37.72000217437744" y1="142.04618141867897" x2="32.72000217437744" y2="142.04618141867897" style="visibility: inherit;" fill="rgb(0, 0, 0)" stroke="rgb(204, 204, 204)" stroke-width="1px"></line><line x1="37.72000217437744" y1="126.2632723721591" x2="32.72000217437744" y2="126.2632723721591" style="visibility: inherit;" fill="rgb(0, 0, 0)" stroke="rgb(204, 204, 204)" stroke-width="1px"></line><line x1="37.72000217437744" y1="110.4803633256392" x2="32.72000217437744" y2="110.4803633256392" style="visibility: inherit;" fill="rgb(0, 0, 0)" stroke="rgb(204, 204, 204)" stroke-width="1px"></line><line x1="37.72000217437744" y1="94.69745427911931" x2="32.72000217437744" y2="94.69745427911931" style="visibility: inherit;" fill="rgb(0, 0, 0)" stroke="rgb(204, 204, 204)" stroke-width="1px"></line><line x1="37.72000217437744" y1="78.91454523259944" x2="32.72000217437744" y2="78.91454523259944" style="visibility: inherit;" fill="rgb(0, 0, 0)" stroke="rgb(204, 204, 204)" stroke-width="1px"></line><line x1="37.72000217437744" y1="63.13163618607955" x2="32.72000217437744" y2="63.13163618607955" style="visibility: inherit;" fill="rgb(0, 0, 0)" stroke="rgb(204, 204, 204)" stroke-width="1px"></line><line x1="37.72000217437744" y1="47.34872713955966" x2="32.72000217437744" y2="47.34872713955966" style="visibility: inherit;" fill="rgb(0, 0, 0)" stroke="rgb(204, 204, 204)" stroke-width="1px"></line><line x1="37.72000217437744" y1="31.565818093039763" x2="32.72000217437744" y2="31.565818093039763" style="visibility: inherit;" fill="rgb(0, 0, 0)" stroke="rgb(204, 204, 204)" stroke-width="1px"></line><line x1="37.72000217437744" y1="15.782909046519892" x2="32.72000217437744" y2="15.782909046519892" style="visibility: inherit;" fill="rgb(0, 0, 0)" stroke="rgb(204, 204, 204)" stroke-width="1px"></line><line x1="37.72000217437744" y1="0" x2="32.72000217437744" y2="0" style="visibility: inherit;" fill="rgb(0, 0, 0)" stroke="rgb(204, 204, 204)" stroke-width="1px"></line></g><g transform="translate(27.72000217437744, 0)"><text style="text-anchor: end; visibility: hidden; font-family: Roboto, sans-serif; font-size: 12px; font-weight: 200;" x="0" y="173.61199951171875" dx="0em" dy="0.3em" fill="rgb(33, 33, 33)" stroke="none" stroke-width="1px">0</text><text style="text-anchor: end; visibility: inherit; font-family: Roboto, sans-serif; font-size: 12px; font-weight: 200;" x="0" y="157.82909046519885" dx="0em" dy="0.3em" fill="rgb(33, 33, 33)" stroke="none" stroke-width="1px">10</text><text style="text-anchor: end; visibility: hidden; font-family: Roboto, sans-serif; font-size: 12px; font-weight: 200;" x="0" y="142.04618141867897" dx="0em" dy="0.3em" fill="rgb(33, 33, 33)" stroke="none" stroke-width="1px">20</text><text style="text-anchor: end; visibility: inherit; font-family: Roboto, sans-serif; font-size: 12px; font-weight: 200;" x="0" y="126.2632723721591" dx="0em" dy="0.3em" fill="rgb(33, 33, 33)" stroke="none" stroke-width="1px">30</text><text style="text-anchor: end; visibility: hidden; font-family: Roboto, sans-serif; font-size: 12px; font-weight: 200;" x="0" y="110.4803633256392" dx="0em" dy="0.3em" fill="rgb(33, 33, 33)" stroke="none" stroke-width="1px">40</text><text style="text-anchor: end; visibility: inherit; font-family: Roboto, sans-serif; font-size: 12px; font-weight: 200;" x="0" y="94.69745427911931" dx="0em" dy="0.3em" fill="rgb(33, 33, 33)" stroke="none" stroke-width="1px">50</text><text style="text-anchor: end; visibility: hidden; font-family: Roboto, sans-serif; font-size: 12px; font-weight: 200;" x="0" y="78.91454523259944" dx="0em" dy="0.3em" fill="rgb(33, 33, 33)" stroke="none" stroke-width="1px">60</text><text style="text-anchor: end; visibility: inherit; font-family: Roboto, sans-serif; font-size: 12px; font-weight: 200;" x="0" y="63.13163618607955" dx="0em" dy="0.3em" fill="rgb(33, 33, 33)" stroke="none" stroke-width="1px">70</text><text style="text-anchor: end; visibility: hidden; font-family: Roboto, sans-serif; font-size: 12px; font-weight: 200;" x="0" y="47.34872713955966" dx="0em" dy="0.3em" fill="rgb(33, 33, 33)" stroke="none" stroke-width="1px">80</text><text style="text-anchor: end; visibility: inherit; font-family: Roboto, sans-serif; font-size: 12px; font-weight: 200;" x="0" y="31.565818093039763" dx="0em" dy="0.3em" fill="rgb(33, 33, 33)" stroke="none" stroke-width="1px">90</text><text style="text-anchor: end; visibility: hidden; font-family: Roboto, sans-serif; font-size: 12px; font-weight: 200;" x="0" y="15.782909046519892" dx="0em" dy="0.3em" fill="rgb(33, 33, 33)" stroke="none" stroke-width="1px">100</text><text style="text-anchor: end; visibility: hidden; font-family: Roboto, sans-serif; font-size: 12px; font-weight: 200;" x="0" y="0" dx="0em" dy="0.3em" fill="rgb(33, 33, 33)" stroke="none" stroke-width="1px">110</text></g><line x1="37.72000217437744" y1="0" x2="37.72000217437744" y2="173.61199951171875" fill="rgb(0, 0, 0)" stroke="rgb(204, 204, 204)" stroke-width="1px"></line></g></g><g transform="translate(37, 0)" clip-path="url(#clip_0)"><clipPath id="clip_0"><rect width="283" height="173"></rect></clipPath><g><g><g><line x1="0" y1="0" x2="0" y2="173.61199951171875" fill="rgb(0, 0, 0)" stroke="rgb(66, 66, 66)" stroke-width="1px" opacity="0.25"></line><line x1="35.43499972820282" y1="0" x2="35.43499972820282" y2="173.61199951171875" fill="rgb(0, 0, 0)" stroke="rgb(66, 66, 66)" stroke-width="1px" opacity="0.25"></line><line x1="70.86999945640564" y1="0" x2="70.86999945640564" y2="173.61199951171875" fill="rgb(0, 0, 0)" stroke="rgb(66, 66, 66)" stroke-width="1px" opacity="0.25"></line><line x1="106.30499918460845" y1="0" x2="106.30499918460845" y2="173.61199951171875" fill="rgb(0, 0, 0)" stroke="rgb(66, 66, 66)" stroke-width="1px" opacity="0.25"></line><line x1="141.73999891281127" y1="0" x2="141.73999891281127" y2="173.61199951171875" fill="rgb(0, 0, 0)" stroke="rgb(66, 66, 66)" stroke-width="1px" opacity="0.25"></line><line x1="177.1749986410141" y1="0" x2="177.1749986410141" y2="173.61199951171875" fill="rgb(0, 0, 0)" stroke="rgb(66, 66, 66)" stroke-width="1px" opacity="0.25"></line><line x1="212.6099983692169" y1="0" x2="212.6099983692169" y2="173.61199951171875" fill="rgb(0, 0, 0)" stroke="rgb(66, 66, 66)" stroke-width="1px" opacity="0.25"></line><line x1="248.04499809741972" y1="0" x2="248.04499809741972" y2="173.61199951171875" fill="rgb(0, 0, 0)" stroke="rgb(66, 66, 66)" stroke-width="1px" opacity="0.25"></line><line x1="283.47999782562255" y1="0" x2="283.47999782562255" y2="173.61199951171875" fill="rgb(0, 0, 0)" stroke="rgb(66, 66, 66)" stroke-width="1px" opacity="0.25"></line></g><g><line x1="0" y1="173.61199951171875" x2="283.47999782562255" y2="173.61199951171875" fill="rgb(0, 0, 0)" stroke="rgb(66, 66, 66)" stroke-width="1px" opacity="0.25"></line><line x1="0" y1="157.82909046519885" x2="283.47999782562255" y2="157.82909046519885" fill="rgb(0, 0, 0)" stroke="rgb(66, 66, 66)" stroke-width="1px" opacity="0.25"></line><line x1="0" y1="142.04618141867897" x2="283.47999782562255" y2="142.04618141867897" fill="rgb(0, 0, 0)" stroke="rgb(66, 66, 66)" stroke-width="1px" opacity="0.25"></line><line x1="0" y1="126.2632723721591" x2="283.47999782562255" y2="126.2632723721591" fill="rgb(0, 0, 0)" stroke="rgb(66, 66, 66)" stroke-width="1px" opacity="0.25"></line><line x1="0" y1="110.4803633256392" x2="283.47999782562255" y2="110.4803633256392" fill="rgb(0, 0, 0)" stroke="rgb(66, 66, 66)" stroke-width="1px" opacity="0.25"></line><line x1="0" y1="94.69745427911931" x2="283.47999782562255" y2="94.69745427911931" fill="rgb(0, 0, 0)" stroke="rgb(66, 66, 66)" stroke-width="1px" opacity="0.25"></line><line x1="0" y1="78.91454523259944" x2="283.47999782562255" y2="78.91454523259944" fill="rgb(0, 0, 0)" stroke="rgb(66, 66, 66)" stroke-width="1px" opacity="0.25"></line><line x1="0" y1="63.13163618607955" x2="283.47999782562255" y2="63.13163618607955" fill="rgb(0, 0, 0)" stroke="rgb(66, 66, 66)" stroke-width="1px" opacity="0.25"></line><line x1="0" y1="47.34872713955966" x2="283.47999782562255" y2="47.34872713955966" fill="rgb(0, 0, 0)" stroke="rgb(66, 66, 66)" stroke-width="1px" opacity="0.25"></line><line x1="0" y1="31.565818093039763" x2="283.47999782562255" y2="31.565818093039763" fill="rgb(0, 0, 0)" stroke="rgb(66, 66, 66)" stroke-width="1px" opacity="0.25"></line><line x1="0" y1="15.782909046519892" x2="283.47999782562255" y2="15.782909046519892" fill="rgb(0, 0, 0)" stroke="rgb(66, 66, 66)" stroke-width="1px" opacity="0.25"></line><line x1="0" y1="0" x2="283.47999782562255" y2="0" fill="rgb(0, 0, 0)" stroke="rgb(66, 66, 66)" stroke-width="1px" opacity="0.25"></line></g></g></g><g><g><line x1="0" y1="173.61199951171875" x2="283.47999782562255" y2="173.61199951171875" fill="rgb(0, 0, 0)" stroke="rgb(153, 153, 153)" stroke-width="1.5px"></line></g></g><g><g><line x1="35.43499972820282" y1="0" x2="35.43499972820282" y2="173.61199951171875" fill="rgb(0, 0, 0)" stroke="rgb(153, 153, 153)" stroke-width="1.5px"></line></g></g><g><g><g><g><g><path style="fill: none;" stroke="rgb(255, 112, 67)" stroke-width="2px" d="M38.80132470238208,30.825994231484163L39.86437469422817,32.05903400074352L42.699174672484396,29.03934476990428L43.053524669766425,27.707128932769297L43.58504966568947,26.81369480188167L45.53397465074062,26.013861179247044L48.19159963035584,25.660015819234637L48.723124626278874,25.15317142452632L52.40836459801197,22.363383655692427L53.82576458714008,22.196262834845484L54.534464581704135,21.79963234968838L58.07796455452442,20.67285163208811L63.21603951511383,19.702038463894663L63.74756451103687,19.712685945406637L65.342139498806,19.225621172257327L67.29106448385716,19.22954196963289L68.17693947706222,19.42921350276011L68.53128947434425,19.45034158914282L76.46872941346167,19.265718681946705L77.35460440666675,18.661718196887286L80.01222938628196,18.496622730456735L81.07527937812804,18.890790168092188L81.96115437133312,18.535423546892424L83.20137936182022,18.42084901925308L84.2644293536663,18.352104650125064L87.77249432675838,17.817641404690114L90.6072943050146,17.29967747591317L90.96164430229665,17.38347242639909L92.37904429142475,17.236462927984576L94.5051442751169,17.04961406025428L96.09971926288605,17.43072073917891L97.51711925201415,16.968882388440672L100.35191923027038,16.7904225877728L101.06061922483444,16.979276265927012L110.76980915036201,16.69801573641063L110.94698414900301,16.3319730566788L113.95895912590026,16.408276997709702L114.4904841218233,16.25677299821197L115.02200911774635,16.363156962394417L117.67963409736157,16.32834415907955L118.21115909328459,16.307456477120425L118.38833409192563,16.492210231132116L120.30182407724857,16.504419301912993L123.66814905142785,16.215815199705737L127.38882402288914,16.042652738413402L130.4007989997864,16.037398443196448L131.28667399299144,15.935602684521998L136.21213895521163,15.973168410862751L137.98388894162179,15.897064665124587L139.04693893346786,15.950045599223865L140.28716392395495,15.883190978141979L140.46433892259597,15.843078205493029L143.12196390221118,16.016296904985545L146.31111387774942,15.922941761599201L146.66546387503146,15.96557185710826L148.79156385872363,15.89250673287287L150.03178884921073,15.848667658331651L150.20896384785175,15.921007395147695L150.56331384513376,15.865768055696574L151.09483884105683,15.931267633566684L151.44918883833884,15.871924198747955L153.71702882094382,15.934961319397498L155.48877880735395,15.87414041024645L158.5007537842512,15.936291046296606L163.10730374891756,15.97358142792665L163.81600374348164,15.89731247536395L164.52470373804567,15.851551103826349L165.9421037271738,15.824094280903779L167.53667871494292,15.807620187150235L169.9816936961889,15.797735730898086L170.69039369075298,15.791805057146782L172.28496867852212,15.78824665289603L172.99366867308615,15.786111610345547L173.3480186703682,15.784830584815293L173.70236866765023,15.784061969497113L174.94259365813733,15.78360080030624L175.82846865134238,15.783324098791697L176.18281864862442,15.881801259423739L177.06869364182947,15.842244374262204L177.4230436391115,15.818510243165267L178.13174363367557,15.804269764507136L178.84044362823963,15.993011840393747L179.9034936200857,15.908970722844204L180.08066861872672,15.957189233855228L184.15569358747004,15.887477158921094L184.8643935820341,15.845649913960624L190.8529085361004,15.820553566984335L192.09313352658748,15.805495758798546L193.15618351843355,15.7964610738871L195.63663349940776,15.889683444480966L196.34533349397182,15.846973685296527L197.58555848445891,15.821347829785863L197.93990848174096,15.904615498020242L199.00295847358703,15.855932917420116L199.35730847086907,15.826723369060039L201.97949845075607,15.809197640043996L202.1566734493971,15.79868220263435L203.92842343580722,15.792372940188567L204.45994843173025,15.788587382721111L206.0545234194994,15.78631604824062L206.76322341406345,15.784953247552345L207.4719234086275,15.784135567139371L209.06649839639664,15.882288140432319L209.24367339503766,15.842536502867345L210.3067233868837,15.917328701869131L210.48389838552475,15.863560839729427L211.3697733787298,15.831300122445636L214.55892335426805,16.009230055156834L215.0904483501911,15.918701651702078L216.68502333796025,15.864384609629218L222.14201329610347,15.930437565926228L224.44528827843664,15.871426158163706L225.50833827028274,15.836019313506203L226.03986326620577,15.814775206711682L226.3942132634878,15.900671924175718L227.10291325805184,15.8535667731134L228.16596324989794,15.825303682475992L229.05183824310302,15.808345828093545L230.82358822951318,15.896814297004827L231.88663822135922,15.851252196810862L232.7725132145643,15.823914936694477L234.54426320097446,15.90615576216539L242.12735314280985,15.856857075907179L242.8360531373739,15.827277864152292L243.0132281360149,15.809530337099343L243.19040313465595,15.89752500240831L246.3795531101942,15.950321801593692L248.68282809252736,15.883356699564187L250.98610307486058,15.941820819887228L255.73439303843972,15.878256110540278L257.8604930221319,15.840117284932143L259.80941800718307,15.915877171107999L260.34094300310613,15.961333102813512L260.87246799902914,15.988606661836831L264.4159679718494,15.906327615710032L265.4790179636955,15.856960188034L266.7192429541826,15.925982912969124L267.7822929460287,15.86875336638943L38.092624707818025,24.909588340190574L38.624149703741075,28.06529614903401L40.573074688792225,27.98585720352508L35.612174726843826,78.83807551124634L36.143699722766875,109.34940649587912L36.32087472140788,127.36027554203655L44.82527465617656,85.3926948454301L45.35679965209961,61.395864605955246L45.888324648022646,45.81404828378134L46.06549964666367,36.46495849047701L49.963349616765974,30.362288706790636L52.23118959937096,26.602043655038102L52.585539596652985,24.049967079364293L54.00293958578109,22.02550522625626L54.71163958034515,21.304044022095205L59.141014546370506,20.476594573435573L59.31818954501151,20.078768085780528L61.26711453006268,20.431931282432014L62.684514519190785,20.15061329271917L63.39321451375484,20.277752043513704L63.74756451103687,19.762176204745913L69.55890446646214,19.255544338403748L70.2676044610262,18.95156521859846L74.69697942705155,19.163750472878263L77.53177940530777,18.60055935466092L77.70895440394878,19.051790136056493L80.36657938356399,18.43473997102709L81.07527937812804,18.557725779713202L83.91007935638427,17.941014994139614L84.0872543550253,17.86691806741774L88.12684432404042,17.52653036676233L89.01271931724548,17.420940927909847L89.89859431045055,17.16030090151687L90.4301193063736,17.20120324876257L91.31599429957866,16.92981511248776L91.84751929550171,16.56969586764137L93.97361927919388,16.74819704689654L95.391019268322,17.151227299071873L96.63124425880908,17.09711590575485L97.87146924929618,16.571433162060867L99.4660442370653,16.749239423548225L100.17474423162936,16.65863681735914L100.5290942289114,16.8015616167272L100.88344422619342,16.788673314807273L101.41496922211647,16.485010789033076L102.79693421151637,16.500099636650045L104.39150919928551,16.706439308301743L106.16325918569565,16.435670385129757L106.8719591802597,16.47049539430806L107.22630917754172,16.392747218274298L107.75783417346477,16.24745513111328L108.64370916666984,16.258923060357425L109.17523416259289,16.463090180985418L109.3524091612339,16.48694727182145L112.89590913405418,16.501261526323088L114.4904841218233,16.21392053440181L115.5535341136694,16.04151593924905L116.79375910415648,15.938073182157382L116.97093410279751,16.17193707252464L118.70724908947945,16.01632586212275L119.94747407996654,16.021602317422346L123.66814905142785,15.926125009061375L124.37684904599189,15.967481805585514L126.14859903240203,16.090939065040782L126.85729902696609,15.967727057632425L128.4518740147352,15.99244303472816L130.7551489970684,16.0072726209856L131.28667399299144,16.114813554280826L132.3497239848375,15.982051751176447L132.70407398211955,16.099681032395335L138.86976393482684,15.972972238045138L139.93281392667294,15.89694696143505L142.94478890357016,15.949974977009747L144.71653888998028,15.981791786354556L145.24806388590335,16.000881871961422L145.6024138831854,16.012335923325562L148.79156385872363,16.01920835414405L151.27201383969785,16.02333181263514L151.62636383697986,16.025805887729796L154.95725381143095,15.92864715124583L155.66595380599497,15.870351909355454L157.0833537951231,15.835374764221257L160.09532877202034,15.91303165868144L161.1583787638664,15.959625795357569L165.41057873125075,15.888939095822503L167.71385371358392,15.846527076101447L168.24537870950698,15.821079864268821L168.56429370706078,16.00309790025077L168.91864370434286,15.915022358758417L169.27299370162487,15.960820215403762L169.9816936961889,15.988298929390966L170.69039369075298,15.90614297624256L171.93061868124008,15.955492585894252L174.58824366085528,15.886459170144493L180.61219361464978,15.84503912069466L181.3208936092138,15.82018709102476L182.56111859970093,15.805275873222836L184.15569358747004,15.8949723240824L186.42353357007502,15.850147013057404L188.19528355648518,15.823251826442403L188.5496335537672,15.807114714473387L188.90398355104924,15.797432447291996L189.7898585442543,15.791623086983162L190.32138354017735,15.788137470797862L191.73878352930544,15.983332464168186L192.44748352386952,15.90316309710888L195.99098349668978,15.855061476873288L196.87685848989486,15.924843686272686L197.05403348853588,15.868069830371576L197.4083834858179,15.834005516830887L197.93990848174096,15.813566928706473L198.648608476305,15.801303775831853L198.825783474946,15.793945884107071L200.0660084654331,15.789531149072188L200.59753346135614,15.885525489592021L201.48340845456121,16.041765275444668L204.99147342765332,15.93822278387476L206.76322341406345,15.974740470473568L207.82627340590955,15.898007900892102L208.8893233977556,15.85196835914321L209.59802339231967,15.82434463409389L211.72412337601182,15.906413580605044L211.90129837465287,15.857011766970983L216.33067334067823,15.827370678790539L217.92524832844734,15.809586025882298L224.26811327979564,15.897558415678064L224.44528827843664,15.851698668014807L224.79963827571868,15.82418281941685L227.28008825669286,15.807673310258066L232.5953382159233,15.89641078630356L234.01273820505142,15.851010090390092L235.39470319445132,15.823769672842015L235.74905319173334,15.906068603853914L236.10340318901538,15.955447962461065L236.98927818222043,15.886432396084611L241.4186531482458,15.84502305625873L241.5958281468868,15.820177452363192L243.36757813329697,15.805270090025894L243.721928130579,15.796325672623498L244.60780312378404,15.790959022182044L247.08825310475825,15.78773903191719L248.15130309660435,15.785807037758282L249.74587808437346,15.784647841262926L252.54524306290148,15.783952323365712L253.25394305746556,15.783535012627372L253.60829305474758,15.881927807725145L255.91156803708077,15.940963484783811L258.0376680207729,15.877741709478231L260.16376800446506,15.83980864429489L261.93551799087527,15.81704880518491L262.9985679827213,15.803392901718919L266.01054295961853,15.893842541180053L267.07359295146466,15.849469143315991L267.2507679501056,15.822845104597564L37.20674971461296,51.02248649141401L38.26979970645905,48.27062139064253L39.15567469966411,43.06834779471265L43.23069966840744,36.79040182785076L44.47092465889453,31.543986524622383L45.35679965209961,29.185282795011354L47.66007463443279,26.980915104918772L48.90029962491989,26.052867217026186L51.5579246045351,24.70689303196465L53.82576458714008,23.30744943168322L54.35728958306312,21.579994637647648L56.83773956403732,20.93809448738929L57.014914562678335,20.454311215693515L57.369264559960364,20.85454352346131L63.03886451647281,21.390612452744225L63.21603951511383,20.725821994906475L63.39321451375484,20.721520446366846L64.63343950424195,19.92979406491704L66.5823644892931,20.046617325291678L69.38172946782112,19.524852192271968L70.2676044610262,18.71857720475639L77.88612940258979,18.136169030706277L79.48070439035892,18.575869578602223L81.07527937812804,18.34647399963603L82.13832936997413,18.01155028917483L82.84702936453819,18.00788242597961L86.00074434034825,17.70975216344021L86.35509433763026,17.43223082437583L86.53226933627128,17.463004384018696L94.85949427239895,17.678754882885936L96.27689426152706,17.31498927450253L100.35191923027038,17.195373091013206L102.08823421695232,16.72903065475664L102.79693421151637,16.646511556084207L103.50563420608043,16.399713733799228L103.68280920472145,16.350278221969L105.6317341897726,16.32061691487085L106.16325918569565,16.30282013061197L107.58065917482375,16.489428423138154L108.1121841707468,16.404107035572345L112.36438413813113,16.2542710214921L113.07308413269519,16.361655776125456L113.42743412997723,16.228800265823967L118.38833409192563,16.14908695964309L122.60509905958175,16.29854533901606L125.26272403919697,16.09229082201759L126.68012402832508,16.264467656440743L127.56599902153015,16.17048739401316L128.4518740147352,16.31138559963809L129.16057400929927,16.494567704553816L129.51492400658128,16.20990424134026L132.3497239848375,16.13774934495286L135.6806139592886,15.995813225579687L135.8577889579296,15.910651553955764L137.0980139484167,15.85955455098142L137.62953894433974,15.927539530737564L141.88173891172406,15.96833051859124L142.41326390764712,15.992805111303465L143.65348889813424,16.007489866930786L144.18501389405728,16.213587083388685L144.36218889269827,16.04131586864115L144.71653888998028,15.937953139792645L144.89371388862133,15.974578684024303L149.3230888546467,15.99655401056329L150.9176638424158,16.009739206486678L155.31160380871296,15.919007142499964L156.72900379784107,15.963211085648684L159.2094537788153,15.891090269997179L159.38662877745628,15.847817780606272L162.39860375435353,15.82185428697172L167.53667871494292,15.904919372331744L167.89102871222497,15.856115242007L169.8045186975479,15.92547594535292L172.81649367444513,15.868449185819701L173.70236866765023,15.932876311640522L177.6002186377525,15.872889405592263L178.13174363367557,15.836897261963326L179.01761862688062,15.815301975785967L180.9665436119318,15.80234480407955L181.3208936092138,15.794570501055686L182.56111859970093,15.789905919241352L183.62416859154703,15.787107170152769L184.8643935820341,15.785427920699602L186.069183572793,15.784420371027702L186.60070856871604,15.88245902276535L189.6126835456133,15.941282213807908L191.73878352930544,15.877932946892713L192.2703085252285,15.839923386743584L193.5105335157156,15.8171176506541L196.34533349397182,15.803434209000423L196.69968349125386,15.795224144008218L197.76273348309994,15.7902981050129L198.471433477664,15.787342481615712L201.30623345592022,15.884212289118116L204.45994843173025,15.942334173619574L208.00344840455054,15.878564122779716L211.1925983800888,15.840302092275795L211.54694837737082,15.817344873973438L211.90129837465287,15.902213724532782L212.4328233705759,15.854491853327637L212.96434836649894,15.924501912145299L215.97632334339616,15.867864765895147L217.92524832844734,15.83388247814503L220.54743830833434,15.813493105494983L225.86268826756475,15.801259481904946L226.2170382648468,15.892562489291672L230.4692382322311,15.94734429372372L231.1779382267952,15.881570194842201L231.5322882240772,15.940748917054028L232.5953382159233,15.87761296884037L233.12686321184634,15.839731399912159L233.48121320912838,15.915645640096L235.2175281958103,15.862551002665565L236.4577531862974,15.830694220207311L238.76102816863062,15.811580150732343L240.1784281577587,15.800111709047355L242.4817031400919,15.79323064403637L242.8360531373739,15.789102005029786L243.36757813329697,15.786624821625836L245.49367811698912,15.883781693124222L246.2023781115532,15.843432634482483L247.08825310475825,15.819223199297435L247.44260310204027,15.80469753818642L249.21435308845042,15.795982141519806L249.92305308301448,15.790752903519829L255.20286804251668,15.787615360719853L256.0887430357218,15.884376016580614L257.3289680262088,15.843789228556345L265.1246679664135,15.819437155741747L266.5420679555416,15.80482591205302L267.7822929460287,15.894702347380525L35.966524724125854,72.86574395758936L37.91544970917702,106.75243937909242L38.978499701023104,126.9858134504535L40.04154969286918,138.0407628963219L43.939399662971496,144.87101892692445L45.888324648022646,150.35017708685646L46.774199641227725,153.34174243819342L48.368774628996846,156.3203998274846L48.54594962763787,155.64151472254056L50.67204961133003,157.50297683501137L52.762714595294,158.22528137633088L53.294239591217035,157.86951864879657L55.06598957762718,156.37369965224624L63.39321451375484,156.3639968881828L64.27908950695992,156.75274795590772L64.45626450560093,155.9995667811352L66.22801449201107,156.83001943630143L79.3035293917179,156.93371830323815L81.25245437676907,156.7986512603187L81.42962937541007,157.3094701238115L81.7839793726921,155.74174099263297L82.13832936997413,156.28075123703707L82.66985436589718,154.63129375286456L82.84702936453819,154.43076471468703L87.41814432947636,155.98738137797326L88.30401932268143,155.737633197456L88.83554431860448,155.78507065222718L90.25294430773259,156.7013217589566L92.20186929278373,157.25107242299424L93.79644428055285,157.0877069137131L94.3279692764759,154.32632170654418L94.5051442751169,155.6287860284653L97.16276925473213,155.71976235083272L99.99756923298835,156.95806632274218L101.06061922483444,155.72818507507287L101.7693192193985,154.4970404187675L103.50563420608043,154.54749907731033L103.85998420336246,154.972346998599L105.4545591911316,155.52318529599444L106.16325918569565,155.26182918518722L107.22630917754172,155.10501551870288L108.1121841707468,156.39193186038278L112.71873413541317,155.98036348690172L114.3133091231823,157.21307018592432L116.97093410279751,156.57168966376742L118.21115909328459,155.79228862431023L119.4159490840435,156.31107981604345L120.12464907860756,155.83320907875736L120.30182407724857,155.44784345484499L123.66814905142785,155.3152672620383L124.19967404735087,156.12351018022102L125.26272403919697,156.21388320496766L130.57797399842738,155.08438884132664L131.64102399027345,156.18226949087554L134.2986489698887,155.55863652057513L134.6529989671707,155.87495900918012L137.80671394298076,154.5851047792319L137.98388894162179,156.67184450594468L141.35021391580105,155.0632360772906L141.52738891444207,155.7750051062909L142.0589139103651,156.7939256129356L143.65348889813424,156.6161324645964L145.6024138831854,155.5230247601854L150.03178884921073,156.0508783160278L150.56331384513376,156.07166090491097L152.65397882909772,156.08413045824088L153.1855038250208,156.09161219023883L153.53985382230283,156.58931713714134L153.89420381958485,156.09879465295685L156.020303803277,156.59362661477218L159.03227878017427,156.3973098841576L162.75295375163554,156.47680620887036L163.99317874212264,156.3272176406165L165.41057873125075,156.53339404428647L166.1192787258148,155.27609534491793L167.3595037163019,156.1000070299488L167.53667871494292,156.1011381332636L167.71385371358392,155.6086008875487L169.62734369890688,155.01714899549754L174.23389366357324,155.55006649413357L175.11976865677835,155.2779579040707L177.95456863503458,154.52283366078848L179.9034936200857,156.04262274563413L180.61219361464978,155.8694211995933L180.7893686132908,156.65328890583552L182.20676860241892,157.0249663480401L182.73829359834193,157.64254553952586L183.26981859426496,157.51987714671355L183.80134359018803,157.15034656640395L185.53765857686994,155.94219640281068L186.24635857143403,156.49966766468447L187.48658356192112,156.93279360334947L187.66375856056214,155.811664624978L188.7268085524082,156.02677587182185L189.7898585442543,154.57755171527614L190.1442085415363,154.29987631059325L190.67573353745937,155.3169892462725L196.87685848989486,155.53268428151705L199.00295847358703,156.45124675498977L202.5110234466791,155.6213796975029L202.86537344396112,157.19496627536654L206.2316984181404,156.26489777281049L206.58604841542243,156.49600212360284L210.1295483882427,156.733307915619L214.38174835562705,155.98790275696194L214.91327335155012,155.83658920638996L217.21654833388328,155.05529880526154L218.7756883219242,156.2634586507772L220.37026330969334,157.28428410270888L220.90178830561638,156.71306119537886L221.2561383028984,155.77846836173637L221.4333133015394,153.8367081199804L229.22901324174404,154.24994287957878L230.2920632335901,155.68160191382682L230.82358822951318,155.8500950635904L232.06381322000027,156.54305004269304L234.36708820233343,155.47917530704336L234.72143819961545,154.54492092103132L235.04035319716928,154.1816546525056L236.2805781876564,154.75284034371617L239.46972816319465,155.98334039230926L243.54475313193797,155.83385178759835L244.43062812514302,156.1387313509348L247.97412809796333,156.32165908893668L248.32847809524534,157.4178475471453L249.39152808709144,156.49726971741848L254.1398180506706,156.24085256420463L255.0256930438757,155.7910727276541L257.3289680262088,154.43612982877553L258.0376680207729,154.11637999715214L261.2268179963112,153.82588691663733L262.6442179854393,154.9339524283582L266.7192429541826,155.30286219076845L267.42794294874665,156.01742395591836L35.612174726843826,156.34751783346758L35.78934972548485,157.8279355200268L40.39589969015121,156.54603613806592L44.47092465889453,157.2565442320006L46.774199641227725,157.4855627252799L49.608999619483946,157.42568745816598L51.5579246045351,156.00875775632716L54.534464581704135,154.76402720906086L57.014914562678335,154.7076911514863L57.19208956131935,155.2657486061861L60.73558953413963,155.79786944208746L64.98778950152398,155.03206694668003L65.342139498806,155.16444453868007L37.20674971461296,153.8628665523096L40.573074688792225,153.96970839435406L40.75024968743324,155.71074758577348L41.10459968471527,155.37436655905466L41.99047467792034,154.38339249069733L48.54594962763787,154.47931032046822L49.78617461812496,155.227363289116L50.49487461268902,156.66262688571214L51.5579246045351,155.55092141285482L52.762714595294,155.67304358146646L53.648589588499064,155.25310097492968L54.18011458442211,155.7902808633336L54.534464581704135,157.59223651948722L36.32087472140788,109.84503505050846L37.738274710536,79.71706644600998L40.75024968743324,58.87827620016991L41.63612468063831,46.76957477882887L41.99047467792034,39.30706756294274L44.11657466161251,35.421422322655566L44.47092465889453,33.780537449268486L45.53397465074062,31.61228834674725L47.66007463443279,29.81812297753077L48.54594962763787,28.741623756000877L50.317699614048,27.503865133838456L52.23118959937096,28.14221450211149L57.19208956131935,26.84829003688259L57.54643955860138,25.874648994663737L58.25513955316543,25.290464369332437L60.91276453278065,25.729099046459638L68.17693947706222,25.104491218869214L68.85020447189808,24.433796977692722L72.03935444743632,24.425953159149817L75.2285044229746,25.210392320350078L78.24047939987183,25.77969899861097L78.77200439579487,25.628067097863756L79.65787938899994,24.353369778926456L80.54375438220501,23.48990820602332L83.73290435774327,24.846051711555663L83.91007935638427,24.081446910223093L87.06379433219432,23.326754484801313L87.59531932811737,23.46579811879272L88.83554431860448,22.858722028402315L93.61926928191184,23.57955137111631L93.97361927919388,22.137828527470482L95.21384426968096,22.752442544394228L98.40299424521923,22.923924591466964L98.75734424250125,22.730884275088393L99.99756923298835,23.404205537587213L101.59214422075748,23.117696024301264L103.50563420608043,23.044433497870443L103.68280920472145,23.19776234509344L105.4545591911316,22.69790056418277L106.16325918569565,23.58170167412534L106.34043418433666,23.618766432387115L109.70675915851592,23.147789379640454L110.592634151721,22.963846329533222L110.94698414900301,22.360264591765127L111.65568414356707,22.78726100143028L113.25025913133621,22.057027031821885L116.43940910687446,21.618886650056815L120.12464907860756,22.24379105486454L121.01052407181263,22.12551779004542L122.60509905958175,21.75862428653167L123.66814905142785,20.74934273209745L123.84532405006885,21.820707885629652L124.55402404463291,21.970311070045245L125.08554904055595,22.158716162235343L128.98339901065827,22.469045580630908L132.17254898619652,22.951172776290466L132.88124898076057,22.54994682290099L133.76712397396562,21.322779435459793L135.00734896445275,21.67155399994331L136.74366395113466,21.68353237555192L137.0980139484167,22.183935308620846L138.86976393482684,22.188247523839934L139.93281392667294,21.5989757637269L140.28716392395495,23.119633156933308L141.35021391580105,21.66459123587919L141.70456391308306,22.271213806357938L142.0589139103651,21.648755533237704L144.18501389405728,21.669853295528572L144.5393638913393,21.28793922674009L144.89371388862133,21.157433967007766L148.96873885736463,21.473703537331353L150.56331384513376,21.46617891644401L151.09483884105683,21.75759368853385L154.07137881822584,21.044653917920993L155.843128804636,20.81417641863479L156.020303803277,21.859608097552073L156.37465380055906,21.599078471035693L157.4377037924051,22.133262965911097L158.5007537842512,21.7632713920511L159.7409787747383,21.146703721572095L160.6268537679434,21.072692663906935L161.86707875843047,21.324215573930097L162.93012875027657,21.771058864566257L165.23340373260976,21.940521657407203L169.9816936961889,21.943556151571023L174.05671866493225,21.846733666528564L174.7654186594963,21.887283357043838L174.94259365813733,21.7143268082715L176.18281864862442,21.80783924208959L179.19479362552167,20.9761580685137L181.14371861057282,20.773078908990424L183.09264359562397,21.5390200471432L184.33286858611106,21.60401200387187L185.53765857686994,22.333509448694297L189.7898585442543,20.99563064785426L199.53448346951006,21.080692001216995L200.24318346407412,20.34258336090866L202.68819844532013,20.590220447508894L204.63712343037128,20.44287315484678L205.34582342493533,21.143610231575508L206.76322341406345,21.169479751449753L206.94039841270447,20.494499192589053L207.64909840726853,20.681369946517133L209.24367339503766,21.286708306577708L209.42084839367865,20.860765870288084L211.1925983800888,21.197059497758772L211.3697733787298,21.300192492700454L211.54694837737082,21.855288197369223L212.96434836649894,21.497843349385242L216.50784833931922,20.099658262105848L220.90178830561638,20.937681295930936L221.96483829746245,21.14456557160376L222.14201329610347,21.170052955466694L222.6735382920265,21.08670220424371L224.44528827843664,20.444832664265412L226.03986326620577,20.552926847982178L226.57138826212883,20.420496995130755L228.34313824853896,20.932898172664405L229.22901324174404,20.54983660839934L235.74905319173334,20.22135648829956L237.3436281795025,20.616127505484176L237.69797817678452,20.26113102655045L238.40667817134855,20.34406268381248L239.46972816319465,20.295178496628928L240.00125315911768,20.956350255104056L241.24147814960477,21.155766947107633L242.6588781387329,21.571346506932024L243.19040313465595,21.130191972041423L244.60780312378404,22.14786061113678L245.31650311834812,21.278814071482756L246.02520311291215,21.25060205539412L250.10022808165547,21.332318027281673L250.80892807621956,21.18406124733269L252.19089306561946,20.996463997822566L252.8995930601835,21.574407918901716L254.84851804523467,21.52660154538621L256.97461802892684,21.004701813573163L259.80941800718307,20.790205156026087L264.23879297320843,21.15472306920159L266.89641795282364,21.37343381710688L36.85239971733093,27.225964795213535L38.26979970645905,29.751051566669997L39.68719969558716,31.95660590032915L40.75024968743324,30.813858962005913L40.927424686074254,30.917356251337964L43.939399662971496,28.8093046310407L45.53397465074062,28.826835018892094L48.01442463171482,29.42921234084744L48.54594962763787,28.212347829368646L52.585539596652985,28.46866093788885L55.59751457355022,26.05772608294151L57.72361455724239,25.40031062229906L58.25513955316543,25.203147708995132L59.31818954501151,24.690277234849752L62.50733952054977,23.889339042658783L62.8616895178318,23.704705671966458L66.05083949337006,24.185784738795558L66.7595394879341,23.783929908107755L67.29106448385716,24.72653518818408L70.62195445830822,25.48938471931138L71.33065445287227,25.651164893365497L72.57087944335937,24.663158000849737L74.87415442569255,24.464926591503286L75.93720441753864,24.641917290517664L78.41765439851284,23.7616798945188L80.54375438220501,23.726753364623196L81.7839793726921,22.916651994359878L83.20137936182022,23.318379806068613L84.61877935094833,24.05263240079761L84.79595434958934,24.98639986533873L88.83554431860448,24.461585347115154L89.54424431316853,24.146696636181026L92.02469429414272,24.648265680405796L94.15079427783489,24.45599119923691L94.3279692764759,23.156908332046577L95.568194266963,23.166604064058408L98.04864424793719,23.27106468480623L99.11169423978329,22.939168331091945L100.35191923027038,23.430532789648613L100.70626922755241,23.528065101701092L102.44258421423434,22.89608221814736L102.79693421151637,23.010108395718838L102.9741092101574,23.473096828424726L106.34043418433666,23.849533069589036L106.8719591802597,23.483535725043083L108.46653416802883,23.85579640756004L110.76980915036201,22.994077820121966L113.25025913133621,22.772976212281385L115.02200911774635,23.133531155280785L117.85680909600258,22.85664821337668L119.94747407996654,23.085091174397206L123.1366240555048,23.320800132550254L124.90837404191493,23.26493914436057L125.08554904055595,23.52735209606903L126.14859903240203,22.1065089624421L127.38882402288914,22.536364442295717L128.0975240174532,22.59699136712637L128.27469901609422,22.830653885106237L128.4518740147352,22.773565032812673L132.3497239848375,22.2460958137328L132.52689898347856,23.705191550018366L133.2355989780426,23.594217176382195L133.58994897532463,22.837130281415266L135.32626396200655,22.580164507516617L136.0349639565706,23.215130495503402L141.17303891716003,22.806964635969496L141.35021391580105,22.06884921254539L142.94478890357016,21.92190950311317L143.47631389949322,22.425604766698335L144.71653888998028,22.629178743308685L146.48828887639047,22.554036766193402L146.66546387503146,22.114378853761234L146.84263887367248,22.343800014005677L147.0198138723135,22.58009589169309L147.90568886551858,22.425943873683288L148.96873885736463,22.13616629979592L149.6774388519287,21.86365657392275L150.03178884921073,23.377084824591577L153.00832882637977,22.805494051881617L154.07137881822584,21.377464591307415L154.24855381686686,21.901651456533397L155.66595380599497,22.413449938750496L159.03227878017427,22.03002675729549L162.04425375707152,21.701329666881723L166.65080372173787,21.997327320337224L170.867568689394,21.97763954932903L173.17084367172717,21.66989734210186L173.70236866765023,21.978467925469285L179.19479362552167,21.966323912408267L179.3719686241627,21.761751141490148L182.20676860241892,21.04714838969479L182.3839436010599,21.506175372484336L184.15569358747004,21.091089291372807L184.68721858339308,21.828469458113364L185.18330857958793,21.580395287372458L187.13223356463908,22.22069623725391L188.19528355648518,21.815731354856794L188.7268085524082,21.0795365177148L189.43550854697227,21.229678704674082L192.62465852251052,20.6292617460644L192.80183352115154,22.143232020172817L193.5105335157156,22.755684640015623L194.04205851163863,23.123156211921295L194.39640850892064,23.047709610442478L196.87685848989486,23.101084831095907L197.58555848445891,21.949391784998994L199.53448346951006,21.45566232042236L200.0660084654331,21.159424641676353L203.7512484371662,22.658616120621502L205.1686484262943,23.85406055261083L206.94039841270447,22.499820399448684L207.11757341134546,22.27913539679591L209.06649839639664,22.048081213663494L213.14152336513993,22.304021429947056L214.027398358345,22.852158285880172L217.03937333524226,22.293251765573306L221.2561383028984,22.648410124174415L224.9768132743597,22.072359687009083L225.15398827300072,22.910447603198875L225.86268826756475,22.130938992883L226.57138826212883,22.255092915937997L229.76053823766708,22.23094208823024L230.82358822951318,21.62459250236107L231.00076322815417,21.260782750839596L238.58385316998957,22.127571896874944L240.00125315911768,22.154429476792405L241.4186531482458,22.56511675090588L241.5958281468868,22.416956389210963L244.60780312378404,23.41313516914227L246.91107810611723,24.109485618641806L247.61977810068132,23.44222089139326L249.56870308573247,22.943218873503394L251.83654306833745,22.545174481228738L252.36806806426046,22.404991027404694L252.7224180615425,22.123594592028766L253.43111805610656,21.954756730803197L254.84851804523467,22.14938355869011L265.4790179636955,22.1675164738815L266.5420679555416,22.868898493781575L266.7192429541826,22.401939071854898L267.07359295146466,22.516336144861853L37.20674971461296,28.010349373407262L38.446974705100054,30.912184584371523L42.52199967384338,31.272281169379575L43.23069966840744,30.699193668058403L45.17962465345859,30.355341167265717L45.71114964938164,29.16259785138262L48.723124626278874,28.742881406475004L49.78617461812496,27.307333361041415L52.23118959937096,27.92565225689253L55.774689572191235,26.027850418965965L57.369264559960364,26.368817039321243L60.20406453821659,25.19239246996395L60.55841453549862,25.86754226992004L62.15298952326774,26.371275331434436L63.74756451103687,26.574871986802343L65.16496450016498,26.499743616941572L68.85020447189808,24.87637569037314L69.20455446918011,24.987429931380316L69.73607946510315,24.166273842117896L70.09042946238517,24.364082459345646L71.15347945423126,25.07462671892683L73.27957943792343,25.007737366971778L73.45675443656444,24.868960574258004L74.69697942705155,24.58840813554823L75.2285044229746,24.71600621694461L76.11437941617966,24.20070597653794L77.35460440666675,23.595596287671704L77.70895440394878,24.021675926677943L86.88661933355331,22.797675986970468L88.83554431860448,23.148351020094225L89.3670693145275,22.569610587642487L90.25294430773259,23.110154962038195L93.08774428598879,23.33583840513485L93.79644428055285,23.175318926370615L93.97361927919388,22.88172087603055L94.3279692764759,22.21234613812277L94.85949427239895,22.895796292326352L96.09971926288605,22.418077750981737L96.80841925745011,22.032803444634233L97.51711925201415,23.281286583936982L99.11169423978329,23.438517378274135L99.2888692384243,23.236926310254166L100.17474423162936,23.41190121406442L100.88344422619342,22.925027067106093L101.06061922483444,23.323404849716333L103.85998420336246,22.575999703874988L109.3524091612339,23.31127479485917L111.47850914492606,22.96329439712368L112.71873413541317,23.642294792349137L113.60460912861824,23.753765484862154L116.08505910959242,23.32743199266624L117.67963409736157,22.47977280810419L120.47899907588958,21.87253411582623L122.42792406094074,21.705477263540924L123.66814905142785,21.703886333710507L123.84532405006885,22.19614768351598L124.37684904599189,22.19557494877703L125.43989903783798,22.39251767101516L132.17254898619652,22.412040122817267L132.70407398211955,22.818326320061527L133.05842397940157,22.470238949163612L133.58994897532463,22.36002970816561L133.76712397396562,21.997974618944543L134.47582396852968,22.076671110034173L140.28716392395495,22.419818549310186L142.76761390492916,21.935204742090566L147.5513388682365,21.644436457758776L148.6143888600826,22.752336847189458L149.3230888546467,22.134715720818093L152.65397882909772,22.454645315780535L153.53985382230283,22.35067352813576L156.19747880191804,21.893717729385887L156.72900379784107,22.112760157839723L157.2605287937641,22.34282879645276L160.98120376522542,22.579513161161366L162.93012875027657,23.11609650614951L165.23340373260976,22.057041971571888L165.41057873125075,21.71753879544758L167.1823287176609,21.711123252854502L167.71385371358392,22.89099210578763L168.56429370706078,22.415195239058527L171.57626868395803,22.03107393748031L171.93061868124008,22.88567615348162L172.4621436771631,22.41200566767491L176.18281864862442,22.226446557731652L176.53716864590646,22.6083269994694L177.4230436391115,22.64016890143058L179.3719686241627,22.067414953362782L180.7893686132908,21.131903495277623L181.49806860785483,21.458385254293262L184.51004358475208,21.65427430970265L185.71483357551097,21.278591835244537L187.48658356192112,21.349111895191918L187.84093355920314,21.68735347578259L188.90398355104924,21.29843933489251L189.7898585442543,20.67051812419546L190.67573353745937,21.57612675780696L191.2072585333824,22.218135119514603L193.86488351299764,22.4060537734577L194.04205851163863,22.716091328905055L198.825783474946,22.11296840984747L200.24318346407412,21.4551651137907L202.1566734493971,22.046914951564098L202.68819844532013,22.007392128065156L204.10559843444824,21.983678433965775L207.82627340590955,22.166736580587656L208.8893233977556,22.177928287020023L210.83824838280677,21.19821149547195L211.0154233814478,21.79409959903209L216.68502333796025,21.757059735005196L216.86219833660124,21.636192635048303L217.92524832844734,21.859601919696427L227.28008825669286,21.007215675077806L227.6344382539749,20.693070291388125L228.874663244462,21.29372851350031L229.40618824038506,21.85140980984913L230.64641323087216,22.67923449536216L235.57187819309232,22.879999762047746L239.29255316455362,21.718097562029342L241.06430315096378,21.612815331262805L243.89910312922,21.056430085099116L244.25345312650202,21.61038757126767L244.60780312378404,22.435977970672553L245.49367811698912,22.14218675798948L251.16327807350157,21.867268848838894L252.19089306561946,21.50503174026703L254.1398180506706,22.17547810899066L254.3169930493116,21.985886840980342L254.49416804795266,21.77348889863341L255.0256930438757,20.758261499358486L257.8604930221319,21.530129601364052L262.6442179854393,21.894607281026612L263.1757429813623,22.211937070364907L266.7192429541826,22.10640539934564L267.7822929460287,22.437659122897088L267.9594679446697,22.14319544932419" fill="none"></path></g></g></g></g><g opacity="0.2"><g><g><g><path style="fill: none;" stroke="rgb(255, 112, 67)" stroke-width="2px" d="M38.80132470238208,30.825994231484163L39.86437469422817,32.798857862299144L42.699174672484396,26.140443108298552L43.053524669766425,26.140443108298552L43.58504966568947,25.647227200594813L45.53397465074062,24.907403339039192L48.19159963035584,25.15401129289107L48.723124626278874,24.41418743133545L52.40836459801197,18.248988585038617L53.82576458714008,21.948107892816726L54.534464581704135,21.2082840312611L58.07796455452442,18.98881244659424L63.21603951511383,18.248988585038617L63.74756451103687,19.72863630814986L65.342139498806,18.495596538890496L67.29106448385716,19.23542040044612L68.17693947706222,19.72863630814986L68.53128947434425,19.48202835429798L76.46872941346167,18.98881244659424L77.35460440666675,17.755772677334875L80.01222938628196,18.248988585038617L81.07527937812804,19.48202835429798L81.96115437133312,18.002380631186735L83.20137936182022,18.248988585038617L84.2644293536663,18.248988585038617L87.77249432675838,17.015948815779254L90.6072943050146,16.522732908075515L90.96164430229665,17.509164723482996L92.37904429142475,17.015948815779254L94.5051442751169,16.769340861927375L96.09971926288605,18.002380631186735L97.51711925201415,16.276124954223633L100.35191923027038,16.522732908075515L101.06061922483444,17.262556769631136L110.76980915036201,16.276124954223633L110.94698414900301,15.782909046519892L113.95895912590026,16.522732908075515L114.4904841218233,16.02951700037175L115.02200911774635,16.522732908075515L117.67963409736157,16.276124954223633L118.21115909328459,16.276124954223633L118.38833409192563,16.769340861927375L120.30182407724857,16.522732908075515L123.66814905142785,15.782909046519892L127.38882402288914,15.782909046519892L130.4007989997864,16.02951700037175L131.28667399299144,15.782909046519892L136.21213895521163,16.02951700037175L137.98388894162179,15.782909046519892L139.04693893346786,16.02951700037175L140.28716392395495,15.782909046519892L140.46433892259597,15.782909046519892L143.12196390221118,16.276124954223633L146.31111387774942,15.782909046519892L146.66546387503146,16.02951700037175L148.79156385872363,15.782909046519892L150.03178884921073,15.782909046519892L150.20896384785175,16.02951700037175L150.56331384513376,15.782909046519892L151.09483884105683,16.02951700037175L151.44918883833884,15.782909046519892L153.71702882094382,16.02951700037175L155.48877880735395,15.782909046519892L158.5007537842512,16.02951700037175L163.10730374891756,16.02951700037175L163.81600374348164,15.782909046519892L164.52470373804567,15.782909046519892L165.9421037271738,15.782909046519892L167.53667871494292,15.782909046519892L169.9816936961889,15.782909046519892L170.69039369075298,15.782909046519892L172.28496867852212,15.782909046519892L172.99366867308615,15.782909046519892L173.3480186703682,15.782909046519892L173.70236866765023,15.782909046519892L174.94259365813733,15.782909046519892L175.82846865134238,15.782909046519892L176.18281864862442,16.02951700037175L177.06869364182947,15.782909046519892L177.4230436391115,15.782909046519892L178.13174363367557,15.782909046519892L178.84044362823963,16.276124954223633L179.9034936200857,15.782909046519892L180.08066861872672,16.02951700037175L184.15569358747004,15.782909046519892L184.8643935820341,15.782909046519892L190.8529085361004,15.782909046519892L192.09313352658748,15.782909046519892L193.15618351843355,15.782909046519892L195.63663349940776,16.02951700037175L196.34533349397182,15.782909046519892L197.58555848445891,15.782909046519892L197.93990848174096,16.02951700037175L199.00295847358703,15.782909046519892L199.35730847086907,15.782909046519892L201.97949845075607,15.782909046519892L202.1566734493971,15.782909046519892L203.92842343580722,15.782909046519892L204.45994843173025,15.782909046519892L206.0545234194994,15.782909046519892L206.76322341406345,15.782909046519892L207.4719234086275,15.782909046519892L209.06649839639664,16.02951700037175L209.24367339503766,15.782909046519892L210.3067233868837,16.02951700037175L210.48389838552475,15.782909046519892L211.3697733787298,15.782909046519892L214.55892335426805,16.276124954223633L215.0904483501911,15.782909046519892L216.68502333796025,15.782909046519892L222.14201329610347,16.02951700037175L224.44528827843664,15.782909046519892L225.50833827028274,15.782909046519892L226.03986326620577,15.782909046519892L226.3942132634878,16.02951700037175L227.10291325805184,15.782909046519892L228.16596324989794,15.782909046519892L229.05183824310302,15.782909046519892L230.82358822951318,16.02951700037175L231.88663822135922,15.782909046519892L232.7725132145643,15.782909046519892L234.54426320097446,16.02951700037175L242.12735314280985,15.782909046519892L242.8360531373739,15.782909046519892L243.0132281360149,15.782909046519892L243.19040313465595,16.02951700037175L246.3795531101942,16.02951700037175L248.68282809252736,15.782909046519892L250.98610307486058,16.02951700037175L255.73439303843972,15.782909046519892L257.8604930221319,15.782909046519892L259.80941800718307,16.02951700037175L260.34094300310613,16.02951700037175L260.87246799902914,16.02951700037175L264.4159679718494,15.782909046519892L265.4790179636955,15.782909046519892L266.7192429541826,16.02951700037175L267.7822929460287,15.782909046519892L38.092624707818025,38.47084080089222L38.624149703741075,32.798857862299144L40.573074688792225,27.866698785261676L35.612174726843826,155.11640297282824L36.143699722766875,155.11640297282824L36.32087472140788,154.37657911127263L44.82527465617656,22.441323800520465L45.35679965209961,25.400619246742952L45.888324648022646,22.441323800520465L46.06549964666367,22.441323800520465L49.963349616765974,21.2082840312611L52.23118959937096,20.961676077409223L52.585539596652985,20.221852215853602L54.00293958578109,18.98881244659424L54.71163958034515,20.221852215853602L59.141014546370506,19.23542040044612L59.31818954501151,19.48202835429798L61.26711453006268,20.961676077409223L62.684514519190785,19.72863630814986L63.39321451375484,20.46846016970548L63.74756451103687,18.98881244659424L69.55890446646214,18.495596538890496L70.2676044610262,18.495596538890496L74.69697942705155,19.48202835429798L77.53177940530777,17.755772677334875L77.70895440394878,19.72863630814986L80.36657938356399,17.509164723482996L81.07527937812804,18.742204492742356L83.91007935638427,17.015948815779254L84.0872543550253,17.755772677334875L88.12684432404042,17.015948815779254L89.01271931724548,17.262556769631136L89.89859431045055,16.769340861927375L90.4301193063736,17.262556769631136L91.31599429957866,16.522732908075515L91.84751929550171,16.02951700037175L93.97361927919388,17.015948815779254L95.391019268322,17.755772677334875L96.63124425880908,17.015948815779254L97.87146924929618,15.782909046519892L99.4660442370653,17.015948815779254L100.17474423162936,16.522732908075515L100.5290942289114,17.015948815779254L100.88344422619342,16.769340861927375L101.41496922211647,16.02951700037175L102.79693421151637,16.522732908075515L104.39150919928551,17.015948815779254L106.16325918569565,16.02951700037175L106.8719591802597,16.522732908075515L107.22630917754172,16.276124954223633L107.75783417346477,16.02951700037175L108.64370916666984,16.276124954223633L109.17523416259289,16.769340861927375L109.3524091612339,16.522732908075515L112.89590913405418,16.522732908075515L114.4904841218233,15.782909046519892L115.5535341136694,15.782909046519892L116.79375910415648,15.782909046519892L116.97093410279751,16.522732908075515L118.70724908947945,15.782909046519892L119.94747407996654,16.02951700037175L123.66814905142785,15.782909046519892L124.37684904599189,16.02951700037175L126.14859903240203,16.276124954223633L126.85729902696609,15.782909046519892L128.4518740147352,16.02951700037175L130.7551489970684,16.02951700037175L131.28667399299144,16.276124954223633L132.3497239848375,15.782909046519892L132.70407398211955,16.276124954223633L138.86976393482684,15.782909046519892L139.93281392667294,15.782909046519892L142.94478890357016,16.02951700037175L144.71653888998028,16.02951700037175L145.24806388590335,16.02951700037175L145.6024138831854,16.02951700037175L148.79156385872363,16.02951700037175L151.27201383969785,16.02951700037175L151.62636383697986,16.02951700037175L154.95725381143095,15.782909046519892L155.66595380599497,15.782909046519892L157.0833537951231,15.782909046519892L160.09532877202034,16.02951700037175L161.1583787638664,16.02951700037175L165.41057873125075,15.782909046519892L167.71385371358392,15.782909046519892L168.24537870950698,15.782909046519892L168.56429370706078,16.276124954223633L168.91864370434286,15.782909046519892L169.27299370162487,16.02951700037175L169.9816936961889,16.02951700037175L170.69039369075298,15.782909046519892L171.93061868124008,16.02951700037175L174.58824366085528,15.782909046519892L180.61219361464978,15.782909046519892L181.3208936092138,15.782909046519892L182.56111859970093,15.782909046519892L184.15569358747004,16.02951700037175L186.42353357007502,15.782909046519892L188.19528355648518,15.782909046519892L188.5496335537672,15.782909046519892L188.90398355104924,15.782909046519892L189.7898585442543,15.782909046519892L190.32138354017735,15.782909046519892L191.73878352930544,16.276124954223633L192.44748352386952,15.782909046519892L195.99098349668978,15.782909046519892L196.87685848989486,16.02951700037175L197.05403348853588,15.782909046519892L197.4083834858179,15.782909046519892L197.93990848174096,15.782909046519892L198.648608476305,15.782909046519892L198.825783474946,15.782909046519892L200.0660084654331,15.782909046519892L200.59753346135614,16.02951700037175L201.48340845456121,16.276124954223633L204.99147342765332,15.782909046519892L206.76322341406345,16.02951700037175L207.82627340590955,15.782909046519892L208.8893233977556,15.782909046519892L209.59802339231967,15.782909046519892L211.72412337601182,16.02951700037175L211.90129837465287,15.782909046519892L216.33067334067823,15.782909046519892L217.92524832844734,15.782909046519892L224.26811327979564,16.02951700037175L224.44528827843664,15.782909046519892L224.79963827571868,15.782909046519892L227.28008825669286,15.782909046519892L232.5953382159233,16.02951700037175L234.01273820505142,15.782909046519892L235.39470319445132,15.782909046519892L235.74905319173334,16.02951700037175L236.10340318901538,16.02951700037175L236.98927818222043,15.782909046519892L241.4186531482458,15.782909046519892L241.5958281468868,15.782909046519892L243.36757813329697,15.782909046519892L243.721928130579,15.782909046519892L244.60780312378404,15.782909046519892L247.08825310475825,15.782909046519892L248.15130309660435,15.782909046519892L249.74587808437346,15.782909046519892L252.54524306290148,15.782909046519892L253.25394305746556,15.782909046519892L253.60829305474758,16.02951700037175L255.91156803708077,16.02951700037175L258.0376680207729,15.782909046519892L260.16376800446506,15.782909046519892L261.93551799087527,15.782909046519892L262.9985679827213,15.782909046519892L266.01054295961853,16.02951700037175L267.07359295146466,15.782909046519892L267.2507679501056,15.782909046519892L37.20674971461296,103.82194857163863L38.26979970645905,44.14282373948531L39.15567469966411,35.26493740081787L43.23069966840744,27.373482877557937L44.47092465889453,23.67436356977983L45.35679965209961,25.647227200594813L47.66007463443279,23.67436356977983L48.90029962491989,24.66079538518733L51.5579246045351,22.687931754372347L53.82576458714008,21.2082840312611L54.35728958306312,18.98881244659424L56.83773956403732,19.97524426200174L57.014914562678335,19.72863630814986L57.369264559960364,21.454891985112962L63.03886451647281,22.194715846668586L63.21603951511383,19.72863630814986L63.39321451375484,20.71506812355734L64.63343950424195,18.742204492742356L66.5823644892931,20.221852215853602L69.38172946782112,18.742204492742356L70.2676044610262,17.509164723482996L77.88612940258979,17.262556769631136L79.48070439035892,19.23542040044612L81.07527937812804,18.002380631186735L82.13832936997413,17.509164723482996L82.84702936453819,18.002380631186735L86.00074434034825,17.262556769631136L86.35509433763026,17.015948815779254L86.53226933627128,17.509164723482996L94.85949427239895,18.002380631186735L96.27689426152706,16.769340861927375L100.35191923027038,17.015948815779254L102.08823421695232,16.02951700037175L102.79693421151637,16.522732908075515L103.50563420608043,16.02951700037175L103.68280920472145,16.276124954223633L105.6317341897726,16.276124954223633L106.16325918569565,16.276124954223633L107.58065917482375,16.769340861927375L108.1121841707468,16.276124954223633L112.36438413813113,16.02951700037175L113.07308413269519,16.522732908075515L113.42743412997723,16.02951700037175L118.38833409192563,16.02951700037175L122.60509905958175,16.522732908075515L125.26272403919697,15.782909046519892L126.68012402832508,16.522732908075515L127.56599902153015,16.02951700037175L128.4518740147352,16.522732908075515L129.16057400929927,16.769340861927375L129.51492400658128,15.782909046519892L132.3497239848375,16.02951700037175L135.6806139592886,15.782909046519892L135.8577889579296,15.782909046519892L137.0980139484167,15.782909046519892L137.62953894433974,16.02951700037175L141.88173891172406,16.02951700037175L142.41326390764712,16.02951700037175L143.65348889813424,16.02951700037175L144.18501389405728,16.522732908075515L144.36218889269827,15.782909046519892L144.71653888998028,15.782909046519892L144.89371388862133,16.02951700037175L149.3230888546467,16.02951700037175L150.9176638424158,16.02951700037175L155.31160380871296,15.782909046519892L156.72900379784107,16.02951700037175L159.2094537788153,15.782909046519892L159.38662877745628,15.782909046519892L162.39860375435353,15.782909046519892L167.53667871494292,16.02951700037175L167.89102871222497,15.782909046519892L169.8045186975479,16.02951700037175L172.81649367444513,15.782909046519892L173.70236866765023,16.02951700037175L177.6002186377525,15.782909046519892L178.13174363367557,15.782909046519892L179.01761862688062,15.782909046519892L180.9665436119318,15.782909046519892L181.3208936092138,15.782909046519892L182.56111859970093,15.782909046519892L183.62416859154703,15.782909046519892L184.8643935820341,15.782909046519892L186.069183572793,15.782909046519892L186.60070856871604,16.02951700037175L189.6126835456133,16.02951700037175L191.73878352930544,15.782909046519892L192.2703085252285,15.782909046519892L193.5105335157156,15.782909046519892L196.34533349397182,15.782909046519892L196.69968349125386,15.782909046519892L197.76273348309994,15.782909046519892L198.471433477664,15.782909046519892L201.30623345592022,16.02951700037175L204.45994843173025,16.02951700037175L208.00344840455054,15.782909046519892L211.1925983800888,15.782909046519892L211.54694837737082,15.782909046519892L211.90129837465287,16.02951700037175L212.4328233705759,15.782909046519892L212.96434836649894,16.02951700037175L215.97632334339616,15.782909046519892L217.92524832844734,15.782909046519892L220.54743830833434,15.782909046519892L225.86268826756475,15.782909046519892L226.2170382648468,16.02951700037175L230.4692382322311,16.02951700037175L231.1779382267952,15.782909046519892L231.5322882240772,16.02951700037175L232.5953382159233,15.782909046519892L233.12686321184634,15.782909046519892L233.48121320912838,16.02951700037175L235.2175281958103,15.782909046519892L236.4577531862974,15.782909046519892L238.76102816863062,15.782909046519892L240.1784281577587,15.782909046519892L242.4817031400919,15.782909046519892L242.8360531373739,15.782909046519892L243.36757813329697,15.782909046519892L245.49367811698912,16.02951700037175L246.2023781115532,15.782909046519892L247.08825310475825,15.782909046519892L247.44260310204027,15.782909046519892L249.21435308845042,15.782909046519892L249.92305308301448,15.782909046519892L255.20286804251668,15.782909046519892L256.0887430357218,16.02951700037175L257.3289680262088,15.782909046519892L265.1246679664135,15.782909046519892L266.5420679555416,15.782909046519892L267.7822929460287,16.02951700037175L35.966524724125854,158.3223063729026L37.91544970917702,157.582482511347L38.978499701023104,157.33587455749512L40.04154969286918,154.6231870651245L43.939399662971496,155.11640297282824L45.888324648022646,158.56891432675448L46.774199641227725,157.82909046519885L48.368774628996846,160.78838591142136L48.54594962763787,154.6231870651245L50.67204961133003,160.2951700037176L52.762714595294,159.3087381883101L53.294239591217035,157.33587455749512L55.06598957762718,154.12997115742078L63.39321451375484,156.34944274208763L64.27908950695992,157.33587455749512L64.45626450560093,154.8697950189764L66.22801449201107,158.07569841905075L79.3035293917179,157.08926660364324L81.25245437676907,156.59605069593948L81.42962937541007,158.07569841905075L81.7839793726921,153.39014729586515L82.13832936997413,157.08926660364324L82.66985436589718,152.15710752660578L82.84702936453819,154.12997115742078L87.41814432947636,158.3223063729026L88.30401932268143,155.36301092668015L88.83554431860448,155.85622683438388L90.25294430773259,158.07569841905075L92.20186929278373,158.07569841905075L93.79644428055285,156.8426586497914L94.3279692764759,150.1842438957908L94.5051442751169,157.582482511347L97.16276925473213,155.85622683438388L99.99756923298835,158.81552228060636L101.06061922483444,153.88336320356888L101.7693192193985,152.65032343430954L103.50563420608043,154.6231870651245L103.85998420336246,155.609618880532L105.4545591911316,156.34944274208763L106.16325918569565,154.8697950189764L107.22630917754172,154.8697950189764L108.1121841707468,158.3223063729026L112.71873413541317,155.36301092668015L114.3133091231823,159.06213023445824L116.97093410279751,155.609618880532L118.21115909328459,154.6231870651245L119.4159490840435,157.08926660364324L120.12464907860756,155.11640297282824L120.30182407724857,154.8697950189764L123.66814905142785,155.11640297282824L124.19967404735087,157.33587455749512L125.26272403919697,156.34944274208763L130.57797399842738,153.39014729586515L131.64102399027345,157.82909046519885L134.2986489698887,154.6231870651245L134.6529989671707,156.34944274208763L137.80671394298076,152.65032343430954L137.98388894162179,159.80195409601384L141.35021391580105,152.65032343430954L141.52738891444207,156.8426586497914L142.0589139103651,158.3223063729026L143.65348889813424,156.34944274208763L145.6024138831854,153.88336320356888L150.03178884921073,156.8426586497914L150.56331384513376,156.10283478823575L152.65397882909772,156.10283478823575L153.1855038250208,156.10283478823575L153.53985382230283,157.33587455749512L153.89420381958485,155.36301092668015L156.020303803277,157.33587455749512L159.03227878017427,156.10283478823575L162.75295375163554,156.59605069593948L163.99317874212264,156.10283478823575L165.41057873125075,156.8426586497914L166.1192787258148,153.39014729586515L167.3595037163019,157.33587455749512L167.53667871494292,156.10283478823575L167.71385371358392,154.8697950189764L169.62734369890688,154.12997115742078L174.23389366357324,156.34944274208763L175.11976865677835,154.8697950189764L177.95456863503458,153.39014729586515L179.9034936200857,158.3223063729026L180.61219361464978,155.609618880532L180.7893686132908,157.82909046519885L182.20676860241892,157.582482511347L182.73829359834193,158.56891432675448L183.26981859426496,157.33587455749512L183.80134359018803,156.59605069593948L185.53765857686994,154.12997115742078L186.24635857143403,157.33587455749512L187.48658356192112,157.582482511347L187.66375856056214,154.12997115742078L188.7268085524082,156.34944274208763L189.7898585442543,152.40371548045763L190.1442085415363,153.88336320356888L190.67573353745937,156.8426586497914L196.87685848989486,155.85622683438388L199.00295847358703,157.82909046519885L202.5110234466791,154.37657911127263L202.86537344396112,159.555346142162L206.2316984181404,154.8697950189764L206.58604841542243,156.8426586497914L210.1295483882427,157.08926660364324L214.38174835562705,154.8697950189764L214.91327335155012,155.609618880532L217.21654833388328,153.88336320356888L218.7756883219242,158.07569841905075L220.37026330969334,158.81552228060636L220.90178830561638,155.85622683438388L221.2561383028984,154.37657911127263L221.4333133015394,150.92406775734642L229.22901324174404,154.8697950189764L230.2920632335901,157.82909046519885L230.82358822951318,156.10283478823575L232.06381322000027,157.582482511347L234.36708820233343,153.88336320356888L234.72143819961545,153.14353934201327L235.04035319716928,153.63675524971703L236.2805781876564,155.609618880532L239.46972816319465,157.82909046519885L243.54475313193797,155.609618880532L244.43062812514302,156.59605069593948L247.97412809796333,156.59605069593948L248.32847809524534,159.06213023445824L249.39152808709144,155.11640297282824L254.1398180506706,155.85622683438388L255.0256930438757,155.11640297282824L257.3289680262088,152.40371548045763L258.0376680207729,153.63675524971703L261.2268179963112,153.39014729586515L262.6442179854393,156.59605069593948L266.7192429541826,155.85622683438388L267.42794294874665,157.08926660364324L35.612174726843826,156.8426586497914L35.78934972548485,160.04856204986572L40.39589969015121,154.6231870651245L44.47092465889453,158.3223063729026L46.774199641227725,157.82909046519885L49.608999619483946,157.33587455749512L51.5579246045351,153.88336320356888L54.534464581704135,152.8969313881614L57.014914562678335,154.6231870651245L57.19208956131935,156.10283478823575L60.73558953413963,156.59605069593948L64.98778950152398,153.88336320356888L65.342139498806,155.36301092668015L37.20674971461296,151.9104995727539L40.573074688792225,154.12997115742078L40.75024968743324,158.3223063729026L41.10459968471527,154.8697950189764L41.99047467792034,152.8969313881614L48.54594962763787,154.6231870651245L49.78617461812496,156.34944274208763L50.49487461268902,158.81552228060636L51.5579246045351,153.88336320356888L52.762714595294,155.85622683438388L53.648589588499064,154.6231870651245L54.18011458442211,156.59605069593948L54.534464581704135,160.2951700037176L36.32087472140788,38.224232847040355L37.738274710536,34.52511353926225L40.75024968743324,27.620090831409797L41.63612468063831,28.606522646817297L41.99047467792034,28.113306739113558L44.11657466161251,29.592954462224778L44.47092465889453,31.319210139187902L45.53397465074062,28.35991469296542L47.66007463443279,27.126874923706055L48.54594962763787,27.126874923706055L50.317699614048,25.647227200594813L52.23118959937096,29.09973855452104L57.19208956131935,24.907403339039192L57.54643955860138,24.41418743133545L58.25513955316543,24.41418743133545L60.91276453278065,26.387051062150434L68.17693947706222,24.167579477483567L68.85020447189808,23.427755615927946L72.03935444743632,24.41418743133545L75.2285044229746,26.387051062150434L78.24047939987183,26.633659016002312L78.77200439579487,25.400619246742952L79.65787938899994,22.441323800520465L80.54375438220501,22.194715846668586L83.73290435774327,26.880266969854173L83.91007935638427,22.934539708224207L87.06379433219432,22.194715846668586L87.59531932811737,23.67436356977983L88.83554431860448,21.948107892816726L93.61926928191184,24.66079538518733L93.97361927919388,19.97524426200174L95.21384426968096,23.67436356977983L98.40299424521923,23.181147662076086L98.75734424250125,22.441323800520465L99.99756923298835,24.41418743133545L101.59214422075748,22.687931754372347L103.50563420608043,22.934539708224207L103.68280920472145,23.427755615927946L105.4545591911316,21.948107892816726L106.16325918569565,24.907403339039192L106.34043418433666,23.67436356977983L109.70675915851592,22.441323800520465L110.592634151721,22.687931754372347L110.94698414900301,21.454891985112962L111.65568414356707,23.427755615927946L113.25025913133621,20.961676077409223L116.43940910687446,20.961676077409223L120.12464907860756,23.181147662076086L121.01052407181263,21.948107892816726L122.60509905958175,21.2082840312611L123.66814905142785,19.23542040044612L123.84532405006885,23.427755615927946L124.55402404463291,22.194715846668586L125.08554904055595,22.441323800520465L128.98339901065827,22.934539708224207L132.17254898619652,23.67436356977983L132.88124898076057,21.948107892816726L133.76712397396562,19.48202835429798L135.00734896445275,22.194715846668586L136.74366395113466,21.701499938964844L137.0980139484167,22.934539708224207L138.86976393482684,22.194715846668586L139.93281392667294,20.71506812355734L140.28716392395495,25.400619246742952L141.35021391580105,19.48202835429798L141.70456391308306,23.181147662076086L142.0589139103651,20.71506812355734L144.18501389405728,21.701499938964844L144.5393638913393,20.71506812355734L144.89371388862133,20.961676077409223L148.96873885736463,21.948107892816726L150.56331384513376,21.454891985112962L151.09483884105683,22.194715846668586L154.07137881822584,19.97524426200174L155.843128804636,20.46846016970548L156.020303803277,23.427755615927946L156.37465380055906,21.2082840312611L157.4377037924051,22.934539708224207L158.5007537842512,21.2082840312611L159.7409787747383,20.221852215853602L160.6268537679434,20.961676077409223L161.86707875843047,21.701499938964844L162.93012875027657,22.441323800520465L165.23340373260976,22.194715846668586L169.9816936961889,21.948107892816726L174.05671866493225,21.701499938964844L174.7654186594963,21.948107892816726L174.94259365813733,21.454891985112962L176.18281864862442,21.948107892816726L179.19479362552167,19.72863630814986L181.14371861057282,20.46846016970548L183.09264359562397,22.687931754372347L184.33286858611106,21.701499938964844L185.53765857686994,23.427755615927946L189.7898585442543,18.98881244659424L199.53448346951006,21.2082840312611L200.24318346407412,19.23542040044612L202.68819844532013,20.961676077409223L204.63712343037128,20.221852215853602L205.34582342493533,22.194715846668586L206.76322341406345,21.2082840312611L206.94039841270447,19.48202835429798L207.64909840726853,20.961676077409223L209.24367339503766,22.194715846668586L209.42084839367865,20.221852215853602L211.1925983800888,21.701499938964844L211.3697733787298,21.454891985112962L211.54694837737082,22.687931754372347L212.96434836649894,20.961676077409223L216.50784833931922,18.002380631186735L220.90178830561638,22.194715846668586L221.96483829746245,21.454891985112962L222.14201329610347,21.2082840312611L222.6735382920265,20.961676077409223L224.44528827843664,19.48202835429798L226.03986326620577,20.71506812355734L226.57138826212883,20.221852215853602L228.34313824853896,21.701499938964844L229.22901324174404,19.97524426200174L235.74905319173334,19.72863630814986L237.3436281795025,21.2082840312611L237.69797817678452,19.72863630814986L238.40667817134855,20.46846016970548L239.46972816319465,20.221852215853602L240.00125315911768,21.948107892816726L241.24147814960477,21.454891985112962L242.6588781387329,22.194715846668586L243.19040313465595,20.46846016970548L244.60780312378404,23.67436356977983L245.31650311834812,19.97524426200174L246.02520311291215,21.2082840312611L250.10022808165547,21.454891985112962L250.80892807621956,20.961676077409223L252.19089306561946,20.71506812355734L252.8995930601835,22.441323800520465L254.84851804523467,21.454891985112962L256.97461802892684,20.221852215853602L259.80941800718307,20.46846016970548L264.23879297320843,21.701499938964844L266.89641795282364,21.701499938964844L36.85239971733093,36.00476126237349L38.26979970645905,33.538681723854765L39.68719969558716,35.26493740081787L40.75024968743324,29.09973855452104L40.927424686074254,31.072602185336024L43.939399662971496,25.647227200594813L45.53397465074062,28.853130600669157L48.01442463171482,30.332778323780403L48.54594962763787,26.387051062150434L52.585539596652985,28.853130600669157L55.59751457355022,22.441323800520465L57.72361455724239,24.41418743133545L58.25513955316543,24.907403339039192L59.31818954501151,23.920971523631707L62.50733952054977,22.687931754372347L62.8616895178318,23.427755615927946L66.05083949337006,24.907403339039192L66.7595394879341,23.181147662076086L67.29106448385716,26.140443108298552L70.62195445830822,26.633659016002312L71.33065445287227,25.89383515444669L72.57087944335937,23.181147662076086L74.87415442569255,24.167579477483567L75.93720441753864,24.907403339039192L78.41765439851284,22.441323800520465L80.54375438220501,23.67436356977983L81.7839793726921,21.701499938964844L83.20137936182022,23.920971523631707L84.61877935094833,25.15401129289107L84.79595434958934,26.387051062150434L88.83554431860448,23.67436356977983L89.54424431316853,23.67436356977983L92.02469429414272,25.400619246742952L94.15079427783489,24.167579477483567L94.3279692764759,21.2082840312611L95.568194266963,23.181147662076086L98.04864424793719,23.427755615927946L99.11169423978329,22.441323800520465L100.35191923027038,24.167579477483567L100.70626922755241,23.67436356977983L102.44258421423434,21.948107892816726L102.79693421151637,23.181147662076086L102.9741092101574,24.167579477483567L106.34043418433666,24.41418743133545L106.8719591802597,22.934539708224207L108.46653416802883,24.41418743133545L110.76980915036201,21.701499938964844L113.25025913133621,22.441323800520465L115.02200911774635,23.67436356977983L117.85680909600258,22.441323800520465L119.94747407996654,23.427755615927946L123.1366240555048,23.67436356977983L124.90837404191493,23.181147662076086L125.08554904055595,23.920971523631707L126.14859903240203,19.97524426200174L127.38882402288914,23.181147662076086L128.0975240174532,22.687931754372347L128.27469901609422,23.181147662076086L128.4518740147352,22.687931754372347L132.3497239848375,21.454891985112962L132.52689898347856,25.89383515444669L133.2355989780426,23.427755615927946L133.58994897532463,21.701499938964844L135.32626396200655,22.194715846668586L136.0349639565706,24.167579477483567L141.17303891716003,22.194715846668586L141.35021391580105,20.961676077409223L142.94478890357016,21.701499938964844L143.47631389949322,23.181147662076086L144.71653888998028,22.934539708224207L146.48828887639047,22.441323800520465L146.66546387503146,21.454891985112962L146.84263887367248,22.687931754372347L147.0198138723135,22.934539708224207L147.90568886551858,22.194715846668586L148.96873885736463,21.701499938964844L149.6774388519287,21.454891985112962L150.03178884921073,25.647227200594813L153.00832882637977,21.948107892816726L154.07137881822584,19.23542040044612L154.24855381686686,22.687931754372347L155.66595380599497,23.181147662076086L159.03227878017427,21.454891985112962L162.04425375707152,21.2082840312611L166.65080372173787,22.441323800520465L170.867568689394,21.948107892816726L173.17084367172717,21.2082840312611L173.70236866765023,22.441323800520465L179.19479362552167,21.948107892816726L179.3719686241627,21.454891985112962L182.20676860241892,19.97524426200174L182.3839436010599,22.194715846668586L184.15569358747004,20.46846016970548L184.68721858339308,22.934539708224207L185.18330857958793,21.2082840312611L187.13223356463908,23.181147662076086L188.19528355648518,21.2082840312611L188.7268085524082,19.97524426200174L189.43550854697227,21.454891985112962L192.62465852251052,19.72863630814986L192.80183352115154,24.41418743133545L193.5105335157156,23.67436356977983L194.04205851163863,23.67436356977983L194.39640850892064,22.934539708224207L196.87685848989486,23.181147662076086L197.58555848445891,20.221852215853602L199.53448346951006,20.71506812355734L200.0660084654331,20.71506812355734L203.7512484371662,24.907403339039192L205.1686484262943,25.647227200594813L206.94039841270447,20.46846016970548L207.11757341134546,21.948107892816726L209.06649839639664,21.701499938964844L213.14152336513993,22.687931754372347L214.027398358345,23.67436356977983L217.03937333524226,21.454891985112962L221.2561383028984,23.181147662076086L224.9768132743597,21.2082840312611L225.15398827300072,24.167579477483567L225.86268826756475,20.961676077409223L226.57138826212883,22.441323800520465L229.76053823766708,22.194715846668586L230.82358822951318,20.71506812355734L231.00076322815417,20.71506812355734L238.58385316998957,23.427755615927946L240.00125315911768,22.194715846668586L241.4186531482458,23.181147662076086L241.5958281468868,22.194715846668586L244.60780312378404,24.907403339039192L246.91107810611723,25.15401129289107L247.61977810068132,22.441323800520465L249.56870308573247,22.194715846668586L251.83654306833745,21.948107892816726L252.36806806426046,22.194715846668586L252.7224180615425,21.701499938964844L253.43111805610656,21.701499938964844L254.84851804523467,22.441323800520465L265.4790179636955,22.194715846668586L266.5420679555416,23.920971523631707L266.7192429541826,21.701499938964844L267.07359295146466,22.687931754372347L37.20674971461296,36.25136921622537L38.446974705100054,35.26493740081787L42.52199967384338,31.812426046891645L43.23069966840744,29.83956241607666L45.17962465345859,29.83956241607666L45.71114964938164,27.373482877557937L48.723124626278874,28.113306739113558L49.78617461812496,25.15401129289107L52.23118959937096,28.853130600669157L55.774689572191235,23.181147662076086L57.369264559960364,26.880266969854173L60.20406453821659,23.427755615927946L60.55841453549862,26.880266969854173L62.15298952326774,27.126874923706055L63.74756451103687,26.880266969854173L65.16496450016498,26.387051062150434L68.85020447189808,22.441323800520465L69.20455446918011,25.15401129289107L69.73607946510315,22.934539708224207L70.09042946238517,24.66079538518733L71.15347945423126,26.140443108298552L73.27957943792343,24.907403339039192L73.45675443656444,24.66079538518733L74.69697942705155,24.167579477483567L75.2285044229746,24.907403339039192L76.11437941617966,23.427755615927946L77.35460440666675,22.687931754372347L77.70895440394878,24.66079538518733L86.88661933355331,20.961676077409223L88.83554431860448,23.67436356977983L89.3670693145275,21.701499938964844L90.25294430773259,23.920971523631707L93.08774428598879,23.67436356977983L93.79644428055285,22.934539708224207L93.97361927919388,22.441323800520465L94.3279692764759,21.2082840312611L94.85949427239895,23.920971523631707L96.09971926288605,21.701499938964844L96.80841925745011,21.454891985112962L97.51711925201415,25.15401129289107L99.11169423978329,23.67436356977983L99.2888692384243,22.934539708224207L100.17474423162936,23.67436356977983L100.88344422619342,22.194715846668586L101.06061922483444,23.920971523631707L103.85998420336246,21.454891985112962L109.3524091612339,24.41418743133545L111.47850914492606,22.441323800520465L112.71873413541317,24.66079538518733L113.60460912861824,23.920971523631707L116.08505910959242,22.687931754372347L117.67963409736157,21.2082840312611L120.47899907588958,20.961676077409223L122.42792406094074,21.454891985112962L123.66814905142785,21.701499938964844L123.84532405006885,22.934539708224207L124.37684904599189,22.194715846668586L125.43989903783798,22.687931754372347L132.17254898619652,22.441323800520465L132.70407398211955,23.427755615927946L133.05842397940157,21.948107892816726L133.58994897532463,22.194715846668586L133.76712397396562,21.454891985112962L134.47582396852968,22.194715846668586L140.28716392395495,22.934539708224207L142.76761390492916,21.2082840312611L147.5513388682365,21.2082840312611L148.6143888600826,24.41418743133545L149.3230888546467,21.2082840312611L152.65397882909772,22.934539708224207L153.53985382230283,22.194715846668586L156.19747880191804,21.2082840312611L156.72900379784107,22.441323800520465L157.2605287937641,22.687931754372347L160.98120376522542,22.934539708224207L162.93012875027657,23.920971523631707L165.23340373260976,20.46846016970548L165.41057873125075,21.2082840312611L167.1823287176609,21.701499938964844L167.71385371358392,24.66079538518733L168.56429370706078,21.701499938964844L171.57626868395803,21.454891985112962L171.93061868124008,24.167579477483567L172.4621436771631,21.701499938964844L176.18281864862442,21.948107892816726L176.53716864590646,23.181147662076086L177.4230436391115,22.687931754372347L179.3719686241627,21.2082840312611L180.7893686132908,19.72863630814986L181.49806860785483,21.948107892816726L184.51004358475208,21.948107892816726L185.71483357551097,20.71506812355734L187.48658356192112,21.454891985112962L187.84093355920314,22.194715846668586L188.90398355104924,20.71506812355734L189.7898585442543,19.72863630814986L190.67573353745937,22.934539708224207L191.2072585333824,23.181147662076086L193.86488351299764,22.687931754372347L194.04205851163863,23.181147662076086L198.825783474946,21.2082840312611L200.24318346407412,20.46846016970548L202.1566734493971,22.934539708224207L202.68819844532013,21.948107892816726L204.10559843444824,21.948107892816726L207.82627340590955,22.441323800520465L208.8893233977556,22.194715846668586L210.83824838280677,19.72863630814986L211.0154233814478,22.687931754372347L216.68502333796025,21.701499938964844L216.86219833660124,21.454891985112962L217.92524832844734,22.194715846668586L227.28008825669286,19.72863630814986L227.6344382539749,20.221852215853602L228.874663244462,22.194715846668586L229.40618824038506,22.687931754372347L230.64641323087216,23.920971523631707L235.57187819309232,23.181147662076086L239.29255316455362,19.97524426200174L241.06430315096378,21.454891985112962L243.89910312922,20.221852215853602L244.25345312650202,22.441323800520465L244.60780312378404,23.67436356977983L245.49367811698912,21.701499938964844L251.16327807350157,21.454891985112962L252.19089306561946,20.961676077409223L254.1398180506706,23.181147662076086L254.3169930493116,21.701499938964844L254.49416804795266,21.454891985112962L255.0256930438757,19.23542040044612L257.8604930221319,22.687931754372347L262.6442179854393,22.441323800520465L263.1757429813623,22.687931754372347L266.7192429541826,21.948107892816726L267.7822929460287,22.934539708224207L267.9594679446697,21.701499938964844" fill="none"></path></g></g></g></g></g></g><g transform="translate(37, 173)" clip-path="url(#clip_1)"><clipPath id="clip_1"><rect width="283" height="26"></rect></clipPath><g><g><line x1="0" y1="0" x2="0" y2="5" style="visibility: inherit;" fill="rgb(0, 0, 0)" stroke="rgb(204, 204, 204)" stroke-width="1px"></line><line x1="35.43499972820282" y1="0" x2="35.43499972820282" y2="5" style="visibility: inherit;" fill="rgb(0, 0, 0)" stroke="rgb(204, 204, 204)" stroke-width="1px"></line><line x1="70.86999945640564" y1="0" x2="70.86999945640564" y2="5" style="visibility: inherit;" fill="rgb(0, 0, 0)" stroke="rgb(204, 204, 204)" stroke-width="1px"></line><line x1="106.30499918460845" y1="0" x2="106.30499918460845" y2="5" style="visibility: inherit;" fill="rgb(0, 0, 0)" stroke="rgb(204, 204, 204)" stroke-width="1px"></line><line x1="141.73999891281127" y1="0" x2="141.73999891281127" y2="5" style="visibility: inherit;" fill="rgb(0, 0, 0)" stroke="rgb(204, 204, 204)" stroke-width="1px"></line><line x1="177.1749986410141" y1="0" x2="177.1749986410141" y2="5" style="visibility: inherit;" fill="rgb(0, 0, 0)" stroke="rgb(204, 204, 204)" stroke-width="1px"></line><line x1="212.6099983692169" y1="0" x2="212.6099983692169" y2="5" style="visibility: inherit;" fill="rgb(0, 0, 0)" stroke="rgb(204, 204, 204)" stroke-width="1px"></line><line x1="248.04499809741972" y1="0" x2="248.04499809741972" y2="5" style="visibility: inherit;" fill="rgb(0, 0, 0)" stroke="rgb(204, 204, 204)" stroke-width="1px"></line><line x1="283.47999782562255" y1="0" x2="283.47999782562255" y2="5" style="visibility: inherit;" fill="rgb(0, 0, 0)" stroke="rgb(204, 204, 204)" stroke-width="1px"></line></g><g transform="translate(0, 8)"><text style="text-anchor: middle; visibility: hidden; font-family: Roboto, sans-serif; font-size: 12px; font-weight: 200;" x="0" y="0" dx="0em" dy="0.95em" fill="rgb(33, 33, 33)" stroke="none" stroke-width="1px">-2k</text><text style="text-anchor: middle; visibility: inherit; font-family: Roboto, sans-serif; font-size: 12px; font-weight: 200;" x="35.43499972820282" y="0" dx="0em" dy="0.95em" fill="rgb(33, 33, 33)" stroke="none" stroke-width="1px">0</text><text style="text-anchor: middle; visibility: inherit; font-family: Roboto, sans-serif; font-size: 12px; font-weight: 200;" x="70.86999945640564" y="0" dx="0em" dy="0.95em" fill="rgb(33, 33, 33)" stroke="none" stroke-width="1px">2k</text><text style="text-anchor: middle; visibility: inherit; font-family: Roboto, sans-serif; font-size: 12px; font-weight: 200;" x="106.30499918460845" y="0" dx="0em" dy="0.95em" fill="rgb(33, 33, 33)" stroke="none" stroke-width="1px">4k</text><text style="text-anchor: middle; visibility: inherit; font-family: Roboto, sans-serif; font-size: 12px; font-weight: 200;" x="141.73999891281127" y="0" dx="0em" dy="0.95em" fill="rgb(33, 33, 33)" stroke="none" stroke-width="1px">6k</text><text style="text-anchor: middle; visibility: inherit; font-family: Roboto, sans-serif; font-size: 12px; font-weight: 200;" x="177.1749986410141" y="0" dx="0em" dy="0.95em" fill="rgb(33, 33, 33)" stroke="none" stroke-width="1px">8k</text><text style="text-anchor: middle; visibility: inherit; font-family: Roboto, sans-serif; font-size: 12px; font-weight: 200;" x="212.6099983692169" y="0" dx="0em" dy="0.95em" fill="rgb(33, 33, 33)" stroke="none" stroke-width="1px">10k</text><text style="text-anchor: middle; visibility: inherit; font-family: Roboto, sans-serif; font-size: 12px; font-weight: 200;" x="248.04499809741972" y="0" dx="0em" dy="0.95em" fill="rgb(33, 33, 33)" stroke="none" stroke-width="1px">12k</text><text style="text-anchor: middle; visibility: hidden; font-family: Roboto, sans-serif; font-size: 12px; font-weight: 200;" x="283.47999782562255" y="0" dx="0em" dy="0.95em" fill="rgb(33, 33, 33)" stroke="none" stroke-width="1px">14k</text></g><line x1="0" y1="0" x2="283.47999782562255" y2="0" fill="rgb(0, 0, 0)" stroke="rgb(204, 204, 204)" stroke-width="1px"></line></g></g></g></g></svg>