<svg viewBox="0 0 330 200" xmlns="http://www.w3.org/2000/svg"><g><g><g><g><g><line x1="56.2000036239624" y1="173.61199951171875" x2="51.2000036239624" y2="173.61199951171875" style="visibility: inherit;" fill="rgb(0, 0, 0)" stroke="rgb(204, 204, 204)" stroke-width="1px"></line><line x1="56.2000036239624" y1="154.32177734375" x2="51.2000036239624" y2="154.32177734375" style="visibility: inherit;" fill="rgb(0, 0, 0)" stroke="rgb(204, 204, 204)" stroke-width="1px"></line><line x1="56.2000036239624" y1="135.03155517578125" x2="51.2000036239624" y2="135.03155517578125" style="visibility: inherit;" fill="rgb(0, 0, 0)" stroke="rgb(204, 204, 204)" stroke-width="1px"></line><line x1="56.2000036239624" y1="115.74133300781251" x2="51.2000036239624" y2="115.74133300781251" style="visibility: inherit;" fill="rgb(0, 0, 0)" stroke="rgb(204, 204, 204)" stroke-width="1px"></line><line x1="56.2000036239624" y1="96.45111083984375" x2="51.2000036239624" y2="96.45111083984375" style="visibility: inherit;" fill="rgb(0, 0, 0)" stroke="rgb(204, 204, 204)" stroke-width="1px"></line><line x1="56.2000036239624" y1="77.160888671875" x2="51.2000036239624" y2="77.160888671875" style="visibility: inherit;" fill="rgb(0, 0, 0)" stroke="rgb(204, 204, 204)" stroke-width="1px"></line><line x1="56.2000036239624" y1="57.870666503906236" x2="51.2000036239624" y2="57.870666503906236" style="visibility: inherit;" fill="rgb(0, 0, 0)" stroke="rgb(204, 204, 204)" stroke-width="1px"></line><line x1="56.2000036239624" y1="38.580444335937514" x2="51.2000036239624" y2="38.580444335937514" style="visibility: inherit;" fill="rgb(0, 0, 0)" stroke="rgb(204, 204, 204)" stroke-width="1px"></line><line x1="56.2000036239624" y1="19.29022216796874" x2="51.2000036239624" y2="19.29022216796874" style="visibility: inherit;" fill="rgb(0, 0, 0)" stroke="rgb(204, 204, 204)" stroke-width="1px"></line><line x1="56.2000036239624" y1="0" x2="51.2000036239624" y2="0" style="visibility: inherit;" fill="rgb(0, 0, 0)" stroke="rgb(204, 204, 204)" stroke-width="1px"></line></g><g transform="translate(46.2000036239624, 0)"><text style="text-anchor: end; visibility: hidden; font-family: Roboto, sans-serif; font-size: 12px; font-weight: 200;" x="0" y="173.61199951171875" dx="0em" dy="0.3em" fill="rgb(33, 33, 33)" stroke="none" stroke-width="1px">-5e-3</text><text style="text-anchor: end; visibility: inherit; font-family: Roboto, sans-serif; font-size: 12px; font-weight: 200;" x="0" y="154.32177734375" dx="0em" dy="0.3em" fill="rgb(33, 33, 33)" stroke="none" stroke-width="1px">0</text><text style="text-anchor: end; visibility: hidden; font-family: Roboto, sans-serif; font-size: 12px; font-weight: 200;" x="0" y="135.03155517578125" dx="0em" dy="0.3em" fill="rgb(33, 33, 33)" stroke="none" stroke-width="1px">5e-3</text><text style="text-anchor: end; visibility: inherit; font-family: Roboto, sans-serif; font-size: 12px; font-weight: 200;" x="0" y="115.74133300781251" dx="0em" dy="0.3em" fill="rgb(33, 33, 33)" stroke="none" stroke-width="1px">0.01</text><text style="text-anchor: end; visibility: hidden; font-family: Roboto, sans-serif; font-size: 12px; font-weight: 200;" x="0" y="96.45111083984375" dx="0em" dy="0.3em" fill="rgb(33, 33, 33)" stroke="none" stroke-width="1px">0.015</text><text style="text-anchor: end; visibility: inherit; font-family: Roboto, sans-serif; font-size: 12px; font-weight: 200;" x="0" y="77.160888671875" dx="0em" dy="0.3em" fill="rgb(33, 33, 33)" stroke="none" stroke-width="1px">0.02</text><text style="text-anchor: end; visibility: hidden; font-family: Roboto, sans-serif; font-size: 12px; font-weight: 200;" x="0" y="57.870666503906236" dx="0em" dy="0.3em" fill="rgb(33, 33, 33)" stroke="none" stroke-width="1px">0.025</text><text style="text-anchor: end; visibility: inherit; font-family: Roboto, sans-serif; font-size: 12px; font-weight: 200;" x="0" y="38.580444335937514" dx="0em" dy="0.3em" fill="rgb(33, 33, 33)" stroke="none" stroke-width="1px">0.03</text><text style="text-anchor: end; visibility: hidden; font-family: Roboto, sans-serif; font-size: 12px; font-weight: 200;" x="0" y="19.29022216796874" dx="0em" dy="0.3em" fill="rgb(33, 33, 33)" stroke="none" stroke-width="1px">0.035</text><text style="text-anchor: end; visibility: hidden; font-family: Roboto, sans-serif; font-size: 12px; font-weight: 200;" x="0" y="0" dx="0em" dy="0.3em" fill="rgb(33, 33, 33)" stroke="none" stroke-width="1px">0.04</text></g><line x1="56.2000036239624" y1="0" x2="56.2000036239624" y2="173.61199951171875" fill="rgb(0, 0, 0)" stroke="rgb(204, 204, 204)" stroke-width="1px"></line></g></g><g transform="translate(56, 0)" clip-path="url(#clip_0)"><clipPath id="clip_0"><rect width="265" height="173"></rect></clipPath><g><g><g><line x1="0" y1="0" x2="0" y2="173.61199951171875" fill="rgb(0, 0, 0)" stroke="rgb(66, 66, 66)" stroke-width="1px" opacity="0.25"></line><line x1="33.1249995470047" y1="0" x2="33.1249995470047" y2="173.61199951171875" fill="rgb(0, 0, 0)" stroke="rgb(66, 66, 66)" stroke-width="1px" opacity="0.25"></line><line x1="66.2499990940094" y1="0" x2="66.2499990940094" y2="173.61199951171875" fill="rgb(0, 0, 0)" stroke="rgb(66, 66, 66)" stroke-width="1px" opacity="0.25"></line><line x1="99.37499864101409" y1="0" x2="99.37499864101409" y2="173.61199951171875" fill="rgb(0, 0, 0)" stroke="rgb(66, 66, 66)" stroke-width="1px" opacity="0.25"></line><line x1="132.4999981880188" y1="0" x2="132.4999981880188" y2="173.61199951171875" fill="rgb(0, 0, 0)" stroke="rgb(66, 66, 66)" stroke-width="1px" opacity="0.25"></line><line x1="165.6249977350235" y1="0" x2="165.6249977350235" y2="173.61199951171875" fill="rgb(0, 0, 0)" stroke="rgb(66, 66, 66)" stroke-width="1px" opacity="0.25"></line><line x1="198.74999728202818" y1="0" x2="198.74999728202818" y2="173.61199951171875" fill="rgb(0, 0, 0)" stroke="rgb(66, 66, 66)" stroke-width="1px" opacity="0.25"></line><line x1="231.87499682903288" y1="0" x2="231.87499682903288" y2="173.61199951171875" fill="rgb(0, 0, 0)" stroke="rgb(66, 66, 66)" stroke-width="1px" opacity="0.25"></line><line x1="264.9999963760376" y1="0" x2="264.9999963760376" y2="173.61199951171875" fill="rgb(0, 0, 0)" stroke="rgb(66, 66, 66)" stroke-width="1px" opacity="0.25"></line></g><g><line x1="0" y1="173.61199951171875" x2="264.9999963760376" y2="173.61199951171875" fill="rgb(0, 0, 0)" stroke="rgb(66, 66, 66)" stroke-width="1px" opacity="0.25"></line><line x1="0" y1="154.32177734375" x2="264.9999963760376" y2="154.32177734375" fill="rgb(0, 0, 0)" stroke="rgb(66, 66, 66)" stroke-width="1px" opacity="0.25"></line><line x1="0" y1="135.03155517578125" x2="264.9999963760376" y2="135.03155517578125" fill="rgb(0, 0, 0)" stroke="rgb(66, 66, 66)" stroke-width="1px" opacity="0.25"></line><line x1="0" y1="115.74133300781251" x2="264.9999963760376" y2="115.74133300781251" fill="rgb(0, 0, 0)" stroke="rgb(66, 66, 66)" stroke-width="1px" opacity="0.25"></line><line x1="0" y1="96.45111083984375" x2="264.9999963760376" y2="96.45111083984375" fill="rgb(0, 0, 0)" stroke="rgb(66, 66, 66)" stroke-width="1px" opacity="0.25"></line><line x1="0" y1="77.160888671875" x2="264.9999963760376" y2="77.160888671875" fill="rgb(0, 0, 0)" stroke="rgb(66, 66, 66)" stroke-width="1px" opacity="0.25"></line><line x1="0" y1="57.870666503906236" x2="264.9999963760376" y2="57.870666503906236" fill="rgb(0, 0, 0)" stroke="rgb(66, 66, 66)" stroke-width="1px" opacity="0.25"></line><line x1="0" y1="38.580444335937514" x2="264.9999963760376" y2="38.580444335937514" fill="rgb(0, 0, 0)" stroke="rgb(66, 66, 66)" stroke-width="1px" opacity="0.25"></line><line x1="0" y1="19.29022216796874" x2="264.9999963760376" y2="19.29022216796874" fill="rgb(0, 0, 0)" stroke="rgb(66, 66, 66)" stroke-width="1px" opacity="0.25"></line><line x1="0" y1="0" x2="264.9999963760376" y2="0" fill="rgb(0, 0, 0)" stroke="rgb(66, 66, 66)" stroke-width="1px" opacity="0.25"></line></g></g></g><g><g><line x1="0" y1="154.32177734375" x2="264.9999963760376" y2="154.32177734375" fill="rgb(0, 0, 0)" stroke="rgb(153, 153, 153)" stroke-width="1.5px"></line></g></g><g><g><line x1="33.1249995470047" y1="0" x2="33.1249995470047" y2="173.61199951171875" fill="rgb(0, 0, 0)" stroke="rgb(153, 153, 153)" stroke-width="1.5px"></line></g></g><g><g><g><g><g><path style="fill: none;" stroke="rgb(255, 112, 67)" stroke-width="2px" d="M36.271874503970146,136.89427316665456L37.26562449038028,134.4772123810581L39.91562445414066,138.15416657886874L40.24687444961071,140.29894904858506L40.743749442815776,141.1071744170479L42.565624417901034,142.39285429480182L45.04999938392639,142.00906722849305L45.54687437713146,142.62648921074236L48.991874330019954,145.9262753731438L50.316874311900136,147.1209255554046L50.97937430284023,147.61640748526878L54.2918742575407,148.33113576673284L59.09499919185638,149.15697882282961L59.59187418506145,149.15121317438118L61.08249916467667,149.93050148012588L62.90437413976192,149.74793715883678L63.732499128437034,149.49745548222796L64.06374912390709,149.32908909998218L71.48374902243614,149.4004757456885L72.31187401111126,150.4813619275507L74.79624897713661,151.00243431371464L75.78999896354674,150.58761632184857L76.61812395222188,150.63382001194782L77.77749893636702,151.13118228789995L78.77124892277718,151.0183874801382L82.05062387793063,151.86979793737603L84.70062384169101,152.5766929407899L85.03187383716107,152.80561592278724L86.35687381904125,152.84759378039965L88.34437379186153,153.00275677480585L89.83499877147675,152.65960883636373L91.15999875335692,152.95908105684L93.8099987171173,153.01986473141983L94.4724987080574,152.89678947481445L103.54874858393669,153.15205491230813L103.71437358167171,153.47868203150927L106.52999854316711,153.36291527930481L107.02687353637218,153.62221692475964L107.52374852957725,153.62028495140504L110.0081234956026,153.66682173267714L110.50499848880767,153.54019565231886L110.67062348654271,153.3943479070064L112.45937346208095,153.3724134897347L115.60624841904641,153.59780586336427L119.0843733714819,153.85087110322965L121.89999833297729,153.8810152275876L122.7281233216524,153.89642942466784L127.33249825868606,153.9674406406229L128.9887482360363,154.03910867609656L129.98249822244642,154.07096057356665L131.1418732065916,154.105702081654L131.30749820432663,154.11706878493854L133.79187317035198,153.68283665527136L136.7731231295824,153.84209214313114L137.10437312505246,153.88641853587632L139.09187309787274,153.97363821322418L140.2512480820179,154.047276400678L140.41687307975292,153.91291612901156L140.74812307522296,154.00037421746032L141.24499806842803,154.01863448513623L141.57624806389808,154.05355604920913L143.69624803490638,154.07763886126014L145.3524980122566,154.08737129534111L148.16812297375202,154.07343199119657L152.4743729148626,153.9453278331112L153.13687290580273,154.02635303972593L153.7993728967428,154.0518691594193L155.124372878623,154.1238382831421L156.6149978582382,154.11925858329934L158.90062282698153,154.15542137467082L159.56312281792162,154.177285723672L161.05374779753686,154.16144349316502L161.71624778847692,154.15729186106282L162.047497783947,154.17691472704166L162.37874777941704,154.20590315007672L163.5381227635622,154.21847153718994L164.3662477522373,154.19089360204615L164.6974977477074,154.17580031075755L165.52562273638247,154.16421648919456L165.85687273185252,154.15418257799018L166.5193727227926,154.14102245359916L167.1818727137327,153.41323364937773L168.17562270014284,153.73859859761365L168.34124769787786,153.89424666155278L172.15062264578341,154.01946325864057L172.8131226367235,154.05949053064282L178.4112475601673,154.12674212683763L179.57062254431247,154.16024314524256L180.5643725307226,154.16567077229988L182.88312249901293,154.12900527853213L183.54562248995305,154.16999193134708L184.70499747409818,154.1520579311143L185.03624746956825,153.96090649116945L186.02999745597836,154.07593834716786L186.36124745144843,154.09473420737098L188.81249741792678,154.1213944959341L188.9781224156618,154.1396101843518L190.63437239301203,154.1795693206579L191.1312473862171,154.1878069687502L192.62187236583233,154.19760570590378L193.28437235677242,154.1897959611075L193.9468723477125,154.17511666443434L195.43749732732772,154.1608300377432L195.60312232506274,154.15168522871758L196.59687231147288,153.92485528723049L196.76249730920793,154.03147279359965L197.59062229788302,154.0898712047041L200.57187225711343,154.0378116301056L201.06874725031852,154.09923386633372L202.55937222993373,154.131140143522L207.66062216017247,154.0933892569034L209.81374713072773,154.14977296418144L210.8074971171379,154.17644583003272L211.30437211034297,154.18866079137356L211.635622105813,154.09477693800153L212.2981220967531,154.15443456512835L213.29187208316324,154.13130405642485L214.11999707183838,154.15997295635486L215.7762470491886,154.12435207271602L216.76999703559872,154.17457294579125L217.59812202427386,154.16123016530526L219.2543720016241,154.10948126652346L226.3431219046831,154.15620836257966L227.0056218956232,154.1623752562599L227.17124689335822,154.15872577308713L227.33687189109327,153.71121427559208L230.31812185032368,153.80517911562603L232.47124682087897,153.9568811649836L234.62437179143427,153.9710084122513L239.0631217307329,154.05146260700246L241.0506217035532,154.1331229266114L242.87249667863844,154.08448842439768L243.36937167184354,154.0634491233957L243.86624666504858,154.02107858104867L247.17874661974906,154.08110973853593L248.1724966061592,154.14896864684098L249.33187159030436,154.15089838618056L250.32562157671452,154.1845469798538L35.60937451303005,142.82780617604143L36.10624950623512,138.80474348982162L37.92812448132038,138.14226191133378L33.29062454473972,79.01174390952136L33.78749953794479,48.16016385456513L33.95312453567981,32.46617058375693L41.90312442696094,77.58695411090204L42.39999942016601,103.35252727964134L42.89687441337108,119.1493936229139L43.06249941110611,129.8344188045797L46.70624936127662,136.55465255600066L48.826249332284924,141.17392930082855L49.15749932775497,144.1879040089231L50.48249930963516,146.41805418137662L51.14499930057526,147.03117835101253L55.28562424395084,147.49855055526098L55.451249241685865,148.61489639755274L57.27312421677112,148.48237797499456L58.598124198651306,149.09067785287093L59.260624189591404,148.9713447465229L59.59187418506145,149.4142283224685L65.02437411077022,149.90057480605125L65.68687410171032,150.70066689851885L69.8274990450859,150.60295193141494L72.47749900884628,150.83393629071915L72.6431240065813,150.72989996525848L75.12749897260665,151.24112640674528L75.78999896354674,151.1837650219614L78.43999892730712,151.72570318776434L78.60562392504215,151.56139069091506L82.38187387340069,152.210725564086L83.2099988620758,152.29537467758206L84.03812385075092,152.55511737835084L84.53499884395599,152.37166786393988L85.3631238326311,152.56119164463072L85.85999882583619,152.71669805969196L87.84749879865646,152.8102898944013L89.17249878053666,152.35236856204844L90.3318737646818,152.45818945772936L91.49124874882698,153.12449950997285L92.98187372844218,152.73165447791112L93.64437371938229,152.94299751715252L93.97562371485233,152.99159102219164L94.30687371032238,152.90807344943838L94.80374870352745,153.21092662576774L96.09562368586062,153.36030733406955L97.58624866547585,152.9090660587256L99.24249864282608,153.26378240609108L99.90499863376617,153.24625401555534L100.23624862923621,153.3228755530964L100.73312362244128,153.51781301715076L101.5612486111164,153.635097795207L102.05812360432148,153.19089984163077L102.22374860205649,153.37844622000725L105.53624855675697,153.1459128209856L107.02687353637218,153.5220512046676L108.02062352278233,153.68993808842944L109.17999850692748,153.81885954488752L109.34562350466251,153.54996348761162L110.96874848246574,153.700025654777L112.1281234666109,153.8388412020712L115.60624841904641,153.95484208394268L116.26874840998649,153.87986607469023L117.92499838733673,153.78893473998946L118.58749837827682,153.91884459582383L120.07812335789203,153.77221690592663L122.23124832844734,153.87346708996444L122.7281233216524,153.855725834005L123.72187330806254,153.956676292081L124.0531233035326,154.00095131399274L129.8168732247114,154.03631684501778L130.81062321112154,154.05639277697347L133.62624817261695,153.93901854278036L135.28249814996718,154.00416139932932L135.77937314317228,153.96612356092322L136.1106231386423,153.90703703008268L139.09187309787274,153.98270786077148L141.41062306616305,154.02830774300176L141.7418730616331,153.85020705755002L144.85562301905156,153.98892807913703L145.51812300999163,154.0391764965127L146.8431229918718,154.09963628600076L149.65874795336723,154.0824447698161L150.65249793977736,153.9230810383019L154.62749788541794,153.97738552656546L156.78062285597323,154.0282479551383L157.2774978491783,154.1100136209242L157.57562284510135,153.95403313046373L157.9068728405714,154.06321122475444L158.23812283604144,153.9433007185975L158.90062282698153,154.01358548918063L159.56312281792162,154.07292000792336L160.7224978020668,154.01997372018363L163.20687276809213,154.08456510808463L168.83812269108296,154.1586768265314L169.50062268202305,154.18720115637117L170.6599976661682,154.2143857788634L172.15062264578341,154.15072306414208L174.2706226167917,154.17830164700277L175.92687259414194,154.2011160697602L176.258122589612,154.17218105013924L176.58937258508206,154.17879780990245L177.41749757375715,154.2094755220694L177.91437256696224,154.18457288481278L179.2393725488424,154.0225331883479L179.90187253978252,154.11020727152035L183.21437249448297,154.17798978773615L184.04249748315812,154.1213971458189L184.20812248089314,154.14308106518968L184.53937247636316,154.1858429625471L185.03624746956825,154.22178319823078L185.69874746050834,154.21803748559347L185.86437245824337,154.2121962948188L187.02374744238853,154.209681401977L187.5206224355936,154.1753056859394L188.3487474242687,153.75994183860237L191.6281223794222,153.95438293016656L193.28437235677242,153.98661906307L194.27812234318256,154.09374485149206L195.2718723295927,154.15706991175395L195.9343723205328,154.14178791568733L197.92187229335306,153.99136871847952L198.0874972910881,154.0736836317335L202.22812223446368,154.11089319871652L203.71874721407892,154.12884583020735L209.64812213299274,154.09999194255943L209.81374713072773,154.16012343520586L210.1449971261978,154.1725678896506L212.46374709448813,154.20424877561476L217.43249702653884,154.1527087165836L218.75749700841902,154.17859119967895L220.0493719907522,154.18120264069952L220.38062198622225,154.1352668536202L220.71187198169233,154.12171954255174L221.5399969703674,154.1493340370734L225.680621913743,154.1758560224482L225.84624691147803,154.20490685326928L227.5024968888283,154.21351751544398L227.8337468842983,154.21002012855485L228.66187187297342,154.2087433841758L230.98062184126377,154.21871367989166L231.9743718276739,154.21587825264515L233.4649968072891,154.2305355773344L236.08187177150248,154.22857534999042L236.7443717624426,154.23994892921704L237.07562175791261,154.0776425597007L239.22874672846794,154.06224636586583L241.2162467012882,154.12216996171887L243.2037466741085,154.1734893192461L244.85999665145874,154.20674385240383L245.85374663786885,154.22289777875756L248.66937159936427,154.14941080428582L249.6631215857744,154.1937034020795L249.82874658350943,154.1803535727652L34.781249524354934,118.36461135702574L35.77499951076508,117.35385127778679L36.60312449944019,121.97244055428473L40.41249944734573,128.79613784662442L41.57187443149089,134.65285153390118L42.39999942016601,137.83611948809076L44.553124390721315,140.8087208035718L45.71249937486648,142.00199216778492L48.19687434089184,142.951403753906L50.316874311900136,144.42350689839498L50.813749305105205,146.48442376323624L53.13249927339554,147.30389211937512L53.29812427113056,148.1550913566443L53.62937426660061,147.38573308880848L58.92937419412136,147.2653159356316L59.09499919185638,148.24432150043526L59.260624189591404,148.481325862606L62.24187414882183,148.8189063679971L64.8587491130352,149.30894306099475L65.68687410171032,150.39926082188643L72.80874900431633,151.13351589692402L74.29937398393153,150.6738311191146L75.78999896354674,150.93894941829208L76.78374894995689,150.78801064813496L77.446248940897,151.33853556145792L80.3943739005804,151.94412766892526L80.72562389605045,152.3550288200019L80.89124889378547,152.41395524380124L88.67562378733157,152.16185338427147L90.00062376921177,152.65760312623274L93.8099987171173,152.56495991709622L95.43312369492052,152.87802313959716L96.09562368586062,153.113139005464L96.75812367680072,153.3577991092929L96.92374867453576,153.56276284291027L98.745623649621,153.42834903755687L99.24249864282608,153.52643684778826L100.56749862470626,152.99506058494455L101.06437361791134,153.06575835530066L105.03937356355189,153.3199674614969L105.70187355449198,153.41225768114916L106.03312354996204,153.51186406776023L110.67062348654271,153.66433367434382L114.61249843263626,153.64039975670005L117.09687339866161,153.78329059838546L118.4218733805418,153.43664519092908L119.24999836921691,153.62931081602386L120.07812335789203,153.51722572934924L120.74062334883213,153.47589192818555L121.07187334430216,153.74298765639705L123.72187330806254,153.8559687497745L126.83562326548099,153.9301616286724L127.00124826321601,154.01394348048098L128.16062324736117,154.0892825932295L128.65749824056624,154.04488001164955L132.6324981862068,154.01997159793703L133.12937317941189,154.03121802022056L134.28874816355705,154.02467530336205L134.7856231567621,153.7739021162301L134.95124815449714,153.8975657000968L135.28249814996718,153.99608500287295L135.44812314770223,154.02165052608538L139.5887480910778,153.95255882527584L141.079373070693,154.0262642202315L145.18687301452158,154.11458212498317L146.5118729964018,154.1001883917983L148.8306229646921,154.13207072434048L148.99624796242713,154.13665604457128L151.81187292392255,154.17511492810726L156.6149978582382,154.135783169001L156.9462478537083,154.17183422950794L158.7349978292465,153.69505917951906L161.5506227907419,153.88352881255926L162.37874777941704,153.9493134426326L166.02249772958754,154.05908925072723L166.5193727227926,154.12862764486997L167.34749771146772,154.17786243022505L169.169372686553,154.20222204361247L169.50062268202305,154.19985576037806L170.6599976661682,154.22378653335272L171.65374765257835,154.22125600955013L172.8131226367235,154.21929830041L173.9393726213217,154.2173796876103L174.43624761452674,154.16327815798L177.25187257602215,154.07998024597362L179.2393725488424,154.07894414058043L179.7362475420475,154.1335387502704L180.89562252619265,154.13231419481903L183.54562248995305,154.17157946217102L183.8768724854231,154.18471360130707L184.87062247183323,154.20509156877193L185.53312246277332,154.17707483298256L188.18312242653369,153.98656008780134L191.1312473862171,153.8006872726509L194.44374734091758,153.98099756966704L197.424997300148,154.080223472507L197.75624729561804,154.13532089595776L198.0874972910881,154.1345174089746L198.58437228429318,154.1814259119801L199.08124727749822,154.13835864303437L201.89687223899364,154.14818023422959L203.71874721407892,154.15646548664736L206.16999718055726,154.17654056196673L211.13874711260794,154.18034363136164L211.46999710807802,154.1475967846263L215.44499705371854,154.15452139013786L216.10749704465866,154.15536071951217L216.4387470401287,154.1280196013645L217.43249702653884,154.12852490953304L217.9293720197439,154.16241086690616L218.26062201521398,154.08896315149966L219.88374699301718,154.09975181803154L221.04312197716234,154.14640126775888L223.19624694771767,154.18097758245793L224.52124692959782,154.20733005865506L226.67437190015315,154.1920384208395L227.0056218956232,154.21710736612616L227.5024968888283,154.22371622580766L229.48999686164854,154.10230229177247L230.15249685258865,154.14953266105616L230.98062184126377,154.18458034078012L231.3118718367338,154.1994513123523L232.96812181408404,154.1944455105727L233.63062180502413,154.17034549017234L238.56624673752785,154.20647688487747L239.39437172620296,154.1661370785247L240.5537467103481,154.19364729159315L247.84124661068915,154.2186536088351L249.16624659256934,154.20090733231754L250.32562157671452,154.1520429705087L33.62187454020977,98.57432391114773L35.44374951529503,65.30845925210417L36.43749950170517,45.31134817594554L37.431249488115306,33.48726848757014L41.07499943828583,26.37729855220542L42.89687441337108,21.982914145634066L43.7249994020462,19.357821612630236L45.215624381661414,17.71329022302336L45.38124937939644,16.899062410990034L47.36874935221672,16.369121899663064L49.32312432549,15.953362473194083L49.81999931869507,15.72498815902335L51.4762492960453,15.739154791041505L59.260624189591404,15.620942511554578L60.088749178266525,15.513141479904897L60.25437417600155,15.524300800878851L61.91062415335178,15.479733147203621L74.13374898619651,15.517167907470846L75.95562396128177,15.534609944074742L76.1212489590168,15.484510144242185L76.45249895448684,15.545484637396488L76.78374894995689,15.572077685649832L77.28062394316197,15.654123262162736L77.446248940897,15.687627273034014L81.71937388246059,15.62211080251916L82.5474988711357,15.586485987032326L83.04437386434078,15.621232193398665L84.36937384622097,15.508923103282712L86.19124882130622,15.424296595547927L87.68187380092142,15.441191395372906L88.1787487941265,15.625854419705457L88.34437379186153,15.578706016099655L90.82874875788688,15.544599052525982L93.47874872164726,15.568344178378236L94.4724987080574,15.584022738505345L95.13499869899749,15.664515445962149L96.75812367680072,15.67509231315134L97.08937367227077,15.68718161873045L98.57999865188599,15.580721283605865L99.24249864282608,15.569792766511279L100.23624862923621,15.550610996751745L101.06437361791134,15.587444722582163L105.37062355902195,15.560357077066895L106.86124853863716,15.441859695014287L109.34562350466251,15.497582754230322L110.50499848880767,15.538392472338298L111.63124847340583,15.505365965468302L112.29374846434592,15.488861447445363L112.45937346208095,15.56018542794059L115.60624841904641,15.58197321067166L116.10312341225146,15.439111789074879L117.09687339866161,15.485539937633458L122.06562333071231,15.59971132484443L123.05937331712245,15.571856271048143L125.5437482831478,15.622917424051817L125.87499827861785,15.709382015868288L128.82312323830126,15.760622639261975L128.9887482360363,15.614271095273311L132.13562319300175,15.646825604221354L132.30124819073677,15.666910207273359L132.79812318394184,15.61386003822604L134.28874816355705,15.563069951806714L136.1106231386423,15.612155400346131L140.2512480820179,15.563800594009706L140.74812307522296,15.540829840051833L142.70249804849624,15.561650222625717L143.19937304170134,15.607951934199045L143.53062303717135,15.575668096623538L143.8618730326414,15.6120739536847L145.84937300546167,15.619171451698914L148.6649979669571,15.64349947979894L152.14312291939257,15.655652999624028L153.30249790353776,15.59267013986075L154.62749788541794,15.513453604158995L155.28999787635803,15.576533176742101L156.4493728605032,15.60223342232778L156.6149978582382,15.583010492191221L156.78062285597323,15.587062094724942L158.5693728315115,15.620025645780306L162.8756227726221,15.554271133388891L163.70374776129722,15.57456709909258L166.35374772505762,15.635535883068505L168.17562270014284,15.5583974860478L168.83812269108296,15.563032758042992L169.00374768881798,15.499425229100835L170.32874767069816,15.456822534533275L170.82562266390323,15.427334395734249L171.3224976571083,15.467021624703087L171.81937265031337,15.487355856893497L173.4424976281166,15.57077994200907L174.1049976190567,15.552226612337988L175.26437260320188,15.515718818977424L175.4299976009369,15.548963668739777L176.423747587347,15.564920818262527L177.41749757375715,15.64751232124784L177.7487475692272,15.665384846663919L178.2456225624323,15.600923800448589L184.04249748315812,15.59386631081828L186.02999745597836,15.558765789321374L189.30937241113185,15.623128889698048L189.6406224066019,15.474452222628754L192.78749736356735,15.505375951426217L193.1187473590374,15.535968456919068L196.43124731373786,15.561216932320356L200.40624725937843,15.609111946763194L200.9031222525835,15.624896606676744L203.0562472231388,15.608640922080772L204.51374720320703,15.463068940852882L206.00437218282224,15.50495029505928L206.50124717602728,15.559990812224672L206.83249717149732,15.61924176034339L206.99812216923235,15.74287175008979L214.2856220695734,15.699501286354296L215.27937205598352,15.605819801515558L215.7762470491886,15.59430312508155L216.93562203333377,15.558843911984948L219.08874700388907,15.638013762465905L219.4199969993591,15.662295727521462L219.71812199528216,15.70368943353106L220.87749697942732,15.715285861674703L223.85874693865776,15.552489189509153L227.6681218865633,15.59402737679222L228.4962468752384,15.59085524772764L231.80874682993888,15.575160277143574L232.13999682540893,15.5636621806128L233.13374681181907,15.592855131600688L237.57249675111768,15.52718957325649L238.40062173979283,15.576272084519081L240.5537467103481,15.663619107602862L241.2162467012882,15.676486152026898L244.19749666051862,15.695928455514723L245.52249664239883,15.718999723059804L249.33187159030436,15.663861022123452L249.99437158124445,15.534546391991158L33.29062454473972,15.330210861608803L33.456249542474744,15.2760965965016L37.76249948358535,15.354697446177429L41.57187443149089,15.342477214633167L43.7249994020462,15.373559454029689L46.37499936580657,15.482024396671099L48.19687434089184,15.633239643371562L50.97937430284023,15.649088923439454L53.29812427113056,15.556687134920292L53.463749268865584,15.547249033275602L56.776249223566055,15.540649096014215L60.751249169206616,15.58364642820136L61.08249916467667,15.589869706563334L34.61562452661991,15.533176626206401L37.76249948358535,15.510060757235081L37.92812448132038,15.58631152836835L38.25937447679043,15.45630557469203L39.08749946546554,15.51022854450325L45.215624381661414,15.404717135344542L46.37499936580657,15.500707507591606L47.03749935674667,15.44239746853769L48.03124934315681,15.496289967834246L49.15749932775497,15.491343629126431L49.98562431643008,15.569217338619369L50.48249930963516,15.653367125955839L50.813749305105205,15.54439881045783L33.78749953794479,59.239035423744355L35.11249951982498,87.89366946732757L37.92812448132038,106.60903499502506L38.756249469995495,118.69857800294307L39.08749946546554,126.14304266519162L41.07499943828583,131.0522722613911L41.406249433755875,134.4009281596679L42.39999942016601,135.7588270989889L44.3874993929863,136.5426127636162L45.215624381661414,137.55498638031378L46.87187435901165,138.66868361377843L48.528124336361884,138.27837477330985L53.29812427113056,140.82648642206237L53.62937426660061,140.34413297644528L54.2918742575407,140.7548095877409L56.776249223566055,141.06853234022248L63.56687413070202,141.615716508045L64.06374912390709,142.2768762858799L67.17749908132554,142.56439629904273L70.15874904055595,142.17712416396262L72.97437400205135,144.06562786530884L73.47124899525642,144.66339077066468L74.29937398393153,143.69886088335014L75.12749897260665,144.30837435114913L78.10874893183708,143.48703315623564L78.2743739295721,143.3172161384259L81.22249888925552,144.30188059974495L81.71937388246059,144.98456844424408L82.87874886660575,146.27116363666636L87.35062380545139,145.5200417811936L87.68187380092142,145.7713803650657L88.8412487850666,146.25198208466634L91.82249874429702,146.63374102005346L92.15374873976707,146.60141659653695L93.31312372391224,145.8048580215612L94.80374870352745,145.22694459914052L96.5924986790657,146.1090966250221L96.75812367680072,146.04512513856903L98.41437365415096,145.74359664087808L99.07687364509106,146.27085463584405L99.24249864282608,143.9377259745615L102.38937359979153,143.7954867012655L103.21749858846664,144.670221975514L103.54874858393669,145.627163095155L104.21124857487678,145.46563414223235L105.70187355449198,146.31208291802346L108.68312351372242,146.76388929579844L112.1281234666109,146.9493116673819L112.95624845528603,146.8050163417495L114.44687343490124,146.70366833786886L115.44062342131137,146.7786791839359L115.60624841904641,147.55197181456694L116.26874840998649,147.31396300322723L116.76562340319155,145.93518644802376L120.40937335336207,146.86389294230815L123.39062331259251,146.1576070977369L124.0531233035326,145.47801807973786L124.88124829220772,146.15423250020768L126.04062327635289,146.2031224712034L127.6637482541561,146.65374302297127L127.99499824962615,146.42976558011628L129.6512482269764,145.96248564233028L130.64499821338651,146.2850712881596L130.9762482088566,147.44641730219618L131.96999819526673,147.84022823188857L132.30124819073677,148.19570887970207L132.6324981862068,147.52244568169178L134.6199981590271,146.4524730172219L134.95124815449714,146.61608595107032L135.28249814996718,146.82928485439996L139.09187309787274,146.93278865250537L140.58249807748794,146.3625667366577L141.079373070693,146.29144696872902L143.8618730326414,147.15552647325214L145.51812300999163,146.5354886627175L145.68374800772665,147.06439942026688L146.01499800319672,146.35862314621025L147.00874798960683,146.8888083726044L148.002497976017,146.24383810967475L149.16187296016216,146.2955959260096L149.98999794883727,145.93631235597957L151.14937293298243,145.41958537383013L152.14312291939257,145.4977984254066L154.2962478899479,146.92933837433833L158.7349978292465,147.83488332559065L162.54437277715206,147.48010371121043L163.20687276809213,147.46899640521207L163.37249776582718,147.2561267345759L164.53187274997234,146.57167742566872L167.34749771146772,146.69212420429815L169.169372686553,146.39536674795704L170.99124766163825,146.8038837556884L172.15062264578341,147.25691512456882L173.27687263038158,147.69549184299714L177.25187257602215,147.12674517753132L186.36124745144843,148.11205152837067L187.02374744238853,147.54974367013077L189.30937241113185,146.98589047163728L191.1312473862171,147.04478553116158L191.79374737715722,145.56456068672466L193.1187473590374,146.3363367507658L193.28437235677242,146.7096626042568L193.9468723477125,145.98845500467567L195.43749732732772,146.2102530711253L195.60312232506274,146.80888006353234L197.25937230241297,147.12573799502346L197.424997300148,147.1981744063527L197.59062229788302,147.10414150905234L198.9156222797632,146.72067316813838L202.22812223446368,146.25142679955184L206.33562217829225,146.4380340929426L207.32937216470242,146.64196452867967L207.49499716243744,146.98179041891066L207.9918721556425,147.01653452312596L209.64812213299274,147.79108979394834L211.13874711260794,147.3361887685823L211.635622105813,147.56973087325284L213.29187208316324,147.44112705754873L214.11999707183838,146.97984865164142L220.21499698848723,146.3584714488164L221.70562196810243,145.56428346249803L222.0368719635725,145.64565802470725L222.69937195451257,145.94065535824376L223.69312194092274,146.84485620725977L224.1899969341278,147.8551574318723L225.34937191827296,147.95393400038992L226.67437190015315,148.14373254662829L227.17124689335822,148.43483586549047L228.4962468752384,146.67064338875852L229.15874686617852,147.8642152064951L229.82124685711858,147.57097013166245L233.63062180502413,147.87165608270837L234.29312179596425,148.2184001293052L235.5849967782974,148.48430562759202L236.2474967692375,148.96901780726873L238.06937174432278,147.66778881473167L240.05687171714305,147.7077259689123L242.70687168090342,148.3288668858637L246.84749662427902,147.9791403644876L249.33187159030436,147.13316799495973L34.28437453114986,138.83930857811177L35.60937451303005,135.61298071490745L36.93437449491024,134.95701460301163L37.92812448132038,135.14723129907938L38.0937494790554,135.1548306915306L40.909374440550806,136.95941396271382L42.39999942016601,137.40962306775518L44.718749388456345,136.82506310669692L45.215624381661414,138.0001855310195L48.991874330019954,139.8737086625277L51.80749929151535,141.52184076821152L53.79499926433564,141.61799283201353L54.2918742575407,141.69327760548805L55.28562424395084,141.45205740762515L58.26687420318126,141.11203507206534L58.598124198651306,141.75807920278172L61.57937415788173,141.56347805842606L62.24187414882183,142.27448017772969L62.7387491420269,141.39368650033902L65.85249909944534,142.6689240267566L66.51499909038543,142.3951432276811L67.6743740745306,143.0388274455171L69.8274990450859,144.4292388065031L70.82124903149604,145.0121677307749L73.13999899978639,143.24621669346283L75.12749897260665,143.51059220160965L76.28687395675182,143.7056308964109L77.611873938632,144.44456770678352L78.9368739205122,144.33756420079044L79.10249891824722,143.4502760492491L82.87874886660575,144.20416646241227L83.54124885754584,144.15090314663254L85.85999882583619,145.5013929810785L87.84749879865646,146.00796368145706L88.01312379639148,145.71952442386836L89.17249878053666,145.47739137729675L91.49124874882698,145.4944298320181L92.48499873523711,144.46112936463985L93.64437371938229,144.3823634511086L93.97562371485233,143.64487788025212L95.59874869265556,144.27850366039502L95.92999868812561,144.7266459030579L96.09562368586062,145.11533292913688L99.24249864282608,142.50258341649686L99.73937363603115,144.5850904873652L101.22999861564637,145.22027368193034L103.38312358620166,144.93770399821602L105.70187355449198,145.13471351394995L107.35812353184222,145.91112188609324L110.0081234956026,146.36831781752983L111.96249846887588,146.4905079778676L114.9437484281063,145.5407801898712L116.59999840545653,145.32990086026632L116.76562340319155,145.1436867497159L117.7593733896017,145.66633412898912L118.91874837374687,146.15096305032358L119.58124836468696,145.91470290796528L119.746873362422,145.0596686515965L119.91249836015702,144.36626235215454L123.55624831032752,145.1204105357749L123.72187330806254,145.5560205751365L124.38437329900263,145.49259948321057L124.71562329447269,144.64443325013139L126.2062482740879,144.9729875820282L127.00124826321601,145.22046790965462L131.8043731975317,145.12157910830462L131.96999819526673,146.0047101109867L133.46062317488193,145.99913783188978L133.957498168087,146.52613238678387L135.11687315223216,146.174535258576L136.7731231295824,145.9288897092316L136.93874812731744,145.8480506046883L137.10437312505246,146.52573220915727L137.26999812278748,145.7856786979619L138.09812311146257,145.542443209125L139.09187309787274,145.56826497876062L139.75437308881283,145.13121343820208L140.08562308428287,146.04714914715862L142.86812304623126,144.5604220897399L143.8618730326414,145.47686347839613L144.02749803037642,146.85520614119798L145.3524980122566,145.5055227850589L148.49937296922204,146.22286971284538L151.31499793071745,145.93105723141568L155.62124787182807,146.16406753805714L159.56312281792162,145.32227841964806L161.71624778847692,145.6667457951936L162.21312278168202,146.2045127307133L167.34749771146772,146.04991577741058L167.51312270920278,145.96911754441484L170.1631226729631,146.04613532304035L170.32874767069816,146.9604339764604L171.9849976480484,147.96620955689093L172.48187264125346,146.91383400020518L172.8131226367235,145.06050072808034L174.76749760999678,146.83462239156233L175.76124759640692,146.07431001641535L176.258122589612,146.040575116215L176.9206225805521,145.518864706481L179.90187253978252,146.02083180577472L180.06749753751754,147.42491724518268L180.72999752845766,147.3980114453581L181.2268725216627,146.28642202775586L181.55812251713274,145.09480231739295L183.8768724854231,145.8577997312858L184.53937247636316,146.40572979035178L186.36124745144843,147.35321381492366L186.8581224446535,146.74080828986376L190.30312239754198,145.9775810370761L191.6281223794222,145.77360816538035L193.28437235677242,145.60327509736106L193.44999735450745,145.8272748133636L195.2718723295927,146.06325687304206L199.08124727749822,146.06891507485355L199.90937226617336,145.78669432149306L202.72499722766875,146.46271803093293L206.6668721737623,145.89498577650858L210.1449971261978,146.47238923486532L210.31062212393283,147.20703563719704L210.97312211487292,146.89903288351073L211.635622105813,147.37944453960435L214.61687206504345,147.14315949548748L215.6106220514536,145.88811580497307L215.7762470491886,146.4100336026213L222.8649969522476,146.71071304638895L224.1899969341278,147.44526119878512L225.514996916008,147.08146232049106L225.680621913743,146.71904823041592L228.4962468752384,145.56742563564904L230.64937184579372,146.51517643042408L231.3118718367338,145.6849922854013L233.13374681181907,145.72317507760832L235.25374678282736,145.42936482930548L235.75062177603243,145.97781950745522L236.08187177150248,147.09117125989994L236.7443717624426,146.8019441652522L238.06937174432278,146.37823513197466L248.00687160842418,146.68321878191182L249.00062159483434,147.64992937254064L249.16624659256934,146.7116665164512L249.49749658803938,146.5666466177966L34.61562452661991,139.14913957645857L35.77499951076508,136.128526794016L39.58437445867062,136.01948137532167L40.24687444961071,134.73045312486977L42.068749424695966,136.49656605631796L42.565624417901034,137.67506176993805L45.38124937939644,138.45735310159318L46.37499936580657,139.3126017537027L48.528124336361884,139.5530775586383L51.97312428925037,141.4003931746518L53.463749268865584,142.04156881769245L56.113749232625956,141.66486415890034L56.444999228096,143.03924260126757L57.93562420771122,142.42504114680565L59.42624918732643,142.02160016987375L60.751249169206616,141.11426173194593L64.06374912390709,141.92427019859L64.52749911756516,140.73643643684892L65.02437411077022,142.83635408973285L65.35562410624027,143.14865072727645L66.34937409265041,142.9248408621709L68.3368740654707,142.49343098031736L68.50249906320572,142.69140937574846L69.66187404735089,143.49812681445727L70.15874904055595,142.7084977932109L70.98687402923106,142.95018638018828L72.14624901337623,143.05446294394332L72.47749900884628,142.36801246178948L81.0568738915205,142.90822424325134L82.87874886660575,144.26507763529548L83.37562385981082,143.8879034304238L84.20374884848594,142.6716999882719L86.85374881224631,143.81421679564409L87.51624880318641,142.33043339113266L87.68187380092142,144.04894093912364L88.01312379639148,144.54715807290256L88.50999878959657,144.7135560172116L89.66937377374171,144.33239367578486L90.3318737646818,144.3461999691951L90.99437375562191,143.44202225106702L92.48499873523711,143.2280251706274L92.65062373297215,143.5910777962091L93.47874872164726,142.91081554187429L94.14124871258736,143.7944501715196L94.30687371032238,143.99876950168527L96.92374867453576,143.9033748093386L102.05812360432148,144.2855448443904L104.04562357714175,145.08220163612367L105.20499856128693,145.4325995538326L106.03312354996204,145.78264268287066L108.35187351825236,145.42165710813185L109.84249849786758,144.4178225235369L112.45937346208095,145.5034861051447L114.28124843716621,146.54397894761127L115.44062342131137,146.28818504808763L115.60624841904641,146.57201647923353L116.10312341225146,146.0691043638728L117.09687339866161,146.25929447205846L123.39062331259251,144.26874276976736L123.88749830579758,144.58950059905206L124.21874830126762,144.02531219638323L124.71562329447269,144.0481308077994L124.88124829220772,144.95724542439712L125.5437482831478,145.0340955719932L130.9762482088566,146.40270467655432L133.2949981771469,145.76233674274923L137.76687311599252,145.39820850749447L138.7606231024027,145.94148331323458L139.42312309334275,145.04728793456198L142.53687305076122,145.4578497681252L143.36499803943633,146.16432599233514L145.84937300546167,145.2000559299037L146.34624799866677,145.598443696697L146.8431229918718,146.24601412539275L150.32124794430732,146.09264944879763L152.14312291939257,145.55442711492302L154.2962478899479,146.44006987430234L154.46187288768292,146.35988858076416L156.11812286503314,146.0605280250648L156.6149978582382,145.92370208681945L157.2774978491783,145.97865069525224L160.22562280886171,146.14904310204074L160.5568728043318,146.18665190230678L161.05374779753686,146.2979807265113L164.53187274997234,146.10770436765512L164.86312274544238,146.26134187278748L165.6912477341175,145.98034093568813L167.51312270920278,145.8656955581272L168.83812269108296,145.3257501175453L169.50062268202305,145.71895592707037L172.31624764351844,145.4315542918859L173.4424976281166,145.57234866166044L175.09874760546683,145.3429999482677L175.4299976009369,145.57693104315484L176.423747587347,147.05280430311893L177.25187257602215,146.2151349969188L178.07999756469727,144.60739495208458L178.57687255790233,143.78180147459975L181.06124752392768,144.39760765433925L181.2268725216627,144.4525427391415L185.69874746050834,145.05108501452443L187.02374744238853,145.65021508818555L188.81249741792678,145.62878995149825L189.30937241113185,145.42192414981167L190.63437239301203,145.80667409465377L194.11249734544754,146.1644986153797L195.10624733185767,145.53000604067756L196.92812230694295,145.31030939812166L197.09374730467795,146.8382915366539L202.3937472321987,146.95931999504202L202.55937222993373,146.63365306456302L203.55312221634387,146.90285158639895L212.2981220967531,144.88292144850868L212.62937209222315,145.72166119283062L213.7887470763683,146.71612739313477L214.2856220695734,147.7123875034912L215.44499705371854,147.4628054631835L220.0493719907522,147.54941360798887L223.5274969431877,146.73812536228937L225.18374692053794,146.67119600155596L227.8337468842983,145.99013139095305L228.16499687976835,146.3486397462308L228.4962468752384,145.19256215170233L229.32437186391354,145.61054675866131L234.62437179143427,145.6622839099441L235.5849967782974,146.31911852824854L237.40687175338266,146.40092030600383L237.57249675111768,145.97837893217505L237.7381217488527,145.5276545262646L238.2349967420578,145.7727753190468L240.88499670581817,146.92213171475322L245.3568716446638,146.3524831954837L245.85374663786885,147.05562251992808L249.16624659256934,146.0848925581279L250.15999657897947,146.8147981047873L250.32562157671452,146.4559062759731L250.49124657444955,146.75000220354832" fill="none"></path></g></g></g></g><g opacity="0.2"><g><g><g><path style="fill: none;" stroke="rgb(255, 112, 67)" stroke-width="2px" d="M36.271874503970146,136.89427316665456L37.26562449038028,133.0269759097002L39.91562445414066,141.68404260876696L40.24687444961071,142.82121323297144L40.743749442815776,142.162393458113L42.565624417901034,144.17141241049148L45.04999938392639,141.4602455830784L45.54687437713146,143.5266963881129L48.991874330019954,150.7928190122217L50.316874311900136,148.8948418467511L50.97937430284023,148.35513639542864L54.2918742575407,149.39933866918363L59.09499919185638,150.39304688610952L59.59187418506145,149.14257599721407L61.08249916467667,151.0985179145929L62.90437413976192,149.474219435407L63.732499128437034,149.1218389627657L64.06374912390709,149.0765822748197L71.48374902243614,149.507544839211L72.31187401111126,152.10259240306553L74.79624897713661,151.7840143161126L75.78999896354674,149.96540298381217L76.61812395222188,150.70312463488546L77.77749893636702,151.87721981009784L78.77124892277718,150.8491960701927L82.05062387793063,153.14690999235614L84.70062384169101,153.63703363716013L85.03187383716107,153.14900004433258L86.35687381904125,152.9105605281507L88.34437379186153,153.23550118065893L89.83499877147675,152.14488704249217L91.15999875335692,153.4082893279694L93.8099987171173,153.11104023603326L94.4724987080574,152.71217659872204L103.54874858393669,153.53495305757815L103.71437358167171,153.9686227018885L106.52999854316711,153.1892651527893L107.02687353637218,154.01116939053477L107.52374852957725,153.61738699138394L110.0081234956026,153.73662690442976L110.50499848880767,153.35025653203533L110.67062348654271,153.17557628921313L112.45937346208095,153.339511863843L115.60624841904641,153.93589442371098L119.0843733714819,154.230468962962L121.89999833297729,153.92623141411983L122.7281233216524,153.91955072028674L127.33249825868606,154.07395746455143L128.9887482360363,154.14661072930465L129.98249822244642,154.11873841977112L131.1418732065916,154.1578143437846L131.30749820432663,154.13411883986527L133.79187317035198,153.03148846077255L136.7731231295824,154.08097537492037L137.10437312505246,153.952908124994L139.09187309787274,154.10446772924593L140.2512480820179,154.15773368185867L140.41687307975292,153.71137572151196L140.74812307522296,154.13156135013347L141.24499806842803,154.04602488665012L141.57624806389808,154.10593839531847L143.69624803490638,154.11376307933668L145.3524980122566,154.10196994646256L148.16812297375202,154.05252303497974L152.4743729148626,153.75317159598322L153.13687290580273,154.14789084964798L153.7993728967428,154.09014333895936L155.124372878623,154.23179196872633L156.6149978582382,154.11238903353518L158.90062282698153,154.2096655617281L159.56312281792162,154.2100822471737L161.05374779753686,154.1376801474046L161.71624778847692,154.1510644129095L162.047497783947,154.20634902600995L162.37874777941704,154.24938578462934L163.5381227635622,154.23732411785977L164.3662477522373,154.1495266993304L164.6974977477074,154.15316037382468L165.52562273638247,154.14684075685008L165.85687273185252,154.1391317111836L166.5193727227926,154.1212822670126L167.1818727137327,152.3215504430456L168.17562270014284,154.22664601996752L168.34124769787786,154.12771875746154L172.15062264578341,154.20728815427228L172.8131226367235,154.11953143864616L178.4112475601673,154.22761952112987L179.57062254431247,154.21049467284993L180.5643725307226,154.17381221288585L182.88312249901293,154.07400703788053L183.54562248995305,154.23147191056952L184.70499747409818,154.1251569307652L185.03624746956825,153.67417933125213L186.02999745597836,154.24848613116546L186.36124745144843,154.12292799767567L188.81249741792678,154.16138492877877L188.9781224156618,154.16693371697838L190.63437239301203,154.23950802511698L191.1312473862171,154.2001634408887L192.62187236583233,154.21230381163417L193.28437235677242,154.17808134391308L193.9468723477125,154.1530977194246L195.43749732732772,154.1394000977065L195.60312232506274,154.13796801517913L196.59687231147288,153.5846103749999L196.76249730920793,154.19139905315336L197.59062229788302,154.1774688213608L200.57187225711343,153.95972226820786L201.06874725031852,154.19136722067591L202.55937222993373,154.1789995593044L207.66062216017247,154.0367629269755L209.81374713072773,154.23434852509845L210.8074971171379,154.21645512880966L211.30437211034297,154.20698323338485L211.635622105813,153.95395115794352L212.2981220967531,154.24392100581855L213.29187208316324,154.09660829336963L214.11999707183838,154.20297630624984L215.7762470491886,154.07092074725782L216.76999703559872,154.2499042554041L217.59812202427386,154.1412159945762L219.2543720016241,154.03185791835082L226.3431219046831,154.2262990066639L227.0056218956232,154.17162559678025L227.17124689335822,154.153251548328L227.33687189109327,153.03994702934946L230.31812185032368,153.94612637567695L232.47124682087897,154.18443423902L234.62437179143427,153.99219928315284L239.0631217307329,154.1721438991292L241.0506217035532,154.25561340602482L242.87249667863844,154.01153667107712L243.36937167184354,154.0318901718928L243.86624666504858,153.95752276752805L247.17874661974906,154.17115647476683L248.1724966061592,154.25075700929855L249.33187159030436,154.1537929951899L250.32562157671452,154.23501987036371L35.60937451303005,125.79269497032283L36.10624950623512,132.77014946049187L37.92812448132038,137.14853954360206L33.29062454473972,-9.684033093197273L33.78749953794479,1.8827937721307664L33.95312453567981,8.925180677544644L41.90312442696094,145.26812940161972L42.39999942016601,142.00088703275026L42.89687441337108,142.8446931378228L43.06249941110611,145.86195657707844L46.70624936127662,146.63500318313208L48.826249332284924,148.1028444180704L49.15749932775497,148.70886607106496L50.48249930963516,149.76327944005686L51.14499930057526,147.9508646054664L55.28562424395084,148.1996088616337L55.451249241685865,150.28941516099036L57.27312421677112,148.2836003411573L58.598124198651306,150.00312766968545L59.260624189591404,148.7923450870009L59.59187418506145,150.07855368638684L65.02437411077022,150.63009453142539L65.68687410171032,151.90080503722027L69.8274990450859,150.45637948075904L72.47749900884628,151.1804128296755L72.6431240065813,150.57384547706744L75.12749897260665,152.00796606897552L75.78999896354674,151.09772294478557L78.43999892730712,152.53861043646876L78.60562392504215,151.31492194564115L82.38187387340069,153.18472787384243L83.2099988620758,152.4223483478262L84.03812385075092,152.94473142950397L84.53499884395599,152.0964935923234L85.3631238326311,152.845477315667L85.85999882583619,152.94995768228387L87.84749879865646,152.9506776464653L89.17249878053666,151.66548656351918L90.3318737646818,152.6169208012507L91.49124874882698,154.12396458833808L92.98187372844218,152.14238692981849L93.64437371938229,153.26001207601462L93.97562371485233,153.06448127975034L94.30687371032238,152.78279709030852L94.80374870352745,153.66520639026174L96.09562368586062,153.58437839652223L97.58624866547585,152.23220414570972L99.24249864282608,153.7958569271393L99.90499863376617,153.21996142975172L100.23624862923621,153.437807859408L100.73312362244128,153.81021921323236L101.5612486111164,153.8110249622913L102.05812360432148,152.5246029112664L102.22374860205649,153.65976578757196L105.53624855675697,152.7971127224531L107.02687353637218,154.08625878019063L108.02062352278233,153.94176841407221L109.17999850692748,154.01224172957467L109.34562350466251,153.14661940169776L110.96874848246574,153.92511890552504L112.1281234666109,154.04706452301252L115.60624841904641,154.12884340674987L116.26874840998649,153.7674020608116L117.92499838733673,153.65253773793827L118.58749837827682,154.11370937957534L120.07812335789203,153.55227537108087L122.23124832844734,154.02534236602116L122.7281233216524,153.82911395006582L123.72187330806254,154.10810197919503L124.0531233035326,154.0673638468604L129.8168732247114,154.0893651415553L130.81062321112154,154.086506674907L133.62624817261695,153.7629571914906L135.28249814996718,154.10187568415276L135.77937314317228,153.90906680331406L136.1106231386423,153.81840723382192L139.09187309787274,154.0962141068047L141.41062306616305,154.09670756634716L141.7418730616331,153.5830560293724L144.85562301905156,154.19700961151753L145.51812300999163,154.11454912257622L146.8431229918718,154.19032597023283L149.65874795336723,154.0566574955391L150.65249793977736,153.68403544103063L154.62749788541794,154.05884225896082L156.78062285597323,154.1045415979976L157.2774978491783,154.23266211960308L157.57562284510135,153.720062394773L157.9068728405714,154.22697836619045L158.23812283604144,153.76343495936212L158.90062282698153,154.11901264505528L159.56312281792162,154.16192178603742L160.7224978020668,153.9405542885741L163.20687276809213,154.1814521899361L168.83812269108296,154.2698444042016L169.50062268202305,154.2299876511308L170.6599976661682,154.25516271260173L172.15062264578341,154.0552289920601L174.2706226167917,154.21966952129378L175.92687259414194,154.2353377038963L176.258122589612,154.12877852070784L176.58937258508206,154.18872294954724L177.41749757375715,154.25549209031985L177.91437256696224,154.14721892892788L179.2393725488424,153.77947364365053L179.90187253978252,154.24171839627905L183.21437249448297,154.27966356205985L184.04249748315812,154.03650818294298L184.20812248089314,154.17560694424589L184.53937247636316,154.24998580858323L185.03624746956825,154.27569355175635L185.69874746050834,154.21241891663752L185.86437245824337,154.20343450865678L187.02374744238853,154.2059090627143L187.5206224355936,154.12374211188302L188.3487474242687,153.13689606759684L191.6281223794222,154.2460445675128L193.28437235677242,154.03497326242518L194.27812234318256,154.25443353412513L195.2718723295927,154.25205750214676L195.9343723205328,154.1188649215874L197.92187229335306,153.76573992266785L198.0874972910881,154.19715600161447L202.22812223446368,154.16670754919105L203.71874721407892,154.15577477744364L209.64812213299274,154.05671111108754L209.81374713072773,154.25032067417553L210.1449971261978,154.1912345713177L212.46374709448813,154.25177010456096L217.43249702653884,154.07539862803688L218.75749700841902,154.217414924322L220.0493719907522,154.18511980223042L220.38062198622225,154.06636317300126L220.71187198169233,154.10139857594902L221.5399969703674,154.1907557788559L225.680621913743,154.21563900051038L225.84624691147803,154.24848309950093L227.5024968888283,154.22643350870598L227.8337468842983,154.20477404822114L228.66187187297342,154.20682826760725L230.98062184126377,154.23366912346546L231.9743718276739,154.21162511177536L233.4649968072891,154.2525215643682L236.08187177150248,154.22563500897448L236.7443717624426,154.257009298057L237.07562175791261,153.83418300542615L239.22874672846794,154.03915207511358L241.2162467012882,154.21205535549842L243.2037466741085,154.25046835553698L244.85999665145874,154.25662565214043L245.85374663786885,154.24712866828816L248.66937159936427,154.03918034257813L249.6631215857744,154.26014229877006L249.82874658350943,154.16032882879375L34.781249524354934,64.64099803341651L35.77499951076508,115.83771115892841L36.60312449944019,128.9003244690316L40.41249944734573,139.03168378513396L41.57187443149089,143.43792206481635L42.39999942016601,142.6110214193751L44.553124390721315,145.26762277679336L45.71249937486648,143.79189921410455L48.19687434089184,144.37552113308766L50.316874311900136,146.63166161512845L50.813749305105205,149.57579906049813L53.13249927339554,148.53309465358348L53.29812427113056,149.43189021254807L53.62937426660061,146.23169568705475L58.92937419412136,147.0846902058663L59.09499919185638,149.7128298476407L59.260624189591404,148.8368324058622L62.24187414882183,149.32527712608373L64.8587491130352,150.0439981004912L65.68687410171032,152.034737463224L72.80874900431633,152.2348985094804L74.29937398393153,149.98430395240047L75.78999896354674,151.3366268670583L76.78374894995689,150.56160249289928L77.446248940897,152.16432293144234L80.3943739005804,152.85251583012626L80.72562389605045,152.97138054661684L80.89124889378547,152.5023448795003L88.67562378733157,151.78370059497678L90.00062376921177,153.40122773917466L93.8099987171173,152.42599510339144L95.43312369492052,153.3476179733486L96.09562368586062,153.46581280426426L96.75812367680072,153.72478926503624L96.92374867453576,153.8702084433363L98.745623649621,153.2267283295268L99.24249864282608,153.67356856313535L100.56749862470626,152.19799619067896L101.06437361791134,153.17180501083482L105.03937356355189,153.7012811207913L105.70187355449198,153.55069301062753L106.03312354996204,153.6612736476768L110.67062348654271,153.8930380842192L114.61249843263626,153.60449888023444L117.09687339866161,153.99762686091358L118.4218733805418,152.91667707974443L119.24999836921691,153.91830925366605L120.07812335789203,153.3490980993373L120.74062334883213,153.41389122644003L121.07187334430216,154.1436312487143L123.72187330806254,154.0254403898406L126.83562326548099,154.0414509470193L127.00124826321601,154.13961625819383L128.16062324736117,154.2022912623523L128.65749824056624,153.97827613927964L132.6324981862068,153.98260897736824L133.12937317941189,154.0480876536459L134.28874816355705,154.01486122807427L134.7856231567621,153.39774233553214L134.95124815449714,154.08306107589684L135.28249814996718,154.14386395703715L135.44812314770223,154.059998810904L139.5887480910778,153.84892127406155L141.079373070693,154.13682231266498L145.18687301452158,154.24705898211067L146.5118729964018,154.07859779202101L148.8306229646921,154.17989422315375L148.99624796242713,154.14353402491744L151.81187292392255,154.2328032534113L156.6149978582382,154.07678553034162L156.9462478537083,154.22591082026833L158.7349978292465,152.97989660453578L161.5506227907419,154.16623326211953L162.37874777941704,154.04799038774254L166.02249772958754,154.22375296286918L166.5193727227926,154.23293523608402L167.34749771146772,154.25171460825769L169.169372686553,154.23876146369358L169.50062268202305,154.19630633552646L170.6599976661682,154.25968269281472L171.65374765257835,154.21746022384625L172.8131226367235,154.21636173669987L173.9393726213217,154.21450176841074L174.43624761452674,154.08212586353451L177.25187257602215,153.95503337796404L179.2393725488424,154.07738998249067L179.7362475420475,154.2154306648053L180.89562252619265,154.13047736164194L183.54562248995305,154.2304773631991L183.8768724854231,154.20441481001106L184.87062247183323,154.23565851996923L185.53312246277332,154.13504972929854L188.18312242653369,153.70078797002947L191.1312473862171,153.52187804992522L194.44374734091758,154.25146301519126L197.424997300148,154.22906232676692L197.75624729561804,154.21796703113387L198.0874972910881,154.13331217849986L198.58437228429318,154.2517886664884L199.08124727749822,154.07375773961576L201.89687223899364,154.1629126210224L203.71874721407892,154.16889336527404L206.16999718055726,154.20665317494576L211.13874711260794,154.186048235454L211.46999710807802,154.09847651452327L215.44499705371854,154.1649082984052L216.10749704465866,154.1566197135736L216.4387470401287,154.08700792414305L217.43249702653884,154.12928287178582L217.9293720197439,154.21323980296583L218.26062201521398,153.9787915783899L219.88374699301718,154.11593481782936L221.04312197716234,154.2163754423499L223.19624694771767,154.2328420545065L224.52124692959782,154.2468587729508L226.67437190015315,154.1691009641162L227.0056218956232,154.2547107840561L227.5024968888283,154.23362951532994L229.48999686164854,153.9201813907197L230.15249685258865,154.22037821498165L230.98062184126377,154.23715186036603L231.3118718367338,154.22175776971056L232.96812181408404,154.18693680790335L233.63062180502413,154.1341954595718L238.56624673752785,154.26067397693515L239.39437172620296,154.10562736899556L240.5537467103481,154.23491261119585L247.84124661068915,154.25616308469802L249.16624659256934,154.17428791754122L250.32562157671452,154.07874642779535L33.62187454020977,15.20774532210635L35.44374951529503,15.40966226353885L36.43749950170517,15.315681561707613L37.431249488115306,15.751148955007013L41.07499943828583,15.712343649158358L42.89687441337108,15.39133753577698L43.7249994020462,15.42018281312448L45.215624381661414,15.246493138613003L45.38124937939644,15.677720692940053L47.36874935221672,15.574211132672657L49.32312432549,15.329723333490621L49.81999931869507,15.3824266877673L51.4762492960453,15.760404739068688L59.260624189591404,15.44362409232417L60.088749178266525,15.351439932430377L60.25437417600155,15.541039782339803L61.91062415335178,15.412881666690748L74.13374898619651,15.573320047871679L75.95562396128177,15.560772998980614L76.1212489590168,15.409360444493368L76.45249895448684,15.636946377127982L76.78374894995689,15.611967258029837L77.28062394316197,15.777191626932105L77.446248940897,15.737883289340978L81.71937388246059,15.5238360967469L82.5474988711357,15.533048763802082L83.04437386434078,15.673351502948206L84.36937384622097,15.34045946810875L86.19124882130622,15.297356833945742L87.68187380092142,15.466533595110386L88.1787487941265,15.902848956204252L88.34437379186153,15.507983410690953L90.82874875788688,15.493438607165453L93.47874872164726,15.603961867156626L94.4724987080574,15.607540578695989L95.13499869899749,15.785254507147338L96.75812367680072,15.690957613935106L97.08937367227077,15.705315577099109L98.57999865188599,15.421030780918965L99.24249864282608,15.55339999086937L100.23624862923621,15.521838342112463L101.06437361791134,15.642695311327769L105.37062355902195,15.519725608794044L106.86124853863716,15.264113621935394L109.34562350466251,15.581167343054414L110.50499848880767,15.599607049500271L111.63124847340583,15.455826205163259L112.29374846434592,15.464104670410972L112.45937346208095,15.667171398683422L115.60624841904641,15.614654884768242L116.10312341225146,15.224819656679758L117.09687339866161,15.555182160471306L122.06562333071231,15.770968405660827L123.05937331712245,15.530073690353685L125.5437482831478,15.699509153557301L125.87499827861785,15.839078903592963L128.82312323830126,15.837483574352525L128.9887482360363,15.394743779290375L132.13562319300175,15.695657367643436L132.30124819073677,15.697037111851396L132.79812318394184,15.534284784655036L134.28874816355705,15.486884822177673L136.1106231386423,15.685783573155286L140.2512480820179,15.49126838450503L140.74812307522296,15.506373709115005L142.70249804849624,15.592880796486504L143.19937304170134,15.677404501559078L143.53062303717135,15.527242340260274L143.8618730326414,15.66668273927644L145.84937300546167,15.629817698720219L148.6649979669571,15.679991521948988L152.14312291939257,15.673883279361698L153.30249790353776,15.498195850215787L154.62749788541794,15.39462880060637L155.28999787635803,15.671152535616782L156.4493728605032,15.640783790706337L156.6149978582382,15.554176096986343L156.78062285597323,15.593139498525495L158.5693728315115,15.66947097236334L162.8756227726221,15.455639364801762L163.70374776129722,15.60501104764808L166.35374772505762,15.726989059032352L168.17562270014284,15.4426898905167L168.83812269108296,15.569985666035798L169.00374768881798,15.40401393568754L170.32874767069816,15.392918492681927L170.82562266390323,15.383102187535778L171.3224976571083,15.526552468156305L171.81937265031337,15.517857205179105L173.4424976281166,15.695916069682427L174.1049976190567,15.524396617831373L175.26437260320188,15.460957128936569L175.4299976009369,15.598830943383298L176.423747587347,15.588856542546633L177.41749757375715,15.771399575725807L177.7487475692272,15.692193634788058L178.2456225624323,15.504232231125583L184.04249748315812,15.583280076372834L186.02999745597836,15.506115007076014L189.30937241113185,15.719673540263111L189.6406224066019,15.251437222024833L192.78749736356735,15.55176154462242L193.1187473590374,15.581857215158383L196.43124731373786,15.59908964542229L200.40624725937843,15.68095446842744L200.9031222525835,15.648573596547068L203.0562472231388,15.584257395186796L204.51374720320703,15.244710969011066L206.00437218282224,15.567772326368864L206.50124717602728,15.642551587972783L206.83249717149732,15.708118182521499L206.99812216923235,15.928316734709378L214.2856220695734,15.634445590751056L215.27937205598352,15.465297574257432L215.7762470491886,15.577028110430557L216.93562203333377,15.505655092340033L219.08874700388907,15.756768538187323L219.4199969993591,15.698718675104837L219.71812199528216,15.765779992545516L220.87749697942732,15.732680503890155L223.85874693865776,15.308294181260859L227.6681218865633,15.6563346577168L228.4962468752384,15.586097054130734L231.80874682993888,15.551617821267435L232.13999682540893,15.546415035816612L233.13374681181907,15.63664455808248L237.57249675111768,15.428691235740201L238.40062173979283,15.649895851413024L240.5537467103481,15.794639642228507L241.2162467012882,15.695786718662932L244.19749666051862,15.725091910746412L245.52249664239883,15.753606624377428L249.33187159030436,15.581152970718904L249.99437158124445,15.340574446792754L33.29062454473972,15.023707566035231L33.456249542474744,15.194925198840803L37.76249948358535,15.472598720691165L41.57187443149089,15.324146867316824L43.7249994020462,15.42018281312448L46.37499936580657,15.644721810633204L48.19687434089184,15.860062513422237L50.97937430284023,15.672862843541225L53.29812427113056,15.418084452141569L53.463749268865584,15.533091880808573L56.776249223566055,15.530749190122163L60.751249169206616,15.64814242648209L61.08249916467667,15.599204624106275L34.61562452661991,15.448137005671022L37.76249948358535,15.475386953778083L37.92812448132038,15.70068768506827L38.25937447679043,15.261296644177493L39.08749946546554,15.591112999220059L45.215624381661414,15.24645002160651L46.37499936580657,15.644693065962203L47.03749935674667,15.354932409956756L48.03124934315681,15.577128716779052L49.15749932775497,15.483924121064787L49.98562431643008,15.686027902858767L50.48249930963516,15.779591806960536L50.813749305105205,15.380946337210846L33.78749953794479,124.78099034367415L35.11249951982498,130.87562053270244L37.92812448132038,134.68208328657124L38.756249469995495,136.83289251482006L39.08749946546554,137.30973965856444L41.07499943828583,138.4161166556903L41.406249433755875,139.42391200708312L42.39999942016601,137.79567550797037L44.3874993929863,137.71829126055718L45.215624381661414,139.07354680536014L46.87187435901165,140.33922946397536L48.528124336361884,137.692911512607L53.29812427113056,144.64865389519116L53.62937426660061,139.6206028080196L54.2918742575407,141.37082450468438L56.776249223566055,141.53911646894483L63.56687413070202,142.43649275977884L64.06374912390709,143.26861595263222L67.17749908132554,142.995676318787L70.15874904055595,141.5962159613424L72.97437400205135,146.8983834173282L73.47124899525642,145.56003512869847L74.29937398393153,142.25206605237827L75.12749897260665,145.22264455284767L78.10874893183708,142.25502136386535L78.2743739295721,143.06249061171127L81.22249888925552,145.77887729172357L81.71937388246059,146.00860021099277L82.87874886660575,148.20105642529978L87.35062380545139,144.39335899798448L87.68187380092142,146.14838824087383L88.8412487850666,146.9728846640673L91.82249874429702,147.20637942313414L92.15374873976707,146.55292996126218L93.31312372391224,144.61002015909753L94.80374870352745,144.36007446550957L96.5924986790657,147.43232466384438L96.75812367680072,145.94916790888942L98.41437365415096,145.2913038943417L99.07687364509106,147.06174162829296L99.24249864282608,140.43803298263765L102.38937359979153,143.58212779132157L103.21749858846664,145.98232488688677L103.54874858393669,147.06257477461645L104.21124857487678,145.22334071284843L105.70187355449198,147.58175608171013L108.68312351372242,147.44159886246092L112.1281234666109,147.22744522475705L112.95624845528603,146.58857335330094L114.44687343490124,146.55164633204788L115.44062342131137,146.89119545303652L115.60624841904641,148.71191076051343L116.26874840998649,146.9569497862177L116.76562340319155,143.8670216152185L120.40937335336207,148.25695268373477L123.39062331259251,145.09817833088005L124.0531233035326,144.45863455273934L124.88124829220772,147.16855413091236L126.04062327635289,146.27645742769698L127.6637482541561,147.32967385062307L127.99499824962615,146.09379941583381L129.6512482269764,145.2615657356513L130.64499821338651,146.76894975690357L130.9762482088566,149.18843632325104L131.96999819526673,148.43094462642722L132.30124819073677,148.72892985142227L132.6324981862068,146.51255088467633L134.6199981590271,144.8475140205171L134.95124815449714,146.86150535184294L135.28249814996718,147.1490832093944L139.09187309787274,147.0880443496635L140.58249807748794,145.5072338628862L141.079373070693,146.18476731683597L143.8618730326414,148.45164573003683L145.51812300999163,145.6054319469156L145.68374800772665,147.85776555659095L146.01499800319672,145.2999587351253L147.00874798960683,147.6840862121956L148.002497976017,145.2763827152803L149.16187296016216,146.3732326505119L149.98999794883727,145.3973870009345L151.14937293298243,144.644494900606L152.14312291939257,145.61511800277128L154.2962478899479,149.07664829773591L158.7349978292465,149.19320075246912L162.54437277715206,146.94793428964016L163.20687276809213,147.45233544621453L163.37249776582718,146.93682222862162L164.53187274997234,145.54500346230793L167.34749771146772,146.8727943722423L169.169372686553,145.95023056344542L170.99124766163825,147.4166592672854L172.15062264578341,147.93646217788944L173.27687263038158,148.3533569206396L177.25187257602215,146.2736251793326L186.36124745144843,149.5900110546297L187.02374744238853,146.7062818827709L189.30937241113185,146.14011067389708L191.1312473862171,147.13312812044802L191.79374737715722,143.34422342006928L193.1187473590374,147.4940008468276L193.28437235677242,147.26965138449327L193.9468723477125,144.906643605304L195.43749732732772,146.5429501707997L195.60312232506274,147.70682055214291L197.25937230241297,147.6010248922601L197.424997300148,147.3068290233466L197.59062229788302,146.9630921631018L198.9156222797632,146.14547065676743L202.22812223446368,145.547557246672L206.33562217829225,146.71794503302874L207.32937216470242,146.94786018228524L207.49499716243744,147.49152925425716L207.9918721556425,147.06865067944887L209.64812213299274,148.952922700182L211.13874711260794,146.6538372305332L211.635622105813,147.92004403025868L213.29187208316324,147.24822133399255L214.11999707183838,146.28793104278043L220.21499698848723,145.42640564457895L221.70562196810243,144.3730014830204L222.0368719635725,145.76771986802112L222.69937195451257,146.3831513585485L223.69312194092274,148.20115748078376L224.1899969341278,149.3706092687911L225.34937191827296,148.10209885316635L226.67437190015315,148.42843036598578L227.17124689335822,148.87149084378376L228.4962468752384,144.02435467366058L229.15874686617852,149.65457293309993L229.82124685711858,147.13110251941356L233.63062180502413,148.32268500927722L234.29312179596425,148.73851619920043L235.5849967782974,148.88316387502226L236.2474967692375,149.69608607678379L238.06937174432278,145.7159453259261L240.05687171714305,147.76763170018324L242.70687168090342,149.2605782612908L246.84749662427902,147.4545505824234L249.33187159030436,145.864209440668L34.28437453114986,126.39851945283976L35.60937451303005,130.77348892010104L36.93437449491024,133.97306543516785L37.92812448132038,135.43255634318098L38.0937494790554,135.16622978020746L40.909374440550806,139.66628886948865L42.39999942016601,138.08493672531722L44.718749388456345,135.9482231651095L45.215624381661414,139.76286916750337L48.991874330019954,142.68399335978995L51.80749929151535,143.9940389267373L53.79499926433564,141.7622209277165L54.2918742575407,141.80620476569982L55.28562424395084,141.09022711083082L58.26687420318126,140.60200156872565L58.598124198651306,142.72714539885624L61.57937415788173,141.27157634189257L62.24187414882183,143.34098335668511L62.7387491420269,140.072495984253L65.85249909944534,144.58178031638295L66.51499909038543,141.9844720290679L67.6743740745306,144.0043537722711L69.8274990450859,146.51485584798206L70.82124903149604,145.88656111718262L73.13999899978639,140.59729013749472L75.12749897260665,143.9071554638299L76.28687395675182,143.99818893861277L77.611873938632,145.5529729223424L78.9368739205122,144.17705894180085L79.10249891824722,142.11934382193715L82.87874886660575,145.33500208215696L83.54124885754584,144.07100817296293L85.85999882583619,147.5271277327475L87.84749879865646,146.76781973202492L88.01312379639148,145.28686553748526L89.17249878053666,145.1141918074394L91.49124874882698,145.51998751410008L92.48499873523711,142.9111786635725L93.64437371938229,144.26421458081177L93.97562371485233,142.53864952396736L95.59874869265556,145.22894233060936L95.92999868812561,145.39885926705222L96.09562368586062,145.69836346825537L99.24249864282608,138.58345914753681L99.73937363603115,147.7088510936677L101.22999861564637,146.17304847377807L103.38312358620166,144.51384947264455L105.70187355449198,145.43022778755085L107.35812353184222,147.07573444430818L110.0081234956026,147.05411171468467L111.96249846887588,146.67379321837427L114.9437484281063,144.1161885078766L116.59999840545653,145.013581865859L116.76562340319155,144.86436558389028L117.7593733896017,146.45030519789896L118.91874837374687,146.8779064323253L119.58124836468696,145.5603126944278L119.746873362422,143.7771172670433L119.91249836015702,143.32615290299157L123.55624831032752,146.25163281120547L123.72187330806254,146.20943563417893L124.38437329900263,145.39746784532167L124.71562329447269,143.3721839005126L126.2062482740879,145.46581907987343L127.00124826321601,145.5916884010942L131.8043731975317,144.97324590627966L131.96999819526673,147.32940661500987L133.46062317488193,145.99077941324435L133.957498168087,147.316624219125L135.11687315223216,145.64713956626417L136.7731231295824,145.56042138521502L136.93874812731744,145.72679194787338L137.10437312505246,147.5422546158607L137.26999812278748,144.67559843116885L138.09812311146257,145.17758997586964L139.09187309787274,145.60699763321406L139.75437308881283,144.47563612736428L140.08562308428287,147.42105271059341L142.86812304623126,142.33033150361177L143.8618730326414,146.85152556138047L144.02749803037642,148.92272013540077L145.3524980122566,143.4809977508503L148.49937296922204,147.29889010452507L151.31499793071745,145.4933385092711L155.62124787182807,146.5135829980194L159.56312281792162,144.0595947420344L161.71624778847692,146.18344685851196L162.21312278168202,147.0111631339928L167.34749771146772,145.81802034745647L167.51312270920278,145.84792019492124L170.1631226729631,146.1616619909786L170.32874767069816,148.33188195659045L171.9849976480484,149.47487292753675L172.48187264125346,145.3352706651766L172.8131226367235,142.28050081989306L174.76749760999678,149.49580488678532L175.76124759640692,144.93384145369487L176.258122589612,145.98997276591444L176.9206225805521,144.73629909188003L179.90187253978252,146.77378245471527L180.06749753751754,149.53104540429462L180.72999752845766,147.35765274562124L181.2268725216627,144.6190379013525L181.55812251713274,143.30737275184856L183.8768724854231,147.0022958521251L184.53937247636316,147.2276248789508L186.36124745144843,148.77443985178144L186.8581224446535,145.82220000227392L190.30312239754198,144.8327401578946L191.6281223794222,145.4676488578367L193.28437235677242,145.34777549533214L193.44999735450745,146.16327438736744L195.2718723295927,146.41722996255976L199.08124727749822,146.07740237757082L199.90937226617336,145.36336319145232L202.72499722766875,147.4767535950927L206.6668721737623,145.04338739487207L210.1449971261978,147.3384944224004L210.31062212393283,148.3090052406946L210.97312211487292,146.4370287529813L211.635622105813,148.10006202374478L214.61687206504345,146.78873192931218L215.6106220514536,144.00555026920142L215.7762470491886,147.19291029909368L222.8649969522476,147.16173221204042L224.1899969341278,148.54708342737933L225.514996916008,146.53576400304996L225.680621913743,146.17542709530323L228.4962468752384,143.83999174349879L230.64937184579372,147.93680262258658L231.3118718367338,144.43971606786715L233.13374681181907,145.78044926591883L235.25374678282736,144.98864945685125L235.75062177603243,146.80050152467982L236.08187177150248,148.76119888856704L236.7443717624426,146.36810352328052L238.06937174432278,145.7426715820584L248.00687160842418,147.14069425681754L249.00062159483434,149.0999952584839L249.16624659256934,145.3042722323171L249.49749658803938,146.3491167698147L34.61562452661991,128.02287901445152L35.77499951076508,131.59760762035216L39.58437445867062,135.8559132472801L40.24687444961071,132.79691074919197L42.068749424695966,139.14573545349026L42.565624417901034,139.44280534036818L45.38124937939644,139.63079009907585L46.37499936580657,140.59547473186694L48.528124336361884,139.9137912660417L51.97312428925037,144.17136659867208L53.463749268865584,143.00333228225338L56.113749232625956,141.0998071707122L56.444999228096,145.1008102648184L57.93562420771122,141.5037389651128L59.42624918732643,141.41643870447592L60.751249169206616,139.7532540750542L64.06374912390709,143.13928289855608L64.52749911756516,138.95468579423732L65.02437411077022,145.98623056905876L65.35562410624027,143.61709568359186L66.34937409265041,142.58912606451258L68.3368740654707,141.846316157537L68.50249906320572,142.98837696889518L69.66187404735089,144.70820297252044L70.15874904055595,141.52405426134135L70.98687402923106,143.31271926065438L72.14624901337623,143.21087778957587L72.47749900884628,141.33833673855872L81.0568738915205,143.71854191544412L82.87874886660575,146.30035772336169L83.37562385981082,143.32214212311624L84.20374884848594,140.84739482504415L86.85374881224631,145.52799200670233L87.51624880318641,140.10475828436552L87.68187380092142,146.62670226111015L88.01312379639148,145.29448377357096L88.50999878959657,144.96315293367513L89.66937377374171,143.76065016364475L90.3318737646818,144.36690940931055L90.99437375562191,142.08575567387481L92.48499873523711,142.907029549968L92.65062373297215,144.13565673458163L93.47874872164726,141.89042216037205L94.14124871258736,145.11990211598754L94.30687371032238,144.3052484969338L96.92374867453576,143.76028277081855L102.05812360432148,144.8587998969681L104.04562357714175,146.27718682372358L105.20499856128693,145.95819643039601L106.03312354996204,146.30770737642774L108.35187351825236,144.8801787460236L109.84249849786758,142.91207064664445L112.45937346208095,147.13198147755645L114.28124843716621,148.10471821131114L115.44062342131137,145.90449419880213L115.60624841904641,146.99776362595242L116.10312341225146,145.3147361908317L117.09687339866161,146.54457963433697L123.39062331259251,141.2829152163307L123.88749830579758,145.07063734297913L124.21874830126762,143.17902959237995L124.71562329447269,144.08235872492367L124.88124829220772,146.32091734929372L125.5437482831478,145.14937079338733L130.9762482088566,148.455618333396L133.2949981771469,144.80178484204157L137.76687311599252,144.85201615461233L138.7606231024027,146.75639552184475L139.42312309334275,143.70599486655306L142.53687305076122,146.07369251847L143.36499803943633,147.22404032865012L145.84937300546167,143.7536508362565L146.34624799866677,146.19602534688693L146.8431229918718,147.2173697684364L150.32124794430732,145.86260243390495L152.14312291939257,144.74709361411112L154.2962478899479,147.76853401337132L154.46187288768292,146.23961664045692L156.11812286503314,145.61148719151572L156.6149978582382,145.71846317945142L157.2774978491783,146.06107360790145L160.22562280886171,146.40463171222348L160.5568728043318,146.24306510270583L161.05374779753686,146.46497396281814L164.53187274997234,145.8222898293708L164.86312274544238,146.49179813048602L165.6912477341175,145.5588395300391L167.51312270920278,145.6937274917858L168.83812269108296,144.5158319566725L169.50062268202305,146.30876464135793L172.31624764351844,145.00045183910925L173.4424976281166,145.7835402163222L175.09874760546683,144.9989768781786L175.4299976009369,145.92782768548557L176.423747587347,149.2666141930651L177.25187257602215,144.9586310376186L178.07999756469727,142.1957848848332L178.57687255790233,142.54341125837254L181.06124752392768,145.32131692394853L181.2268725216627,144.5349453663449L185.69874746050834,145.9488984275988L187.02374744238853,146.54891019867716L188.81249741792678,145.59665224646733L189.30937241113185,145.11162544728177L190.63437239301203,146.38379901191695L194.11249734544754,146.70123539646863L195.10624733185767,144.5782671786243L196.92812230694295,144.98076443428783L197.09374730467795,149.1302647444523L202.3937472321987,147.14086268262417L202.55937222993373,146.1451526688445L203.55312221634387,147.30664936915286L212.2981220967531,141.85302624167332L212.62937209222315,146.9797708093135L213.7887470763683,148.20782669359102L214.2856220695734,149.20677766902583L215.44499705371854,147.088432402722L220.0493719907522,147.67932582519688L223.5274969431877,145.5211929937401L225.18374692053794,146.5708019604558L227.8337468842983,144.96853447504873L228.16499687976835,146.88640227914743L228.4962468752384,143.45844575990964L229.32437186391354,146.2375236690998L234.62437179143427,145.73988963686827L235.5849967782974,147.30437045570523L237.40687175338266,146.52362297263676L237.57249675111768,145.34456687143188L237.7381217488527,144.85156791739894L238.2349967420578,146.14045650822004L240.88499670581817,148.6461663083129L245.3568716446638,145.4980104165794L245.85374663786885,148.11033150659466L249.16624659256934,144.62879761542763L250.15999657897947,147.90965642477641L250.32562157671452,145.91756853275183L250.49124657444955,147.19114609491112" fill="none"></path></g></g></g></g></g><g><g opacity="0.722206"><span fill="rgb(0, 0, 0)" stroke="none" stroke-width="1px">Alt + Scroll to Zoom</span></g></g></g><g transform="translate(56, 173)" clip-path="url(#clip_1)"><clipPath id="clip_1"><rect width="265" height="26"></rect></clipPath><g><g><line x1="0" y1="0" x2="0" y2="5" style="visibility: inherit;" fill="rgb(0, 0, 0)" stroke="rgb(204, 204, 204)" stroke-width="1px"></line><line x1="33.1249995470047" y1="0" x2="33.1249995470047" y2="5" style="visibility: inherit;" fill="rgb(0, 0, 0)" stroke="rgb(204, 204, 204)" stroke-width="1px"></line><line x1="66.2499990940094" y1="0" x2="66.2499990940094" y2="5" style="visibility: inherit;" fill="rgb(0, 0, 0)" stroke="rgb(204, 204, 204)" stroke-width="1px"></line><line x1="99.37499864101409" y1="0" x2="99.37499864101409" y2="5" style="visibility: inherit;" fill="rgb(0, 0, 0)" stroke="rgb(204, 204, 204)" stroke-width="1px"></line><line x1="132.4999981880188" y1="0" x2="132.4999981880188" y2="5" style="visibility: inherit;" fill="rgb(0, 0, 0)" stroke="rgb(204, 204, 204)" stroke-width="1px"></line><line x1="165.6249977350235" y1="0" x2="165.6249977350235" y2="5" style="visibility: inherit;" fill="rgb(0, 0, 0)" stroke="rgb(204, 204, 204)" stroke-width="1px"></line><line x1="198.74999728202818" y1="0" x2="198.74999728202818" y2="5" style="visibility: inherit;" fill="rgb(0, 0, 0)" stroke="rgb(204, 204, 204)" stroke-width="1px"></line><line x1="231.87499682903288" y1="0" x2="231.87499682903288" y2="5" style="visibility: inherit;" fill="rgb(0, 0, 0)" stroke="rgb(204, 204, 204)" stroke-width="1px"></line><line x1="264.9999963760376" y1="0" x2="264.9999963760376" y2="5" style="visibility: inherit;" fill="rgb(0, 0, 0)" stroke="rgb(204, 204, 204)" stroke-width="1px"></line></g><g transform="translate(0, 8)"><text style="text-anchor: middle; visibility: hidden; font-family: Roboto, sans-serif; font-size: 12px; font-weight: 200;" x="0" y="0" dx="0em" dy="0.95em" fill="rgb(33, 33, 33)" stroke="none" stroke-width="1px">-2k</text><text style="text-anchor: middle; visibility: inherit; font-family: Roboto, sans-serif; font-size: 12px; font-weight: 200;" x="33.1249995470047" y="0" dx="0em" dy="0.95em" fill="rgb(33, 33, 33)" stroke="none" stroke-width="1px">0</text><text style="text-anchor: middle; visibility: inherit; font-family: Roboto, sans-serif; font-size: 12px; font-weight: 200;" x="66.2499990940094" y="0" dx="0em" dy="0.95em" fill="rgb(33, 33, 33)" stroke="none" stroke-width="1px">2k</text><text style="text-anchor: middle; visibility: inherit; font-family: Roboto, sans-serif; font-size: 12px; font-weight: 200;" x="99.37499864101409" y="0" dx="0em" dy="0.95em" fill="rgb(33, 33, 33)" stroke="none" stroke-width="1px">4k</text><text style="text-anchor: middle; visibility: inherit; font-family: Roboto, sans-serif; font-size: 12px; font-weight: 200;" x="132.4999981880188" y="0" dx="0em" dy="0.95em" fill="rgb(33, 33, 33)" stroke="none" stroke-width="1px">6k</text><text style="text-anchor: middle; visibility: inherit; font-family: Roboto, sans-serif; font-size: 12px; font-weight: 200;" x="165.6249977350235" y="0" dx="0em" dy="0.95em" fill="rgb(33, 33, 33)" stroke="none" stroke-width="1px">8k</text><text style="text-anchor: middle; visibility: inherit; font-family: Roboto, sans-serif; font-size: 12px; font-weight: 200;" x="198.74999728202818" y="0" dx="0em" dy="0.95em" fill="rgb(33, 33, 33)" stroke="none" stroke-width="1px">10k</text><text style="text-anchor: middle; visibility: inherit; font-family: Roboto, sans-serif; font-size: 12px; font-weight: 200;" x="231.87499682903288" y="0" dx="0em" dy="0.95em" fill="rgb(33, 33, 33)" stroke="none" stroke-width="1px">12k</text><text style="text-anchor: middle; visibility: hidden; font-family: Roboto, sans-serif; font-size: 12px; font-weight: 200;" x="264.9999963760376" y="0" dx="0em" dy="0.95em" fill="rgb(33, 33, 33)" stroke="none" stroke-width="1px">14k</text></g><line x1="0" y1="0" x2="264.9999963760376" y2="0" fill="rgb(0, 0, 0)" stroke="rgb(204, 204, 204)" stroke-width="1px"></line></g></g></g></g></svg>