<svg viewBox="0 0 330 200" xmlns="http://www.w3.org/2000/svg"><g><g><g><g><g><line x1="61.91500186920166" y1="164.8120002746582" x2="56.91500186920166" y2="164.8120002746582" style="visibility: inherit;" fill="rgb(0, 0, 0)" stroke="rgb(204, 204, 204)" stroke-width="1px"></line><line x1="61.91500186920166" y1="146.49955579969617" x2="56.91500186920166" y2="146.49955579969617" style="visibility: inherit;" fill="rgb(0, 0, 0)" stroke="rgb(204, 204, 204)" stroke-width="1px"></line><line x1="61.91500186920166" y1="128.18711132473416" x2="56.91500186920166" y2="128.18711132473416" style="visibility: inherit;" fill="rgb(0, 0, 0)" stroke="rgb(204, 204, 204)" stroke-width="1px"></line><line x1="61.91500186920166" y1="109.87466684977215" x2="56.91500186920166" y2="109.87466684977215" style="visibility: inherit;" fill="rgb(0, 0, 0)" stroke="rgb(204, 204, 204)" stroke-width="1px"></line><line x1="61.91500186920166" y1="91.56222237481012" x2="56.91500186920166" y2="91.56222237481012" style="visibility: inherit;" fill="rgb(0, 0, 0)" stroke="rgb(204, 204, 204)" stroke-width="1px"></line><line x1="61.91500186920166" y1="73.24977789984808" x2="56.91500186920166" y2="73.24977789984808" style="visibility: inherit;" fill="rgb(0, 0, 0)" stroke="rgb(204, 204, 204)" stroke-width="1px"></line><line x1="61.91500186920166" y1="54.937333424886056" x2="56.91500186920166" y2="54.937333424886056" style="visibility: inherit;" fill="rgb(0, 0, 0)" stroke="rgb(204, 204, 204)" stroke-width="1px"></line><line x1="61.91500186920166" y1="36.62488894992406" x2="56.91500186920166" y2="36.62488894992406" style="visibility: inherit;" fill="rgb(0, 0, 0)" stroke="rgb(204, 204, 204)" stroke-width="1px"></line><line x1="61.91500186920166" y1="18.312444474962014" x2="56.91500186920166" y2="18.312444474962014" style="visibility: inherit;" fill="rgb(0, 0, 0)" stroke="rgb(204, 204, 204)" stroke-width="1px"></line><line x1="61.91500186920166" y1="0" x2="56.91500186920166" y2="0" style="visibility: inherit;" fill="rgb(0, 0, 0)" stroke="rgb(204, 204, 204)" stroke-width="1px"></line></g><g transform="translate(51.91500186920166, 0)"><text style="text-anchor: end; visibility: hidden; font-family: Roboto, sans-serif; font-size: 12px; font-weight: 200;" x="0" y="164.8120002746582" dx="0em" dy="0.3em" fill="rgb(33, 33, 33)" stroke="none" stroke-width="1px">-5e-3</text><text style="text-anchor: end; visibility: inherit; font-family: Roboto, sans-serif; font-size: 12px; font-weight: 200;" x="0" y="146.49955579969617" dx="0em" dy="0.3em" fill="rgb(33, 33, 33)" stroke="none" stroke-width="1px">0</text><text style="text-anchor: end; visibility: hidden; font-family: Roboto, sans-serif; font-size: 12px; font-weight: 200;" x="0" y="128.18711132473416" dx="0em" dy="0.3em" fill="rgb(33, 33, 33)" stroke="none" stroke-width="1px">5e-3</text><text style="text-anchor: end; visibility: inherit; font-family: Roboto, sans-serif; font-size: 12px; font-weight: 200;" x="0" y="109.87466684977215" dx="0em" dy="0.3em" fill="rgb(33, 33, 33)" stroke="none" stroke-width="1px">0.01</text><text style="text-anchor: end; visibility: hidden; font-family: Roboto, sans-serif; font-size: 12px; font-weight: 200;" x="0" y="91.56222237481012" dx="0em" dy="0.3em" fill="rgb(33, 33, 33)" stroke="none" stroke-width="1px">0.015</text><text style="text-anchor: end; visibility: inherit; font-family: Roboto, sans-serif; font-size: 12px; font-weight: 200;" x="0" y="73.24977789984808" dx="0em" dy="0.3em" fill="rgb(33, 33, 33)" stroke="none" stroke-width="1px">0.02</text><text style="text-anchor: end; visibility: hidden; font-family: Roboto, sans-serif; font-size: 12px; font-weight: 200;" x="0" y="54.937333424886056" dx="0em" dy="0.3em" fill="rgb(33, 33, 33)" stroke="none" stroke-width="1px">0.025</text><text style="text-anchor: end; visibility: inherit; font-family: Roboto, sans-serif; font-size: 12px; font-weight: 200;" x="0" y="36.62488894992406" dx="0em" dy="0.3em" fill="rgb(33, 33, 33)" stroke="none" stroke-width="1px">0.03</text><text style="text-anchor: end; visibility: hidden; font-family: Roboto, sans-serif; font-size: 12px; font-weight: 200;" x="0" y="18.312444474962014" dx="0em" dy="0.3em" fill="rgb(33, 33, 33)" stroke="none" stroke-width="1px">0.035</text><text style="text-anchor: end; visibility: hidden; font-family: Roboto, sans-serif; font-size: 12px; font-weight: 200;" x="0" y="0" dx="0em" dy="0.3em" fill="rgb(33, 33, 33)" stroke="none" stroke-width="1px">0.04</text></g><line x1="61.91500186920166" y1="0" x2="61.91500186920166" y2="164.8120002746582" fill="rgb(0, 0, 0)" stroke="rgb(204, 204, 204)" stroke-width="1px"></line></g></g><g transform="translate(61, 0)" clip-path="url(#clip_0)"><clipPath id="clip_0"><rect width="268" height="164"></rect></clipPath><g><g><g><line x1="0" y1="0" x2="0" y2="164.8120002746582" fill="rgb(0, 0, 0)" stroke="rgb(66, 66, 66)" stroke-width="1px" opacity="0.25"></line><line x1="22.34041651089986" y1="0" x2="22.34041651089986" y2="164.8120002746582" fill="rgb(0, 0, 0)" stroke="rgb(66, 66, 66)" stroke-width="1px" opacity="0.25"></line><line x1="44.68083302179972" y1="0" x2="44.68083302179972" y2="164.8120002746582" fill="rgb(0, 0, 0)" stroke="rgb(66, 66, 66)" stroke-width="1px" opacity="0.25"></line><line x1="67.02124953269958" y1="0" x2="67.02124953269958" y2="164.8120002746582" fill="rgb(0, 0, 0)" stroke="rgb(66, 66, 66)" stroke-width="1px" opacity="0.25"></line><line x1="89.36166604359944" y1="0" x2="89.36166604359944" y2="164.8120002746582" fill="rgb(0, 0, 0)" stroke="rgb(66, 66, 66)" stroke-width="1px" opacity="0.25"></line><line x1="111.70208255449931" y1="0" x2="111.70208255449931" y2="164.8120002746582" fill="rgb(0, 0, 0)" stroke="rgb(66, 66, 66)" stroke-width="1px" opacity="0.25"></line><line x1="134.04249906539917" y1="0" x2="134.04249906539917" y2="164.8120002746582" fill="rgb(0, 0, 0)" stroke="rgb(66, 66, 66)" stroke-width="1px" opacity="0.25"></line><line x1="156.38291557629904" y1="0" x2="156.38291557629904" y2="164.8120002746582" fill="rgb(0, 0, 0)" stroke="rgb(66, 66, 66)" stroke-width="1px" opacity="0.25"></line><line x1="178.72333208719888" y1="0" x2="178.72333208719888" y2="164.8120002746582" fill="rgb(0, 0, 0)" stroke="rgb(66, 66, 66)" stroke-width="1px" opacity="0.25"></line><line x1="201.06374859809875" y1="0" x2="201.06374859809875" y2="164.8120002746582" fill="rgb(0, 0, 0)" stroke="rgb(66, 66, 66)" stroke-width="1px" opacity="0.25"></line><line x1="223.40416510899863" y1="0" x2="223.40416510899863" y2="164.8120002746582" fill="rgb(0, 0, 0)" stroke="rgb(66, 66, 66)" stroke-width="1px" opacity="0.25"></line><line x1="245.74458161989847" y1="0" x2="245.74458161989847" y2="164.8120002746582" fill="rgb(0, 0, 0)" stroke="rgb(66, 66, 66)" stroke-width="1px" opacity="0.25"></line><line x1="268.08499813079834" y1="0" x2="268.08499813079834" y2="164.8120002746582" fill="rgb(0, 0, 0)" stroke="rgb(66, 66, 66)" stroke-width="1px" opacity="0.25"></line></g><g><line x1="0" y1="164.8120002746582" x2="268.08499813079834" y2="164.8120002746582" fill="rgb(0, 0, 0)" stroke="rgb(66, 66, 66)" stroke-width="1px" opacity="0.25"></line><line x1="0" y1="146.49955579969617" x2="268.08499813079834" y2="146.49955579969617" fill="rgb(0, 0, 0)" stroke="rgb(66, 66, 66)" stroke-width="1px" opacity="0.25"></line><line x1="0" y1="128.18711132473416" x2="268.08499813079834" y2="128.18711132473416" fill="rgb(0, 0, 0)" stroke="rgb(66, 66, 66)" stroke-width="1px" opacity="0.25"></line><line x1="0" y1="109.87466684977215" x2="268.08499813079834" y2="109.87466684977215" fill="rgb(0, 0, 0)" stroke="rgb(66, 66, 66)" stroke-width="1px" opacity="0.25"></line><line x1="0" y1="91.56222237481012" x2="268.08499813079834" y2="91.56222237481012" fill="rgb(0, 0, 0)" stroke="rgb(66, 66, 66)" stroke-width="1px" opacity="0.25"></line><line x1="0" y1="73.24977789984808" x2="268.08499813079834" y2="73.24977789984808" fill="rgb(0, 0, 0)" stroke="rgb(66, 66, 66)" stroke-width="1px" opacity="0.25"></line><line x1="0" y1="54.937333424886056" x2="268.08499813079834" y2="54.937333424886056" fill="rgb(0, 0, 0)" stroke="rgb(66, 66, 66)" stroke-width="1px" opacity="0.25"></line><line x1="0" y1="36.62488894992406" x2="268.08499813079834" y2="36.62488894992406" fill="rgb(0, 0, 0)" stroke="rgb(66, 66, 66)" stroke-width="1px" opacity="0.25"></line><line x1="0" y1="18.312444474962014" x2="268.08499813079834" y2="18.312444474962014" fill="rgb(0, 0, 0)" stroke="rgb(66, 66, 66)" stroke-width="1px" opacity="0.25"></line><line x1="0" y1="0" x2="268.08499813079834" y2="0" fill="rgb(0, 0, 0)" stroke="rgb(66, 66, 66)" stroke-width="1px" opacity="0.25"></line></g></g></g><g><g><line x1="0" y1="146.49955579969617" x2="268.08499813079834" y2="146.49955579969617" fill="rgb(0, 0, 0)" stroke="rgb(153, 153, 153)" stroke-width="1.5px"></line></g></g><g><g><line x1="-40610543.17601284" y1="0" x2="-40610543.17601284" y2="164.8120002746582" fill="rgb(0, 0, 0)" stroke="rgb(153, 153, 153)" stroke-width="1.5px"></line></g></g><g><g><g><g><g><path style="fill: none;" stroke="rgb(255, 112, 67)" stroke-width="2px" d="M17.010837102689568,129.95541235742112L17.0207413540094,127.66086691136917L17.04710304549226,131.1514446246831L17.050379639913857,133.18751292631052L17.055244886176233,133.9547711804849L17.073390268920086,135.1752828557231L17.097915081712053,134.81094908699865L17.102780327974425,135.39707534667107L17.15716683083596,138.5296028184678L17.170744839537583,139.66369888740684L17.177571077915914,140.13406595990492L17.211329929532386,140.8125662827643L17.260205796321234,141.59654922386886L17.265269624063702,141.59107582308818L17.280386639236077,142.33086376874664L17.299053298365187,142.15755321961947L17.307468188584295,141.91976789216426L17.310819251060927,141.7599356206912L17.407230559647967,141.82770383892984L17.415670272552084,142.85380234711457L17.441014233949453,143.3484627536136L17.45121635748943,142.95467094670136L17.459805006503615,142.99853267634415L17.471670249939407,143.47068478444365L17.48182272810936,143.36360729014547L17.53566313190063,144.17186167870608L17.56284397198889,144.84292577464686L17.566269502520562,145.06024516891648L17.57979786585216,145.10009526395484L17.600028354137034,145.24739339742843L17.615219837364446,144.92163885117682L17.62867373264101,145.20593150273433L17.655854572729268,145.26363419045018L17.66258152036755,145.14679733998767L17.77557438254268,145.38912395031784L17.777262325123502,145.69919508025637L17.80590770362748,145.5892962826515L17.810946708684938,145.8354545146983L17.81603535911242,145.83362046869954L17.84118073902969,145.87779840587766L17.846219744087147,145.75759071488002L17.84788286398296,145.6191356616112L17.886382848436742,145.5983130502965L17.91820553062227,145.81228079474397L17.953453743339466,146.0525187304829L17.981975008418384,146.0811349174166L17.99073741622766,146.09576780374107L18.060787033331835,146.16317962191266L18.077567168400023,146.23121496690834L18.087620355829927,146.26145236380114L18.09941113121068,146.29443290349042L18.101099073791502,146.30522345431712L18.126269276393785,145.89300156829972L18.15652812942355,146.0441847559982L18.159879191900185,146.08626434424002L18.18018414824009,146.16906305358867L18.19195010093583,146.23896868802063L18.193638043516653,146.11141883436377L18.1970139286783,146.19444387029435L18.202028111050748,146.2117785663389L18.205379173527383,146.24493003538342L18.2474288019379,146.26779214420958L18.264184114321072,146.27703126323902L18.292854315510063,146.26379851086614L18.336418127706317,146.1421876625554L18.343145075344598,146.21910588486946L18.34987202298288,146.2433286502183L18.36325145020441,146.31164982198138L18.378393288061794,146.30730225675623L18.42193227757304,146.34163203809746L18.42865922521132,146.36238813274366L18.443751417698685,146.3473489090379L18.450478365336966,146.34340771376858L18.4538294278136,146.36203594109267L18.457180490290234,146.38955500658733L18.468921620300964,146.40148633060974L18.47731168783506,146.37530625856817L18.480662750311694,146.3609780120472L18.489052817845785,146.3499813481761L18.492453525692444,146.34045603321619L18.49923011870075,146.327962965739L18.50593224365402,145.6370641284548L18.51615918987901,145.94593706401707L18.517871955144845,146.09369567994707L18.556669811818775,146.21256533119043L18.563396759457056,146.25056371138754L18.639676870499276,146.3144064764136L18.65112012828986,146.34620940403428L18.660974734239666,146.351361916963L18.68383642713582,146.316554914072L18.69038961597902,146.35546404624023L18.70193216450965,146.33843907988074L18.70523358161626,146.15697667370318L18.715137832936094,146.26617782532705L18.718439250042703,146.28402096592606L18.762598806679247,146.30932990481475L18.76423710389005,146.32662228122274L18.780644898683054,146.3645559793679L18.78553496763044,146.3723760797266L18.800229997157608,146.38167814107598L18.80680800868582,146.3742642545639L18.81338602021403,146.36032901820852L18.828254808536283,146.34676654828266L18.829917928432096,146.33808526892477L18.839797357066914,146.12275282368014L18.841435654277713,146.2239661300093L18.84972643107176,146.2794044578556L18.87936471697622,146.22998366524246L18.884329253978642,146.28829254736218L18.899173219615882,146.31858156758835L18.969619999680255,146.28274418795303L18.991017154160694,146.33626993274905L19.000896582795516,146.36159081141165L19.005836297112925,146.37318662401404L19.009162536904547,146.28406153063767L19.01576537111777,146.34069524769677L19.0256696224376,146.31873717211724L19.033910753861623,146.34595291040966L19.05034337133964,146.3121375687249L19.060173154604435,146.3598128594326L19.06833981797342,146.3471463942844L19.084772435451438,146.29802053003408L19.17475466862034,146.34237913537075L19.181332680148547,146.34823344317078L19.18299580004436,146.34476894403844L19.18463409725516,145.91994079128688L19.214247560474607,146.0091427662946L19.235644714955047,146.15315538218928L19.257116337490526,146.16656655127386L19.321084396766732,146.24294270502313L19.340917722091408,146.32046384789155L19.359112750205288,146.27429451849753L19.364052464522697,146.25432165203517L19.368967356155096,146.21409877656237L19.401782945741108,146.27108709057353L19.41171201974595,146.33550638443378L19.423204922906557,146.3373383096547L19.43308435154138,146.36928133228747L50.86287307869593,135.58818801073508L50.86781279301334,131.76904526477833L50.885958175757196,131.14014337779602L51.955170509968866,75.00681747541459L51.96013504697128,45.71903417246457L51.961773344182085,30.82053389291256L52.04011373808031,73.65424704628637L52.044978984342684,98.1138216385158L52.04984423060505,113.10998058737027L52.05148252781586,123.2534060310509L52.08735130765835,129.63300634669724L52.12751441200795,134.01814241032463L52.130766183744534,136.879345563421L52.143897384115945,138.99645447218697L52.150500218329164,139.5785007656381L52.19125906711905,140.02218293087785L52.192897364329845,141.08194372957763L52.21067040679852,140.95614236586727L52.22362784837484,141.53360889998703L52.23015621453303,141.4203245186567L52.23340798626962,141.84075932872557L52.30608880798508,142.30245401003364L52.31261717414326,143.06199124556107L52.353425668303174,142.96922922893515L52.37946466488088,143.18850551396244L52.38107813940667,143.08974255432472L52.40560295219863,143.57505608479326L52.41208167298679,143.52060221875092L52.438418541784635,144.03507076575437L52.440032016310425,143.87908689740416L52.496478802027966,144.49550845580097L52.50462064271194,144.5758668973603L52.51276248339591,144.82244382862567L52.51762772965829,144.6482929548121L52.52579439302727,144.82821020409858L52.53070928465967,144.97583435101163L52.5502447377642,145.0646822274902L52.563351115450594,144.6299718908443L52.57481919592619,144.73042896487763L52.586287276401784,145.36296526894773L52.601007128613965,144.99003266224918L52.60758514014217,145.19066320126413L52.61081208919374,145.2367936115375L52.61408868361535,145.15750935548226L52.619003575247746,145.44501158989436L52.65107448428339,145.5868205282564L52.66579433649557,145.15845165165175L52.682078017863525,145.49518823036664L52.6886063840217,145.47854831426685L52.69185815575829,145.55128607952372L52.69674822470568,145.73634260481938L52.70491488807467,145.84768248298207L52.70978013433703,145.4259999181092L52.711418431547834,145.60403999512823L52.743985794283724,145.38329318770013L52.758631178440865,145.74036596820528L52.768411316335644,145.89974304588708L52.77978010607119,146.0221297655662L52.781393580596976,145.76686344071393L52.81679072942425,145.9093192963324L52.82835810063989,146.0410985977812L52.862638228641615,146.15121965755029L52.8691665947998,146.08004401247817L52.885648857647844,145.99372178128547L52.89220204649104,146.11704680061402L52.90793962878872,145.9778513363859L52.929113379104045,146.07396937780229L52.93402827073645,146.05712738594525L52.94378358594621,146.1529608938303L52.94703535768279,146.19499171510998L53.024358021495516,146.22856464742688L53.034138159390295,146.2476229758391L53.06196438928887,146.13619817586857L53.07829771602684,146.19803908848772L53.083162962289215,146.1619293020014L53.0864147340258,146.10583773365067L53.115581388915025,146.17767298123343L53.138517549866215,146.22096150866125L53.1417693216028,146.05188834377552L53.19161327310712,146.18357791081118L53.1981416392653,146.23127934966112L53.211297662321726,146.28867456928728L53.23899977879524,146.27235445214032L53.248755094005006,146.12106850741324L53.28795011363912,146.17262042409976L53.30912386395446,146.22090475130926L53.31396428753182,146.2985259005954L53.33613094524763,146.1504517080919L53.339357894299205,146.25409581193745L53.34258484335078,146.14026329788743L53.349113209508964,146.20698549255846L53.35559193029713,146.26331247886603L53.366935897347666,146.21304991859344L53.391187660604494,146.274367315262L53.44661671623654,146.34472247847282L53.453194727764746,146.3718009746056L53.46466280824035,146.39760767012353L53.479407483137535,146.33717187429352L53.51949611943209,146.36335256122064L53.535854268855076,146.38501057253515L53.53910604059166,146.35754220355648L53.54238263501326,146.36382357474614L53.55054929838224,146.3929463031307L53.555464190014646,146.36930592418273L53.568545745016024,146.21547965311052L53.57507411117422,146.2987097354812L53.60766629659511,146.36305650939426L53.615783314594076,146.30933242038287L53.61739678911986,146.32991723096822L53.62069820622647,146.37051162455182L53.62558827517386,146.40463013104926L53.63209181864703,146.4010742801061L53.63373011585783,146.39552916606866L53.64512372827839,146.39314174745186L53.65001379722578,146.3605084586414L53.65815563790974,145.96619846443636L53.70998540421504,146.15078377723967L53.7265173124331,146.18138593354152L53.73639674106792,146.28308175825697L53.746201701647706,146.34319701456772L53.75270524512088,146.32868962828675L53.77224069822541,146.18589483967048L53.77385417275119,146.2640373963139L53.81451373080104,146.2993608945806L53.829183937643194,146.31640354782184L53.90725128200628,146.28901219842012L53.90888957921708,146.34609576182837L53.912190996323694,146.3579094350487L53.935127157274884,146.3879844886217L53.98392855600869,146.33905687850782L53.996985288325064,146.36362743712715L54.02920513347078,146.3661065101141L54.03245690520737,146.32249910409362L54.03568385425894,146.30963847555518L54.043800872257904,146.3358532538625L54.08446043030774,146.36103089983837L54.08607390483353,146.38860920980966L54.10233276351646,146.39678341701128L54.105584535253044,146.39346330474626L54.11367673056699,146.39225127564956L54.13651360077814,146.40171619964607L54.14629373867291,146.39902449378792L54.16093912283006,146.4129388718695L54.205843360016964,146.4110780040121L54.21232208080512,146.42187508225493L54.215573852541716,146.26779565518456L54.236822070912076,146.2531798595617L54.25645681475666,146.31006606399438L54.27604191323121,146.35878415946394L54.292400062654195,146.39035309561663L54.30218020054897,146.4056882160123L54.33000643044755,146.33592612991868L54.339811391027325,146.37797363619862L54.34144968823813,146.36530047951126L98.76988564883472,112.36497715797094L98.77976507746952,111.40545021901704L98.78800620889355,115.78993366052784L98.82600973964709,122.26775318442176L98.83757711086274,127.82760331316186L98.84586788765678,130.84951862095016L98.86726504213722,133.6714455050446L98.87880759066785,134.80423264510148L98.90353098493992,135.70552070717457L98.94443876983988,137.10300627577703L98.9494033068423,139.0594599301878L98.97241393584852,139.83739129044451L98.97405223305933,140.64544516529853L98.97732882748092,139.91508392640668L99.03007703313165,139.80077044612722L99.03171533034245,140.73015243509752L99.03337845023827,140.95514358267397L99.0629670907727,141.27561289645246L99.10874012193503,141.74081073881396L99.11700607604406,142.77586276063818L99.1877755510136,143.47290010810906L99.20264433933585,143.0365157110647L99.21766206376819,143.28819576382458L99.22751666971799,143.1449077382356L99.23409468124619,143.66752778996573L99.28297054803504,144.24242380442874L99.28624714245663,144.6324973063443L99.28788543966745,144.68843688311733L99.36508399005511,144.44911349614569L99.37826483579653,144.91973480595192L99.41624354386506,144.83178747136333L99.45233572787266,145.12898222781982L99.45901303014092,145.35218060269486L99.46561586435415,145.58443943971562L99.46727898424997,145.77901402566735L99.4853995443088,145.65141335182494L99.49031443594122,145.74452931300428L99.50347045899763,145.24008731000876L99.50838535063002,145.3072015704292L99.54862292303466,145.54852539250416L99.55517611187784,145.63613762984636L99.55845270629945,145.7306951942064L99.60449878699691,145.87543646158886L99.6635023092707,145.8527157000495L99.68820088085775,145.98836372844232L99.70130725854415,145.6592889919633L99.70952356728316,145.84218883267332L99.71771505333714,145.73578508530701L99.72429306486536,145.69654640095396L99.72756965928696,145.95010365134658L99.7539065280848,146.05735798886428L99.80563700365005,146.1277901986867L99.80727530086085,146.20732533809021L99.81876820402145,146.27884568176418L99.82373274102387,146.23669376652714L99.86322563287814,146.21304790391872L99.86816534719556,146.22372427051604L99.87965825035616,146.21751318916387L99.88459796467357,145.979451127194L99.88623626188436,146.09684648394082L99.88953767899099,146.1903720662846L99.89117597620178,146.21464173099994L99.9324064560069,146.1490521320965L99.94720077627412,146.21902156743414L100.00796670918376,146.30286283752565L100.02127166835025,146.28919869009178L100.04423265198646,146.31946497937176L100.04587094919725,146.3238178801002L100.07372200178085,146.36032736989193L100.12160496116921,146.32298924861658L100.12490637827581,146.35721296247783L100.16246310069914,145.90460456046233L100.19048791207781,146.08352109445622L100.19872904350184,146.14597125055263L100.2349205182495,146.25018277144247L100.23986023256691,146.31619642180524L100.24815100936095,146.36293560734708L100.26634603747483,146.38606048707652L100.26962263189642,146.38381414538256L100.28116518042705,146.406531921649L100.2910942544319,146.4041296643694L100.30263680296254,146.40227118707378L100.33359069117263,146.4004498244136L100.33850558280503,146.34909057884667L100.36638145807363,146.2700148494323L100.38609066997324,146.269031261876L100.39103038429066,146.3208585943906L100.40254811013628,146.3196961088829L100.42886015624912,146.35697110872053L100.43213675067072,146.36943950807645L100.4421651154156,146.38878456250163L100.4488920630539,146.3621879316259L100.47728921470774,146.1813299475957L100.52815089629756,146.00487860467135L100.5655338599258,146.17604938091338L100.59792746386661,146.2702457473633L100.60125370365822,146.32255040714742L100.60477852492996,146.32178764710054L100.60971823924736,146.3663184642789L100.61488135772987,146.32543417770148L100.64404801261911,146.33475793467287L100.66224304073299,146.3426232264015L100.70640259736953,146.36168074159838L100.75542740026846,146.36529104201495L100.75870399469005,146.33420405880918L100.79802312774923,146.3407776717431L100.80462596196246,146.34157445741147L100.80792737906906,146.31561919864865L100.81780680770389,146.31609889389L100.82274652202129,146.348267248794L100.8260231164429,146.27854243181247L100.8618918962854,146.28878424526096L100.87343444481603,146.33306913998538L100.89475713124142,146.3658928595653L100.90788833161282,146.3909095884L100.92911172729819,146.37639304908853L100.93248761245984,146.400191306289L100.93745214946225,146.4064651778342L100.95728547478694,146.29120544126167L100.96391313168517,146.33604181004517L100.97212944042417,146.36931300222395L100.97540603484578,146.38343019791162L100.99186347500881,146.37867812889226L100.99841666385201,146.355799683969L101.0670762105955,146.3900996600698L101.07529251933451,146.3518045871809L101.08681024518013,146.3779203698258L101.15904425856537,146.40165917345536L101.17212581356675,146.38481241552094L101.18359389404235,146.33842487759435L113.0800146222066,93.5778145820025L113.1037947544482,61.99812129615359L113.11680184139455,43.01461851152168L113.1298337510259,31.78987465551553L113.17776635578429,25.04029300081519L113.20172024682097,20.868649991923366L113.2126174055413,18.376617456803427L113.23222732670087,16.81544364048967L113.23438690029691,16.042487193021227L113.26025213807954,15.539408166548304L113.30657126831213,15.144722644221996L113.31317410252535,14.92792410704893L113.33506771070604,14.941372664560125L113.43825561230138,14.829152297914604L113.44925206176175,14.72681545652216L113.45143645804282,14.737409136778117L113.47347900233358,14.695100516576625L113.65453566681191,14.73063779358971L113.67831579905352,14.747195732842968L113.68045054996456,14.69963537844934L113.68481934252668,14.757519212578075L113.68913848971879,14.782764319416087L113.69561721050695,14.860651191388127L113.69780160678802,14.89245695979382L113.7744540581054,14.830261370854936L113.78535121682575,14.796442296618627L113.79187958298392,14.829427296441787L113.80920581712238,14.722810899861505L113.83308524010403,14.642473918228578L113.85262069320855,14.658512358896425L113.85917388205175,14.83381523256076L113.8613334556478,14.789056674800445L113.89407457717878,14.756678515999893L113.92892562693578,14.779220055176275L113.94193271388214,14.794103904583244L113.95062065363636,14.870516618916296L113.9927199274169,14.880557368651294L113.99711354266404,14.892033894698045L114.01672346382362,14.790969792958872L114.02546104894789,14.780595217656128L114.03854260394927,14.76238572838253L114.04946458535458,14.797352436033803L114.1066560516225,14.771637801949419L114.1263652635221,14.659146783941862L114.15920567579313,14.712045367430605L114.1744964497606,14.750786533311631L114.21001771201293,14.719434065310354L114.21868082908216,14.703766123943513L114.2208404026782,14.771474853328751L114.26226946396342,14.79215826267578L114.26882265280662,14.656538163133888L114.28197867586304,14.700612973944828L114.34731198281492,14.808997271996201L114.36049282855633,14.782554127819324L114.39338288619739,14.831027106568111L114.39772685607451,14.91310900396163L114.4575495269537,14.961752356152639L114.45975874591979,14.822819040622061L114.50121262988999,14.853723435207552L114.50337220348605,14.872789995197836L114.50992539232925,14.822428819125976L114.5294856681188,14.774213167210009L114.55343955915548,14.820810585481285L114.60795017544207,14.77490677481374L114.61447854160026,14.753100356373416L114.66082249451787,14.772865400887252L114.66730121530603,14.816820183517503L114.67162036249813,14.78617274058541L114.67591468700525,14.820733267166744L114.702052974323,14.827471009073745L114.738964306936,14.850565904502519L114.7844642885632,14.862103389920485L114.79973023984564,14.802312988739699L114.81710611935412,14.727111759904396L114.82579405910838,14.78699397175111L114.8410103650208,14.811391530067578L114.84319476130186,14.793142966743286L114.8453543348979,14.796989202716482L114.88976211838457,14.828281905990853L114.94655642169228,14.765860340979257L114.9574535804126,14.785127550126887L114.99260250238974,14.843005964462572L115.0166805068515,14.769777538163014L115.02536844660574,14.774177858713973L115.0275528428868,14.713794451420874L115.04502801313532,14.673351190998108L115.05182942882864,14.645357739200346L115.0589038940571,14.683033312375638L115.06585424586049,14.702336848368407L115.1101379159221,14.781532355462677L115.11880103299133,14.763919452072091L115.13401733890375,14.729262156111611L115.13620173518481,14.76082189969831L115.14923364481616,14.77597021743512L115.16224073176251,14.854375344102536L115.16658470163964,14.871341951664618L115.17328682659291,14.810148289956755L115.25420877973238,14.803448528499251L115.28178678278084,14.770127172977404L115.34754207537793,14.831227853499446L115.35191086794005,14.690087270113644L115.39321581580022,14.71944354510267L115.39755978567733,14.748485385746582L115.44303494461951,14.7724540730866L115.49863775904664,14.81792139767078L115.50566257890506,14.832905968906202L115.5356732050847,14.817474248163217L115.57640723118959,14.67928098112182L115.59599232966413,14.719039464293381L115.60249587313731,14.771290102242908L115.60686466569945,14.827537753932196L115.60902423929551,14.944901219368605L115.70868731961913,14.903729106258972L115.72251355517088,14.814796123813077L115.72943908428925,14.803863201636364L115.74559865223215,14.770201335780014L115.77565892378179,14.845358245762675L115.78025112050904,14.868409412978428L115.80502416015112,14.907704965736361L115.82029011143358,14.918713597189084L115.8595099537527,14.764168719800868L115.91168723764818,14.803601430403589L115.9232297861788,14.800590089380313L115.96987161131656,14.7856906613253L115.97448863072881,14.774775377278587L115.9883893343356,14.802488603667118L116.06906306062496,14.740151483823457L116.07996021934527,14.78674611370182L116.10828290294408,14.869665713919334L116.11749211908358,14.881880556989586L116.15907011647887,14.900337374126577L116.17768713023794,14.922239211347916L116.23083249884888,14.869895366340515L116.24006653767339,14.747135402070635L143.1208996548785,14.553157177154068L143.12318334189962,14.501785841642725L143.17838899336655,14.576402592182983L143.22736415089545,14.564801776511867L143.255115912739,14.59430852755652L143.28932157268568,14.697275627795465L143.31263007391206,14.840826115957702L143.36962295869986,14.855872031898128L143.3998569890446,14.768153880862311L143.40209103069571,14.759194175224268L143.44548108409685,14.7529287738419L143.496963332812,14.793746668596688L143.5012824800041,14.799654503066582L145.4275476596289,14.745835066612669L145.47073913155,14.72389088871042L145.4730228185711,14.796276680869394L145.4775157245583,14.672860434680937L145.4889589823489,14.724050171221798L145.5730085937999,14.623886896539446L145.5890192256327,14.715011734117738L145.59802986029212,14.659657298942761L145.61163269167875,14.71081810945037L145.64824615207158,14.706122489454266L145.65959011912213,14.780048956901421L145.66639153481543,14.859933382013837L145.67090926348763,14.756488423748873L186.50387859082002,56.23634282185444L186.51564454351575,83.4385383333605L186.540715455378,101.20526434980157L186.5481126155116,112.68201579063144L186.551041692343,119.74913739173006L186.5685913306466,124.40952925308049L186.571520407478,127.58844936447107L186.58035728334232,128.87751948053307L186.59788209896087,129.6215768241334L186.60550266325959,130.58263551398483L186.6201232247317,131.63988195584307L186.63479343157388,131.26935698692716L186.6969742575292,133.68831062455124L186.69987851167565,133.23040658315367L186.7059352468186,133.62026692670142L186.72713381981896,133.91808778305685L186.784672803677,134.43753642411332L186.78886783744406,135.06518350952553L186.8346656912914,135.33812978410123L186.8600841207438,134.97048759685205L186.88552737288123,136.76326732072107L186.8897472293333,137.33073097760405L186.89679687187672,136.4150909268006L186.90379686905013,136.9937095367171L186.92916565313251,136.2140002676436L186.9305805461782,136.05279089003943L186.97493868429484,136.98754493887122L186.9791585407469,137.6356288819831L186.98908761475175,138.8570094766612L187.02721525893037,138.14396028767285L187.03002022233673,138.38255908770202L187.03989965097153,138.83880019410938L187.06531808042394,139.20120863327736L187.06814786651532,139.17052266161375L187.07802729515012,138.41433983757557L187.09073650987636,137.86571953827251L187.12603436796357,138.7031572749542L187.12744926100928,138.64242835833252L187.1416726595212,138.35618365759743L187.14733223170396,138.85671613839108L187.14874712474966,136.6418484872748L187.17560526993276,136.50681900074477L187.18263008979116,137.33721592414386L187.18543505319755,138.24565186472788L187.1910698026953,138.09231044876398L187.2037790174215,138.8958546522783L187.22914780150387,139.324759987551L187.2778002641276,139.5007837188731L187.28492437472607,139.36380239664513L187.2976335894523,139.2675914936523L187.30609812504142,139.33880020973976L187.30751301808712,140.07289638748318L187.31319741295488,139.84695170399235L187.31746691477696,138.53806221113473L187.34864420715218,139.41969467560475L187.37423639539966,138.74920886162383L187.37989596758243,138.10406667251178L187.3870449008659,138.74600531480405L187.39697397487075,138.79241716384578L187.4321477195329,139.22019677994726L187.4349775056243,139.00757224663647L187.44915125876622,138.56397767108106L187.45766543972536,138.87021218078402L187.46052004850176,139.97269219439306L187.4690342294609,140.34654173955798L187.4718640155523,140.68400387806133L187.4747186243287,140.044866867443L187.49167251819193,139.0291286951597L187.49450230428334,139.1844484597739L187.49733209037473,139.38684079332774L187.52972569431552,139.4850982182163L187.5423852636717,138.94377956042987L187.54660512012376,138.87626469253848L187.58962283324976,139.69654596305733L187.60379658639167,139.10793646551375L187.60518665675232,139.6100379340969L187.6079916201587,138.94003586165482L187.61643133306282,139.44334719914212L187.62484622328193,138.83106901877403L187.6346511838617,138.88020334856682L187.64167600372014,138.5391310493651L187.65150578698493,138.04859578818812L187.65992067720404,138.12284439723678L187.67821499605796,139.4818228268389L187.73535681695586,140.3414677544606L187.76824687459688,140.00467111559277L187.77388162409463,139.99412681379104L187.77529651714033,139.79204702487075L187.78517594577517,139.1422909019941L187.80912983681182,139.25663250607897L187.8246440149444,138.97491701340826L187.84013337039198,139.36272721880752L187.84996315365674,139.79279545315967L187.87873264558579,140.20914171056907L187.91259078794232,139.66922352606227L187.9901865012902,140.60458692848766L187.9957964281029,140.07078118264448L188.03434605792674,139.5355084263469L188.04973612263424,139.59141822862895L188.05532122676195,138.18622263066325L188.06651625770243,138.9188791131441L188.06790632806312,139.2732819242467L188.07349143219082,138.58863070523793L188.08612617886197,138.7991863297997L188.08751624922266,139.36747027511737L188.1015410662545,139.66826739535568L188.10293113661518,139.73703216897428L188.10434602966086,139.6477655863689L188.11554106060134,139.28373438757052L188.14366516272005,138.8382730551403L188.19792755215653,139.01542164726567L188.20641691043068,139.20901531086747L188.20783180347638,139.53161619601138L188.21207648261344,139.56459920023678L188.22622541307035,140.29989401779866L188.23895945048156,139.86805089561565L188.24320412961862,140.0897552796868L188.25730341470552,139.96767010027085L188.26452681604403,139.5297728525293L188.33539558175363,138.93989185345845L188.34800550573976,138.18595945830506L188.35083529183115,138.26320932816947L188.3565196866989,138.54325391467606L188.36503386765807,139.40162286956107L188.3692537241101,140.36071421219083L188.37920762079997,140.45448402005803L188.3905267651655,140.63466210764844L188.3947714443026,140.91101005826937L188.40618987940815,139.23624050445136L188.4118246289059,140.36931286872274L188.41745937840366,140.09093172289303L188.44992745039949,140.37637658376522L188.45556219989723,140.70554495958993L188.48574658487198,140.95797231011832L188.49143097973973,141.41811552668565L188.50699480324232,140.182842886093L188.52402316516063,140.2207557163369L188.54668627657668,140.81041240633016L188.58205860271894,140.47841273062107L188.60330682108932,139.67532078541504L218.25127357270452,131.80185832699055L218.26298988003023,128.7390657194976L218.27468136467095,128.11634904485527L218.28336930442518,128.2969240872068L218.2848338428409,128.30413828365798L218.31047567645842,130.01725131399215L218.32363169951483,130.44464033867024L218.34398630122476,129.88971039872686L218.34837991647188,131.00526852757116L218.40321322766366,132.78382701277462L218.42835860758092,134.34841903301862L218.44590824588448,134.43969736637294L218.45027703844661,134.51116612510768L218.45898980088586,134.28217283300665L218.4852770243137,133.95938545990293L218.48818127846013,134.57268307613066L218.51431956577787,134.38794582324954L218.5201280740707,135.0629088546732L218.52452168931785,134.22676061487235L218.57146138667574,135.43735923792434L218.57726989496857,135.17745576777637L218.58749684119357,135.7885130897653L218.60651101791285,137.1084476464389L218.6153727164622,137.6618292231582L218.63602519039225,135.9853902462149L218.65364929675084,136.23636515833994L218.66405000177093,136.42151778322508L218.67569184104158,137.12299955946523L218.68748261642236,137.0214198189593L218.68892233215306,136.17910629520048L218.74199323270895,136.89478370995727L218.74785138637182,136.84422019107836L218.7683549241918,138.12625675301894L218.7857308037003,138.60715053135647L218.787145696746,138.33333160677387L218.79704994806582,138.1034717361987L218.81705703218557,138.1196465502214L218.8255463904597,137.13872174437668L218.83545064177954,137.06394829669418L218.83833007324097,136.36384419992433L218.87117048551195,136.96535292365684L218.87400027160336,137.39077985053154L218.87541516464904,137.75976521115783L218.90269529547734,135.27945005664125L218.90701444266946,137.25639955841092L218.91994706156078,137.85938675475427L218.93848960726484,137.59113988863376L218.9585711594396,137.77816343799998L218.97294349406164,138.5152174273718L218.99592930038284,138.94923913203172L219.03187254828038,139.0652357497528L219.05756402726792,138.16364751336164L219.07178742577986,137.96345717959147L219.07320231882554,137.78668184075832L219.0817164997847,138.2828374075313L219.09164557378955,138.74290158593328L219.09732996865733,138.51861693535173L219.098744861703,137.70692242983466L219.1001845774337,137.04866332599684L219.131510805919,137.76458544540992L219.1329256989647,138.1781153979986L219.13858527114746,138.11790897765144L219.14143987992384,137.31273437087106L219.15434767613013,137.62463502745652L219.18200014723362,137.85957113751488L219.2243724705493,137.7656947856435L219.22581218628,138.60406187700792L219.2386703371163,138.59877204412402L219.24296466162338,139.09905443802666L219.25294338099823,138.7652789723115L219.2671916021952,138.53208463977757L219.26860649524087,138.45534308644218L219.27002138828658,139.09867454449807L219.27146110401728,138.3961326704719L219.27861003730078,138.16522623793415L219.28717386362996,138.18973916052158L219.29288308118274,137.7748407731684L219.2957376899591,138.6443497745086L219.33873058040012,137.23298154601758L219.34724476135926,138.10297059529827L219.34865965440494,139.41144818877788L219.3600036214555,138.1301772265845L219.38706034811867,138.8111634625122L219.4112624660055,138.53414229516892L219.44844684815362,138.75534183684923L219.5016418621346,137.95622110323265L219.5203085212637,138.28322820730781L219.52455320040076,138.79373695424837L219.56883687046238,138.6469761705361L219.57025176350808,138.57027341706205L219.5931134564042,138.64338733883983L219.5945283494499,139.51134226328278L219.6088758613869,140.46613735638908L219.613145363209,139.4671043343322L219.61599997198536,137.7077123302452L219.65196804256794,139.39190778281431L219.66065598232217,138.67013392078877L219.66495030682927,138.6381089663114L219.67068434706704,138.1428428762128L219.6962268899445,138.61936639958296L219.69764178299022,139.95228192659832L219.70327653248796,139.9267399208582L219.70754603431004,138.8714944544479L219.71040064308644,137.74027524964654L219.7302091457261,138.46459805188226L219.73589354059388,138.98475477664357L219.75163112289155,139.8842129808988L219.75592544739865,139.302848905557L219.80457791002237,138.57830791443976L219.81604599049797,138.38467396586194L219.8302693890099,138.22297469546513L219.83168428205562,138.43562037294805L219.84749633240833,138.65964103623128L219.88038639004935,138.66501243660184L219.88751050064786,138.39709681434542L219.91176226390468,139.0388544123181L219.96478351909056,138.49989922065348L219.9946203864751,139.04803540481657L219.9960352795208,139.7454442440869L220.00169485170358,139.4530534527366L220.00737924657133,139.90911412952585L220.03319483898395,139.68480583939953L220.04185795605315,138.49337747242302L220.04332249446884,138.988840438412L220.1240955114983,139.27427912184513L220.13551394660385,139.97159469124674L220.1468827363394,139.62623595453525L220.1483224520701,139.28219181426272L220.17297137828712,138.18894236181225L220.1913898105661,139.08865381429294L220.19704938274887,138.3005498242328L220.21281178773157,138.33679721714L220.2501451059898,138.0578795452039L220.25443943049686,138.5785342972952L220.25731886195825,139.63545276978434L220.26302807951106,139.36088594181973L220.27449615998668,138.9586537602579L220.3606556996637,139.24817847939354L220.36914505793786,140.16588869859692L220.3705599509835,139.27518426266838L220.37341455975994,139.1375150943844L248.68979319658544,132.0959846934183L248.70069035530577,129.22847993493554L248.73516906478758,129.12496178166072L248.74097757308041,127.90127145515665L248.75703785028324,129.57786412018882L248.7614314655304,130.69662455393248L248.78630379591254,131.43926330891614L248.7950165583518,132.25116134293918L248.813906621646,132.47944797370528L248.8635271689852,134.23312734304662L248.87660872398658,134.84180324421774L248.90009098400805,134.48419289180592L248.90304488352447,135.78890720221062L248.9162257292659,135.2058382290626L248.92960515648744,134.82284676195252L248.94124699575815,133.96149925543483L248.9703391825923,134.73045022658013L248.9938462652988,133.6028250692355L248.99826470323094,135.59630265003202L249.00119378006238,135.8927696779873L249.00995618787167,135.68030422828917L249.0277044076553,135.27076153673266L249.029144123386,135.45870485547755L249.03929660155598,136.2245316134435L249.04366539411808,135.4749270997431L249.05093844082666,135.70436503937475L249.0610909189966,135.80335606017155L249.063995173143,135.1517001989899L249.15879300720428,135.66452986816637L249.17654122698792,136.95260743337613L249.1817539908405,136.59455133511253L249.1893993778242,135.4399944922346L249.21285681516065,136.52459970904L249.21873979150854,135.11602592635415L249.22020432992423,136.7474262170488L249.22313340675566,137.22038985216705L249.22755184468784,137.37835346136626L249.2378036135978,137.01651137616133L249.24363694457566,137.02961785981296L249.2494454528685,136.17127086336347L249.26260147592492,135.96812081049052L249.26406601434064,136.31277112035028L249.27131423836417,135.66698981972823L249.277122746657,136.5058350103452L249.2785624623877,136.69979785619742L249.32108372181344,136.60923850485383L249.3662858312205,136.97203720597514L249.38376100146903,137.72831326838573L249.393938302324,138.0609503088674L249.40118652634752,138.3932505441128L249.42169006416754,138.050562510968L249.43492055527898,137.09761002901234L249.47778933229492,138.12824378136457L249.4939489002378,139.11599639708632L249.50412620109276,138.87316811127013L249.50559073950848,139.14261276970123L249.5099347093856,138.6651921309892L249.51864747182486,138.84574193313819L249.57405170477185,136.95608679047868L249.578445320019,137.2605861315199L249.58137439685046,136.72499516178777L249.58631411116787,136.7466571494474L249.5880516991187,137.60969080415907L249.5950020509221,137.68264559174483L249.6677325180076,138.9818829990163L249.68801265166246,138.37397386612804L249.7272324939816,138.02830246681464L249.7359949017909,138.5440399025027L249.74185305545373,137.69516926331949L249.78884239818166,138.08492064695827L249.7960906222052,138.75558719066495L249.818182811866,137.84019379480944L249.82262607248316,138.21838818756353L249.8270445104153,138.83313473718127L249.85775017177528,138.6875437688599L249.8738104489781,138.17660270667614L249.89270051227234,139.01735423947684L249.89416505068806,138.94123715419585L249.9087856121602,138.65705050738046L249.91317922740734,138.52715996620188L249.91903738107018,138.5793233540644L249.9646118307524,138.74107895548255L249.96751608489885,138.7767814508009L249.97186005477596,138.88246726892973L250.00239195734085,138.70183558796143L250.00534585685728,138.84768555575909L250.01266854893586,138.58092792003893L250.0287536488237,138.47209365713542L250.04089194179465,137.95951682862264L250.04670045008746,138.33279192579164L250.0713245536195,138.05995802888256L250.10066496730383,138.19361585077974L250.11516141535088,137.97589230447542L250.1180656694973,138.19796596172966L250.12675360925155,139.59903054718848L250.13400183327508,138.8038208018263L250.14127487998363,137.27757346030594L250.14566849523078,136.49382744723846L250.16756210341146,137.07841980577248L250.16902664182714,137.1305703554867L250.20839542025638,137.69877387789438L250.22003725952703,138.2675354044162L250.25528547224422,138.24719625940594L250.25980320091642,138.0508160169096L250.2714202175021,138.41606385803425L250.301952120067,138.75575106383815L250.3107641732463,138.1534194814004L250.3269237411892,137.94485876431227L250.3283882796049,139.3953909472473L250.3753031542778,139.51028474706072L250.37676769269353,139.20112513605162L250.3855549231878,139.45667859422008L250.48181729566477,137.5391341423558L250.4847463724962,138.3353600677546L250.49502296409122,139.27941902761125L250.49936693396833,140.22518096828063L250.5095194121383,139.98824967659903L250.56911867885236,140.07046785060538L250.5995264679922,139.3003019695078L250.61419667483435,139.23676510655707L250.63762928948577,138.59022211928985L250.64055836631724,138.93055849762015L250.64348744314864,137.8330798592609L250.65078531254218,138.22987777271547L250.6971044427748,138.2789924849209L250.72485620461833,138.90253364334808L250.74081719108113,138.98018907416963L250.74225690681183,138.57906536604239L250.74372144522755,138.15118715992972L250.74806541510466,138.38388333462365L250.771249802906,139.47498145651392L250.81051929059512,138.93420713113113L250.81488808315726,139.60170591496737L250.8440299153615,138.6801800574184L250.85279232317077,139.37308834425824L250.8542568615865,139.03238792979693L250.85572140000218,139.3115768005698" fill="none"></path></g></g></g></g><g opacity="0.2"><g><g><g><path style="fill: none;" stroke="rgb(255, 112, 67)" stroke-width="2px" d="M17.010837102689568,129.95541235742112L17.0207413540094,126.284139643738L17.04710304549226,134.50239922946446L17.050379639913857,135.5819292490244L17.055244886176233,134.95650355713497L17.073390268920086,136.86368988678063L17.097915081712053,134.28994596838237L17.102780327974425,136.25165306008557L17.15716683083596,143.14947237723183L17.170744839537583,141.3476993776891L17.177571077915914,140.83535037392346L17.211329929532386,141.82662439825893L17.260205796321234,142.76996379519886L17.265269624063702,141.58287644487905L17.280386639236077,143.4396760942748L17.299053298365187,141.8977096279555L17.307468188584295,141.56319052376293L17.310819251060927,141.52022779487802L17.407230559647967,141.92934584248184L17.415670272552084,144.39285631992365L17.441014233949453,144.09042623500983L17.45121635748943,142.36399619422016L17.459805006503615,143.06432440483502L17.471670249939407,144.17890735350107L17.48182272810936,143.20299180975914L17.53566313190063,145.38423981471126L17.56284397198889,145.84952020148893L17.566269502520562,145.38622392668444L17.57979786585216,145.15987036980482L17.600028354137034,145.46834051622935L17.615219837364446,144.43300713982322L17.62867373264101,145.63237042350585L17.655854572729268,145.3501882151354L17.66258152036755,144.9715420726627L17.77557438254268,145.75261385539866L17.777262325123502,146.16430176716864L17.80590770362748,145.42444808794454L17.810946708684938,146.20469186048348L17.81603535911242,145.83086939971156L17.84118073902969,145.94406531149718L17.846219744087147,145.5772791786246L17.84788286398296,145.41145308187455L17.886382848436742,145.56707913333943L17.91820553062227,146.13323241132252L17.953453743339466,146.41287563402886L17.981975008418384,146.12405919781267L17.99073741622766,146.11771713322645L18.060787033331835,146.26429734916618L18.077567168400023,146.33326798439958L18.087620355829927,146.30680845913972L18.09941113121068,146.34390371302396L18.101099073791502,146.32140928055708L18.126269276393785,145.27466873927548L18.15652812942355,146.27095953754548L18.159879191900185,146.14938372660268L18.18018414824009,146.29326111761165L18.19195010093583,146.3438271396685L18.193638043516653,145.92009405387856L18.1970139286783,146.31898142419018L18.202028111050748,146.23778061040565L18.205379173527383,146.29465723895024L18.2474288019379,146.30208530744886L18.264184114321072,146.29088994178315L18.292854315510063,146.2439493823068L18.336418127706317,145.95977139008926L18.343145075344598,146.3344832183406L18.34987202298288,146.27966279824153L18.36325145020441,146.41413157962597L18.378393288061794,146.3007809089185L18.42193227757304,146.3931267101093L18.42865922521132,146.39352227471295L18.443751417698685,146.32479007347925L18.450478365336966,146.33749592086463L18.4538294278136,146.38997828207886L18.457180490290234,146.43083360482927L18.468921620300964,146.41938331664338L18.47731168783506,146.33603615050583L18.480662750311694,146.3394856422658L18.489052817845785,146.33348635236945L18.492453525692444,146.3261680607763L18.49923011870075,146.3092233645232L18.50593224365402,144.60071587252847L18.51615918987901,146.40924646736048L18.517871955144845,146.31533360384205L18.556669811818775,146.39086980805553L18.563396759457056,146.3075612816832L18.639676870499276,146.4101706239527L18.65112012828986,146.39391379546532L18.660974734239666,146.35909068635604L18.68383642713582,146.2643444097355L18.69038961597902,146.4138277444926L18.70193216450965,146.31290163034154L18.70523358161626,145.88478306443682L18.715137832936094,146.42997955276286L18.718439250042703,146.31078567682457L18.762598806679247,146.34729331314782L18.76423710389005,146.35256084583474L18.780644898683054,146.4214565265856L18.78553496763044,146.38410623026465L18.800229997157608,146.39563123310003L18.80680800868582,146.36314342479585L18.81338602021403,146.33942616367545L18.828254808536283,146.3264228433939L18.829917928432096,146.32506334988796L18.839797357066914,145.7997541558132L18.841435654277713,146.375786089503L18.84972643107176,146.36256194962513L18.87936471697622,146.15585247632268L18.884329253978642,146.37575587054178L18.899173219615882,146.36401509792762L18.969619999680255,146.22898811849998L18.991017154160694,146.41655854994306L19.000896582795516,146.39957212940556L19.005836297112925,146.39058034291762L19.009162536904547,146.15037389057318L19.01576537111777,146.42564582328538L19.0256696224376,146.28580005874792L19.033910753861623,146.3867765178483L19.05034337133964,146.26141455619774L19.060173154604435,146.43132579549416L19.06833981797342,146.32814669656207L19.084772435451438,146.22433173365866L19.17475466862034,146.40891704337568L19.181332680148547,146.35701490487082L19.18299580004436,146.33957219533994L19.18463409725516,145.28269856215954L19.214247560474607,146.14294572880615L19.235644714955047,146.36917430603128L19.257116337490526,146.18668330490073L19.321084396766732,146.35750693564702L19.340917722091408,146.43674556219415L19.359112750205288,146.20504052440657L19.364052464522697,146.22436235234161L19.368967356155096,146.15376446335318L19.401782945741108,146.3565695615903L19.41171201974595,146.43213532522415L19.423204922906557,146.34008619748613L19.43308435154138,146.4171958662366L50.86287307869593,119.41654802840645L50.86781279301334,126.0403311458432L50.885958175757196,130.19679054732256L51.955170509968866,-9.193171378157508L51.96013504697128,1.7873592180395055L51.961773344182085,8.472783473584563L52.04011373808031,137.90481677634708L52.044978984342684,134.80318352685995L52.04984423060505,135.604219010652L52.05148252781586,138.46854419657183L52.08735130765835,139.20240682016677L52.12751441200795,140.5958465057657L52.130766183744534,141.17115029306552L52.143897384115945,142.17211783533594L52.150500218329164,140.45157020581476L52.19125906711905,140.6877061787375L52.192897364329845,142.67158492762726L52.21067040679852,140.76744032030174L52.22362784837484,142.39980870116665L52.23015621453303,141.25039794666125L52.23340798626962,142.47141154382882L52.30608880798508,142.99499603199575L52.31261717414326,144.20129709885225L52.353425668303174,142.83008620399622L52.37946466488088,143.5174199415034L52.38107813940667,142.9415981148681L52.40560295219863,144.3030263804961L52.41208167298679,143.43892141968738L52.438418541784635,144.80677358625962L52.440032016310425,143.64511109487884L52.496478802027966,145.42014079339611L52.50462064271194,144.69640455969932L52.51276248339591,145.1923092255237L52.51762772965829,144.38706664409173L52.52579439302727,145.0980860780283L52.53070928465967,145.1972705713812L52.5502447377642,145.1979540422081L52.563351115450594,143.97790638587543L52.57481919592619,144.88111457592765L52.586287276401784,146.3117697250529L52.601007128613965,144.4306337522013L52.60758514014217,145.49160900978657L52.61081208919374,145.30598922694756L52.61408868361535,145.03858297139942L52.619003575247746,145.87626494151255L52.65107448428339,145.79953393579942L52.66579433649557,144.5158983367448L52.682078017863525,146.00029309843896L52.6886063840217,145.45358844011716L52.69185815575829,145.66039272740906L52.69674822470568,146.0139273927629L52.70491488807467,146.01469230022607L52.70978013433703,144.79347607079993L52.711418431547834,145.87110011065678L52.743985794283724,145.05217297655796L52.758631178440865,146.27597513896302L52.768411316335644,146.13880866240973L52.77978010607119,146.20570984508495L52.781393580596976,145.38396395343554L52.81679072942425,146.1230030797601L52.82835810063989,146.23876754995436L52.862638228641615,146.3164012472039L52.8691665947998,145.97328054487002L52.885648857647844,145.8642384344964L52.89220204649104,146.30203432960684L52.90793962878872,145.7690581400437L52.929113379104045,146.21814643992687L52.93402827073645,146.03186439815966L52.94378358594621,146.29671115565793L52.94703535768279,146.25803794702946L53.024358021495516,146.27892404590222L53.034138159390295,146.27621046845744L53.06196438928887,145.96906097591275L53.07829771602684,146.29080045741645L53.083162962289215,146.1077646222719L53.0864147340258,146.0217003811246L53.115581388915025,146.28542585260763L53.138517549866215,146.28589429980298L53.1417693216028,145.7982785964469L53.19161327310712,146.38111226136473L53.1981416392653,146.30283150793602L53.211297662321726,146.3747673987265L53.23899977879524,146.24787427641988L53.248755094005006,145.89413959032262L53.28795011363912,146.24994829912956L53.30912386395446,146.29333124212351L53.31396428753182,146.41495762452462L53.33613094524763,145.92834041933668L53.339357894299205,146.40956196770574L53.34258484335078,145.96951452681242L53.349113209508964,146.30706878456502L53.35559193029713,146.34780295832735L53.366935897347666,146.13765607818462L53.391187660604494,146.3663434102648L53.44661671623654,146.45025522328908L53.453194727764746,146.41241871880482L53.46466280824035,146.4363177134004L53.479407483137535,146.24651818054843L53.51949611943209,146.40262359161133L53.535854268855076,146.41749758950692L53.53910604059166,146.31633965008848L53.54238263501326,146.37324563153058L53.55054929838224,146.43663039570762L53.555464190014646,146.33384535576076L53.568545745016024,145.98474024650218L53.57507411117422,146.42355485903724L53.60766629659511,146.45957667026386L53.615783314594076,146.2287462868658L53.61739678911986,146.36079444684628L53.62069820622647,146.43140321492726L53.62558827517386,146.45580789079543L53.63209181864703,146.39574050369134L53.63373011585783,146.3872114950125L53.64512372827839,146.3895606195267L53.65001379722578,146.31155852542568L53.65815563790974,145.37473347312877L53.70998540421504,146.4276617464446L53.7265173124331,146.22728916799434L53.73639674106792,146.4356254953301L53.746201701647706,146.4333698990339L53.75270524512088,146.3069285488653L53.77224069822541,145.9717026567461L53.77385417275119,146.38125123127904L53.81451373080104,146.35234614198058L53.829183937643194,146.34196752768375L53.90725128200628,146.24792517431754L53.90888957921708,146.43172110694073L53.912190996323694,146.37562994487925L53.935127157274884,146.4330970689811L53.98392855600869,146.26566546333703L53.996985288325064,146.40048327505613L54.02920513347078,146.36982511959454L54.03245690520737,146.25708799506293L54.03568385425894,146.2903475327475L54.043800872257904,146.37517542132346L54.08446043030774,146.39879736880224L54.08607390483353,146.42997667476655L54.10233276351646,146.40904472781375L54.105584535253044,146.38848313634875L54.11367673056699,146.39043323200445L54.13651360077814,146.41591358564085L54.14629373867291,146.39498693500067L54.16093912283006,146.43381043899188L54.205843360016964,146.40828670222598L54.21232208080512,146.43807069961917L54.215573852541716,146.036676514579L54.236822070912076,146.23125616612745L54.25645681475666,146.39539537064337L54.27604191323121,146.4318613026683L54.292400062654195,146.43770649984566L54.30218020054897,146.42869089660584L54.33000643044755,146.2312830007782L54.339811391027325,146.44104489561852L54.34144968823813,146.34629074448026L98.76988564883472,61.36449217566039L98.77976507746952,109.96615981058625L98.78800620889355,122.366658822794L98.82600973964709,131.98448247026266L98.83757711086274,136.16737850627197L98.84586788765678,135.38239158263266L98.86726504213722,137.90433583118627L98.87880759066785,136.50341335518675L98.90353098493992,137.05745280028424L98.94443876983988,139.1992346286807L98.9494033068423,141.99414041180398L98.97241393584852,141.00428833082958L98.97405223305933,141.85752597757954L98.97732882748092,138.81954206806893L99.03007703313165,139.62930022570805L99.03171533034245,142.12422541855292L99.03337845023827,141.29263030403865L99.0629670907727,141.75631686712023L99.10874012193503,142.43860750235623L99.11700607604406,144.32844079337448L99.1877755510136,144.51845612931535L99.20264433933585,142.38193911549823L99.21766206376819,143.6657158429644L99.22751666971799,142.9299756998521L99.23409468124619,144.45145786756095L99.28297054803504,145.10476782612324L99.28624714245663,145.21760755921767L99.28788543966745,144.77234624827688L99.36508399005511,144.09012841568818L99.37826483579653,145.62566677066124L99.41624354386506,144.6998664694804L99.45233572787266,145.57477436250457L99.45901303014092,145.6869781650074L99.46561586435415,145.9328276952468L99.46727898424997,146.0708759045949L99.4853995443088,145.46001234106137L99.49031443594122,145.88420325477324L99.50347045899763,144.48342430551548L99.50838535063002,145.40787296105995L99.54862292303466,145.91051112561655L99.55517611187784,145.76755598585964L99.55845270629945,145.8725315407464L99.60449878699691,146.09254836266254L99.6635023092707,145.81863455774047L99.68820088085775,146.19183577103158L99.70130725854415,145.16567688724476L99.70952356728316,146.11653859373834L99.71771505333714,145.57617946425756L99.72429306486536,145.6376883744244L99.72756965928696,146.3304395269355L99.7539065280848,146.2182394951408L99.80563700365005,146.2334385134204L99.80727530086085,146.32662804719547L99.81876820402145,146.38612619727516L99.82373274102387,146.17346589367162L99.86322563287814,146.17757911000606L99.86816534719556,146.23973882041207L99.87965825035616,146.2081965671356L99.88459796467357,145.62235803423923L99.88623626188436,146.272939519061L99.88953767899099,146.33066043980025L99.89117597620178,146.25104622807294L99.9324064560069,146.05066773374134L99.94720077627412,146.32397572044061L100.00796670918376,146.42862474266295L100.02127166835025,146.268702468941L100.04423265198646,146.36486441329177L100.04587094919725,146.3303472311928L100.07372200178085,146.4150916045796L100.12160496116921,146.26698206670358L100.12490637827581,146.4085485332697L100.16246310069914,145.2256919574391L100.19048791207781,146.35189589544706L100.19872904350184,146.23964648469718L100.2349205182495,146.40650005277726L100.23986023256691,146.4152168973494L100.24815100936095,146.43304438565983L100.26634603747483,146.4207478066707L100.26962263189642,146.38044463284157L100.28116518042705,146.4406085860486L100.2910942544319,146.40052627845003L100.30263680296254,146.3994834711304L100.33359069117263,146.3977177804233L100.33850558280503,146.27205171049624L100.36638145807363,146.15140125531076L100.38609066997324,146.26755588054152L100.39103038429066,146.39859959316243L100.40254811013628,146.31795238062142L100.42886015624912,146.41288360847696L100.43213675067072,146.38814210711033L100.4421651154156,146.4178021441394L100.4488920630539,146.32229298531232L100.47728921470774,145.91004297155047L100.52815089629756,145.7402015902848L100.5655338599258,146.4328055452764L100.59792746386661,146.4115402970382L100.60125370365822,146.40100739682356L100.60477852492996,146.32064350703018L100.60971823924736,146.43311469004647L100.61488135772987,146.26410774783537L100.64404801261911,146.34874357012993L100.66224304073299,146.35442116399452L100.70640259736953,146.39026701439363L100.75542740026846,146.37070649263978L100.75870399469005,146.28757358400054L100.79802312774923,146.35063809114396L100.80462596196246,146.342769635914L100.80792737906906,146.2766863105044L100.81780680770389,146.31681843675204L100.82274652202129,146.39651978114998L100.8260231164429,146.1739552063402L100.8618918962854,146.30414696543366L100.87343444481603,146.39949648207204L100.89475713124142,146.4151284389351L100.90788833161282,146.42843468165213L100.92911172729819,146.35461824012134L100.93248761245984,146.4358886920897L100.93745214946225,146.41587598515204L100.95728547478694,146.11831583640284L100.96391313168517,146.40329636322048L100.97212944042417,146.41921979049204L100.97540603484578,146.4046059914432L100.99186347500881,146.3715500253632L100.99841666385201,146.32148201658413L101.0670762105955,146.441549624221L101.07529251933451,146.29436197784753L101.08681024518013,146.41709404379316L101.15904425856537,146.43726737889972L101.17212581356675,146.3595422786193L101.18359389404235,146.2688435707044L113.0800146222066,14.43689913861479L113.1037947544482,14.628581367380233L113.11680184139455,14.539364334573829L113.1298337510259,14.952758871506289L113.17776635578429,14.915920518764691L113.20172024682097,14.611185478585584L113.2126174055413,14.638568654123505L113.23222732670087,14.473682916018989L113.23438690029691,14.883052521818572L113.26025213807954,14.784789626838965L113.30657126831213,14.552694360732543L113.31317410252535,14.602726301289376L113.33506771070604,14.961545500826874L113.43825561230138,14.660821747946303L113.44925206176175,14.573310194433498L113.45143645804282,14.753299657162069L113.47347900233358,14.63163758627436L113.65453566681191,14.783943709109336L113.67831579905352,14.772032641722886L113.68045054996456,14.628294846858916L113.68481934252668,14.844344963771213L113.68913848971879,14.820631979673093L113.69561721050695,14.977481499346199L113.69780160678802,14.940165612402406L113.7744540581054,14.736967987446628L113.78535121682575,14.745713685264173L113.79187958298392,14.878904796176558L113.80920581712238,14.562886304991052L113.83308524010403,14.52196844577918L113.85262069320855,14.682570019898202L113.85917388205175,15.096769543057235L113.8613334556478,14.721918838159972L113.89407457717878,14.708111277799043L113.92892562693578,14.813032363940856L113.94193271388214,14.81642967869368L113.95062065363636,14.985135690415854L113.9927199274169,14.895618493253773L113.99711354266404,14.909248683768164L114.01672346382362,14.639373640350096L114.02546104894789,14.765033354701982L114.03854260394927,14.73507149447215L114.04946458535458,14.849802497510696L114.1066560516225,14.733065850822891L114.1263652635221,14.490410256930545L114.15920567579313,14.791393242663753L114.1744964497606,14.808898282133182L114.21001771201293,14.672405363308394L114.21868082908216,14.680264211893268L114.2208404026782,14.873037947406601L114.26226946396342,14.823183376696306L114.26882265280662,14.453108013821092L114.28197867586304,14.766725190161223L114.34731198281492,14.971573719073204L114.36049282855633,14.742889411553984L114.39338288619739,14.903736574691266L114.39772685607451,15.036231850051877L114.4575495269537,15.034717384439173L114.45975874591979,14.614419067326248L114.50121262988999,14.900080027085805L114.50337220348605,14.90138983518329L114.50992539232925,14.74688705501816L114.5294856681188,14.701889689336012L114.55343955915548,14.890706712888226L114.60795017544207,14.706051058812387L114.61447854160026,14.720390728712909L114.66082249451787,14.802512967657972L114.66730121530603,14.882752357462914L114.67162036249813,14.740201576187273L114.67591468700525,14.872574057038745L114.702052974323,14.837577621934228L114.738964306936,14.885208247645688L114.7844642885632,14.87940961804747L114.79973023984564,14.712627386968474L114.81710611935412,14.61430991665145L114.82579405910838,14.8768172895212L114.8410103650208,14.847987867542315L114.84319476130186,14.765770121756814L114.8453543348979,14.802758556676249L114.88976211838457,14.875220960902398L114.94655642169228,14.672227993461856L114.9574535804126,14.814028363848307L114.99260250238974,14.92982358596606L115.0166805068515,14.659934898713631L115.02536844660574,14.78077833954043L115.0275528428868,14.623219340481173L115.04502801313532,14.612686300363949L115.05182942882864,14.603367561503768L115.0589038940571,14.73954667213854L115.06585424586049,14.73129215235755L115.1101379159221,14.900325616104082L115.11880103299133,14.737500096986222L115.13401733890375,14.677276212170883L115.13620173518481,14.80816151507835L115.14923364481616,14.798692694040314L115.16224073176251,14.97198303410366L115.16658470163964,14.896791863007762L115.17328682659291,14.718357797394951L115.25420877973238,14.793398886313012L115.28178678278084,14.720145139694631L115.34754207537793,14.922878874282555L115.35191086794005,14.478376395034957L115.39321581580022,14.76347795758622L115.39755978567733,14.792048146712487L115.44303494461951,14.808407104096627L115.49863775904664,14.886122384547038L115.50566257890506,14.855382825759333L115.5356732050847,14.794326667048722L115.57640723118959,14.471991080559746L115.59599232966413,14.778677189050713L115.60249587313731,14.849666059167216L115.60686466569945,14.911909231466156L115.60902423929551,15.120946417523209L115.70868731961913,14.841970936594521L115.72251355517088,14.681396650144215L115.72943908428925,14.787463818371316L115.74559865223215,14.719708536995476L115.77565892378179,14.95809361073665L115.78025112050904,14.902986163802092L115.80502416015112,14.966648294873316L115.82029011143358,14.935226544368161L115.8595099537527,14.532351403718566L115.91168723764818,14.862750496307653L115.9232297861788,14.796073077845362L115.96987161131656,14.76334151924274L115.97448863072881,14.758402451208495L115.9883893343356,14.844058443249878L116.06906306062496,14.646645804057975L116.07996021934527,14.85663805851942L116.10828290294408,14.994045114245578L116.11749211908358,14.900202821594943L116.15907011647887,14.92802259983202L116.17768713023794,14.955091967179923L116.23083249884888,14.791379598829394L116.24006653767339,14.56299545566585L143.1208996548785,14.26218983977918L143.12318334189962,14.424728838375723L143.17838899336655,14.688327717993362L143.22736415089545,14.547400553005241L143.255115912739,14.638568654123505L143.28932157268568,14.851726278153874L143.31263007391206,15.056151848201038L143.36962295869986,14.878440905808702L143.3998569890446,14.636576654308605L143.40209103069571,14.745754616767213L143.44548108409685,14.743530671768376L143.496963332812,14.854973510728877L143.5012824800041,14.808516254771407L145.4275476596289,14.665105911931814L145.47073913155,14.69097462185703L145.4730228185711,14.904855369107873L145.4775157245583,14.487736065398193L145.4889589823489,14.80083477603307L145.5730085937999,14.473641984515949L145.5890192256327,14.851698990485174L145.59802986029212,14.576625646180242L145.61163269167875,14.787559325211754L145.64824615207158,14.699079059460182L145.65959011912213,14.890938658072146L145.66639153481543,14.979760019682454L145.67090926348763,14.601320986351451L186.50387859082002,118.45612441901281L186.51564454351575,124.24183160061962L186.540715455378,127.85535337446312L186.5481126155116,129.89714295187625L186.551041692343,130.349819793378L186.5685913306466,131.40011704510613L186.571520407478,132.35682953155694L186.58035728334232,130.8111246546261L186.59788209896087,130.7376628395339L186.60550266325959,132.02422354876194L186.6201232247317,133.22575161863043L186.63479343157388,130.7135695335533L186.6969742575292,137.31674108098733L186.69987851167565,132.5435505210573L186.7059352468186,134.20505744202308L186.72713381981896,134.36481906759L186.784672803677,135.216709385698L186.78886783744406,136.00665413764384L186.8346656912914,135.74754919596478L186.8600841207438,134.41902431597825L186.88552737288123,139.4524369065246L186.8897472293333,138.18192646292857L186.89679687187672,135.04163085059534L186.90379686905013,137.8616374515919L186.92916565313251,135.04443636403332L186.9305805461782,135.81097682363313L186.97493868429484,138.38967601211894L186.9791585407469,138.60775479665097L186.98908761475175,140.68908036867833L187.02721525893037,137.07438650419033L187.03002022233673,138.74045728774576L187.03989965097153,139.52316185372044L187.06531808042394,139.74482129202934L187.06814786651532,139.1244937041183L187.07802729515012,137.2800656015183L187.09073650987636,137.04278908931792L187.12603436796357,139.95931387997678L187.12744926100928,138.55133498339998L187.1416726595212,137.92681660649478L187.14733223170396,139.6075148595815L187.14874712474966,133.31954701060047L187.17560526993276,136.30427477094972L187.18263008979116,138.58281130924252L187.18543505319755,139.60830577560392L187.1910698026953,137.86229832481817L187.2037790174215,140.10117095754973L187.22914780150387,139.96811799046012L187.2778002641276,139.7648193158562L187.28492437472607,139.1583304133032L187.2976335894523,139.12327513916304L187.30609812504142,139.44561328387096L187.30751301808712,141.17404065409835L187.31319741295488,139.50803467875608L187.31746691477696,136.5747279718483L187.34864420715218,140.7421433723097L187.37423639539966,137.74348014065254L187.37989596758243,137.1363533888437L187.3870449008659,139.7089132782424L187.39697397487075,138.86203493740842L187.4321477195329,139.86186620409947L187.4349775056243,138.68863544667028L187.44915125876622,137.89858580774793L187.45766543972536,139.32956394533846L187.46052004850176,141.62641221480658L187.4690342294609,140.90731605730537L187.4718640155523,141.19019708581638L187.4747186243287,139.08616135151553L187.49167251819193,137.50552143673474L187.49450230428334,139.41742810669524L187.49733209037473,139.69042929365844L187.52972569431552,139.63248435554917L187.5423852636717,138.13180157375024L187.54660512012376,138.77499239070136L187.58962283324976,140.92696786883562L187.60379658639167,138.22502221919837L187.60518665675232,140.3631901369717L187.6079916201587,137.93503275299165L187.61643133306282,140.1983142053731L187.62484622328193,137.91265174822183L187.6346511838617,138.95390484325603L187.64167600372014,138.02752260056246L187.65150578698493,137.31279289642268L187.65992067720404,138.23421731080975L187.67821499605796,141.52029047124208L187.73535681695586,141.63093514589318L187.76824687459688,139.499476157291L187.77388162409463,139.97831036108846L187.77529651714033,139.48892734149032L187.78517594577517,138.16765671767908L187.80912983681182,139.42814491220633L187.8246440149444,138.55234377440215L187.84013337039198,139.94444252690644L187.84996315365674,140.43789780468785L187.87873264558579,140.83366109668316L187.91259078794232,138.8593462493021L187.9901865012902,142.00763203212577L187.9957964281029,139.27007256387972L188.03434605792674,138.73259929190053L188.04973612263424,139.67528293205206L188.05532122676195,136.07842923371467L188.06651625770243,140.01786383686544L188.06790632806312,139.80488614090055L188.07349143219082,137.56165387672476L188.08612617886197,139.1150197666424L188.08751624922266,140.2198961930939L188.1015410662545,140.11946307571316L188.10293113661518,139.84017932940216L188.10434602966086,139.51386571246087L188.11554106060134,138.73768758937297L188.14366516272005,138.1700810564949L188.19792755215653,139.28114453545373L188.20641691043068,139.49940580627015L188.20783180347638,140.01551752372728L188.21207648261344,139.61407370657486L188.22622541307035,141.40283624414147L188.23895945048156,139.22028621234116L188.24320412961862,140.42231185579354L188.25730341470552,139.78454233114692L188.26452681604403,138.87292698091696L188.33539558175363,138.0550703548522L188.34800550573976,137.05506086557497L188.35083529183115,138.37908413296609L188.3565196866989,138.96332079443596L188.36503386765807,140.6891763018886L188.3692537241101,141.79935122613543L188.37920762079997,140.59513873185887L188.3905267651655,140.904929239034L188.3947714443026,141.32553198420084L188.40618987940815,136.72408617372432L188.4118246289059,142.06892141512978L188.41745937840366,139.67336000414852L188.44992745039949,140.80454387507348L188.45556219989723,141.19929752332698L188.48574658487198,141.33661333591095L188.49143097973973,142.10833035153664L188.50699480324232,138.32993392520405L188.52402316516063,140.27762496170268L188.54668627657668,141.69489744132005L188.58205860271894,139.98041321705745L188.60330682108932,138.470682867606L218.25127357270452,119.99166463935383L218.26298988003023,124.14487680825818L218.27468136467095,127.18227403289178L218.28336930442518,128.5677866507341L218.2848338428409,128.31495957833476L218.31047567645842,132.58692085949338L218.32363169951483,131.08572387568742L218.34398630122476,129.05731548881178L218.34837991647188,132.6786057208376L218.40321322766366,135.4516647405798L218.42835860758092,136.6953070633846L218.44590824588448,134.5766148664044L218.45027703844661,134.6183692632098L218.45898980088586,133.9386828948551L218.4852770243137,133.47520440024738L218.48818127846013,135.49262950047225L218.51431956577787,134.11083994392786L218.5201280740707,136.07535340180866L218.52452168931785,132.9725382551711L218.57146138667574,137.25325717250232L218.57726989496857,134.7876005625544L218.58749684119357,136.70509907274874L218.60651101791285,139.0883494814492L218.6153727164622,138.49190158823723L218.63602519039225,133.4707317807999L218.65364929675084,136.61282752652752L218.66405000177093,136.6992467205528L218.67569184104158,138.17522222382544L218.68748261642236,136.86905020820038L218.68892233215306,134.91563600956226L218.74199323270895,137.96829983209247L218.74785138637182,136.76837491275995L218.7683549241918,140.04931159592982L218.7857308037003,139.3284911988628L218.787145696746,137.92260321989994L218.79704994806582,137.75868193033594L218.81705703218557,138.14390877125544L218.8255463904597,135.6673345356096L218.83545064177954,136.95178812517042L218.83833007324097,135.31368805476959L218.87117048551195,137.86761600925558L218.87400027160336,138.02892024084358L218.87541516464904,138.3132432520973L218.90269529547734,131.5589773248664L218.90701444266946,140.22182381106543L218.91994706156078,138.76386754926924L218.93848960726484,137.188769589453L218.9585711594396,138.05869876204932L218.97294349406164,139.62079841142946L218.99592930038284,139.60027168902164L219.03187254828038,139.2392306763344L219.05756402726792,136.8112651587749L219.07178742577986,137.66317167893618L219.07320231882554,137.52151883250863L219.0817164997847,139.02707075769078L219.09164557378955,139.43299785353625L219.09732996865733,138.18218995947942L219.098744861703,136.48938067155908L219.1001845774337,136.06127467024007L219.131510805919,138.83846862452955L219.1329256989647,138.79841032688165L219.13858527114746,138.0275993471307L219.14143987992384,136.1049724607005L219.15434767613013,138.0924860123347L219.18200014723362,138.21197530260238L219.2243724705493,137.62488025783645L219.22581218628,139.86161251405457L219.2386703371163,138.59083729479818L219.24296466162338,139.84947802888064L219.25294338099823,138.26461577373874L219.2671916021952,138.1822931409767L219.26860649524087,138.3402307564391L219.27002138828658,140.06367173158188L219.27146110401728,137.34231985943265L219.27861003730078,137.81886658912754L219.28717386362996,138.22650854440272L219.29288308118274,137.15249319213862L219.2957376899591,139.94861327651896L219.33873058040012,135.11592920328104L219.34724476135926,139.40795416921932L219.34865965440494,141.37416457899727L219.3600036214555,136.20827078329444L219.38706034811867,139.83264281640376L219.4112624660055,138.11861054415394L219.44844684815362,139.08714114936967L219.5016418621346,136.7575400028078L219.5203085212637,138.77373886342053L219.52455320040076,139.55950007465918L219.56883687046238,138.42683499496775L219.57025176350808,138.455219286851L219.5931134564042,138.75305822150645L219.5945283494499,140.8132746499472L219.6088758613869,141.89832999604855L219.613145363209,137.96855480124685L219.61599997198536,135.0686243241147L219.65196804256794,141.91820096166802L219.66065598232217,137.58747312775046L219.66495030682927,138.59007153459535L219.67068434706704,137.3999437410649L219.6962268899445,139.33415168463821L219.69764178299022,141.9516552171213L219.70327653248796,139.88842691224806L219.70754603431004,137.28862625483248L219.71040064308644,136.0434464424445L219.7302091457261,139.55108225523583L219.73589354059388,139.76498986378553L219.75163112289155,141.23340028728165L219.75592544739865,138.43080279254428L219.80457791002237,137.49149642776388L219.81604599049797,138.09422304299522L219.8302693890099,137.9804257898699L219.83168428205562,138.75458888917245L219.84749633240833,138.9956720311561L219.88038639004935,138.6730695371577L219.88751050064786,137.99522338096077L219.91176226390468,140.00149080927713L219.96478351909056,137.69146643315653L219.9946203864751,139.8702396810612L219.9960352795208,140.79155750299242L220.00169485170358,139.01446726571112L220.00737924657133,140.59320514470974L220.03319483898395,139.34834340421003L220.04185795605315,136.7062349219583L220.04332249446884,139.73203488739546L220.1240955114983,139.7024371469948L220.13551394660385,141.01756804534912L220.1468827363394,139.10819784946804L220.1483224520701,138.76612560385394L220.17297137828712,136.54906818313657L220.1913898105661,140.438220993014L220.19704938274887,137.11839383914253L220.21281178773157,138.39116830650084L220.2501451059898,137.6395030372997L220.25443943049686,139.35951642543216L220.25731886195825,141.22083047851808L220.26302807951106,138.9490356998728L220.27449615998668,138.3553054879152L220.3606556996637,139.68246555809702L220.36914505793786,141.54245402740196L220.3705599509835,137.93912760877555L220.37341455975994,138.93101134195848L248.68979319658544,121.53368909196908L248.70069035530577,124.92722279721137L248.73516906478758,128.96968455174843L248.74097757308041,126.06573596540055L248.75703785028324,132.09275311773706L248.7614314655304,132.374765204548L248.78630379591254,132.55322144139163L248.7950165583518,133.46900839397372L248.813906621646,132.82187791985442L248.8635271689852,136.86364639705863L248.87660872398658,135.75481709597443L248.90009098400805,133.94777736318818L248.90304488352447,137.74597866781764L248.9162257292659,134.33123476934057L248.92960515648744,134.2483595612874L248.94124699575815,132.6694779956583L248.9703391825923,135.8838766832981L248.9938462652988,131.91138733321856L248.99826470323094,138.5865190212268L249.00119378006238,136.3374702199202L249.00995618787167,135.36160605374198L249.0277044076553,134.65644749939784L249.029144123386,135.74061983359493L249.03929660155598,137.3732717503924L249.04366539411808,134.3505203291925L249.05093844082666,136.0485219488222L249.0610909189966,135.9518425913667L249.063995173143,134.17421640721741L249.15879300720428,136.43377437193112L249.17654122698792,138.88472378119073L249.1817539908405,136.05746718771712L249.1893993778242,133.70815922791775L249.21285681516065,138.15150753424805L249.21873979150854,133.00316525232543L249.22020432992423,139.19452665309075L249.22313340675566,137.92983530484443L249.22755184468784,137.61529887516505L249.2378036135978,136.473748248354L249.24363694457566,137.0492775852904L249.2494454528685,134.88375036868928L249.26260147592492,135.66339573118105L249.26406601434064,136.8297465851399L249.27131423836417,134.6983178687952L249.277122746657,137.76410279627063L249.2785624623877,136.99074212497572L249.32108372181344,136.47339947783846L249.3662858312205,137.5162352576571L249.38376100146903,138.8627273620016L249.393938302324,138.55990586958993L249.40118652634752,138.8917008969808L249.42169006416754,137.53653046125083L249.43492055527898,135.66818130607888L249.47778933229492,139.67419440989292L249.4939489002378,140.59762532066893L249.50412620109276,138.50892568254585L249.50559073950848,139.54677975734793L249.5099347093856,137.9490611729211L249.51864747182486,139.11656663636168L249.57405170477185,134.12160407648935L249.578445320019,137.71733514308175L249.58137439685046,135.92160870718953L249.58631411116787,136.77915013093687L249.5880516991187,138.9042412862266L249.5950020509221,137.79207777312345L249.6677325180076,140.93073910992356L249.68801265166246,137.46211016679564L249.7272324939816,137.50979536784448L249.7359949017909,139.31764605603485L249.74185305545373,136.42186330454467L249.78884239818166,138.66954772241638L249.7960906222052,139.761587006225L249.818182811866,136.46710370102616L249.82262607248316,138.78567977669465L249.8270445104153,139.7552545616079L249.85775017177528,138.46915731637787L249.8738104489781,137.41019111340043L249.89270051227234,140.2784815386779L249.89416505068806,138.82706152627438L249.9087856121602,138.2307705371574L249.91317922740734,138.33232415443402L249.91903738107018,138.6575684358582L249.9646118307524,138.9837123576098L249.96751608489885,138.83033519377844L249.97186005477596,139.04099599612297L250.00239195734085,138.43088806650897L250.00534585685728,139.0664605074556L250.01266854893586,138.1807914664587L250.0287536488237,138.3088422627802L250.04089194179465,137.19065158585346L250.04670045008746,138.8927045715451L250.0713245536195,137.65070718351896L250.10066496730383,138.39410258362545L250.11516141535088,137.64930698501894L250.1180656694973,138.53107644761104L250.12675360925155,141.70062742537672L250.13400183327508,137.61100618378308L250.14127487998363,134.98820244802533L250.14566849523078,135.31820842763724L250.16756210341146,137.95530834357353L250.16902664182714,137.20879618005802L250.20839542025638,138.55107916150595L250.22003725952703,139.1206776941989L250.25528547224422,138.21668754189056L250.25980320091642,137.75624565316505L250.2714202175021,138.9639356197213L250.301952120067,139.26528187254402L250.3107641732463,137.24992210774369L250.3269237411892,137.63201768868015L250.3283882796049,141.5711892216499L250.3753031542778,139.68262544678078L250.37676769269353,138.737385719538L250.3855549231878,139.8400087814728L250.48181729566477,134.6628174645594L250.4847463724962,139.52969895585278L250.49502296409122,140.69550746739623L250.49936693396833,141.64382387928467L250.5095194121383,139.63285273907658L250.56911867885236,140.19379511161492L250.5995264679922,138.14505314786146L250.61419667483435,139.14145981213096L250.63762928948577,137.620407638389L250.64055836631724,139.44106306511566L250.64348744314864,136.18686190172198L250.65078531254218,138.82507464289733L250.6971044427748,138.35266455322906L250.72485620461833,139.83784538098885L250.74081719108113,139.09667222040193L250.74225690681183,137.97737980385156L250.74372144522755,137.50936985076072L250.74806541510466,138.73292759666452L250.771249802906,141.11162863934933L250.81051929059512,138.12304564305694L250.81488808315726,140.60295409072174L250.8440299153615,137.29789127109493L250.85279232317077,140.412450774518L250.8542568615865,138.521337308105L250.85572140000218,139.73036010672917" fill="none"></path></g></g></g></g></g></g><g transform="translate(61, 164)" clip-path="url(#clip_1)"><clipPath id="clip_1"><rect width="268" height="35"></rect></clipPath><g><g visibility="inherit"><g><g transform="translate(22.34041651089986,0)" style="visibility: inherit;"><text transform="translate(0,14.093999862670898)" style="text-anchor: middle; font-family: Roboto, sans-serif; font-size: 12px; font-weight: 200;" fill="rgb(33, 33, 33)" stroke="none" stroke-width="1px">07 PM</text></g><g transform="translate(89.36166604359944,0)" style="visibility: inherit;"><text transform="translate(0,14.093999862670898)" style="text-anchor: middle; font-family: Roboto, sans-serif; font-size: 12px; font-weight: 200;" fill="rgb(33, 33, 33)" stroke="none" stroke-width="1px">08 PM</text></g><g transform="translate(178.72333208719888,0)" style="visibility: inherit;"><text transform="translate(0,14.093999862670898)" style="text-anchor: middle; font-family: Roboto, sans-serif; font-size: 12px; font-weight: 200;" fill="rgb(33, 33, 33)" stroke="none" stroke-width="1px">09 PM</text></g><g transform="translate(245.74458161989847,0)" style="visibility: inherit;"><text transform="translate(0,14.093999862670898)" style="text-anchor: middle; font-family: Roboto, sans-serif; font-size: 12px; font-weight: 200;" fill="rgb(33, 33, 33)" stroke="none" stroke-width="1px">10 PM</text></g></g><g><line x1="0" y1="0" x2="0" y2="17.0939998626709" fill="rgb(0, 0, 0)" stroke="rgb(204, 204, 204)" stroke-width="1px"></line><line x1="44.68083302179972" y1="0" x2="44.68083302179972" y2="17.0939998626709" fill="rgb(0, 0, 0)" stroke="rgb(204, 204, 204)" stroke-width="1px"></line><line x1="134.04249906539917" y1="0" x2="134.04249906539917" y2="17.0939998626709" fill="rgb(0, 0, 0)" stroke="rgb(204, 204, 204)" stroke-width="1px"></line><line x1="223.40416510899863" y1="0" x2="223.40416510899863" y2="17.0939998626709" fill="rgb(0, 0, 0)" stroke="rgb(204, 204, 204)" stroke-width="1px"></line><line x1="268.08499813079834" y1="0" x2="268.08499813079834" y2="17.0939998626709" fill="rgb(0, 0, 0)" stroke="rgb(204, 204, 204)" stroke-width="1px"></line></g><line style="visibility: inherit;" x1="0" y1="0" x2="268.08499813079834" y2="0" fill="rgb(0, 0, 0)" stroke="rgb(204, 204, 204)" stroke-width="1px"></line></g><g visibility="inherit"><g><g transform="translate(134.04249906539917,0)" style="visibility: inherit;"><text transform="translate(0,31.187999725341797)" style="text-anchor: middle; font-family: Roboto, sans-serif; font-size: 12px; font-weight: 200;" fill="rgb(33, 33, 33)" stroke="none" stroke-width="1px">November  4, 2021</text></g></g><g><line x1="0" y1="17.0939998626709" x2="0" y2="34.1879997253418" fill="rgb(0, 0, 0)" stroke="rgb(204, 204, 204)" stroke-width="1px"></line><line x1="268.08499813079834" y1="17.0939998626709" x2="268.08499813079834" y2="34.1879997253418" fill="rgb(0, 0, 0)" stroke="rgb(204, 204, 204)" stroke-width="1px"></line></g><line style="visibility: inherit;" x1="0" y1="17.0939998626709" x2="268.08499813079834" y2="17.0939998626709" fill="rgb(0, 0, 0)" stroke="rgb(204, 204, 204)" stroke-width="1px"></line></g></g></g></g></g></svg>