<svg viewBox="0 0 330 200" xmlns="http://www.w3.org/2000/svg"><g><g><g><g><g><line x1="61.91500186920166" y1="176.9060001373291" x2="56.91500186920166" y2="176.9060001373291" style="visibility: inherit;" fill="rgb(0, 0, 0)" stroke="rgb(204, 204, 204)" stroke-width="1px"></line><line x1="61.91500186920166" y1="157.24977789984808" x2="56.91500186920166" y2="157.24977789984808" style="visibility: inherit;" fill="rgb(0, 0, 0)" stroke="rgb(204, 204, 204)" stroke-width="1px"></line><line x1="61.91500186920166" y1="137.5935556623671" x2="56.91500186920166" y2="137.5935556623671" style="visibility: inherit;" fill="rgb(0, 0, 0)" stroke="rgb(204, 204, 204)" stroke-width="1px"></line><line x1="61.91500186920166" y1="117.93733342488608" x2="56.91500186920166" y2="117.93733342488608" style="visibility: inherit;" fill="rgb(0, 0, 0)" stroke="rgb(204, 204, 204)" stroke-width="1px"></line><line x1="61.91500186920166" y1="98.28111118740506" x2="56.91500186920166" y2="98.28111118740506" style="visibility: inherit;" fill="rgb(0, 0, 0)" stroke="rgb(204, 204, 204)" stroke-width="1px"></line><line x1="61.91500186920166" y1="78.62488894992404" x2="56.91500186920166" y2="78.62488894992404" style="visibility: inherit;" fill="rgb(0, 0, 0)" stroke="rgb(204, 204, 204)" stroke-width="1px"></line><line x1="61.91500186920166" y1="58.96866671244302" x2="56.91500186920166" y2="58.96866671244302" style="visibility: inherit;" fill="rgb(0, 0, 0)" stroke="rgb(204, 204, 204)" stroke-width="1px"></line><line x1="61.91500186920166" y1="39.31244447496204" x2="56.91500186920166" y2="39.31244447496204" style="visibility: inherit;" fill="rgb(0, 0, 0)" stroke="rgb(204, 204, 204)" stroke-width="1px"></line><line x1="61.91500186920166" y1="19.656222237481" x2="56.91500186920166" y2="19.656222237481" style="visibility: inherit;" fill="rgb(0, 0, 0)" stroke="rgb(204, 204, 204)" stroke-width="1px"></line><line x1="61.91500186920166" y1="0" x2="56.91500186920166" y2="0" style="visibility: inherit;" fill="rgb(0, 0, 0)" stroke="rgb(204, 204, 204)" stroke-width="1px"></line></g><g transform="translate(51.91500186920166, 0)"><text style="text-anchor: end; visibility: hidden; font-family: Roboto, sans-serif; font-size: 12px; font-weight: 200;" x="0" y="176.9060001373291" dx="0em" dy="0.3em" fill="rgb(33, 33, 33)" stroke="none" stroke-width="1px">-5e-3</text><text style="text-anchor: end; visibility: inherit; font-family: Roboto, sans-serif; font-size: 12px; font-weight: 200;" x="0" y="157.24977789984808" dx="0em" dy="0.3em" fill="rgb(33, 33, 33)" stroke="none" stroke-width="1px">0</text><text style="text-anchor: end; visibility: hidden; font-family: Roboto, sans-serif; font-size: 12px; font-weight: 200;" x="0" y="137.5935556623671" dx="0em" dy="0.3em" fill="rgb(33, 33, 33)" stroke="none" stroke-width="1px">5e-3</text><text style="text-anchor: end; visibility: inherit; font-family: Roboto, sans-serif; font-size: 12px; font-weight: 200;" x="0" y="117.93733342488608" dx="0em" dy="0.3em" fill="rgb(33, 33, 33)" stroke="none" stroke-width="1px">0.01</text><text style="text-anchor: end; visibility: hidden; font-family: Roboto, sans-serif; font-size: 12px; font-weight: 200;" x="0" y="98.28111118740506" dx="0em" dy="0.3em" fill="rgb(33, 33, 33)" stroke="none" stroke-width="1px">0.015</text><text style="text-anchor: end; visibility: inherit; font-family: Roboto, sans-serif; font-size: 12px; font-weight: 200;" x="0" y="78.62488894992404" dx="0em" dy="0.3em" fill="rgb(33, 33, 33)" stroke="none" stroke-width="1px">0.02</text><text style="text-anchor: end; visibility: hidden; font-family: Roboto, sans-serif; font-size: 12px; font-weight: 200;" x="0" y="58.96866671244302" dx="0em" dy="0.3em" fill="rgb(33, 33, 33)" stroke="none" stroke-width="1px">0.025</text><text style="text-anchor: end; visibility: inherit; font-family: Roboto, sans-serif; font-size: 12px; font-weight: 200;" x="0" y="39.31244447496204" dx="0em" dy="0.3em" fill="rgb(33, 33, 33)" stroke="none" stroke-width="1px">0.03</text><text style="text-anchor: end; visibility: hidden; font-family: Roboto, sans-serif; font-size: 12px; font-weight: 200;" x="0" y="19.656222237481" dx="0em" dy="0.3em" fill="rgb(33, 33, 33)" stroke="none" stroke-width="1px">0.035</text><text style="text-anchor: end; visibility: hidden; font-family: Roboto, sans-serif; font-size: 12px; font-weight: 200;" x="0" y="0" dx="0em" dy="0.3em" fill="rgb(33, 33, 33)" stroke="none" stroke-width="1px">0.04</text></g><line x1="61.91500186920166" y1="0" x2="61.91500186920166" y2="176.9060001373291" fill="rgb(0, 0, 0)" stroke="rgb(204, 204, 204)" stroke-width="1px"></line></g></g><g transform="translate(61, 0)" clip-path="url(#clip_0)"><clipPath id="clip_0"><rect width="268" height="176"></rect></clipPath><g><g><g><line x1="0" y1="0" x2="0" y2="176.9060001373291" fill="rgb(0, 0, 0)" stroke="rgb(66, 66, 66)" stroke-width="1px" opacity="0.25"></line><line x1="17.87233320871989" y1="0" x2="17.87233320871989" y2="176.9060001373291" fill="rgb(0, 0, 0)" stroke="rgb(66, 66, 66)" stroke-width="1px" opacity="0.25"></line><line x1="35.74466641743978" y1="0" x2="35.74466641743978" y2="176.9060001373291" fill="rgb(0, 0, 0)" stroke="rgb(66, 66, 66)" stroke-width="1px" opacity="0.25"></line><line x1="53.616999626159675" y1="0" x2="53.616999626159675" y2="176.9060001373291" fill="rgb(0, 0, 0)" stroke="rgb(66, 66, 66)" stroke-width="1px" opacity="0.25"></line><line x1="71.48933283487956" y1="0" x2="71.48933283487956" y2="176.9060001373291" fill="rgb(0, 0, 0)" stroke="rgb(66, 66, 66)" stroke-width="1px" opacity="0.25"></line><line x1="89.36166604359944" y1="0" x2="89.36166604359944" y2="176.9060001373291" fill="rgb(0, 0, 0)" stroke="rgb(66, 66, 66)" stroke-width="1px" opacity="0.25"></line><line x1="107.23399925231932" y1="0" x2="107.23399925231932" y2="176.9060001373291" fill="rgb(0, 0, 0)" stroke="rgb(66, 66, 66)" stroke-width="1px" opacity="0.25"></line><line x1="125.10633246103922" y1="0" x2="125.10633246103922" y2="176.9060001373291" fill="rgb(0, 0, 0)" stroke="rgb(66, 66, 66)" stroke-width="1px" opacity="0.25"></line><line x1="142.97866566975912" y1="0" x2="142.97866566975912" y2="176.9060001373291" fill="rgb(0, 0, 0)" stroke="rgb(66, 66, 66)" stroke-width="1px" opacity="0.25"></line><line x1="160.850998878479" y1="0" x2="160.850998878479" y2="176.9060001373291" fill="rgb(0, 0, 0)" stroke="rgb(66, 66, 66)" stroke-width="1px" opacity="0.25"></line><line x1="178.72333208719888" y1="0" x2="178.72333208719888" y2="176.9060001373291" fill="rgb(0, 0, 0)" stroke="rgb(66, 66, 66)" stroke-width="1px" opacity="0.25"></line><line x1="196.5956652959188" y1="0" x2="196.5956652959188" y2="176.9060001373291" fill="rgb(0, 0, 0)" stroke="rgb(66, 66, 66)" stroke-width="1px" opacity="0.25"></line><line x1="214.4679985046387" y1="0" x2="214.4679985046387" y2="176.9060001373291" fill="rgb(0, 0, 0)" stroke="rgb(66, 66, 66)" stroke-width="1px" opacity="0.25"></line><line x1="232.34033171335858" y1="0" x2="232.34033171335858" y2="176.9060001373291" fill="rgb(0, 0, 0)" stroke="rgb(66, 66, 66)" stroke-width="1px" opacity="0.25"></line><line x1="250.2126649220785" y1="0" x2="250.2126649220785" y2="176.9060001373291" fill="rgb(0, 0, 0)" stroke="rgb(66, 66, 66)" stroke-width="1px" opacity="0.25"></line><line x1="268.08499813079834" y1="0" x2="268.08499813079834" y2="176.9060001373291" fill="rgb(0, 0, 0)" stroke="rgb(66, 66, 66)" stroke-width="1px" opacity="0.25"></line></g><g><line x1="0" y1="176.9060001373291" x2="268.08499813079834" y2="176.9060001373291" fill="rgb(0, 0, 0)" stroke="rgb(66, 66, 66)" stroke-width="1px" opacity="0.25"></line><line x1="0" y1="157.24977789984808" x2="268.08499813079834" y2="157.24977789984808" fill="rgb(0, 0, 0)" stroke="rgb(66, 66, 66)" stroke-width="1px" opacity="0.25"></line><line x1="0" y1="137.5935556623671" x2="268.08499813079834" y2="137.5935556623671" fill="rgb(0, 0, 0)" stroke="rgb(66, 66, 66)" stroke-width="1px" opacity="0.25"></line><line x1="0" y1="117.93733342488608" x2="268.08499813079834" y2="117.93733342488608" fill="rgb(0, 0, 0)" stroke="rgb(66, 66, 66)" stroke-width="1px" opacity="0.25"></line><line x1="0" y1="98.28111118740506" x2="268.08499813079834" y2="98.28111118740506" fill="rgb(0, 0, 0)" stroke="rgb(66, 66, 66)" stroke-width="1px" opacity="0.25"></line><line x1="0" y1="78.62488894992404" x2="268.08499813079834" y2="78.62488894992404" fill="rgb(0, 0, 0)" stroke="rgb(66, 66, 66)" stroke-width="1px" opacity="0.25"></line><line x1="0" y1="58.96866671244302" x2="268.08499813079834" y2="58.96866671244302" fill="rgb(0, 0, 0)" stroke="rgb(66, 66, 66)" stroke-width="1px" opacity="0.25"></line><line x1="0" y1="39.31244447496204" x2="268.08499813079834" y2="39.31244447496204" fill="rgb(0, 0, 0)" stroke="rgb(66, 66, 66)" stroke-width="1px" opacity="0.25"></line><line x1="0" y1="19.656222237481" x2="268.08499813079834" y2="19.656222237481" fill="rgb(0, 0, 0)" stroke="rgb(66, 66, 66)" stroke-width="1px" opacity="0.25"></line><line x1="0" y1="0" x2="268.08499813079834" y2="0" fill="rgb(0, 0, 0)" stroke="rgb(66, 66, 66)" stroke-width="1px" opacity="0.25"></line></g></g></g><g><g><line x1="0" y1="157.24977789984808" x2="268.08499813079834" y2="157.24977789984808" fill="rgb(0, 0, 0)" stroke="rgb(153, 153, 153)" stroke-width="1.5px"></line></g></g><g><g><line x1="17.87233320871989" y1="0" x2="17.87233320871989" y2="176.9060001373291" fill="rgb(0, 0, 0)" stroke="rgb(153, 153, 153)" stroke-width="1.5px"></line></g></g><g><g><g><g><g><path style="fill: none;" stroke="rgb(255, 112, 67)" stroke-width="2px" d="M17.87233320871989,139.49161564713785L17.882237460039722,137.02869512971247L17.908599151522584,140.77541345363187L17.911875745944183,142.96088962434186L17.916740992206556,143.78444973278144L17.93488637495041,145.0945232603612L17.959411187742376,144.703454469056L17.96427643400475,145.3325910125195L18.018662936866285,148.6949851612001L18.03224094556791,149.91230185533118L18.03906718394624,150.41718473554178L18.07282603556271,151.14547380435295L18.121701902351557,151.98698586691867L18.126765730094025,151.98111082482436L18.141882745266404,152.77518483762773L18.16054940439551,152.58915666020985L18.168964294614618,152.3339225079555L18.17231535709125,152.16236165199817L18.26872666567829,152.23510274126988L18.27716637858241,153.33649695120204L18.302510339979772,153.86745582430723L18.312712463519752,153.44476734694152L18.32130111253394,153.4918476756632L18.33316635596973,153.99864657841962L18.343318834139684,153.8837116756853L18.39715923793095,154.7512762385534L18.424340078019213,155.4715834058156L18.427765608550885,155.70484982287525L18.441293971882484,155.74762414092604L18.461524460167357,155.90573109659113L18.47671594339477,155.5560724934076L18.49016983867133,155.8612267040941L18.51735067875959,155.9231636483941L18.524077626397876,155.79775324229792L18.637070488573006,156.05786191939004L18.63875843115383,156.39068624810443L18.667403809657802,156.2727230131957L18.672442814715264,156.5369444786212L18.677531465142742,156.5349758492667L18.70267684506001,156.58239558901548L18.707715850117474,156.45336698815694L18.709378970013283,156.30475202303447L18.747878954467065,156.28240143646332L18.779701636652593,156.5120702576992L18.81494984936979,156.76993699205107L18.843471114448707,156.80065305132578L18.852233522257983,156.81635970730846L18.92228313936216,156.88871824367016L18.939063274430346,156.9617460616148L18.94911646186025,156.9942022961727L18.960907237241006,157.02960296693135L18.962595179821825,157.04118533461605L18.987765382424108,156.59871436828547L19.018024235453872,156.76099146570058L19.021375297930508,156.80615887845497L19.041680254270414,156.89503340496395L19.05344620696615,156.97006875526495L19.05513414954698,156.83315921960656L19.058510034708625,156.92227668067287L19.06352421708107,156.9408834067348L19.066875279557706,156.97646754974366L19.108924907968223,157.00100729333272L19.1256802203514,157.01092438425792L19.154350421540386,156.9967206048657L19.19791423373664,156.86618588219918L19.20464118137492,156.94874840813532L19.211368129013202,156.9747486540093L19.224747556234732,157.04808327285477L19.239889394092117,157.04341668077996L19.283428383603365,157.08026560132302L19.290155331241646,157.10254479019406L19.305247523729008,157.08640197955816L19.311974471367293,157.08217157710146L19.315325533843925,157.1021667545161L19.31867659632056,157.1317051849463L19.330417726331287,157.14451203642332L19.33880779386538,157.1164108555599L19.342158856342017,157.1010311940257L19.35054892387611,157.08922758860223L19.35394963172277,157.0790033005237L19.360726224731078,157.06559348453243L19.367428349684346,156.32399609113997L19.377655295909335,156.65553430128205L19.37936806117517,156.8141355298725L19.418165917849098,156.941727904846L19.42489286548738,156.98251462814994L19.5011729765296,157.05104221218295L19.512616234320184,157.0851788570186L19.522470840269992,157.09070946432482L19.545332533166142,157.05334830343875L19.55188572200934,157.09511261021999L19.563428270539973,157.07683834198644L19.566729687646585,156.88206011953497L19.576633938966417,156.9992745147973L19.57993535607303,157.01842699536908L19.624094912709573,157.04559311882525L19.625733209920373,157.06415441981127L19.642141004713377,157.10487171465687L19.647031073660763,157.1132656585009L19.661726103187934,157.12325031048988L19.668304114716143,157.1152923886994L19.674882126244352,157.1003345766439L19.689750914566606,157.08577688483405L19.69141403446242,157.07645856817797L19.70129346309724,156.84532490361144L19.702931760308037,156.95396530087334L19.71122253710208,157.0134717252675L19.740860823006543,156.9604244063208L19.74582536000897,157.02301202792052L19.760669325646205,157.05552367396183L19.831116105710578,157.01705652669023L19.85251326019102,157.07451002158416L19.86239268882584,157.10168896096175L19.86733240314325,157.11413568099675L19.870658642934874,157.01847053674268L19.877261477148092,157.07926006870113L19.887165728467924,157.055690696841L19.895406859891946,157.08490354174353L19.911839477369963,157.04860681073632L19.92166926063476,157.09978054183858L19.929835924003747,157.08618460415497L19.94626854148176,157.03345385558492L20.036250774650664,157.08106752102614L20.04282878617887,157.0873514213171L20.044491906074686,157.08363269523548L20.046130203285482,156.62763040702976L20.07574366650493,156.72337807453374L20.097140820985373,156.87795841944057L20.11861244352085,156.89235370786596L20.182580502797055,156.97433438793257L20.202413828121735,157.05754407708187L20.220608856235614,157.00798681560514L20.22554857055302,156.98654832865486L20.23046346218542,156.94337387532588L20.26327905177143,157.00454402476575L20.27320812577627,157.07369044365208L20.28470102893688,157.07565679660485L20.2945804575717,157.10994381670554L51.72436918472626,145.53772763436018L51.729308899043666,141.43833398574984L51.74745428178752,140.76328291471464L52.81666661599919,80.5108611053403L52.821631153001604,49.073923331517214L52.823269450212415,33.082162488203885L52.90160984411063,79.05903827616311L52.906475090373,105.3134705927478L52.911340336635384,121.41005635497628L52.91297863384617,132.29781222191764L52.94884741368869,139.14555129695495L52.98901051803828,143.8524711801035L52.992262289774864,146.9236310747172L53.00539349014627,149.19609465916943L53.011996324359494,149.82085184613157L53.05275517314938,150.29709166516193L53.054393470360175,151.43461832394823L53.072166512828844,151.29958558343944L53.08512395440518,151.91942694568277L53.09165232056335,151.7978296909575L53.094904092299934,152.2491162504546L53.1675849140154,152.74469035439589L53.174113280173586,153.55996287137648L53.2149217743335,153.46039392434216L53.240960770911194,153.6957608299346L53.242574245436984,153.589750587221L53.26709905822894,154.11067670512892L53.27357777901711,154.05222698291504L53.29991464781496,154.6044475293266L53.30152812234075,154.4370174745381L53.3579749080583,155.09867240326093L53.366116748742265,155.1849275937194L53.37425858942623,155.44959848275417L53.37912383568862,155.26266831713858L53.38729049905759,155.455787998193L53.392205390689995,155.61424489035224L53.411740843794526,155.70961247537232L53.42484722148092,155.2430028429049L53.43631530195651,155.3508315151079L53.447783382432114,156.02978369885793L53.4625032346443,155.62948508187685L53.4690812461725,155.84483800583496L53.47230819522407,155.8943534922835L53.47558478964568,155.80925131168243L53.48049968127806,156.11785062626896L53.51257059031373,156.27006558651178L53.527290442525896,155.81026275408962L53.54357412389385,156.1717092576276L53.550102490052026,156.1538482948644L53.55335426178863,156.2319235993876L53.558244330736,156.43055967949593L53.56641099410498,156.55006974228695L53.57127624036737,156.097443867017L53.57291453757816,156.28854862781773L53.605481900314054,156.0516032920405L53.620127284471195,156.4348782796131L53.629907422365974,156.60595053939562L53.641276212101516,156.73731806732005L53.6428896866273,156.4633201519734L53.67828683545457,156.61622950063494L53.68985420667021,156.7576788434094L53.72413433467194,156.87588065020847L53.73066270083012,156.7994820951523L53.74714496367817,156.70682548872932L53.75369815252136,156.83920016927394L53.76943573481905,156.68979046140785L53.79060948513437,156.79296170027197L53.79552437676677,156.7748838333156L53.80527969197653,156.87774965941338L53.808531463713116,156.92286472665776L53.885854127525846,156.95890126015755L53.89563426542061,156.97935809972682L53.92346049531919,156.8597568835166L53.939793822057155,156.92613571805575L53.94465906831953,156.88737617456096L53.947910840056124,156.8271685744965L53.977077494945355,156.90427513407693L54.00001365589654,156.9507401986737L54.003265427633124,156.76926034720265L54.05310937913744,156.9106133708009L54.05963774529563,156.9618151688112L54.07279376835205,157.02342208283534L54.10049588482556,157.005904386057L54.11025120003532,156.84351699124312L54.14944621966945,156.89885181737975L54.17061996998477,156.95067927643444L54.17546039356213,157.03399631053017L54.19762705127796,156.87505634817487L54.200854000329535,156.9863059162802L54.2040809493811,156.86412030653938L54.210609315539294,156.93573861442937L54.217088036327446,156.99619890755642L54.22843200337799,156.9422480515528L54.25268376663481,157.00806495423825L54.308112822266864,157.0835828199998L54.314690833795076,157.11264835183368L54.326158914270664,157.1403487575883L54.34090358916786,157.0754781481206L54.38099222546242,157.10357998899022L54.397350374885406,157.12682727769612L54.40060214662199,157.09734326392154L54.403878741043584,157.10408556576053L54.41204540441258,157.13534533679066L54.41696029604496,157.10997021316828L54.43004185104635,156.94485608139345L54.43657021720453,157.03419363532618L54.469162402625436,157.10326221270967L54.4772794206244,157.0455958189872L54.47889289515019,157.06769115487398L54.482194312256794,157.11126438852753L54.487084381204184,157.14788653075664L54.49358792467735,157.1440697494155L54.49522622188816,157.13811773170423L54.506619834308715,157.1355551229291L54.51150990325609,157.10052718451948L54.51965174394008,156.67728249497782L54.571481510245356,156.87541278474868L54.588013418463426,156.90826054497194L54.59789284709825,157.01741886809825L54.60769780767803,157.08194541667143L54.6142013511512,157.06637346999804L54.63373680425574,156.91310031723938L54.63535027878152,156.99697701986574L54.676009836831355,157.03489257685672L54.69068004367351,157.05318582984566L54.76874738803661,157.02378448738912L54.7703856852474,157.08505687568191L54.77368710235402,157.097737443073L54.79662326330521,157.1300194214644L54.845424662039015,157.07750147503393L54.85848139435539,157.10387503544968L54.890701239501105,157.10653602424563L54.89395301123769,157.0597286815607L54.89717996028927,157.04592433266498L54.90529697828823,157.07406276656002L54.945956536338066,157.10108796275352L54.947570010863856,157.1306899850543L54.96382886954679,157.13946402030615L54.967080641283374,157.13590027628365L54.97517283659733,157.13459930779112L54.99800970680845,157.14475877338245L55.00778984470323,157.14186954859227L55.022435228860374,157.15680497178178L55.06733946604729,157.15480755236516L55.073818186835446,157.16639692645157L55.07706995857203,157.00101106194506L55.0983181769424,156.98532275078958L55.11795292078698,157.04638329779107L55.13753801926154,157.09867635527152L55.15389616868452,157.13256183821L55.16367630657929,157.14902225860595L55.19150253647787,157.07414099030333L55.201307497057655,157.11927396690297L55.202945794268445,157.10567084665118L99.63138175486503,120.61038414321989L99.64126118349986,119.58044656275567L99.64950231492388,124.28666593399942L99.68750584567742,131.23983159956884L99.69907321689305,137.20766674506376L99.7073639936871,140.45133194519298L99.72876114816754,143.48033345547867L99.74030369669818,144.69624517076946L99.76502709097024,145.66367027189781L99.80593487587018,147.16370413945054L99.81089941287263,149.26372349410366L99.83391004187884,150.09873990732027L99.83554833908964,150.96608924267005L99.83882493351123,150.1821336738257L99.89157313916198,150.05943180427542L99.89321143637277,151.05701238089858L99.89487455626858,151.298513508958L99.92446319680303,151.64249904625402L99.97023622796534,152.14183337523215L99.97850218207438,153.25283811281088L100.0492716570439,154.00102446381635L100.06414044536618,153.53261792743064L100.0791581697985,153.80276640796544L100.0890127757483,153.64896382421983L100.09559078727652,154.20993403748747L100.14446665406535,154.82701625385556L100.14774324848696,155.2457135748543L100.14938154569776,155.30575803011118L100.22658009608541,155.04887295464388L100.23976094182684,155.5540287282433L100.27773964989538,155.45962776739773L100.313831833903,155.77863084689977L100.32050913617125,156.01820764756047L100.32711197038448,156.2675097723173L100.32877509028027,156.47636235387526L100.34689565033912,156.33939826881675L100.35181054197153,156.43934713306038L100.36496656502794,155.89788888425275L100.36988145666035,155.96992802790353L100.41011902906497,156.2289603315585L100.41667221790817,156.32300160552802L100.41994881232978,156.4244978586272L100.46599489302723,156.57986032388925L100.52499841530103,156.55547229973263L100.54969698688807,156.70107425887093L100.56280336457448,156.3478518279816L100.57101967331349,156.5441729647425L100.57921115936747,156.42996124887944L100.58578917089568,156.38784320718355L100.58906576531729,156.66000663519864L100.61540263411513,156.77513135801019L100.66713310968038,156.85073192410826L100.66877140689115,156.9361033980227L100.68026431005178,157.01287194586345L100.68522884705419,156.96762689871707L100.72472173890847,156.9422458890401L100.72966145322587,156.95370569359065L100.74115435638647,156.94703883949802L100.74609407070389,156.69150764579038L100.7477323679147,156.81751754168485L100.75103378502129,156.91790608533083L100.75267208223211,156.94395667207397L100.79390256203723,156.87355407048378L100.80869688230445,156.94865790343783L100.86946281521409,157.0386514943997L100.88276777438057,157.02398466392748L100.90572875801678,157.05647191101264L100.90736705522758,157.06114423011306L100.93521810781117,157.1003328073729L100.98310106719953,157.06025479317213L100.98640248430613,157.09698986294222L101.02395920672947,156.611168794721L101.05198401810814,156.8032143274161L101.06022514953216,156.87024711207107L101.09641662427981,156.98210573461148L101.10135633859723,157.05296350480225L101.10964711539127,157.1031324388004L101.12784214350515,157.12795423557353L101.13111873792676,157.12554305602737L101.14266128645738,157.14992787585004L101.15259036046223,157.14734933954247L101.16413290899285,157.14535448610846L101.19508679720296,157.14339947080327L101.20000168883534,157.0882714541044L101.22787756410396,157.00339310194968L101.24758677600357,157.00233733816984L101.25252649032099,157.0579677903072L101.2640442161666,157.05672000094094L101.29035626227946,157.09673026181636L101.29363285670104,157.11011359952536L101.30366122144592,157.13087820522819L101.31038816908422,157.10232989820253L101.33878532073807,156.90820045074506L101.38964700232789,156.71880100626535L101.42702996595614,156.90253239302672L101.45942356989691,157.00364094330433L101.46274980968855,157.05978374926224L101.46627463096027,157.05896501744212L101.47121434527769,157.10676353172957L101.4763774637602,157.06287913256676L101.50554411864942,157.07288707221502L101.52373914676332,157.08132952359787L101.56789870339983,157.10178549027756L101.61692350629878,157.10566071662592L101.62020010072037,157.07229255262024L101.65951923377956,157.07934854107165L101.66612206799277,157.080203795333L101.66942348509939,157.05234392467668L101.6793029137342,157.0528588202322L101.68424262805162,157.08738770761647L101.68751922247321,157.01254644325493L101.72338800231572,157.02353980689537L101.73493055084636,157.07107435279704L101.75625323727175,157.10630669589602L101.76938443764315,157.13315916675555L101.79060783332851,157.11757739539695L101.79398371849017,157.14312198246924L101.79894825549258,157.14985623433554L101.81878158081724,157.02613867165837L101.82540923771548,157.0742651591044L101.8336255464545,157.10997781060027L101.83690214087609,157.12513093426907L101.85335958103913,157.12003015567774L101.85991276988231,157.09547287723933L101.92857231662582,157.13228980541624L101.93678862536483,157.09118461793926L101.94830635121045,157.1192167918129L102.0205403645957,157.14469756257688L102.03362191959708,157.12661457980565L102.04509000007268,157.07682309752803L113.94151072823692,100.44460871603255L113.96529086047852,66.54757927974696L113.97829794742488,46.17105608587453L113.99132985705623,34.122634036370194L114.03926246181462,26.877764177722344L114.0632163528513,22.400003593092272L114.07411351157161,19.72510426983017L114.0937234327312,18.04937061631621L114.09588300632723,17.219694177864373L114.12174824410985,16.67969892158454L114.16806737434246,16.25605114745097L114.17467020855567,16.023343808282732L114.19656381673636,16.037779228719092L114.2997517183317,15.917324066691329L114.31074816779208,15.807477688713664L114.31293256407314,15.81884873935131L114.33497510836389,15.773435488139613L114.51603177284223,15.811580511085031L114.53981190508382,15.82935348149331L114.54194665599486,15.778303120798281L114.54631544855701,15.840434504139678L114.5506345957491,15.867532111512379L114.55711331653728,15.95113436717835L114.55929771281833,15.985274061257474L114.63595016413574,15.91851452404521L114.64684732285606,15.88221378658967L114.65337568901424,15.917619244769423L114.67070192315268,15.8031792753701L114.69458134613434,15.71694711957985L114.71411679923887,15.734162470296182L114.72066998808207,15.922329170177596L114.72282956167813,15.87428620357263L114.75557068320911,15.839532116760557L114.79042173296611,15.863727767113607L114.80342881991244,15.87970380199484L114.81211675966668,15.961723725482019L114.85421603344723,15.972501271237416L114.85860964869437,15.984819951400384L114.87821956985395,15.876339707447553L114.8869571549782,15.865203839811254L114.90003870997958,15.845658127687333L114.9109606913849,15.883190712561309L114.96815215765281,15.855589123761451L114.98786136955243,15.734843449818234L115.02070178182346,15.791623761945559L115.03599255579091,15.833207776976309L115.07151381804324,15.799554646747342L115.08017693511246,15.782736982784918L115.08233650870854,15.855414217876794L115.12376556999375,15.877615387759375L115.13031875883694,15.732043406907252L115.14347478189335,15.779352452816404L115.20880808884523,15.89569005331884L115.22198893458666,15.867306495934729L115.2548789922277,15.919336449887712L115.25922296210481,16.007441564365852L115.31904563298403,16.059654393862747L115.32125485195009,15.910526071317223L115.36270873592032,15.94369824824411L115.36486830951635,15.964163923429403L115.37142149835957,15.910107215142158L115.39098177414913,15.858353470813753L115.41493566518578,15.908370234577072L115.46944628147239,15.859097975744442L115.47597464763058,15.835691389712053L115.5223186005482,15.85690680461905L115.52879732133634,15.904087014610223L115.53311646852846,15.871190644597613L115.53741079303556,15.908287242599911L115.56354908035331,15.915519403903328L115.60046041296631,15.940309016110483L115.64596039459353,15.952693128878568L115.66122634587596,15.888515273492601L115.67860222538442,15.807795735009389L115.68729016513869,15.872072138181029L115.7025064710511,15.898260003431682L115.70469086733216,15.87867234998064L115.70685044092822,15.882800824973168L115.7512582244149,15.916389804905014L115.80805252772261,15.849387709365184L115.81894968644292,15.87006875745899L115.85409860842006,15.932194323299786L115.87817661288183,15.853592352742927L115.88686455263607,15.858315571359865L115.88904894891712,15.793501194730231L115.90652411916564,15.750090184476239L115.91332553485897,15.720042557001745L115.92040000008741,15.760482785517963L115.92735035189082,15.781202826141806L115.97163402195241,15.866209745331835L115.98029713902164,15.847304396907926L115.99551344493406,15.810103928533495L115.99769784121514,15.843979544350173L116.0107297508465,15.860239454400183L116.02373683779282,15.944397994590695L116.02808080766997,15.962609621624562L116.03478293262322,15.896925533642776L116.11570488576271,15.889734139816197L116.14328288881116,15.853967643962129L116.20903818140825,15.919551927744925L116.21340697397036,15.768054366752876L116.25471192183053,15.799564822172298L116.25905589170766,15.830737769872576L116.30453105064984,15.856465293346586L116.36013386507695,15.90526903649471L116.36715868493539,15.921353184230394L116.39716931111502,15.904789074897772L116.4379033372199,15.756455106027412L116.45748843569446,15.799131089679614L116.46399197916763,15.855215909649461L116.46836077172978,15.91559104653808L116.47052034532581,16.041566710919376L116.57018342564943,15.997373364346986L116.5840096612012,15.90191442823452L116.59093519031957,15.890179241907846L116.60709475826245,15.854047248874071L116.63715502981212,15.934719216361614L116.64174722653937,15.959461891554195L116.66652026618145,16.001640974691384L116.6817862174639,16.013457425884514L116.72100605978304,15.847571956046748L116.77318334367848,15.889898261750671L116.78472589220912,15.886665946782166L116.83136771734688,15.87067319008269L116.83598473675913,15.858956936182194L116.84988544036592,15.888703775144922L116.93055916665527,15.821792321408267L116.94145632537558,15.871806092164789L116.9697790089744,15.960810380584448L116.97898822511391,15.973921555900944L117.02056622250919,15.99373274494986L117.03918323626827,16.017241751648577L117.09232860487919,15.961056885033063L117.1015626437037,15.829288723614024L143.98239576090882,15.621076264408737L143.98467944792992,15.565935270598338L144.03988509939686,15.646027441431311L144.08886025692576,15.633575351199488L144.1166120187693,15.665247324694489L144.150817678716,15.775770210277186L144.1741261799424,15.929854516251398L144.23111906473017,15.946004510202004L144.26135309507495,15.851849550530815L144.26358713672602,15.842232376513191L144.3069771901272,15.835507216355179L144.35845943884232,15.879320351825061L144.3627785860344,15.885661706603845L146.28904376565924,15.82789296878839L146.3322352375803,15.804338514425122L146.3345189246014,15.882036017861012L146.33901183058862,15.749563416176793L146.35045508837922,15.804509485179269L146.4345046998302,15.696996171493483L146.45051533166304,15.794807802335136L146.45952596632242,15.735391426705041L146.47312879770905,15.790306447065221L146.50974225810194,15.785266259759132L146.52108622515246,15.86461749412656L146.5278876408458,15.950363884537188L146.532405369518,15.83932807543026L187.36537469685032,60.36299816995532L187.37714064954608,89.5613065144605L187.4022115614083,108.63176515743889L187.4096087215419,120.9506872540341L187.41253779837334,128.53639832392582L187.4300874366769,133.53877243436756L187.43301651350833,136.95096354135634L187.44185338937268,138.33462636778316L187.4593782049912,139.13328306941764L187.46699876928992,140.16486480154578L187.48161933076207,141.2996925985319L187.4962895376042,140.90197829318592L187.55847036355956,143.4984361472049L187.56137461770595,143.0069308425222L187.56743135284893,143.42539936346887L187.58862992584926,143.74507448644238L187.64616890970734,144.30264056908766L187.65036394347436,144.97634476048808L187.6961617973217,145.26931999049017L187.72158022677414,144.87470000699622L187.74702347891153,146.79903494345982L187.75124333536363,147.4081394115518L187.75829297790705,146.42530916446273L187.76529297508046,147.04638714249086L187.79066175916282,146.20946235648057L187.79207665220852,146.03642334154807L187.83643479032517,147.03977018289112L187.84065464677724,147.73541090042437L187.85058372078208,149.0464171092549L187.8887113649607,148.28104395854447L187.89151632836703,148.53715127646058L187.90139575700186,149.0268716190221L187.92681418645427,149.41587379897487L187.92964397254565,149.38293607297012L187.93952340118048,148.5712641161332L187.95223261590667,147.98238574209424L187.9875304739939,148.88127514404027L187.9889453670396,148.8160899044078L188.0031687655515,148.5088404020465L188.0088283377343,149.0461022456529L188.01024323078,146.66870632581958L188.0371013759631,146.52376829750358L188.0441261958215,147.41510022721783L188.04693115922785,148.3901977223146L188.05256590872563,148.22560402459627L188.06527512345184,149.08811276631624L188.0906439075342,149.5484914230537L188.13929637015795,149.7374318775445L188.14642048075643,149.59039878669864L188.1591296954826,149.48712787202194L188.16759423107172,149.56356192486368L188.16900912411742,150.35152650453188L188.17469351898524,150.1090018695414L188.1789630208073,148.70406530899157L188.2101403131825,149.65039247340124L188.23573250142996,148.93070602276345L188.24139207361273,148.23822292683926L188.24854100689623,148.92726739782597L188.25847008090108,148.9770849751824L188.29364382556324,149.43625530682502L188.29647361165462,149.20802826233555L188.31064736479652,148.73188246037122L188.31916154575572,149.0605886354391L188.3220161545321,150.24396926982186L188.3305303354912,150.64525211074408L188.33336012158261,151.0074774160673L188.33621473035902,150.32144016210648L188.3531686242223,149.2311665355138L188.35599841031367,149.39788375425022L188.35882819640506,149.615127754249L188.39122180034587,149.7205953657813L188.40388136970205,149.13955443193476L188.4081012261541,149.0670852840052L188.45111893928006,149.94755926838272L188.465292692422,149.31575726561746L188.46668276278268,149.85470323024444L188.46948772618902,149.13553601837924L188.47792743909318,149.67578063279L188.48634232931227,149.018573125571L188.49614728989204,149.07131296088997L188.50317210975047,148.70521257918918L188.51300189301529,148.17868155695464L188.52141678323434,148.2583785718605L188.5397111020883,149.71707962429102L188.5968529229862,150.63980579368686L188.62974298062724,150.27829482274714L188.63537773012496,150.26697677398326L188.63679262317066,150.0500682533239L188.64667205180547,149.352632650508L188.6706259428422,149.4753647076048L188.68614012097473,149.17297676921413L188.7016294764223,149.58924471168976L188.7114592596871,150.05087160171334L188.74022875161614,150.4977695881931L188.77408689397265,149.9182318951651L188.8516826073205,150.92223280482074L188.85729253413325,150.34925608473924L188.89584216395707,149.77470470412808L188.91123222866457,149.83471720002467L188.91681733279225,148.3264075366966L188.92801236373273,149.1128267754315L188.92940243409342,149.49323586970317L188.93498753822112,148.75834454842712L188.94762228489233,148.98435086644747L188.94901235525296,149.5943358162137L188.96303717228483,149.9172056030345L188.9644272426455,149.9910163754961L188.96584213569122,149.8951993594516L188.97703716663167,149.50445534082854L189.0051612687504,149.0263057982907L189.05942365818686,149.21645365652088L189.06791301646098,149.4242533350798L189.06932790950668,149.77052685968036L189.07357258864377,149.80593017582422L189.08772151910065,150.5951813521937L189.1004555565119,150.13164933204408L189.10470023564898,150.369622511992L189.11879952073582,150.23857865152956L189.12602292207436,149.76854825058786L189.19689168778393,149.13538144277817L189.2095016117701,148.32612505259863L189.21233139786148,148.40904356257403L189.21801579272923,148.70963798274022L189.2265299736884,149.63099454778228L189.23074983014044,150.66046456761225L189.24070372683033,150.76111525819175L189.25202287119583,150.9545149180156L189.2562675503329,151.25114144101775L189.26768598543845,149.45347632910853L189.27332073493622,150.66969419853157L189.27895548443396,150.37088528328084L189.3114235564298,150.67727625306765L189.31705830592753,151.030599194612L189.34724269090228,151.3015498100576L189.35292708577006,151.79545860187855L189.36849090927268,150.46954094077287L189.385519271191,150.51023583641856L189.40818238260704,151.14316187522087L189.44355470874925,150.78679987136977L189.46480292711965,149.92477657493416L219.11276967873485,141.47355488943737L219.12448598606056,138.18601278971883L219.13617747070126,137.51760080548098L219.1448654104555,137.71142654883585L219.14632994887126,137.71917012719337L219.17197178248875,139.55799238209292L219.18512780554516,140.0167434604877L219.20548240725512,139.42109244073046L219.20987602250224,140.6185108700053L219.264709333694,142.52758100508834L219.28985471361128,144.2069836923131L219.3074043519148,144.30496008253957L219.31177314447697,144.3816732601084L219.32048590691622,144.13587630784545L219.34677313034402,143.78940261069081L219.34967738449043,144.44770436056214L219.3758156718082,144.24941098126274L219.38162418010106,144.97390319014764L219.38601779534815,144.07639790910906L219.43295749270607,145.3758309590022L219.43876600099892,145.09685562195716L219.44899294722393,145.7527526835033L219.46800712394318,147.16954480103738L219.4768688224925,147.76353383778206L219.49752129642258,145.96407679951346L219.51514540278117,146.233468395786L219.52554610780123,146.43220762732722L219.53718794707197,147.18516454185448L219.5489787224527,147.0761308212641L219.5504184381834,146.17200784416636L219.6034893387393,146.94020208137155L219.60934749240215,146.8859281822451L219.62985103022214,148.26204132828275L219.64722690973062,148.7782233700931L219.64864180277632,148.4843114545221L219.65854605409615,148.2375843337556L219.6785531382159,148.2549460649824L219.68704249649005,147.20204042978418L219.69694674780987,147.12178006328207L219.6998261792713,146.3703019231411L219.7326665915423,147.01594970477046L219.73549637763367,147.47259470549065L219.73691127067937,147.86865642520067L219.7641914015077,145.20633431070476L219.7685105486998,147.32835350984516L219.7814431675911,147.97558825526028L219.79998571329514,147.68765727902266L219.82006726546996,147.88840472456502L219.83443960009194,148.67954416178887L219.8574254064132,149.14541463005708L219.89336865431073,149.26992314664747L219.91906013329827,148.30217584423605L219.93328353181022,148.0872954280381L219.9346984248559,147.8975482126425L219.94321260581503,148.43011196174697L219.95314167981985,148.9239359155363L219.95882607468766,148.68319312762975L219.96024096773337,147.8119360100341L219.96168068346404,147.10537347259827L219.99300691194932,147.8738303710289L219.994421804995,148.317705390612L220.00008137717776,148.2530809883327L220.0029359859542,147.3888222034124L220.01584378216052,147.72361031049672L220.04349625326395,147.97578616813445L220.08586857657963,147.87502111529014L220.08730829231033,148.7749080685028L220.10016644314663,148.76923006462368L220.1044607676537,149.30622346981843L220.11443948702856,148.94795536746398L220.12868770822553,148.69764909999242L220.1301026012712,148.6152762071068L220.1315174943169,149.30581569948308L220.13295721004764,148.55172089658137L220.14010614333108,148.3038704165304L220.14866996966026,148.3301821115489L220.15437918721307,147.8848382406672L220.15723379598947,148.8181523152137L220.20022668643043,147.30321707016378L220.20874086738957,148.23704641884618L220.21015576043527,149.6415408546035L220.22149972748582,148.2662494884651L220.24855645414902,148.99720688808273L220.27275857203583,148.69985774732595L220.30994295418395,148.9372890392565L220.36313796816492,148.07952836421268L220.38180462729403,148.43053143863702L220.38604930643112,148.97850161256773L220.4303329764927,148.82097143770008L220.4317478695384,148.73864019183205L220.45460956243454,148.81711925545912L220.45602445548025,149.74876521404718L220.47037196741724,150.77362372307988L220.47464146923934,149.701281080295L220.47749607801572,147.8127838737934L220.51346414859825,149.62056656235347L220.5221520883525,148.84582851705443L220.5264464128596,148.81145355290298L220.53218045309742,148.2798445507855L220.55772299597487,148.7913356457924L220.55913788902058,150.2220612847766L220.5647726385183,150.19464499188874L220.5690421403404,149.06196500308576L220.57189674911677,147.847736279046L220.59170525175642,148.62521030726143L220.59738964662418,149.18353643320316L220.61312722892188,150.14899740048907L220.61742155342898,149.52497249319552L220.66607401605273,148.7472642652723L220.67754209652833,148.53942134560253L220.69176549504024,148.36585648926106L220.69318038808592,148.5941062294942L220.70899243843866,148.83456565856187L220.7418824960797,148.840331215397L220.74900660667817,148.55275578988972L220.77325836993504,149.24160593142003L220.8262796251209,148.6631018962057L220.85611649250546,149.25146063045582L220.85753138555114,150.00004573354374L220.8631909577339,149.6861991368847L220.86887535260166,150.17572580979845L220.89469094501428,149.93495764766362L220.90335406208348,148.65610157831966L220.9048186004992,149.1879219031942L220.9855916175286,149.49430624223788L220.99701005263418,150.24279123126018L221.00837884236975,149.87208987078708L221.00981855810042,149.50279957259963L221.03446748431745,148.32932684328966L221.05288591659647,149.29505964230225L221.05854548877923,148.44912412582607L221.0743078937619,148.48803137338047L221.11164121202012,148.18864656142742L221.1159355365272,148.74750726023257L221.1188149679886,149.88198302126764L221.12452418554136,149.58726832073208L221.13599226601698,149.15552010914536L221.22215180569404,149.46629031955368L221.2306411639682,150.4513426451966L221.2320560570139,149.495277802818L221.23491066579027,149.3475063913749L249.55128930261577,141.7892644186764L249.56218646133613,138.7113405032299L249.5966651708179,138.60022612802098L249.60247367911077,137.2867406979078L249.6185339563136,139.08636270198605L249.62292757156075,140.28721842314513L249.64779990194288,141.08435243931012L249.6565126643821,141.95582802045118L249.67540272767633,142.20086645616192L249.72502327501556,144.08323183147758L249.73810483001694,144.7365727221695L249.76158709003838,144.35272071535297L249.76454098955486,145.7531757161477L249.77772183529626,145.12732080466128L249.7911012625178,144.71622520227638L249.80274310178848,143.79167151776088L249.83183528862264,144.6170485557213L249.85534237132913,143.40667761241846L249.85976080926127,145.54643773058007L249.86268988609274,145.8646596804427L249.871452293902,145.63660339321342L249.88920051368564,145.19700822218218L249.89064022941636,145.39874293031198L249.9007927075863,146.22076649852374L249.90516150014847,145.41615557224029L249.91243454685699,145.66242980052672L249.92258702502693,145.7686848396591L249.92549127917337,145.0692100946431L250.0202891132346,145.61967150142522L250.03803733301828,147.0022689430444L250.04325009687082,146.6179384812878L250.05089548385453,145.37865958979728L250.07435292119098,146.542853764453L250.08023589753887,145.03091802325704L250.08170043595456,146.78203141044187L250.084629512786,147.28970139053888L250.08904795071814,147.45925646070438L250.09929971962816,147.0708621940959L250.10513305060604,147.0849304390951L250.11094155889884,146.1635974438113L250.12409758195523,145.94554012261167L250.12556212037097,146.3154810714611L250.1328103443945,145.62231196565483L250.13861885268733,146.5227121013196L250.14005856841806,146.73090805293592L250.1825798278438,146.6337034040358L250.22778193725088,147.02312448358964L250.24525710749938,147.8348965206847L250.2554344083543,148.19194265950387L250.26268263237785,148.5486272781238L250.28318617019784,148.18079259898911L250.2964166613093,147.15791191297856L250.33928543832522,148.26417416591715L250.35544500626813,149.3244086396285L250.3656223071231,149.06376147381317L250.36708684553884,149.3529781370536L250.37143081541595,148.84052409586238L250.3801435778552,149.03432274687404L250.43554781080223,147.00600361738267L250.43994142604933,147.33284729610924L250.44287050288077,146.75795435137775L250.44781021719817,146.78120590821527L250.44954780514902,147.70756947145406L250.45649815695242,147.7858777235301L250.52922862403793,149.18045392287334L250.54950875769285,148.52793606636413L250.58872860001193,148.15689909992662L250.59749100782122,148.710481646808L250.60334916148406,147.7993203893652L250.65033850421204,148.21767195486174L250.65758672823554,148.9375523972771L250.6796789178963,147.9549869048187L250.68412217851346,148.36093342075804L250.68854061644566,149.02079042758925L250.71924627780564,148.86451590984217L250.73530655500846,148.31608169712572L250.75419661830267,149.21852806346578L250.7556611567184,149.13682546246145L250.77028171819055,148.83178503520634L250.77467533343764,148.69236305102265L250.7805334871005,148.74835421844367L250.8261079367828,148.9219795394094L250.82901219092918,148.96030190447485L250.83335616080632,149.07374300903794L250.8638880633712,148.87985647089187L250.86684196288763,149.03640899364655L250.87416465496622,148.75007652839705L250.89024975485404,148.63325594436148L250.90238804782496,148.08306593183715L250.90819655611782,148.48373217143737L250.93282065964982,148.19087756544008L250.96216107333416,148.33434327557944L250.9766575213812,148.10064304957513L250.97956177552766,148.3390126001858L250.98824971528188,149.84288811492098L250.9954979393054,148.9893254187107L251.00277098601399,147.35108116490247L251.00716460126108,146.50982341629017L251.02905820944176,147.13731350006293L251.0305227478575,147.19329088726488L251.0698915262867,147.80318951264152L251.0815333655574,148.41368708879676L251.11678157827458,148.39185544556702L251.12129930694678,148.18106470734327L251.13291632353247,148.57311464620986L251.1634482260974,148.9377282955585L251.17226027927666,148.29119727337638L251.18841984721954,148.06733225029345L251.18988438563525,149.62430532340628L251.23679926030815,149.74763009667336L251.23826379872386,149.41578417467443L251.24705102921814,149.69009029334603L251.3433134016951,147.63183532101684L251.3462424785265,148.48648876514233L251.35651907012152,149.49982331726065L251.36086303999866,150.5149858159083L251.37101551816863,150.26066836906634L251.4306147848827,150.34891976021396L251.4610225740225,149.5222386615066L251.4756927808647,149.45403942682006L251.49912539551613,148.76005274136222L251.50205447234757,149.12536319989258L251.504983549179,147.9473509445668L251.51228141857254,148.37326611831088L251.55860054880515,148.42598489649257L251.5863523106487,149.09528186561207L251.60231329711146,149.17863569684212L251.60375301284216,148.74807729911143L251.6052175512579,148.28880114286562L251.60956152113502,148.53857269738688L251.63274590893633,149.7097362302564L251.6720153966255,149.12927957223997L251.67638418918762,149.8457598027342L251.70552602139185,148.8566118449979L251.71428842920108,149.60036614251607L251.71575296761682,149.23466493467296L251.71721750603254,149.53434084619025" fill="none"></path></g></g></g></g><g opacity="0.2"><g><g><g><path style="fill: none;" stroke="rgb(255, 112, 67)" stroke-width="2px" d="M17.87233320871989,139.49161564713785L17.882237460039722,135.55094281925724L17.908599151522584,144.3722630445945L17.911875745944183,145.5310096010968L17.916740992206556,144.85968981036012L17.93488637495041,146.90682657547399L17.959411187742376,144.1442198403889L17.96427643400475,146.2498781326001L18.018662936866285,153.65386341906458L18.03224094556791,151.71987527515907L18.03906718394624,151.16992980529352L18.07282603556271,152.2339440906185L18.121701902351557,153.24650627787727L18.126765730094025,151.97230977150195L18.141882745266404,153.96536245263917L18.16054940439551,152.3102455955666L18.168964294614618,151.95117928611333L18.17231535709125,151.9050639273449L18.26872666567829,152.34420329380467L18.27716637858241,154.98848759430683L18.302510339979772,154.66386501491857L18.312712463519752,152.8107485396373L18.32130111253394,153.5624672392268L18.33316635596973,154.75883892903815L18.343318834139684,153.71131013849183L18.39715923793095,156.05261938308902L18.424340078019213,156.55204231364027L18.427765608550885,156.05474909034587L18.441293971882484,155.81178557860096L18.461524460167357,156.14289144270552L18.47671594339477,155.03158470458294L18.49016983867133,156.31895795940832L18.51735067875959,156.01606905745007L18.524077626397876,155.60963764213656L18.637070488573006,156.44802492384957L18.63875843115383,156.88992273259376L18.667403809657802,156.0957781626577L18.672442814715264,156.9332766743067L18.677531465142742,156.53202290524592L18.70267684506001,156.65352519848017L18.707715850117474,156.25982408712784L18.709378970013283,156.08182957552953L18.747878954467065,156.24887555662272L18.779701636652593,156.85657348945358L18.81494984936979,157.15673709351182L18.843471114448707,156.8467271402331L18.852233522257983,156.83991969128098L18.92228313936216,156.9972560482086L18.939063274430346,157.0712877885293L18.94911646186025,157.04288664800887L18.960907237241006,157.08270397306896L18.962595179821825,157.05855888614298L18.987765382424108,155.93500791879157L19.018024235453872,157.00440711182276L19.021375297930508,156.8739099975865L19.041680254270414,157.02834519472734L19.05344620696615,157.0826217807164L19.05513414954698,156.62779491611903L19.058510034708625,157.0559528722723L19.06352421708107,156.96879349582773L19.066875279557706,157.02984376425692L19.108924907968223,157.03781690871634L19.1256802203514,157.0258000206457L19.154350421540386,156.97541493577734L19.19791423373664,156.67038379819945L19.20464118137492,157.07259219703948L19.211368129013202,157.0137490228203L19.224747556234732,157.15808520112296L19.239889394092117,157.03641679266772L19.283428383603365,157.13553898213763L19.290155331241646,157.1359635735006L19.305247523729008,157.0621877636043L19.311974471367293,157.07582597341644L19.315325533843925,157.1321595206381L19.31867659632056,157.1760128305916L19.330417726331287,157.16372231363889L19.33880779386538,157.07425908426478L19.342158856342017,157.07796170172435L19.35054892387611,157.07152218046704L19.35394963172277,157.06366686840587L19.360726224731078,157.04547876054554L19.367428349684346,155.21160000105132L19.377655295909335,157.1528416164952L19.37936806117517,157.0520373727581L19.418165917849098,157.13311646730637L19.42489286548738,157.04369471310582L19.5011729765296,157.15383358823243L19.512616234320184,157.13638382427212L19.522470840269992,157.09900537528418L19.545332533166142,156.99730656210966L19.55188572200934,157.15775907039185L19.563428270539973,157.04942693963613L19.566729687646585,156.58989278585776L19.576633938966417,157.1750961076908L19.57993535607303,157.04715571622674L19.624094912709573,157.08634230400952L19.625733209920373,157.09199637129035L19.642141004713377,157.16594765692523L19.647031073660763,157.12585657426698L19.661726103187934,157.1382272884734L19.668304114716143,157.10335550601368L19.674882126244352,157.07789785856065L19.689750914566606,157.06394034711926L19.69141403446242,157.06248109319387L19.70129346309724,156.4986244067617L19.702931760308037,157.11692589676613L19.71122253710208,157.10273136185876L19.740860823006543,156.88085342790077L19.74582536000897,157.11689346032006L19.760669325646205,157.1042911430238L19.831116105710578,156.95935580578285L19.85251326019102,157.16069026392503L19.86239268882584,157.14245737002813L19.86733240314325,157.13280576104927L19.870658642934874,156.87497282036162L19.877261477148092,157.1704443666388L19.887165728467924,157.02033663905075L19.895406859891946,157.1287228090973L19.911839477369963,156.9941617142255L19.92166926063476,157.176541138492L19.929835924003747,157.06579069762952L19.94626854148176,156.95435773272987L20.036250774650664,157.15248801918793L20.04282878617887,157.0967772717535L20.044491906074686,157.0780546061131L20.046130203285482,155.94362697472113L20.07574366650493,156.86699957578972L20.097140820985373,157.10982893680082L20.11861244352085,156.91394664050404L20.182580502797055,157.09730540803253L20.202413828121735,157.18235861080578L20.220608856235614,156.93365092339005L20.22554857055302,156.95439059822945L20.23046346218542,156.8786121953324L20.26327905177143,157.0962992489256L20.27320812577627,157.1774100719816L20.28470102893688,157.07860632603393L20.2945804575717,157.16137434685663L51.72436918472626,128.17940336084214L51.729308899043666,135.28924351283428L51.74745428178752,139.75070630816188L52.81666661599919,-9.867771608721196L52.821631153001604,1.9185166707825694L52.823269450212415,9.094521223233901L52.90160984411063,148.02435195810193L52.906475090373,144.69511906762483L52.911340336635384,145.554934998319L52.91297863384617,148.6294460223297L52.94884741368869,149.41715990951093L52.98901051803828,150.9128510048263L52.992262289774864,151.53037091663774L53.00539349014627,152.60479003584783L53.011996324359494,150.75798762657476L53.05275517314938,151.0114513937075L53.054393470360175,153.14090831212764L53.072166512828844,151.09703647267628L53.08512395440518,152.84918898904778L53.09165232056335,151.61543380886962L53.094904092299934,152.92604608970015L53.1675849140154,153.48805151030788L53.174113280173586,154.78287164684735L53.2149217743335,153.31104050379068L53.240960770911194,154.04881118832333L53.242574245436984,153.43073522315055L53.26709905822894,154.89206588199085L53.27357777901711,153.96455239959425L53.29991464781496,155.43277834894388L53.30152812234075,154.18587239235538L53.3579749080583,156.09115479634514L53.366116748742265,155.31431037940712L53.37425858942623,155.8466048163063L53.37912383568862,154.98227306871516L53.38729049905759,155.74546751977462L53.392205390689995,155.85193022859113L53.411740843794526,155.85266385290245L53.42484722148092,154.54308839420375L53.43631530195651,155.5125745234124L53.447783382432114,157.048211974483L53.4625032346443,155.0290371564052L53.4690812461725,156.16786739177212L53.47230819522407,155.9686267219563L53.47558478964568,155.68159804078087L53.48049968127806,156.5807495981487L53.51257059031373,156.49838802687597L53.527290442525896,155.1205585054564L53.54357412389385,156.71387901293463L53.550102490052026,156.12705685071958L53.55335426178863,156.34903655617242L53.558244330736,156.7285137996584L53.56641099410498,156.72933483647347L53.57127624036737,155.41850505411207L53.57291453757816,156.57520576901885L53.605481900314054,155.6961852883747L53.620127284471195,157.00979076097198L53.629907422365974,156.86255892906937L53.641276212101516,156.93436935920678L53.6428896866273,156.05232327895337L53.67828683545457,156.84559352362726L53.68985420667021,156.96985285757108L53.72413433467194,157.05318336040705L53.73066270083012,156.68488426256806L53.74714496367817,156.56784057909485L53.75369815252136,157.0377621900908L53.76943573481905,156.4656758996088L53.79060948513437,156.9477185585681L53.79552437676677,156.7477670328811L53.80527969197653,157.03204839856005L53.808531463713116,156.99053732752432L53.885854127525846,157.01295606040722L53.89563426542061,157.01004335908073L53.92346049531919,156.68035505920125L53.939793822057155,157.02570396986445L53.94465906831953,156.82923685931874L53.947910840056124,156.73685717439986L53.977077494945355,157.01993497344756L54.00001365589654,157.0204377955689L54.003265427633124,156.49704056999602L54.05310937913744,157.1226429061983L54.05963774529563,157.03861786582664L54.07279376835205,157.11583245387155L54.10049588482556,156.97962784088952L54.11025120003532,156.59993589902234L54.14944621966945,156.9818540565847L54.17061996998477,157.02842046501644L54.17546039356213,157.15897186167382L54.19762705127796,156.6366464046419L54.200854000329535,157.1531802684382L54.2040809493811,156.68084189192814L54.210609315539294,157.04316607626438L54.217088036327446,157.08688934724697L54.22843200337799,156.86132176754748L54.25268376663481,157.10679030826634L54.308112822266864,157.19685961864218L54.314690833795076,157.1562466495845L54.326158914270664,157.1818993662202L54.34090358916786,156.97817223391903L54.38099222546242,157.14573275029468L54.397350374885406,157.16169821075496L54.40060214662199,157.0531172432597L54.403878741043584,157.114199018519L54.41204540441258,157.18223499333587L54.41696029604496,157.07190752773474L54.43004185104635,156.69718488373115L54.43657021720453,157.1681999662253L54.469162402625436,157.20686507878494L54.4772794206244,156.95909622840352L54.47889289515019,157.10083415870417L54.482194312256794,157.17662423900788L54.487084381204184,157.20281974410028L54.49358792467735,157.13834457740384L54.49522622188816,157.12918970513726L54.506619834308715,157.1317112097664L54.51150990325609,157.04798527690505L54.51965174394008,156.04241546066532L54.571481510245356,157.17260821940494L54.588013418463426,156.95753218530686L54.59789284709825,157.1811563527877L54.60769780767803,157.17873523953125L54.6142013511512,157.04301554998793L54.63373680425574,156.68319058810138L54.63535027878152,157.12279207380527L54.676009836831355,157.0917659123432L54.69068004367351,157.0806257093291L54.76874738803661,156.97968247370432L54.7703856852474,157.1769654581211L54.77368710235402,157.1167582941596L54.79662326330521,157.17844238905147L54.845424662039015,156.99872455538824L54.85848139435539,157.1434353760733L54.890701239501105,157.1105275074396L54.89395301123769,156.9895176675333L54.89717996028927,157.02521780932145L54.90529697828823,157.11627041740252L54.945956536338066,157.14162575704384L54.947570010863856,157.17509301850546L54.96382886954679,157.15262507318388L54.967080641283374,157.13055466024994L54.97517283659733,157.13264785505228L54.99800970680845,157.15999797176943L55.00778984470323,157.13753571140697L55.022435228860374,157.17920810656605L55.06733946604729,157.15181142324028L55.073818186835446,157.18378098758114L55.07706995857203,156.75293226518528L55.0983181769424,156.9617902840564L55.11795292078698,157.13797411829327L55.13753801926154,157.1771159414922L55.15389616868452,157.1833900626177L55.16367630657929,157.17371288919995L55.19150253647787,156.96181908784936L55.201307497057655,157.1869734318024L55.202945794268445,157.08526616627353L99.63138175486503,65.8674540880729L99.64126118349986,118.03554019205941L99.64950231492388,131.345994990865L99.68750584567742,141.669580097923L99.69907321689305,146.15941946330614L99.7073639936871,145.31682974538683L99.72876114816754,148.0238357209072L99.74030369669818,146.5201127437056L99.76502709097024,147.11480792359035L99.80593487587018,149.41375494077968L99.81089941287263,152.41375252608327L99.83391004187884,151.35126452714525L99.83554833908964,152.26711324569473L99.83882493351123,149.00620032055912L99.89157313916198,149.87537899995007L99.89321143637277,152.5533832458333L99.89487455626858,151.66076520104713L99.92446319680303,152.15847735219805L99.97023622796534,152.89083486869933L99.97850218207438,154.91934521917904L100.0492716570439,155.12330399032453L100.06414044536618,152.83000812285206L100.0791581697985,154.20798912876765L100.0890127757483,153.41825994860142L100.09559078727652,155.05138935738898L100.14446665406535,155.75263957840767L100.14774324848696,155.8737595563524L100.14938154569776,155.39582471299653L100.22658009608541,154.66354534144293L100.23976094182684,156.31176238864242L100.27773964989538,155.31802632612937L100.313831833903,156.25713546615285L100.32050913617125,156.37757284855155L100.32711197038448,156.64146295945255L100.32877509028027,156.7896412262122L100.34689565033912,156.13395214122895L100.35181054197153,156.58927042942585L100.36496656502794,155.08570151104132L100.36988145666035,156.07798674337974L100.41011902906497,156.61750878704098L100.41667221790817,156.46406351648227L100.41994881232978,156.57674223827595L100.46599489302723,156.81290402178234L100.52499841530103,156.5188902634977L100.54969698688807,156.91947719757835L100.56280336457448,155.81801818164757L100.57101967331349,156.8386546698839L100.57921115936747,156.2586436750848L100.58578917089568,156.32466614463974L100.58906576531729,157.0682517772213L100.61540263411513,156.9478184422275L100.66713310968038,156.9641327732554L100.66877140689115,157.0641606088944L100.68026431005178,157.1280247676245L100.68522884705419,156.89975932799757L100.72472173890847,156.9041743745246L100.72966145322587,156.9708954004165L100.74115435638647,156.93703855835912L100.74609407070389,156.30821085522888L100.7477323679147,157.00653238552658L100.75103378502129,157.0684889007998L100.75267208223211,156.98303255218866L100.79390256203723,156.7679501680985L100.80869688230445,157.0613136528689L100.86946281521409,157.17364188084247L100.88276777438057,157.0019844182192L100.90572875801678,157.10520278164037L100.90736705522758,157.06815270876365L100.93521810781117,157.15911567326268L100.98310106719953,157.00013777187098L100.98640248430613,157.15209246759736L101.02395920672947,155.88243719238918L101.05198401810814,157.09128262645876L101.06022514953216,156.97079628905348L101.09641662427981,157.14989366842207L101.10135633859723,157.1592501600884L101.10964711539127,157.1783858397976L101.12784214350515,157.16518693073326L101.13111873792676,157.12192628670815L101.14266128645738,157.186505105584L101.15259036046223,157.14348153508112L101.16413290899285,157.14236220595748L101.19508679720296,157.1404669478455L101.20000168883534,157.00557942905604L101.22787756410396,156.8760755737176L101.24758677600357,157.0007536925001L101.25252649032099,157.14141346851324L101.2640442161666,157.0548483168915L101.29035626227946,157.15674565312955L101.29363285670104,157.13018860608884L101.30366122144592,157.16202511378242L101.31038816908422,157.05950743766402L101.33878532073807,156.61700627955886L101.38964700232789,156.4347018395458L101.42702996595614,157.17812947316875L101.45942356989691,157.15530376872078L101.46274980968855,157.14399795819904L101.46627463096027,157.05773691971197L101.47121434527769,157.1784613031608L101.4763774637602,156.9970525338225L101.50554411864942,157.08789898168743L101.52373914676332,157.09399320067217L101.56789870339983,157.13246944029706L101.61692350629878,157.11147355614844L101.62020010072037,157.02224030661174L101.65951923377956,157.08993252374873L101.66612206799277,157.08148667672504L101.66942348509939,157.0105541186922L101.6793029137342,157.05363116356543L101.68424262805162,157.13918103869293L101.68751922247321,156.90028454671264L101.72338800231572,157.04002985235599L101.73493055084636,157.14237617164954L101.75625323727175,157.15915521054453L101.76938443764315,157.1734378730448L101.79060783332851,157.0942047383591L101.79398371849017,157.18143886307766L101.79894825549258,157.15995761213503L101.81878158081724,156.8405623276426L101.82540923771548,157.14645489027347L101.8336255464545,157.163546787844L101.83690214087609,157.1478606197723L101.85335958103913,157.11237898779078L101.85991276988231,157.05863695958175L101.92857231662582,157.18751519768153L101.93678862536483,157.0295268367238L101.94830635121045,157.1612650526234L102.0205403645957,157.18291871872287L102.03362191959708,157.09949010564878L102.04509000007268,157.0021358741116L113.94151072823692,15.49628714378936L113.96529086047852,15.702035125318574L113.97829794742488,15.606271295065925L113.99132985705623,16.050000962113657L114.03926246181462,16.01045938975058L114.0632163528513,15.683362716147114L114.07411351157161,15.712755284937002L114.0937234327312,15.53577013604523L114.09588300632723,15.975179520186627L114.12174824410985,15.869706037164836L114.16806737434246,15.620579486250634L114.17467020855567,15.674282799530419L114.19656381673636,16.059432359373588L114.2997517183317,15.736641323649664L114.31074816779208,15.642708121747166L114.31293256407314,15.8359053153078L114.33497510836389,15.705315611322039L114.51603177284223,15.868798045503157L114.53981190508382,15.856012937105762L114.54194665599486,15.701727579755756L114.54631544855701,15.933631579151811L114.5506345957491,15.908178522571419L114.55711331653728,16.076537750677318L114.55929771281833,16.03648360237621L114.63595016413574,15.818375218226835L114.64684732285606,15.82776268040637L114.65337568901424,15.970727432039084L114.67070192315268,15.631519321271085L114.69458134613434,15.587598885894465L114.71411679923887,15.75998549637069L114.72066998808207,16.204579219999687L114.72282956167813,15.802221753665183L114.75557068320911,15.787400986542425L114.79042173296611,15.900021242643195L114.80342881991244,15.903667854316666L114.81211675966668,16.08475361071277L114.85421603344723,15.98866758987049L114.85860964869437,16.00329797164483L114.87821956985395,15.713619341518285L114.8869571549782,15.848500038356777L114.90003870997958,15.816339559501474L114.9109606913849,15.939489589872252L114.96815215765281,15.814186740561713L114.98786136955243,15.553724938903429L115.02070178182346,15.876794230136586L115.03599255579091,15.895583799522443L115.07151381804324,15.749074951403845L115.08017693511246,15.757510486841301L115.08233650870854,15.964430070514595L115.12376556999375,15.91091714258323L115.13031875883694,15.513685435629114L115.14347478189335,15.850316021680115L115.20880808884523,16.07019645407243L115.22198893458666,15.824731159858533L115.2548789922277,15.99738138081716L115.25922296210481,16.13959923608303L115.31904563298403,16.13797363810811L115.32125485195009,15.686833587498997L115.36270873592032,15.993456513634456L115.36486830951635,15.994862436207372L115.37142149835957,15.829022152711262L115.39098177414913,15.780722854321098L115.41493566518578,15.98339538022208L115.46944628147239,15.785189587495456L115.47597464763058,15.80058151066345L115.5223186005482,15.88872992697951L115.52879732133634,15.974857329597018L115.53311646852846,15.821846089578699L115.53741079303556,15.963932139603358L115.56354908035331,15.926367645858434L115.60046041296631,15.977493434421223L115.64596039459353,15.971269298030736L115.66122634587596,15.7922484904136L115.67860222538442,15.68671642728458L115.68729016513869,15.96848674293851L115.7025064710511,15.937541801307702L115.70469086733216,15.849290869804038L115.70685044092822,15.88899353746193L115.7512582244149,15.966773274802776L115.80805252772261,15.748884566055425L115.81894968644292,15.90109032959967L115.85409860842006,16.025382672060942L115.87817661288183,15.735689396907587L115.88686455263607,15.865400399285294L115.88904894891712,15.69627962978572L115.90652411916564,15.684973669095243L115.91332553485897,15.674971115790074L115.92040000008741,15.82114312829225L115.92735035189082,15.81228288707756L115.97163402195241,15.993720124116876L115.98029713902164,15.818946374272073L115.99551344493406,15.754303225971839L115.99769784121514,15.894792968075182L116.0107297508465,15.884629319475179L116.02373683779282,16.07063580487646L116.02808080766997,15.989927062175385L116.03478293262322,15.798399401670085L116.11570488576271,15.878947049076347L116.14328288881116,15.80031790018103L116.20903818140825,16.01792835341917L116.21340697397036,15.540808025264823L116.25471192183053,15.84683050530144L116.25905589170766,15.877497191423034L116.30453105064984,15.895056578557602L116.36013386507695,15.978474651216883L116.36715868493539,15.945479405833922L116.39716931111502,15.87994291089882L116.4379033372199,15.53395415272189L116.45748843569446,15.863145065157907L116.46399197916763,15.939343139604249L116.46836077172978,16.00615375187104L116.47052034532581,16.230530207491316L116.57018342564943,15.9310833444884L116.5840096612012,15.758726024065798L116.59093519031957,15.872576462417857L116.60709475826245,15.799849259323398L116.63715502981212,16.05572716759291L116.64174722653937,15.996575904343105L116.66652026618145,16.06490959939723L116.6817862174639,16.031182102674194L116.72100605978304,15.598743751290128L116.77318334367848,15.953387720306537L116.78472589220912,15.881817474329367L116.83136771734688,15.846684055033437L116.83598473675913,15.841382555331423L116.84988544036592,15.933324033588974L116.93055916665527,15.721425140803294L116.94145632537558,15.94682674829963L116.9697790089744,16.094316813213908L116.97898822511391,15.993588318875666L117.02056622250919,16.023449528523187L117.03918323626827,16.052505261696652L117.09232860487919,15.876779585109773L117.1015626437037,15.631636481485504L143.98239576090882,15.308757575600767L143.98467944792992,15.483223779882753L144.03988509939686,15.766165697680762L144.08886025692576,15.614897215851801L144.1166120187693,15.712755284937002L144.150817678716,15.94155453865122L144.1741261799424,16.160980975212695L144.23111906473017,15.970229501127847L144.26135309507495,15.710617111024053L144.26358713672602,15.827806615486766L144.3069771901272,15.825419476118189L144.35845943884232,15.945040055029894L144.3627785860344,15.895173738772L146.28904376565924,15.74123986206523L146.3322352375803,15.769006832880198L146.3345189246014,15.998582273014865L146.33901183058862,15.550854513650407L146.35045508837922,15.886928588682963L146.4345046998302,15.535726200964833L146.45051533166304,15.941525248597614L146.45952596632242,15.646266863259843L146.47312879770905,15.872678977605462L146.50974225810194,15.777705978800075L146.52108622515246,15.983644345677689L146.5278876408458,16.078983470153123L146.532405369518,15.672774361769896L187.36537469685032,127.14850331174291L187.37714064954608,133.35876903121832L187.4022115614083,137.2374531219064L187.4096087215419,139.42907039892688L187.41253779837334,139.91496492876345L187.4300874366769,141.04233360003016L187.43301651350833,142.06925020183948L187.44185338937268,140.4101206074234L187.4593782049912,140.33126812186939L187.46699876928992,141.712237399738L187.48161933076207,143.00193429401105L187.4962895376042,140.3054068351669L187.55847036355956,147.3931229282334L187.56137461770595,142.26967288549812L187.56743135284893,144.0531021448889L187.58862992584926,144.22458717090268L187.64616890970734,145.13898969305555L187.65036394347436,145.9869010475887L187.6961617973217,145.7087828354933L187.72158022677414,144.28277003175523L187.74702347891153,149.68553734815524L187.75124333536363,148.3217961136898L187.75829297790705,144.95106379382912L187.76529297508046,147.97800410953303L187.79066175916282,144.9540751774651L187.79207665220852,145.7768648191493L187.83643479032517,148.5447904449057L187.84065464677724,148.77887197672425L187.85058372078208,151.01292642250064L187.8887113649607,147.13298423247892L187.89151632836703,148.92131225333466L187.90139575700186,149.7614521328644L187.92681418645427,149.99937706890407L187.92964397254565,149.33352948396302L187.93952340118048,147.35375618087775L187.95223261590667,147.09906818103582L187.9875304739939,150.22960924695934L187.9889453670396,148.718312044959L188.0031687655515,148.0479661485046L188.0088283377343,149.85199501106243L188.01024323078,143.10261244606966L188.0371013759631,146.30636125502954L188.0441261958215,148.75209812178923L188.04693115922785,149.85284396495982L188.05256590872563,147.9787134780187L188.06527512345184,150.38187587889624L188.0906439075342,150.23905940815987L188.13929637015795,150.02084255928074L188.14642048075643,149.36984915042987L188.1591296954826,149.33222150000685L188.16759423107172,149.67821300412632L188.16900912411742,151.53347337403414L188.17469351898524,149.7452149170557L188.1789630208073,146.5966604681668L188.2101403131825,151.0698832200157L188.23573250142996,147.85117634680682L188.24139207361273,147.199498282953L188.24854100689623,149.96083410430597L188.25847008090108,149.0518113412171L188.29364382556324,150.1250108042889L188.29647361165462,148.8656876956014L188.31064736479652,148.0176637574247L188.31916154575572,149.55364789804088L188.3220161545321,152.01904022139604L188.3305303354912,151.2471763721274L188.33336012158261,151.55081537405215L188.33621473035902,149.29238428116525L188.3531686242223,147.59575609562484L188.35599841031367,149.6479595823548L188.35882819640506,149.94099375424713L188.39122180034587,149.87879678307976L188.40388136970205,148.26799303116493L188.4081012261541,148.95838156211087L188.45111893928006,151.268270244949L188.465292692422,148.36805426146955L188.46668276278268,150.66312217718493L188.46948772618902,148.05678520058143L188.47792743909318,150.48614755440616L188.48634232931227,148.0327618647425L188.49614728989204,149.1504227138684L188.50317210975047,148.156062006638L188.51300189301529,147.3888850236028L188.52141678323434,148.37792409421934L188.5397111020883,151.9051312029368L188.5968529229862,152.02389504778063L188.62974298062724,149.73602836633762L188.63537773012496,150.2499997008374L188.63679262317066,149.7247054723349L188.64667205180547,148.30647924628414L188.6706259428422,149.65946279325L188.68614012097473,148.71939486162813L188.7016294764223,150.21364662540316L188.7114592596871,150.74331193674874L188.74022875161614,151.1681165679127L188.77408689397265,149.0489253556231L188.8516826073205,152.42823416930415L188.85729253413325,149.48979100461702L188.89584216395707,148.9128776332114L188.91123222866457,149.9247359438695L188.91681733279225,146.06394304170448L188.92801236373273,150.2924556335339L188.92940243409342,150.06384951111065L188.93498753822112,147.6560075665131L188.94762228489233,149.32336034347802L188.94901235525296,150.50931324086304L188.96303717228483,150.40151028326568L188.9644272426455,150.10173253418847L188.96584213569122,149.75147383538484L188.97703716663167,148.91833931289403L189.0051612687504,148.30908148448387L189.05942365818686,149.50167544386616L189.06791301646098,149.73595285291816L189.06932790950668,150.2899371465812L189.07357258864377,149.85903515004L189.08772151910065,151.7790581167479L189.1004555565119,149.43635130181966L189.10470023564898,150.7265822819139L189.11879952073582,150.04201286083597L189.12602292207436,149.06350264917526L189.19689168778393,148.18563123106367L189.2095016117701,147.11224046732926L189.21233139786148,148.53342132753716L189.21801579272923,149.16052961298954L189.2265299736884,151.01302939534534L189.23074983014044,152.2046695973572L189.24070372683033,150.912091294061L189.25202287119583,151.24461440775138L189.2562675503329,151.696081225521L189.26768598543845,146.75697866124472L189.27332073493622,152.49402100266616L189.27895548443396,149.92267191040474L189.3114235564298,151.1368627077478L189.31705830592753,151.5605836069285L189.34724269090228,151.70797573322605L189.35292708577006,152.53632178960999L189.36849090927268,148.48066444911439L189.385519271191,150.57127817988703L189.40818238260704,152.09255093342435L189.44355470874925,150.25225686559313L189.46480292711965,148.63174163028077L219.11276967873485,128.79672236119214L219.12448598606056,133.25469964014107L219.13617747070126,136.51498282912422L219.1448654104555,138.00216516386814L219.14632994887126,137.73078549472962L219.17197178248875,142.31622576444227L219.18512780554516,140.70487007807986L219.20548240725512,138.52761591109456L219.20987602250224,142.41463851391757L219.264709333694,145.3911862077129L219.28985471361128,146.72608772315021L219.3074043519148,144.45192466787927L219.31177314447697,144.49674302646164L219.32048590691622,143.76718087945102L219.34677313034402,143.26969206495883L219.34967738449043,145.43515698536916L219.3758156718082,143.9519709123136L219.38162418010106,146.06064150347498L219.38601779534815,142.73013998755124L219.43295749270607,147.32498053384185L219.43876600099892,144.6783926163896L219.44899294722393,146.73659827582256L219.46800712394318,149.29473297733847L219.4768688224925,148.65451739289907L219.49752129642258,143.26489124211056L219.51514540278117,146.63755579019482L219.52554610780123,146.73031647463904L219.53718794707197,148.3145999136454L219.5489787224527,146.91258024037845L219.5504184381834,144.81582337851984L219.6034893387393,148.0924934371793L219.60934749240215,146.80451733355537L219.62985103022214,150.32621104733926L219.64722690973062,149.55249643280862L219.64864180277632,148.04344358116558L219.65854605409615,147.86749365260582L219.6785531382159,148.2809886618226L219.68704249649005,145.62268197698688L219.69694674780987,147.00138951352892L219.6998261792713,145.2430847129297L219.7326665915423,147.98442137721446L219.73549637763367,148.15756220657093L219.73691127067937,148.46274900476573L219.7641914015077,141.2128511389609L219.7685105486998,150.51138230855577L219.7814431675911,148.9464403733829L219.79998571329514,147.25576081466627L219.82006726546996,148.18952589287858L219.83443960009194,149.8662533176246L219.8574254064132,149.84422033245937L219.89336865431073,149.45668592153305L219.91906013329827,146.85055489061892L219.93328353181022,147.76497480374113L219.9346984248559,147.61292738954916L219.94321260581503,149.2289575854037L219.95314167981985,149.6646718462203L219.95882607468766,148.3220789457699L219.96024096773337,146.5050503336406L219.96168068346404,146.04552966644454L219.99300691194932,149.02651571867483L219.994421804995,148.98351791998667L220.00008137717776,148.15614438491374L220.0029359859542,146.0924340260319L220.01584378216052,148.22579247112327L220.04349625326395,148.35404995459095L220.08586857657963,147.72387353602375L220.08730829231033,150.12473849832182L220.10016644314663,148.760713058805L220.1044607676537,150.11171357761054L220.11443948702856,148.41055321393227L220.12868770822553,148.32218969878508L220.1301026012712,148.49171686777836L220.1315174943169,150.34162493804746L220.13295721004764,147.42057869222884L220.14010614333108,147.932094696454L220.14866996966026,148.3696496540767L220.15437918721307,147.21682243434458L220.15723379598947,150.21812342703345L220.20022668643043,145.0308142025889L220.20874086738957,149.63779044186973L220.21015576043527,151.74828250823947L220.22149972748582,146.2033124392575L220.24855645414902,150.09364298750918L220.27275857203583,148.25383403619077L220.30994295418395,149.29343597715237L220.36313796816492,146.79288735164693L220.38180462729403,148.9570360502735L220.38604930643112,149.8004568734638L220.4303329764927,148.5846761753986L220.4317478695384,148.61514332303003L220.45460956243454,148.9348378508997L220.45602445548025,151.1462341519293L220.47037196741724,152.31091148662898L220.47464146923934,148.09276711611764L220.47749607801572,144.98003806404103L220.51346414859825,152.33224059519355L220.5221520883525,147.6837214491059L220.5264464128596,148.7598911066758L220.53218045309742,147.48243104760928L220.55772299597487,149.55857228830274L220.55913788902058,152.36814974325287L220.5647726385183,150.15352055255693L220.5690421403404,147.3629450198813L220.57189674911677,146.02639319298632L220.59170525175642,149.79142134958457L220.59738964662418,150.02102562211573L220.61312722892188,151.59718885141794L220.61742155342898,148.58893513225522L220.66607401605273,147.58070192338744L220.67754209652833,148.2276569660979L220.69176549504024,148.1055092047488L220.69318038808592,148.93648083984394L220.70899243843866,149.19525480216336L220.7418824960797,148.84897955064966L220.74900660667817,148.1213926516288L220.77325836993504,150.27488114371545L220.8262796251209,147.79534584338415L220.85611649250546,150.133998731831L220.85753138555114,151.12292338817565L220.8631909577339,149.21542924189612L220.86887535260166,150.91001581916902L220.89469094501428,149.57380540446138L220.90335406208348,146.73781747430377L220.9048186004992,149.98565239050595L220.9855916175286,149.95388275080342L220.99701005263418,151.3655187147936L221.00837884236975,149.31603783007742L221.00981855810042,148.94886412531847L221.03446748431745,146.56911774932473L221.05288591659647,150.7436588408211L221.05854548877923,147.1802208511118L221.0743078937619,148.54639224471208L221.11164121202012,147.73956934349786L221.1159355365272,149.58579830844025L221.1188149679886,151.5836966628203L221.12452418554136,149.14519626992873L221.13599226601698,148.5078977917653L221.22215180569404,149.93244563516615L221.2306411639682,151.92892113366105L221.2320560570139,148.0611805392501L221.23491066579027,149.12584927421025L249.55128930261577,130.4519014596286L249.56218646133613,134.09445463006017L249.5966651708179,138.43355456520754L249.60247367911077,135.316512552738L249.6185339563136,141.78579570810342L249.62292757156075,142.08850200488376L249.64779990194288,142.28005346355764L249.6565126643821,143.26304139216273L249.67540272767633,142.56842410972797L249.72502327501556,146.90677989445103L249.73810483001694,145.71658405820745L249.76158709003838,143.77694270512814L249.76454098955486,147.8538582173398L249.77772183529626,144.18853843743167L249.7911012625178,144.099581798699L249.80274310178848,142.4048409909876L249.83183528862264,145.85511411266197L249.85534237132913,141.59112119746422L249.85976080926127,148.75607790782246L249.86268988609274,146.34199260523673L249.871452293902,145.29451896236947L249.88920051368564,144.53761546563527L249.89064022941636,145.70134499250668L249.9007927075863,147.4538018508414L249.90516150014847,144.20923918281508L249.91243454685699,146.03184114295635L249.92258702502693,145.92806739835765L249.92549127917337,144.0199979771191L250.0202891132346,146.4453636115984L250.03803733301828,149.0761651054732L250.04325009687082,146.04144278865286L250.05089548385453,143.5197412525615L250.07435292119098,148.28914502643667L250.08023589753887,142.76301441146308L250.08170043595456,149.40870149121912L250.084629512786,148.05120636068435L250.08904795071814,147.71358906595265L250.09929971962816,146.48827079418322L250.10513305060604,147.10603280659396L250.11094155889884,144.78159795088558L250.12409758195523,145.61845414081225L250.12556212037097,146.87039249473526L250.1328103443945,144.58255830694546L250.13861885268733,147.87331230481675L250.14005856841806,147.04320198036035L250.1825798278438,146.4878964306856L250.22778193725088,147.60725610292045L250.24525710749938,149.05255457632725L250.2554344083543,148.72751186773266L250.26268263237785,149.08365420605364L250.28318617019784,147.62904058028712L250.2964166613093,145.62359088396272L250.33928543832522,149.92356754532506L250.35544500626813,150.91476035019554L250.3656223071231,148.67279072509018L250.36708684553884,149.78680313191424L250.37143081541595,148.07184303407553L250.3801435778552,149.32502072339156L250.43554781080223,143.96352492314554L250.43994142604933,147.82311281419913L250.44287050288077,145.8956149342805L250.44781021719817,146.81608324347158L250.44954780514902,149.09711481631223L250.45649815695242,147.90334010164415L250.52922862403793,151.27231822188827L250.54950875769285,147.5491592816003L250.58872860001193,147.6003436502703L250.59749100782122,149.5408554671301L250.60334916148406,146.432578503201L250.65033850421204,148.8451993031066L250.65758672823554,150.01737306090013L250.6796789178963,146.48113866613105L250.68412217851346,148.96985319466705L250.68854061644566,150.01057593783605L250.71924627780564,148.63010413322158L250.73530655500846,147.4934303780511L250.75419661830267,150.57219761297588L250.7556611567184,149.0142715609549L250.77028171819055,148.3742243943237L250.77467533343764,148.4832300747471L250.7805334871005,148.8323409695752L250.8261079367828,149.182417520858L250.82901219092918,149.01778545207299L250.83335616080632,149.24390466588258L250.8638880633712,148.5890266636727L250.86684196288763,149.27123777777857L250.87416465496622,148.32057783052278L250.89024975485404,148.4580250683082L250.90238804782496,147.25778091305065L250.90819655611782,149.0847315308377L250.93282065964982,147.7515956564441L250.96216107333416,148.5495418407885L250.9766575213812,147.75009271056865L250.97956177552766,148.69656692610184L250.98824971528188,152.09870138702374L250.9954979393054,147.7089813743953L251.00277098601399,144.89371478419005L251.00716460126108,145.24793679337176L251.02905820944176,148.07854862572208L251.0305227478575,147.27725696806783L251.0698915262867,148.71803745070648L251.0815333655574,149.3294334530296L251.11678157827458,148.3591079807224L251.12129930694678,147.86487860000761L251.13291632353247,149.16118955450975L251.1634482260974,149.4846487695815L251.17226027927666,147.32140074010314L251.18841984721954,147.73153471566908L251.18988438563525,151.95976493307552L251.23679926030815,149.93261725657396L251.23826379872386,148.91801529167606L251.24705102921814,150.10154947135348L251.3433134016951,144.54445286252306L251.3462424785265,149.7684689313305L251.35651907012152,151.01982514543815L251.36086303999866,152.03772956387974L251.37101551816863,149.8791921988034L251.4306147848827,150.48129684693538L251.4610225740225,148.28221701344555L251.4756927808647,149.35174057479026L251.49912539551613,147.71907271317548L251.50205447234757,149.67332888768814L251.504983549179,146.18033256157815L251.51228141857254,149.01213887892698L251.55860054880515,148.50506306376508L251.5863523106487,150.0992273192913L251.60231329711146,149.30366644368718L251.60375301284216,148.10223970251545L251.6052175512579,147.59988690849693L251.60956152113502,148.91323002916877L251.63274590893633,151.46648152956067L251.6720153966255,148.2585945852153L251.67638418918762,150.92048014847555L251.70552602139185,147.37288990839346L251.71428842920108,150.71599758879336L251.71575296761682,148.68611312290835L251.71721750603254,149.98385471346612" fill="none"></path></g></g></g></g></g></g><g transform="translate(61, 176)" clip-path="url(#clip_1)"><clipPath id="clip_1"><rect width="268" height="23"></rect></clipPath><g><g><line x1="0" y1="0" x2="0" y2="5" style="visibility: inherit;" fill="rgb(0, 0, 0)" stroke="rgb(204, 204, 204)" stroke-width="1px"></line><line x1="17.87233320871989" y1="0" x2="17.87233320871989" y2="5" style="visibility: inherit;" fill="rgb(0, 0, 0)" stroke="rgb(204, 204, 204)" stroke-width="1px"></line><line x1="35.74466641743978" y1="0" x2="35.74466641743978" y2="5" style="visibility: inherit;" fill="rgb(0, 0, 0)" stroke="rgb(204, 204, 204)" stroke-width="1px"></line><line x1="53.616999626159675" y1="0" x2="53.616999626159675" y2="5" style="visibility: inherit;" fill="rgb(0, 0, 0)" stroke="rgb(204, 204, 204)" stroke-width="1px"></line><line x1="71.48933283487956" y1="0" x2="71.48933283487956" y2="5" style="visibility: inherit;" fill="rgb(0, 0, 0)" stroke="rgb(204, 204, 204)" stroke-width="1px"></line><line x1="89.36166604359944" y1="0" x2="89.36166604359944" y2="5" style="visibility: inherit;" fill="rgb(0, 0, 0)" stroke="rgb(204, 204, 204)" stroke-width="1px"></line><line x1="107.23399925231932" y1="0" x2="107.23399925231932" y2="5" style="visibility: inherit;" fill="rgb(0, 0, 0)" stroke="rgb(204, 204, 204)" stroke-width="1px"></line><line x1="125.10633246103922" y1="0" x2="125.10633246103922" y2="5" style="visibility: inherit;" fill="rgb(0, 0, 0)" stroke="rgb(204, 204, 204)" stroke-width="1px"></line><line x1="142.97866566975912" y1="0" x2="142.97866566975912" y2="5" style="visibility: inherit;" fill="rgb(0, 0, 0)" stroke="rgb(204, 204, 204)" stroke-width="1px"></line><line x1="160.850998878479" y1="0" x2="160.850998878479" y2="5" style="visibility: inherit;" fill="rgb(0, 0, 0)" stroke="rgb(204, 204, 204)" stroke-width="1px"></line><line x1="178.72333208719888" y1="0" x2="178.72333208719888" y2="5" style="visibility: inherit;" fill="rgb(0, 0, 0)" stroke="rgb(204, 204, 204)" stroke-width="1px"></line><line x1="196.5956652959188" y1="0" x2="196.5956652959188" y2="5" style="visibility: inherit;" fill="rgb(0, 0, 0)" stroke="rgb(204, 204, 204)" stroke-width="1px"></line><line x1="214.4679985046387" y1="0" x2="214.4679985046387" y2="5" style="visibility: inherit;" fill="rgb(0, 0, 0)" stroke="rgb(204, 204, 204)" stroke-width="1px"></line><line x1="232.34033171335858" y1="0" x2="232.34033171335858" y2="5" style="visibility: inherit;" fill="rgb(0, 0, 0)" stroke="rgb(204, 204, 204)" stroke-width="1px"></line><line x1="250.2126649220785" y1="0" x2="250.2126649220785" y2="5" style="visibility: inherit;" fill="rgb(0, 0, 0)" stroke="rgb(204, 204, 204)" stroke-width="1px"></line><line x1="268.08499813079834" y1="0" x2="268.08499813079834" y2="5" style="visibility: inherit;" fill="rgb(0, 0, 0)" stroke="rgb(204, 204, 204)" stroke-width="1px"></line></g><g transform="translate(0, 8)"><text style="text-anchor: middle; visibility: hidden; font-family: Roboto, sans-serif; font-size: 12px; font-weight: 200;" x="0" y="0" dx="0em" dy="0.95em" fill="rgb(33, 33, 33)" stroke="none" stroke-width="1px">-0.2</text><text style="text-anchor: middle; visibility: inherit; font-family: Roboto, sans-serif; font-size: 12px; font-weight: 200;" x="17.87233320871989" y="0" dx="0em" dy="0.95em" fill="rgb(33, 33, 33)" stroke="none" stroke-width="1px">0</text><text style="text-anchor: middle; visibility: hidden; font-family: Roboto, sans-serif; font-size: 12px; font-weight: 200;" x="35.74466641743978" y="0" dx="0em" dy="0.95em" fill="rgb(33, 33, 33)" stroke="none" stroke-width="1px">0.2</text><text style="text-anchor: middle; visibility: inherit; font-family: Roboto, sans-serif; font-size: 12px; font-weight: 200;" x="53.616999626159675" y="0" dx="0em" dy="0.95em" fill="rgb(33, 33, 33)" stroke="none" stroke-width="1px">0.4</text><text style="text-anchor: middle; visibility: hidden; font-family: Roboto, sans-serif; font-size: 12px; font-weight: 200;" x="71.48933283487956" y="0" dx="0em" dy="0.95em" fill="rgb(33, 33, 33)" stroke="none" stroke-width="1px">0.6</text><text style="text-anchor: middle; visibility: inherit; font-family: Roboto, sans-serif; font-size: 12px; font-weight: 200;" x="89.36166604359944" y="0" dx="0em" dy="0.95em" fill="rgb(33, 33, 33)" stroke="none" stroke-width="1px">0.8</text><text style="text-anchor: middle; visibility: hidden; font-family: Roboto, sans-serif; font-size: 12px; font-weight: 200;" x="107.23399925231932" y="0" dx="0em" dy="0.95em" fill="rgb(33, 33, 33)" stroke="none" stroke-width="1px">1</text><text style="text-anchor: middle; visibility: inherit; font-family: Roboto, sans-serif; font-size: 12px; font-weight: 200;" x="125.10633246103922" y="0" dx="0em" dy="0.95em" fill="rgb(33, 33, 33)" stroke="none" stroke-width="1px">1.2</text><text style="text-anchor: middle; visibility: hidden; font-family: Roboto, sans-serif; font-size: 12px; font-weight: 200;" x="142.97866566975912" y="0" dx="0em" dy="0.95em" fill="rgb(33, 33, 33)" stroke="none" stroke-width="1px">1.4</text><text style="text-anchor: middle; visibility: inherit; font-family: Roboto, sans-serif; font-size: 12px; font-weight: 200;" x="160.850998878479" y="0" dx="0em" dy="0.95em" fill="rgb(33, 33, 33)" stroke="none" stroke-width="1px">1.6</text><text style="text-anchor: middle; visibility: hidden; font-family: Roboto, sans-serif; font-size: 12px; font-weight: 200;" x="178.72333208719888" y="0" dx="0em" dy="0.95em" fill="rgb(33, 33, 33)" stroke="none" stroke-width="1px">1.8</text><text style="text-anchor: middle; visibility: inherit; font-family: Roboto, sans-serif; font-size: 12px; font-weight: 200;" x="196.5956652959188" y="0" dx="0em" dy="0.95em" fill="rgb(33, 33, 33)" stroke="none" stroke-width="1px">2</text><text style="text-anchor: middle; visibility: hidden; font-family: Roboto, sans-serif; font-size: 12px; font-weight: 200;" x="214.4679985046387" y="0" dx="0em" dy="0.95em" fill="rgb(33, 33, 33)" stroke="none" stroke-width="1px">2.2</text><text style="text-anchor: middle; visibility: inherit; font-family: Roboto, sans-serif; font-size: 12px; font-weight: 200;" x="232.34033171335858" y="0" dx="0em" dy="0.95em" fill="rgb(33, 33, 33)" stroke="none" stroke-width="1px">2.4</text><text style="text-anchor: middle; visibility: hidden; font-family: Roboto, sans-serif; font-size: 12px; font-weight: 200;" x="250.2126649220785" y="0" dx="0em" dy="0.95em" fill="rgb(33, 33, 33)" stroke="none" stroke-width="1px">2.6</text><text style="text-anchor: middle; visibility: hidden; font-family: Roboto, sans-serif; font-size: 12px; font-weight: 200;" x="268.08499813079834" y="0" dx="0em" dy="0.95em" fill="rgb(33, 33, 33)" stroke="none" stroke-width="1px">2.8</text></g><line x1="0" y1="0" x2="268.08499813079834" y2="0" fill="rgb(0, 0, 0)" stroke="rgb(204, 204, 204)" stroke-width="1px"></line></g></g></g></g></svg>